<svg xmlns="http://www.w3.org/2000/svg" width="150" height="150" viewBox="0 0 150 150"><defs><style>.a{fill:#001c72;}.b{fill:none;}.c{fill:#fcf1e0;}</style></defs><g transform="translate(-2192.018 1148.326)"><g transform="translate(2192.018 -1148.326)"><circle class="a" cx="75" cy="75" r="75"/></g><g transform="translate(2208.606 -1131.739)"><circle class="b" cx="58.412" cy="58.412" r="58.412" transform="translate(0)"/></g><g transform="translate(2219.344 -1141.523)"><path class="c" d="M2234.794-1109.042l-1.464-1.619,5.975-5.4.591,6.127a3.74,3.74,0,0,1,5.3.588,4.318,4.318,0,0,1-.258,6.281,4.089,4.089,0,0,1-3.761,1.048,4.253,4.253,0,0,1-1.912-1.107l1.64-1.59a1.782,1.782,0,0,0,2.459,0,2,2,0,0,0,.143-2.859,1.965,1.965,0,0,0-2.873-.13,2.147,2.147,0,0,0-.671,1.062l-1.872.061-.465-5.011Z" transform="translate(-2233.33 1130.601)"/><path class="c" d="M2263.249-1130.079a5.6,5.6,0,0,1,3.4-.646,3.422,3.422,0,0,1,2.277,2.064,3.19,3.19,0,0,1,.132,2.408,2.993,2.993,0,0,1-.96,1.28,2.965,2.965,0,0,1,1.722.034,3.088,3.088,0,0,1,1.819,1.808,3.446,3.446,0,0,1-.108,3.2,5.032,5.032,0,0,1-2.463,1.756l-4.481,1.937-5.251-12.152Zm.807,5.77,1-.433c1.476-.638,1.939-1.466,1.451-2.595a1.624,1.624,0,0,0-1.319-1.051,4.151,4.151,0,0,0-1.669.44l-.875.378Zm2.228,5.155,1.22-.527a2.829,2.829,0,0,0,1.48-1.029,1.592,1.592,0,0,0,.042-1.553,1.618,1.618,0,0,0-1.291-1.085,3.353,3.353,0,0,0-1.8.433l-1.075.465Z" transform="translate(-2242.133 1135.589)"/><path class="c" d="M2285-1122.708l-2.64.649-3.157-12.851,2.64-.649Z" transform="translate(-2248.86 1137.201)"/><path class="c" d="M2299.217-1126.949l.212,2.232-7.111.675-1.251-13.174,2.706-.257,1.041,10.943Z" transform="translate(-2252.876 1137.849)"/><path class="c" d="M2314.437-1126.529l-.173,2.235-7.123-.552,1.023-13.2,2.711.21-.851,10.96Z" transform="translate(-2258.319 1138.041)"/><path class="c" d="M2324.168-1122.411l-2.651-.6,2.936-12.906,2.65.6Z" transform="translate(-2263.185 1137.323)"/><path class="c" d="M2345.822-1125.662a6.748,6.748,0,0,1-.4,5,6.77,6.77,0,0,1-8.96,3.434,6.789,6.789,0,0,1-3.508-9.038,6.829,6.829,0,0,1,9.182-3.487A6.765,6.765,0,0,1,2345.822-1125.662Zm-10.315.5a4.139,4.139,0,0,0,1.927,5.63,4.136,4.136,0,0,0,5.467-2.241,4.13,4.13,0,0,0-1.869-5.713A4.131,4.131,0,0,0,2335.506-1125.166Z" transform="translate(-2266.851 1135.453)"/><path class="c" d="M2352.635-1108.3l-2.1-1.726,8.4-10.226,2.07,1.7-.962,9.892,5.239-6.378,2.1,1.726-8.4,10.226-2.054-1.688,1.023-10Z" transform="translate(-2273.009 1132.019)"/></g><g transform="translate(2249.435 -1021.583)"><path class="c" d="M2289.268-942.518a6.6,6.6,0,0,1-5.214,1.021,6.094,6.094,0,0,1-4.272-2.859,7.324,7.324,0,0,1-.818-5.113c.775-3.952,4.015-6.249,7.772-5.513a6.45,6.45,0,0,1,4.5,3.025l-2.076,1.413a4.359,4.359,0,0,0-2.773-1.939c-2.278-.447-4.218.993-4.706,3.485a4.1,4.1,0,0,0,3.168,5.089,3.663,3.663,0,0,0,3.16-.755Z" transform="translate(-2278.822 956.175)"/><path class="c" d="M2303.861-947.814l4.644-.075.036,2.222-4.643.075.091,5.536-2.719.044-.215-13.236,7.361-.12.036,2.223-4.643.075Z" transform="translate(-2286.348 955.581)"/><path class="c" d="M2319.516-947.541a3.494,3.494,0,0,0,1.085,2.244,2.408,2.408,0,0,0,1.976.412,2.4,2.4,0,0,0,1.692-1.293,3.556,3.556,0,0,0,.018-2.4l-1.611-7.57,2.679-.57,1.593,7.492a6.063,6.063,0,0,1-.389,4.464,5.1,5.1,0,0,1-3.425,2.31,5.314,5.314,0,0,1-4.263-.777c-1.032-.754-1.61-1.849-2.035-3.848l-1.594-7.492,2.66-.566Z" transform="translate(-2291.152 956.715)"/></g><g transform="translate(2229.883 -1120.568)"><path class="c" d="M2320.554-1051.644a10.089,10.089,0,0,0-2.764,3.771l-12.381-2.843a20.262,20.262,0,0,0-4.62-15.959,20.26,20.26,0,0,0-14.17-7.113l-.278-12.467a10.1,10.1,0,0,0,4.573-2.214,10.154,10.154,0,0,0,1.166-14.311,10.154,10.154,0,0,0-14.312-1.165,10.153,10.153,0,0,0-1.166,14.311,10.1,10.1,0,0,0,6.183,3.452l.278,12.458a20.24,20.24,0,0,0-10.933,4.714,20.333,20.333,0,0,0-2.334,28.66l.03.03-4.674,4.753a10.149,10.149,0,0,0-12.308.629,10.154,10.154,0,0,0-1.166,14.312,10.153,10.153,0,0,0,14.312,1.165,10.15,10.15,0,0,0,1.7-13.615l4.682-4.76a20.323,20.323,0,0,0,26.085-.18,20.207,20.207,0,0,0,6.16-9.235l12.381,2.843a10.108,10.108,0,0,0,2.393,7.076,10.153,10.153,0,0,0,14.311,1.165,10.154,10.154,0,0,0,1.165-14.312A10.153,10.153,0,0,0,2320.554-1051.644Z" transform="translate(-2249.262 1106.36)"/></g></g></svg>