<svg width="225" height="225" viewBox="0 0 225 225" fill="none" xmlns="http://www.w3.org/2000/svg">
<circle cx="112.5" cy="112.5" r="112.5" fill="#001C72"/>
<path d="M60.0055 189.211C60.8585 187.781 61.8553 186.726 62.996 186.045C64.1324 185.363 65.3239 185.034 66.5705 185.06C67.8103 185.087 69.0087 185.446 70.1659 186.136C71.3317 186.831 72.2199 187.72 72.8308 188.802C73.4417 189.884 73.7169 191.087 73.6566 192.411C73.5963 193.735 73.1409 195.111 72.2904 196.537C71.4374 197.967 70.4427 199.024 69.3063 199.707C68.1699 200.389 66.9819 200.717 65.7421 200.69C64.4997 200.666 63.2957 200.307 62.13 199.612C60.9728 198.922 60.0888 198.036 59.4779 196.954C58.8602 195.874 58.5815 194.672 58.6419 193.347C58.698 192.02 59.1525 190.642 60.0055 189.211ZM62.8173 190.888C62.2648 191.815 61.9376 192.679 61.8358 193.481C61.7296 194.28 61.8284 194.993 62.1319 195.619C62.4354 196.246 62.9224 196.759 63.5928 197.159C64.2632 197.559 64.9462 197.743 65.6419 197.712C66.3375 197.682 67.0138 197.431 67.6708 196.96C68.3235 196.487 68.9261 195.787 69.4786 194.86C70.0311 193.934 70.3604 193.071 70.4666 192.271C70.5684 191.47 70.4675 190.756 70.164 190.129C69.8605 189.502 69.3735 188.989 68.7031 188.589C68.0327 188.189 67.3497 188.005 66.654 188.036C65.9584 188.067 65.2842 188.319 64.6315 188.792C63.9746 189.263 63.3698 189.961 62.8173 190.888Z" fill="white"/>
<path d="M44.4828 186.895L41.8334 183.922L46.6959 173.955L46.5768 173.821L36.1178 177.508L33.4683 174.535L44.8705 164.374L46.9543 166.712L39.5329 173.326L39.6172 173.42L49.6126 169.807L51.0315 171.399L46.2675 180.939L46.3519 181.034L53.8011 174.395L55.8849 176.734L44.4828 186.895Z" fill="white"/>
<path d="M21.1248 153.218L19.7811 150.282L28.7998 146.154C29.8124 145.691 30.8092 145.527 31.79 145.663C32.7688 145.795 33.6682 146.195 34.4883 146.864C35.3039 147.535 35.9744 148.445 36.4999 149.593C37.0275 150.746 37.2787 151.85 37.2534 152.906C37.2236 153.964 36.9387 154.906 36.3985 155.733C35.8583 156.56 35.0819 157.205 34.0693 157.668L25.0506 161.796L23.7068 158.86L32.4747 154.847C33.0036 154.605 33.421 154.275 33.7268 153.856C34.0306 153.432 34.2028 152.955 34.2434 152.422C34.284 151.889 34.175 151.341 33.9164 150.776C33.6557 150.206 33.3116 149.765 32.8841 149.452C32.4546 149.135 31.9814 148.955 31.4645 148.912C30.9455 148.866 30.4216 148.963 29.8927 149.205L21.1248 153.218Z" fill="white"/>
<path d="M19.8039 130.115L21.544 129.806L24.6338 136.278L22.9083 136.585L19.8039 130.115ZM30.4354 133.55L15.3985 136.223L14.8332 133.044L27.249 130.836L26.1041 124.397L28.7253 123.931L30.4354 133.55Z" fill="white"/>
<path d="M28.0433 114.769L12.7961 113.887L13.3907 103.613L16.0485 103.766L15.6405 110.817L19.2736 111.027L19.651 104.505L22.3089 104.659L21.9314 111.181L25.572 111.392L25.9818 104.311L28.6396 104.465L28.0433 114.769Z" fill="white"/>
<path d="M30.0221 95.283L15.4523 90.703L16.4206 87.6226L22.8447 89.642L22.9051 89.4499L18.1291 82.1873L19.2897 78.4951L24.1139 85.9525L33.8797 83.011L32.7213 86.6961L25.4766 88.8042L26.85 90.901L30.9904 92.2025L30.0221 95.283Z" fill="white"/>
<path d="M43.0966 65.6641L41.6236 64.4379L38.2803 51.7388L33.3949 57.608L31.3487 55.9048L38.8294 46.9176L40.3025 48.1437L43.641 60.8486L48.5312 54.9737L50.5773 56.6769L43.0966 65.6641Z" fill="white"/>
<path d="M51.0706 35.7313L60.6183 47.6517L58.098 49.6704L48.5503 37.75L51.0706 35.7313Z" fill="white"/>
<path d="M67.6616 42.5142L60.5141 29.0171L69.6088 24.201L70.8547 26.5537L64.6137 29.8587L66.3168 33.0748L72.0899 30.0176L73.3358 32.3704L67.5627 35.4276L69.2693 38.6503L75.5367 35.3313L76.7826 37.6841L67.6616 42.5142Z" fill="white"/>
<path d="M85.3962 34.2187L81.4737 19.4583L84.5944 18.6289L87.8331 30.8164L94.1611 29.1348L94.8449 31.7078L85.3962 34.2187Z" fill="white"/>
<path d="M117.426 22.3847C117.437 24.0502 117.13 25.4691 116.506 26.6415C115.888 27.8139 115.038 28.7118 113.958 29.3353C112.884 29.9538 111.673 30.2674 110.325 30.2762C108.968 30.285 107.748 29.9847 106.665 29.3752C105.582 28.7657 104.724 27.8789 104.09 26.7147C103.456 25.5504 103.134 24.1381 103.123 22.4776C103.112 20.8121 103.416 19.3932 104.035 18.2209C104.654 17.0485 105.501 16.1531 106.575 15.5346C107.65 14.9111 108.866 14.595 110.223 14.5861C111.571 14.5774 112.786 14.8778 113.869 15.4872C114.956 16.0917 115.817 16.976 116.451 18.1402C117.09 19.3044 117.415 20.7193 117.426 22.3847ZM114.152 22.406C114.145 21.3272 113.978 20.4184 113.65 19.6798C113.327 18.9411 112.873 18.3822 112.289 18.0032C111.705 17.6242 111.022 17.4372 110.242 17.4423C109.461 17.4473 108.782 17.6432 108.202 18.0297C107.623 18.4163 107.174 18.981 106.856 19.7239C106.543 20.4667 106.39 21.3775 106.397 22.4563C106.404 23.5351 106.569 24.4439 106.892 25.1826C107.22 25.9212 107.676 26.4801 108.26 26.8591C108.844 27.2381 109.526 27.4251 110.307 27.42C111.087 27.415 111.767 27.2191 112.346 26.8326C112.925 26.446 113.372 25.8813 113.685 25.1385C114.003 24.3956 114.159 23.4848 114.152 22.406Z" fill="white"/>
<path d="M143.784 19.8784L139.67 34.5866L136.984 33.8354L133.174 22.7883L133.067 22.7582L130.478 32.0155L127.368 31.1457L131.482 16.4374L134.211 17.2008L137.972 28.2266L138.101 28.2627L140.689 19.0126L143.784 19.8784Z" fill="white"/>
<path d="M165.042 39.1546C164.169 40.5728 163.157 41.6137 162.007 42.2775C160.861 42.9439 159.665 43.2554 158.419 43.212C157.179 43.167 155.986 42.7913 154.839 42.0849C153.683 41.3732 152.808 40.4721 152.212 39.3814C151.617 38.2908 151.359 37.0839 151.438 35.7606C151.517 34.4373 151.992 33.0687 152.863 31.6547C153.736 30.2366 154.746 29.1943 155.892 28.5279C157.038 27.8615 158.23 27.5509 159.47 27.5958C160.712 27.6366 161.91 28.0128 163.066 28.7245C164.213 29.4309 165.085 30.3295 165.68 31.4201C166.282 32.5091 166.544 33.7152 166.464 35.0385C166.389 36.3644 165.915 37.7364 165.042 39.1546ZM162.254 37.438C162.82 36.5194 163.16 35.6599 163.273 34.8597C163.39 34.0621 163.302 33.3478 163.007 32.7169C162.713 32.0859 162.233 31.5658 161.568 31.1565C160.904 30.7472 160.223 30.5531 159.527 30.5741C158.831 30.595 158.152 30.8362 157.488 31.2975C156.829 31.7614 156.216 32.4527 155.65 33.3713C155.085 34.29 154.743 35.1481 154.626 35.9457C154.512 36.7459 154.603 37.4615 154.898 38.0925C155.192 38.7234 155.672 39.2435 156.336 39.6528C157.001 40.0621 157.681 40.2562 158.377 40.2353C159.073 40.2143 159.751 39.9719 160.411 39.5079C161.074 39.0466 161.689 38.3566 162.254 37.438Z" fill="white"/>
<path d="M171.295 54.2237L180.152 41.0365L182.426 43.7328L175.944 52.507L176.026 52.6039L185.936 47.8942L187.883 50.2029L181.548 59.1854L181.634 59.288L191.393 54.3643L193.667 57.0606L179.175 63.5669L177.146 61.1612L182.904 52.5001L182.827 52.4089L173.324 56.6293L171.295 54.2237Z" fill="white"/>
<path d="M187.654 77.5839L186.341 74.3821L202.473 73.4686L204.051 77.3189L191.916 87.9826L190.603 84.7809L200.055 76.7725L200.01 76.6621L187.654 77.5839ZM193.126 75.1071L196.226 82.6698L193.894 83.6257L190.794 76.063L193.126 75.1071Z" fill="white"/>
<path d="M194.221 96.7103L209.367 94.742L210.143 100.717C210.292 101.861 210.214 102.864 209.91 103.726C209.612 104.592 209.118 105.285 208.428 105.806C207.745 106.331 206.902 106.658 205.901 106.788C204.896 106.919 204.002 106.815 203.221 106.475C202.445 106.135 201.811 105.578 201.32 104.804C200.829 104.036 200.508 103.07 200.356 101.907L199.836 97.9057L202.41 97.5713L202.863 101.054C202.942 101.666 203.092 102.163 203.312 102.545C203.532 102.928 203.823 103.196 204.184 103.349C204.545 103.508 204.975 103.555 205.473 103.49C205.976 103.425 206.386 103.269 206.705 103.022C207.025 102.78 207.247 102.442 207.371 102.01C207.501 101.582 207.526 101.06 207.446 100.444L207.165 98.2843L194.638 99.9124L194.221 96.7103ZM202.177 103.994L195.774 108.654L195.314 105.119L201.728 100.54L202.177 103.994Z" fill="white"/>
<path d="M204.928 128.701C205.301 128.645 205.638 128.541 205.939 128.39C206.244 128.239 206.511 128.041 206.739 127.795C206.971 127.555 207.161 127.269 207.31 126.938C207.458 126.611 207.559 126.241 207.614 125.827C207.715 125.053 207.612 124.347 207.305 123.71C206.997 123.078 206.497 122.551 205.805 122.13C205.118 121.708 204.247 121.429 203.192 121.29C202.138 121.152 201.219 121.194 200.438 121.418C199.657 121.641 199.033 122.02 198.566 122.556C198.105 123.092 197.822 123.759 197.717 124.558C197.622 125.282 197.669 125.918 197.858 126.464C198.051 127.016 198.366 127.459 198.804 127.792C199.241 128.13 199.782 128.341 200.428 128.426L200.247 129.064L200.759 125.16L203.169 125.477L202.338 131.813L200.43 131.563C199.099 131.388 197.993 130.957 197.11 130.27C196.232 129.583 195.6 128.713 195.211 127.659C194.828 126.606 194.72 125.443 194.887 124.171C195.073 122.752 195.55 121.546 196.317 120.553C197.089 119.562 198.094 118.841 199.331 118.392C200.572 117.948 201.992 117.831 203.589 118.04C204.816 118.202 205.887 118.523 206.802 119.004C207.721 119.49 208.473 120.1 209.059 120.834C209.644 121.568 210.056 122.387 210.293 123.29C210.531 124.194 210.584 125.146 210.452 126.147C210.34 127.004 210.109 127.786 209.761 128.493C209.417 129.2 208.981 129.81 208.453 130.322C207.924 130.839 207.322 131.239 206.648 131.522C205.979 131.805 205.263 131.949 204.501 131.954L204.928 128.701Z" fill="white"/>
<path d="M193.409 155.744C191.882 155.081 190.708 154.227 189.888 153.182C189.066 152.142 188.588 151.002 188.454 149.763C188.323 148.53 188.526 147.295 189.063 146.059C189.603 144.814 190.371 143.82 191.366 143.076C192.362 142.332 193.52 141.905 194.841 141.796C196.162 141.687 197.584 141.963 199.107 142.625C200.635 143.288 201.81 144.14 202.632 145.18C203.454 146.22 203.931 147.356 204.062 148.59C204.197 149.825 203.995 151.065 203.454 152.31C202.917 153.545 202.152 154.535 201.156 155.279C200.164 156.03 199.007 156.46 197.686 156.569C196.362 156.683 194.937 156.408 193.409 155.744ZM194.714 152.741C195.703 153.171 196.602 153.385 197.41 153.384C198.216 153.387 198.911 153.198 199.494 152.817C200.077 152.436 200.523 151.888 200.834 151.172C201.145 150.456 201.241 149.755 201.122 149.069C201.002 148.383 200.667 147.744 200.116 147.153C199.564 146.566 198.793 146.057 197.803 145.628C196.814 145.198 195.916 144.981 195.109 144.978C194.301 144.979 193.606 145.171 193.023 145.552C192.44 145.933 191.993 146.481 191.682 147.197C191.371 147.913 191.276 148.614 191.395 149.3C191.514 149.986 191.85 150.623 192.403 151.209C192.954 151.801 193.724 152.312 194.714 152.741Z" fill="white"/>
<path d="M179.379 164.07L193.688 170.968L191.342 173.602L181.737 168.429L181.653 168.523L187.72 177.666L185.71 179.921L175.92 174.922L175.831 175.022L182.088 183.985L179.742 186.618L171.247 173.195L173.341 170.845L182.73 175.317L182.81 175.228L177.285 166.419L179.379 164.07Z" fill="white"/>
<path d="M169.351 194.956L166.233 196.788L159.898 192.881L159.769 192.956L160.099 200.392L156.98 202.224L156.782 190.889L154.046 186.234L156.811 184.609L159.546 189.264L169.351 194.956Z" fill="white"/>
<path d="M97.9619 97.7195L83.2254 85.2841C81.9581 84.2146 80.3444 83.625 78.6841 83.625C75.1753 83.625 72.1794 86.2406 71.7164 89.7082L69.4266 106.837C69.2034 108.502 68.4241 110.075 67.2334 111.264C65.145 113.345 63.996 116.112 63.996 119.055V124.749L61.9793 128.772C60.0308 132.659 59 137.012 59 141.36C59 146.251 60.2856 151.08 62.7187 155.323L63.5713 156.811C65.2916 159.814 68.5157 161.679 71.9829 161.679H73.2235C74.4842 161.679 75.7032 162.047 76.7507 162.745L77.0488 162.942C79.0755 164.288 81.4319 165 83.8666 165C87.5869 165 91.1407 163.228 93.3739 160.26C94.2699 159.07 95.6954 158.357 97.1892 158.357C99.9037 158.357 102.425 157.012 103.929 154.76L104.656 153.674C109.651 146.202 112.29 137.505 112.29 128.527C112.29 121.687 110.528 114.91 107.198 108.928C104.815 104.651 101.709 100.88 97.9619 97.7195ZM101.884 151.831L101.156 152.917C100.272 154.244 98.7879 155.036 97.1892 155.036C94.6512 155.036 92.2282 156.245 90.7094 158.267C89.1024 160.403 86.5444 161.679 83.8666 161.679C82.0914 161.679 80.3727 161.16 78.8956 160.179L78.5992 159.981C77.0038 158.918 75.1436 158.357 73.2235 158.357H71.9829C69.708 158.357 67.5914 157.133 66.4623 155.162L65.6097 153.674C63.4647 149.932 62.3306 145.673 62.3306 141.36C62.3306 137.525 63.2399 133.687 64.9585 130.258L67.3266 125.535V119.055C67.3266 116.999 68.1293 115.066 69.5881 113.611C71.2934 111.91 72.4092 109.66 72.7273 107.275L75.0171 90.1483C75.2619 88.3232 76.8389 86.9464 78.6841 86.9464C79.5584 86.9464 80.4061 87.257 81.0739 87.8183L95.8103 100.254C99.2475 103.155 102.1 106.616 104.287 110.54C107.344 116.031 108.96 122.25 108.96 128.527C108.96 136.849 106.513 144.905 101.884 151.831Z" fill="white"/>
<path d="M154.616 83.3277L153.888 82.2416C152.385 79.988 149.863 78.6429 147.149 78.6429C145.655 78.6429 144.23 77.9321 143.334 76.7397C141.102 73.772 137.548 72 133.826 72C131.392 72 129.033 72.7124 127.008 74.0593L126.71 74.2569C125.663 74.9528 124.442 75.3214 123.183 75.3214H121.943C118.474 75.3214 115.251 77.1881 113.531 80.189L112.678 81.6753C110.245 85.9218 108.96 90.7511 108.96 95.6403C108.96 99.9864 109.99 104.337 111.939 108.227L113.956 112.249V117.945C113.956 120.89 115.105 123.657 117.193 125.737C118.384 126.926 119.163 128.497 119.386 130.165L121.676 147.292C122.141 150.761 125.135 153.375 128.644 153.375C130.302 153.375 131.914 152.787 133.185 151.718L147.922 139.282C151.669 136.122 154.774 132.349 157.157 128.072C160.488 122.09 162.25 115.313 162.25 108.473C162.25 99.4931 159.61 90.7976 154.616 83.3277ZM145.77 136.745L131.034 149.18C130.366 149.743 129.518 150.054 128.644 150.054C126.799 150.054 125.222 148.679 124.977 146.853L122.687 129.726C122.369 127.338 121.253 125.09 119.548 123.389C118.089 121.934 117.286 120.001 117.286 117.945V111.857V111.465V106.691C117.286 102.921 118.64 99.2706 121.1 96.4108C124.454 92.5065 129.335 90.2679 134.491 90.2679C139.973 90.2679 145.047 92.7423 148.413 97.0569C151.967 101.614 153.923 107.302 153.923 113.074C153.923 115.506 153.77 117.96 153.469 120.37L152.32 129.532C150.466 132.208 148.278 134.629 145.77 136.745ZM156.764 120.847L156.773 120.782C157.092 118.238 157.254 115.644 157.254 113.074C157.254 106.568 155.047 100.156 151.042 95.0175C147.041 89.8876 141.007 86.9464 134.491 86.9464C128.361 86.9464 122.559 89.6086 118.57 94.2486C116.017 97.2179 114.459 100.891 114.062 104.753C113.196 102.562 112.642 100.257 112.424 97.9121L112.562 97.585C113.449 95.5921 114.618 93.7437 116.041 92.088C120.664 86.7089 127.388 83.625 134.491 83.625C135.886 83.625 137.288 83.7429 138.654 83.9754L139.215 80.7005C137.663 80.4381 136.074 80.3036 134.491 80.3036C126.414 80.3036 118.768 83.811 113.513 89.9257C113.25 90.233 113.005 90.5552 112.757 90.874C113.276 88.2302 114.224 85.676 115.571 83.3227L116.424 81.8364C117.551 79.8668 119.666 78.6429 121.943 78.6429H123.183C125.102 78.6429 126.96 78.0815 128.559 77.0203L128.857 76.8227C130.332 75.8396 132.051 75.3214 133.826 75.3214C136.504 75.3214 139.062 76.5969 140.669 78.7342C142.191 80.7569 144.613 81.9643 147.149 81.9643C148.748 81.9643 150.231 82.7564 151.117 84.0817L151.845 85.1695C152.448 86.0712 153.009 86.9929 153.537 87.9312C151.885 86.3519 150.07 84.9652 148.07 83.8392L146.433 86.7305C149.234 88.3082 151.669 90.4107 153.672 92.9781C155.181 94.9129 156.475 97.0286 157.512 99.2606L158.168 100.694C158.65 103.245 158.921 105.842 158.921 108.473C158.919 112.694 158.172 116.882 156.764 120.847Z" fill="white"/>
<path d="M145.783 99.0963C143.052 95.5972 138.935 93.5894 134.491 93.5894C130.309 93.5894 126.349 95.4062 123.628 98.5715C121.686 100.83 120.617 103.713 120.617 106.691V115.179H123.948V106.691C123.948 104.507 124.732 102.391 126.157 100.735C128.246 98.3041 131.282 96.9108 134.491 96.9108C137.901 96.9108 141.059 98.4519 143.155 101.137C145.803 104.53 147.262 108.77 147.262 113.073C147.262 115.232 147.126 117.409 146.859 119.545L145.662 129.094L148.966 129.506L150.163 119.957C150.448 117.686 150.593 115.37 150.593 113.073C150.593 108.034 148.886 103.07 145.783 99.0963Z" fill="white"/>
<path d="M123.948 118.5H120.617V121.821H123.948V118.5Z" fill="white"/>
<path d="M100.998 113.855C100.76 113.378 100.633 112.844 100.633 112.312C100.633 110.53 99.9087 108.787 98.6447 107.526L95.0559 103.954L84.1847 94.6622C83.377 93.9697 82.3445 93.5894 81.2787 93.5894C79.1588 93.5894 77.3169 95.0956 76.9006 97.1682L76.3777 99.7755C75.8964 102.174 75.6533 104.628 75.6533 107.073C75.6533 111.151 74.9255 115.154 73.49 118.97C71.7447 123.612 70.8355 128.468 70.7089 133.41L70.6889 133.413C70.6923 133.438 70.7023 133.466 70.7056 133.491C70.6956 133.843 70.6573 134.194 70.6573 134.548V137.108C70.6573 139.241 70.9554 141.363 71.5416 143.409L71.7098 143.995C73.2918 149.519 78.4194 153.375 84.1797 153.375C86.5311 153.375 88.8376 152.737 90.851 151.532L92.2049 150.723C95.3307 148.851 97.5339 145.732 98.2484 142.17L98.7046 139.89C98.8046 139.39 99.0211 138.91 99.3291 138.5L99.534 138.228C102.392 134.43 103.964 129.726 103.964 124.98C103.964 121.571 103.156 118.156 101.627 115.107L100.998 113.855ZM96.8728 136.235L96.668 136.507C96.0634 137.309 95.6388 138.256 95.4423 139.239L94.986 141.518C94.4547 144.166 92.8177 146.483 90.4946 147.875L89.139 148.684C87.6419 149.58 85.9266 150.054 84.1797 150.054C79.8982 150.054 76.0879 147.186 74.9122 143.085L74.8073 142.718C77.2037 145.213 80.566 146.732 84.1797 146.732C86.5311 146.732 88.8376 146.094 90.851 144.889L92.2049 144.08L90.4929 141.232L89.1374 142.041C87.6419 142.937 85.9266 143.411 84.1797 143.411C79.8982 143.411 76.0879 140.543 74.9122 136.442L74.5708 135.263C74.3693 134.584 74.1628 133.847 74.0462 133.226C74.1894 128.745 75.0238 124.347 76.6075 120.136C78.1845 115.946 78.9839 111.55 78.9839 107.073C78.9839 104.846 79.2054 102.61 79.6434 100.428L80.1663 97.8209C80.2712 97.2927 80.7392 96.9108 81.2787 96.9108C81.5502 96.9108 81.8116 97.0071 82.0165 97.1831L92.7944 106.388L96.2899 109.874C96.9327 110.515 97.3024 111.405 97.3024 112.312C97.3024 113.357 97.5506 114.403 98.0185 115.34L98.6464 116.594C99.9453 119.184 100.631 122.086 100.631 124.982C100.633 129.012 99.2975 133.008 96.8728 136.235Z" fill="white"/>
</svg>
