<svg width="225" height="225" viewBox="0 0 225 225" fill="none" xmlns="http://www.w3.org/2000/svg">
<circle cx="112.5" cy="112.5" r="112.5" fill="#001C72"/>
<path d="M24.7204 108.969C24.3607 109.084 24.0445 109.239 23.7718 109.436C23.4941 109.633 23.2623 109.871 23.0766 110.15C22.8857 110.424 22.7432 110.737 22.6491 111.088C22.5549 111.434 22.5139 111.815 22.5262 112.233C22.5492 113.013 22.7632 113.693 23.1682 114.273C23.5731 114.848 24.1507 115.289 24.9008 115.596C25.6459 115.903 26.5502 116.04 27.6137 116.01C28.6772 115.979 29.5769 115.791 30.3128 115.447C31.0487 115.102 31.6042 114.628 31.9794 114.026C32.3496 113.423 32.5228 112.719 32.4991 111.914C32.4776 111.184 32.33 110.564 32.0563 110.054C31.7776 109.54 31.3956 109.153 30.9105 108.894C30.4252 108.629 29.8571 108.507 29.2061 108.525L29.2837 107.867L29.3997 111.802L26.9696 111.873L26.7813 105.485L28.7045 105.429C30.0463 105.39 31.2076 105.64 32.1883 106.179C33.1641 106.717 33.9276 107.476 34.4787 108.455C35.0248 109.434 35.3167 110.564 35.3545 111.846C35.3967 113.278 35.1182 114.544 34.519 115.646C33.9148 116.747 33.0377 117.618 31.8878 118.258C30.7327 118.894 29.3501 119.235 27.74 119.281C26.5026 119.317 25.3941 119.17 24.4145 118.84C23.4297 118.506 22.5899 118.023 21.8948 117.391C21.1998 116.76 20.6631 116.017 20.2848 115.163C19.9065 114.308 19.7025 113.376 19.6727 112.368C19.6473 111.503 19.7503 110.694 19.9817 109.941C20.2082 109.189 20.5416 108.518 20.9818 107.928C21.4219 107.333 21.952 106.843 22.5723 106.457C23.1877 106.071 23.8715 105.815 24.6238 105.689L24.7204 108.969Z" fill="white"/>
<path d="M35.5644 102.121L20.5304 99.431L21.6099 93.5029C21.8166 92.3682 22.196 91.4361 22.7483 90.7066C23.2965 89.9714 23.9784 89.4596 24.794 89.1712C25.6056 88.877 26.5081 88.8188 27.5015 88.9965C28.4999 89.1752 29.3196 89.5441 29.9606 90.1032C30.5967 90.6615 31.0313 91.3832 31.2642 92.2683C31.4981 93.1486 31.51 94.1658 31.2998 95.3201L30.577 99.2893L28.0224 98.8322L28.6516 95.3766C28.7621 94.7701 28.7706 94.2514 28.6773 93.8206C28.5839 93.3897 28.3887 93.0467 28.0915 92.7915C27.7952 92.5314 27.4 92.3572 26.9057 92.2687C26.4065 92.1794 25.9674 92.2044 25.5883 92.3436C25.2101 92.4779 24.8959 92.7323 24.6458 93.1068C24.3917 93.4755 24.209 93.9655 24.0977 94.5769L23.7076 96.7192L36.1429 98.9444L35.5644 102.121ZM30.2004 92.7825L37.722 90.2723L37.0834 93.7793L29.5765 96.2088L30.2004 92.7825Z" fill="white"/>
<path d="M28.2008 73.0326L29.4268 70.0453L38.6252 73.7549C39.6581 74.1714 40.4608 74.7819 41.0334 75.5865C41.6079 76.3864 41.9316 77.313 42.0045 78.3662C42.0728 79.4176 41.8672 80.5274 41.3878 81.6956C40.9064 82.8685 40.2711 83.8077 39.4817 84.5132C38.6878 85.2169 37.8035 85.6563 36.8288 85.8314C35.8541 86.0066 34.8503 85.8859 33.8175 85.4694L24.619 81.7598L25.845 78.7725L34.7876 82.3789C35.3271 82.5965 35.8547 82.6726 36.3706 82.6072C36.8883 82.5373 37.3558 82.3345 37.773 81.9988C38.1902 81.6632 38.5167 81.2079 38.7527 80.633C38.9905 80.0535 39.0773 79.5015 39.0131 78.9771C38.9508 78.448 38.758 77.9816 38.4347 77.5779C38.1133 77.1695 37.6828 76.8565 37.1433 76.639L28.2008 73.0326ZM24.7069 77.421C24.5446 77.8166 24.2666 78.1011 23.8729 78.2747C23.4746 78.4464 23.0841 78.4551 22.7014 78.3008C22.3095 78.1428 22.0361 77.8663 21.8811 77.4714C21.7261 77.0766 21.7297 76.6814 21.8921 76.2858C22.0563 75.8857 22.331 75.6025 22.7163 75.4362C23.1035 75.2654 23.4931 75.259 23.885 75.417C24.2677 75.5714 24.5421 75.8455 24.7082 76.2395C24.8716 76.627 24.8712 77.0209 24.7069 77.421ZM26.4397 73.1988C26.2774 73.5944 25.9994 73.8789 25.6057 74.0525C25.2074 74.2243 24.817 74.233 24.4343 74.0786C24.0423 73.9206 23.7689 73.6441 23.6139 73.2493C23.4589 72.8544 23.4625 72.4592 23.6249 72.0637C23.7891 71.6635 24.0639 71.3803 24.4491 71.2141C24.8363 71.0432 25.2259 71.0368 25.6178 71.1949C26.0005 71.3492 26.2749 71.6234 26.441 72.0173C26.6044 72.4049 26.604 72.7987 26.4397 73.1988Z" fill="white"/>
<path d="M40.4165 53.2306L53.0176 61.8602L51.4229 64.1484L39.6927 64.1682L39.6287 64.26L47.5597 69.6914L45.7135 72.3405L33.1124 63.7109L34.7327 61.3861L46.4269 61.4048L46.5036 61.2947L38.5788 55.8675L40.4165 53.2306Z" fill="white"/>
<path d="M55.9244 59.0568L45.2574 48.1265L47.588 45.8916L56.3956 54.9165L61.1214 50.3847L62.9808 52.29L55.9244 59.0568Z" fill="white"/>
<path d="M59.8823 35.8541L68.8497 48.2171L66.2202 50.0912L57.2528 37.7283L59.8823 35.8541Z" fill="white"/>
<path d="M73.3042 45.3294L66.3728 31.7201L71.7613 29.0234C72.7972 28.505 73.7801 28.2605 74.71 28.2898C75.6377 28.3148 76.4698 28.5794 77.2064 29.0835C77.9452 29.5811 78.5447 30.2817 79.005 31.1854C79.4653 32.0892 79.6758 32.9845 79.6365 33.8714C79.5973 34.7583 79.3046 35.5802 78.7584 36.3372C78.2167 37.092 77.4212 37.7319 76.372 38.257L72.9375 39.9759L71.7631 37.67L74.7308 36.1848C75.2865 35.9067 75.6959 35.5822 75.959 35.2115C76.2243 34.8342 76.359 34.4304 76.3631 34.0003C76.3694 33.5635 76.2586 33.1214 76.0307 32.674C75.8006 32.2221 75.5086 31.8734 75.1549 31.628C74.8033 31.3758 74.3978 31.248 73.9385 31.2444C73.4769 31.2363 72.966 31.3725 72.4059 31.6528L70.4585 32.6274L76.1918 43.8843L73.3042 45.3294Z" fill="white"/>
<path d="M87.0822 39.1056L82.9733 24.396L88.7839 22.801C89.901 22.4944 90.9122 22.4463 91.8175 22.6566C92.7215 22.8622 93.4846 23.2842 94.1069 23.9228C94.7326 24.5553 95.1819 25.36 95.4548 26.3368C95.7277 27.3136 95.7575 28.2334 95.5442 29.0962C95.331 29.9589 94.8822 30.7085 94.1979 31.3448C93.5185 31.9799 92.613 32.4527 91.4816 32.7632L87.778 33.7798L87.0818 31.2875L90.282 30.4091C90.8813 30.2446 91.3463 30.0061 91.6771 29.6936C92.0114 29.375 92.2229 29.0051 92.3117 28.5837C92.404 28.1563 92.3825 27.7008 92.2474 27.2172C92.111 26.7287 91.8937 26.3296 91.5955 26.0196C91.3007 25.7035 90.9287 25.4989 90.4794 25.4057C90.0287 25.3077 89.5014 25.3416 88.8973 25.5074L86.7974 26.0838L90.1961 38.2509L87.0822 39.1056Z" fill="white"/>
<path d="M101.848 35.6901L100.649 20.4645L110.91 19.6703L111.119 22.3244L104.078 22.8694L104.363 26.4973L110.877 25.9932L111.086 28.6473L104.572 29.1514L104.859 32.7868L111.93 32.2395L112.139 34.8936L101.848 35.6901Z" fill="white"/>
<path d="M130.698 21.47L128.783 36.6221L126.015 36.2783L120.627 25.9224L120.516 25.9086L119.31 35.4453L116.106 35.0472L118.021 19.8951L120.833 20.2445L126.171 30.5864L126.304 30.603L127.509 21.0737L130.698 21.47Z" fill="white"/>
<path d="M138.05 23.2934L141.776 24.699L142.034 35.7632L142.201 35.8263L149.814 27.7312L153.54 29.1368L148.066 43.3949L145.136 42.2894L148.698 33.0091L148.58 32.9643L141.346 40.78L139.35 40.0272L139.202 29.3866L139.083 29.3419L135.507 38.657L132.576 37.5515L138.05 23.2934Z" fill="white"/>
<path d="M167.49 38.1655L170.158 39.9848L164.503 48.1331C163.868 49.048 163.093 49.6987 162.177 50.0851C161.266 50.4744 160.284 50.5935 159.233 50.4424C158.185 50.2873 157.139 49.8539 156.096 49.1425C155.049 48.4282 154.265 47.6136 153.744 46.6988C153.226 45.7798 152.987 44.8288 153.028 43.8458C153.069 42.8627 153.407 41.9137 154.042 40.9988L159.697 32.8505L162.364 34.6698L156.867 42.5914C156.535 43.0693 156.345 43.5655 156.296 44.08C156.252 44.5973 156.349 45.0938 156.588 45.5695C156.827 46.0452 157.203 46.4581 157.716 46.8083C158.234 47.1612 158.757 47.3617 159.286 47.4098C159.82 47.4607 160.32 47.3718 160.788 47.143C161.259 46.917 161.661 46.565 161.993 46.0871L167.49 38.1655Z" fill="white"/>
<path d="M178.1 53.8854C178.497 53.4296 178.659 52.9243 178.589 52.3693C178.518 51.8144 178.214 51.2571 177.677 50.6975C177.312 50.3173 176.95 50.0474 176.59 49.8878C176.234 49.7249 175.894 49.6621 175.572 49.6996C175.253 49.7406 174.974 49.8737 174.735 50.0988C174.53 50.2792 174.396 50.4842 174.333 50.7137C174.275 50.9468 174.268 51.1953 174.315 51.459C174.365 51.7193 174.452 51.9928 174.575 52.2795C174.702 52.5628 174.854 52.8502 175.03 53.1417L175.742 54.3568C176.094 54.9398 176.373 55.5175 176.578 56.0898C176.782 56.6621 176.894 57.2198 176.912 57.7629C176.93 58.3061 176.838 58.8272 176.635 59.3263C176.435 59.8289 176.105 60.3003 175.646 60.7405C174.962 61.3781 174.207 61.7619 173.381 61.8918C172.562 62.0219 171.709 61.8973 170.821 61.518C169.94 61.1388 169.07 60.5009 168.209 59.6041C167.356 58.7145 166.75 57.81 166.391 56.8908C166.036 55.9751 165.951 55.0784 166.135 54.2008C166.327 53.3233 166.814 52.4987 167.596 51.7269L169.759 53.9815C169.411 54.3579 169.201 54.757 169.131 55.1789C169.067 55.601 169.123 56.0295 169.3 56.4646C169.483 56.8998 169.768 57.3183 170.153 57.72C170.532 58.1146 170.918 58.4026 171.313 58.584C171.711 58.7691 172.09 58.8451 172.452 58.8121C172.813 58.7791 173.127 58.6364 173.395 58.384C173.644 58.1487 173.783 57.8773 173.812 57.5699C173.845 57.2661 173.786 56.9181 173.637 56.5257C173.491 56.1369 173.275 55.6956 172.987 55.2018L172.139 53.7154C171.476 52.5714 171.128 51.5019 171.096 50.5068C171.065 49.5117 171.461 48.6288 172.286 47.8581C172.955 47.2202 173.713 46.8435 174.56 46.7281C175.411 46.6163 176.28 46.7431 177.168 47.1084C178.056 47.4737 178.885 48.0581 179.656 48.8616C180.441 49.6795 180.985 50.5264 181.288 51.4022C181.595 52.2817 181.66 53.1288 181.484 53.9437C181.308 54.7586 180.895 55.4835 180.243 56.1184L178.1 53.8854Z" fill="white"/>
<path d="M190.098 72.825L188.373 70.0516C188.702 69.7806 188.958 69.4814 189.14 69.154C189.328 68.8241 189.445 68.4758 189.492 68.1091C189.539 67.7424 189.515 67.3662 189.422 66.9805C189.331 66.5991 189.17 66.2226 188.939 65.8512C188.521 65.18 187.99 64.6977 187.345 64.4045C186.704 64.1086 185.98 64.018 185.173 64.1326C184.371 64.2446 183.518 64.5767 182.614 65.1291C181.685 65.6969 180.99 66.3113 180.529 66.972C180.07 67.637 179.834 68.3171 179.822 69.0123C179.809 69.7075 180.007 70.3822 180.414 71.0365C180.642 71.4038 180.902 71.7138 181.194 71.9665C181.489 72.2235 181.806 72.4173 182.145 72.5481C182.488 72.6762 182.845 72.7375 183.216 72.732C183.59 72.7307 183.971 72.6553 184.358 72.506L186.071 75.2872C185.428 75.5811 184.739 75.7543 184.005 75.807C183.278 75.8613 182.546 75.7813 181.81 75.5672C181.08 75.3547 180.382 74.9948 179.715 74.4877C179.055 73.9821 178.467 73.3136 177.949 72.482C177.23 71.3253 176.849 70.1303 176.808 68.897C176.769 67.6678 177.084 66.4847 177.753 65.3477C178.424 64.2149 179.468 63.2154 180.885 62.3493C182.306 61.4806 183.68 61.0075 185.008 60.93C186.335 60.8525 187.544 61.1102 188.633 61.7031C189.726 62.2933 190.627 63.1583 191.336 64.2981C191.804 65.0495 192.131 65.8108 192.318 66.5821C192.508 67.3577 192.554 68.119 192.457 68.866C192.364 69.6105 192.122 70.3178 191.731 70.988C191.342 71.6625 190.798 72.2748 190.098 72.825Z" fill="white"/>
<path d="M182.793 81.0199L197.233 76.0459L198.302 79.0931L192.344 81.1454L194.512 87.3314L200.47 85.2791L201.536 88.3193L187.096 93.2933L186.03 90.2531L191.995 88.1984L189.827 82.0124L183.862 84.0671L182.793 81.0199Z" fill="white"/>
<path d="M187.644 97.0079L202.787 95.0175L204.151 105.218L201.512 105.565L200.575 98.565L196.967 99.0393L197.833 105.514L195.194 105.861L194.328 99.3862L190.712 99.8615L191.652 106.891L189.013 107.238L187.644 97.0079Z" fill="white"/>
<path d="M188.958 111.219L204.212 111.976L204.049 115.201L191.454 114.576L191.124 121.116L188.465 120.984L188.958 111.219Z" fill="white"/>
<path d="M98.9619 107.719L84.2254 95.2841C82.9581 94.2146 81.3444 93.625 79.6841 93.625C76.1753 93.625 73.1794 96.2406 72.7164 99.7082L70.4266 116.837C70.2034 118.502 69.4241 120.075 68.2334 121.264C66.145 123.345 64.996 126.112 64.996 129.055V134.749L62.9793 138.772C61.0308 142.659 60 147.012 60 151.36C60 156.251 61.2856 161.08 63.7187 165.323L64.5713 166.811C66.2916 169.814 69.5157 171.679 72.9829 171.679H74.2235C75.4842 171.679 76.7032 172.047 77.7507 172.745L78.0488 172.942C80.0755 174.288 82.4319 175 84.8666 175C88.5869 175 92.1407 173.228 94.3739 170.26C95.2699 169.07 96.6954 168.357 98.1892 168.357C100.904 168.357 103.425 167.012 104.929 164.76L105.656 163.674C110.651 156.202 113.29 147.505 113.29 138.527C113.29 131.687 111.528 124.91 108.198 118.928C105.815 114.651 102.709 110.88 98.9619 107.719ZM102.884 161.831L102.156 162.917C101.272 164.244 99.7879 165.036 98.1892 165.036C95.6512 165.036 93.2282 166.245 91.7094 168.267C90.1024 170.403 87.5444 171.679 84.8666 171.679C83.0914 171.679 81.3727 171.16 79.8956 170.179L79.5992 169.981C78.0038 168.918 76.1436 168.357 74.2235 168.357H72.9829C70.708 168.357 68.5914 167.133 67.4623 165.162L66.6097 163.674C64.4647 159.932 63.3306 155.673 63.3306 151.36C63.3306 147.525 64.2399 143.687 65.9585 140.258L68.3266 135.535V129.055C68.3266 126.999 69.1293 125.066 70.5881 123.611C72.2934 121.91 73.4092 119.66 73.7273 117.275L76.0171 100.148C76.2619 98.3232 77.8389 96.9464 79.6841 96.9464C80.5584 96.9464 81.4061 97.257 82.0739 97.8183L96.8103 110.254C100.248 113.155 103.1 116.616 105.287 120.54C108.344 126.031 109.96 132.25 109.96 138.527C109.96 146.849 107.513 154.905 102.884 161.831Z" fill="white"/>
<path d="M155.616 93.3277L154.888 92.2416C153.385 89.988 150.863 88.6429 148.149 88.6429C146.655 88.6429 145.23 87.9321 144.334 86.7397C142.102 83.772 138.548 82 134.826 82C132.392 82 130.033 82.7124 128.008 84.0593L127.71 84.2569C126.663 84.9528 125.442 85.3214 124.183 85.3214H122.943C119.474 85.3214 116.251 87.1881 114.531 90.189L113.678 91.6753C111.245 95.9218 109.96 100.751 109.96 105.64C109.96 109.986 110.991 114.337 112.939 118.227L114.956 122.249V127.945C114.956 130.89 116.105 133.657 118.193 135.737C119.384 136.926 120.163 138.497 120.386 140.165L122.676 157.292C123.141 160.761 126.135 163.375 129.644 163.375C131.302 163.375 132.914 162.787 134.185 161.718L148.922 149.282C152.669 146.122 155.774 142.349 158.157 138.072C161.488 132.09 163.25 125.313 163.25 118.473C163.25 109.493 160.61 100.798 155.616 93.3277ZM146.77 146.745L132.034 159.18C131.366 159.743 130.518 160.054 129.644 160.054C127.799 160.054 126.222 158.679 125.977 156.853L123.687 139.726C123.369 137.338 122.253 135.09 120.548 133.389C119.089 131.934 118.286 130.001 118.286 127.945V121.857V121.465V116.691C118.286 112.921 119.64 109.271 122.1 106.411C125.454 102.506 130.335 100.268 135.491 100.268C140.973 100.268 146.047 102.742 149.413 107.057C152.967 111.614 154.923 117.302 154.923 123.074C154.923 125.506 154.77 127.96 154.469 130.37L153.32 139.532C151.466 142.208 149.278 144.629 146.77 146.745ZM157.764 130.847L157.773 130.782C158.092 128.238 158.254 125.644 158.254 123.074C158.254 116.568 156.047 110.156 152.042 105.018C148.041 99.8876 142.007 96.9464 135.491 96.9464C129.361 96.9464 123.559 99.6086 119.57 104.249C117.017 107.218 115.459 110.891 115.062 114.753C114.196 112.562 113.642 110.257 113.424 107.912L113.562 107.585C114.449 105.592 115.618 103.744 117.041 102.088C121.664 96.7089 128.388 93.625 135.491 93.625C136.886 93.625 138.288 93.7429 139.654 93.9754L140.215 90.7005C138.663 90.4381 137.074 90.3036 135.491 90.3036C127.414 90.3036 119.768 93.811 114.513 99.9257C114.25 100.233 114.005 100.555 113.757 100.874C114.276 98.2302 115.224 95.676 116.571 93.3227L117.424 91.8364C118.551 89.8668 120.666 88.6429 122.943 88.6429H124.183C126.102 88.6429 127.96 88.0815 129.559 87.0203L129.857 86.8227C131.332 85.8396 133.051 85.3214 134.826 85.3214C137.504 85.3214 140.062 86.5969 141.669 88.7342C143.191 90.7569 145.613 91.9643 148.149 91.9643C149.748 91.9643 151.231 92.7564 152.117 94.0817L152.845 95.1695C153.448 96.0712 154.009 96.9929 154.537 97.9312C152.885 96.3519 151.07 94.9652 149.07 93.8392L147.433 96.7305C150.234 98.3082 152.669 100.411 154.672 102.978C156.181 104.913 157.475 107.029 158.512 109.261L159.168 110.694C159.65 113.245 159.921 115.842 159.921 118.473C159.919 122.694 159.172 126.882 157.764 130.847Z" fill="white"/>
<path d="M146.783 109.096C144.052 105.597 139.935 103.589 135.491 103.589C131.309 103.589 127.349 105.406 124.628 108.571C122.686 110.83 121.617 113.713 121.617 116.691V125.179H124.948V116.691C124.948 114.507 125.732 112.391 127.157 110.735C129.246 108.304 132.282 106.911 135.491 106.911C138.901 106.911 142.059 108.452 144.155 111.137C146.803 114.53 148.262 118.77 148.262 123.073C148.262 125.232 148.126 127.409 147.859 129.545L146.662 139.094L149.966 139.506L151.163 129.957C151.448 127.686 151.593 125.37 151.593 123.073C151.593 118.034 149.886 113.07 146.783 109.096Z" fill="white"/>
<path d="M124.948 128.5H121.617V131.821H124.948V128.5Z" fill="white"/>
<path d="M101.998 123.855C101.76 123.378 101.633 122.844 101.633 122.312C101.633 120.53 100.909 118.787 99.6447 117.526L96.0559 113.954L85.1847 104.662C84.377 103.97 83.3445 103.589 82.2787 103.589C80.1587 103.589 78.3169 105.096 77.9006 107.168L77.3776 109.776C76.8964 112.174 76.6532 114.628 76.6532 117.073C76.6532 121.151 75.9255 125.154 74.49 128.97C72.7447 133.612 71.8354 138.468 71.7089 143.41L71.6889 143.413C71.6922 143.438 71.7022 143.466 71.7056 143.491C71.6956 143.843 71.6573 144.194 71.6573 144.548V147.108C71.6573 149.241 71.9554 151.363 72.5415 153.409L72.7097 153.995C74.2918 159.519 79.4193 163.375 85.1797 163.375C87.5311 163.375 89.8376 162.737 91.851 161.532L93.2049 160.723C96.3307 158.851 98.5339 155.732 99.2483 152.17L99.7046 149.89C99.8045 149.39 100.021 148.91 100.329 148.5L100.534 148.228C103.392 144.43 104.964 139.726 104.964 134.98C104.964 131.571 104.156 128.156 102.627 125.107L101.998 123.855ZM97.8728 146.235L97.6679 146.507C97.0634 147.309 96.6388 148.256 96.4423 149.239L95.986 151.518C95.4547 154.166 93.8177 156.483 91.4946 157.875L90.139 158.684C88.6419 159.58 86.9266 160.054 85.1797 160.054C80.8981 160.054 77.0879 157.186 75.9122 153.085L75.8072 152.718C78.2036 155.213 81.5659 156.732 85.1797 156.732C87.5311 156.732 89.8376 156.094 91.851 154.889L93.2049 154.08L91.4929 151.232L90.1373 152.041C88.6419 152.937 86.9266 153.411 85.1797 153.411C80.8981 153.411 77.0879 150.543 75.9122 146.442L75.5708 145.263C75.3693 144.584 75.1628 143.847 75.0462 143.226C75.1894 138.745 76.0237 134.347 77.6075 130.136C79.1845 125.946 79.9839 121.55 79.9839 117.073C79.9839 114.846 80.2054 112.61 80.6433 110.428L81.1662 107.821C81.2712 107.293 81.7391 106.911 82.2787 106.911C82.5501 106.911 82.8116 107.007 83.0164 107.183L93.7944 116.388L97.2899 119.874C97.9327 120.515 98.3024 121.405 98.3024 122.312C98.3024 123.357 98.5506 124.403 99.0185 125.34L99.6463 126.594C100.945 129.184 101.631 132.086 101.631 134.982C101.633 139.012 100.297 143.008 97.8728 146.235Z" fill="white"/>
</svg>
