<svg width="53" height="42" viewBox="0 0 53 42" fill="none" xmlns="http://www.w3.org/2000/svg">
<path d="M7.92773 15.4439C8.76573 14.9619 15.1497 11.2739 18.1617 9.04395C18.3127 9.43495 18.4327 9.75795 18.5167 9.97495C16.3957 12.8895 15.3248 16.4366 15.4787 20.0379C11.3707 19.0309 9.3787 17.3859 8.4787 16.3769C8.33736 16.0428 8.15209 15.729 7.92773 15.4439Z" fill="#B00202"/>
<path d="M17.2416 42.0042C16.8915 42.0057 16.5428 41.9586 16.2056 41.8642C16.099 41.8308 16.0093 41.7579 15.9546 41.6605C15.9 41.5631 15.8846 41.4485 15.9116 41.3402C15.9916 41.0192 16.0636 40.7471 16.1286 40.5021C16.4044 39.5734 16.561 38.6134 16.5946 37.6452C16.6336 36.9352 16.7606 36.0612 16.9056 35.0452C17.1841 33.3805 17.3458 31.6984 17.3896 30.0111C17.2996 28.785 17.0725 27.5728 16.7126 26.3972C16.0892 26.2552 15.4778 26.0653 14.8836 25.8291C14.8596 26.3201 14.8186 26.7292 14.7836 26.9912C14.7386 27.3062 14.6626 27.7382 14.5726 28.2532C14.1214 30.5025 13.8611 32.786 13.7946 35.0792C13.8066 38.0692 13.1686 39.9791 11.8946 40.7661C11.4808 40.9947 11.0181 41.1206 10.5455 41.1333C10.0729 41.146 9.60416 41.0451 9.17862 40.8392C9.12576 40.8122 9.07892 40.7749 9.04093 40.7293C9.00294 40.6838 8.97459 40.631 8.95761 40.5742C8.94063 40.5173 8.93542 40.4575 8.9423 40.3985C8.94917 40.3396 8.96797 40.2826 8.99759 40.2312C10.7826 37.1312 10.5426 31.3112 10.1416 29.4062C9.94707 28.3324 9.85861 27.2422 9.8776 26.1511C9.92678 25.1921 9.82078 24.2314 9.56363 23.3061C9.46963 23.0561 9.3636 22.7982 9.2576 22.5312C8.43987 20.7924 8.04186 18.8859 8.09562 16.9652C8.12085 16.8074 8.10976 16.6459 8.06314 16.493C8.01653 16.3402 7.93563 16.2 7.82663 16.0831C7.45539 15.6041 7.19665 15.0477 7.06961 14.4551C6.96961 14.0551 6.8846 13.6482 6.7996 13.2402C6.5416 12.0032 6.2736 10.7241 5.7136 10.4181C5.4136 10.2521 4.83764 10.0132 4.23264 9.75815C3.02743 9.34008 1.88899 8.74998 0.852635 8.00615C0.604898 7.72125 0.42217 7.38582 0.317173 7.02316C0.212177 6.66051 0.187398 6.27934 0.244603 5.90615C0.262616 5.70602 0.255251 5.50442 0.22263 5.30615C0.21763 5.28715 -0.28237 3.37715 0.22263 2.59315C0.27951 2.49939 0.356449 2.41938 0.447911 2.35886C0.539372 2.29835 0.643081 2.25883 0.751622 2.24315C1.16038 2.21873 1.57031 2.22206 1.97861 2.25315C2.87861 2.28815 5.25465 2.38115 5.59165 2.04115C6.22865 1.31315 8.57361 -0.59385 10.9056 0.18415C11.4752 0.400929 11.994 0.732843 12.4296 1.15915C12.6312 1.11355 12.8397 1.10744 13.0436 1.14115C14.6656 1.40015 16.1736 3.97215 16.3436 4.26415C17.3163 5.93415 18.1392 7.68699 18.8026 9.50215L18.8566 9.64815C21.8935 10.1249 24.9945 9.99885 27.9826 9.27715C29.1236 9.07115 30.3036 8.85815 31.5896 8.70215C33.2426 8.41026 34.9378 8.45823 36.5716 8.84315C37.3184 9.1056 38.0211 9.47986 38.6556 9.95315C39.8352 10.952 40.8024 12.1773 41.4999 13.5566C42.1975 14.9359 42.6112 16.4411 42.7166 17.9831C42.7692 19.591 43.1208 21.1751 43.7536 22.6541C44.1439 23.6604 44.4587 24.6942 44.6956 25.7471C45.0046 27.2381 45.3956 27.5261 45.8896 27.8901C46.492 28.2927 46.9642 28.8618 47.2486 29.5281C49.5966 34.5721 50.1386 38.1862 48.8596 40.2682C48.5861 40.7222 48.2089 41.105 47.7588 41.385C47.3088 41.665 46.7988 41.8344 46.2706 41.8792C46.2063 41.8815 46.1422 41.8695 46.0831 41.8441C46.024 41.8187 45.9712 41.7804 45.9286 41.7322C45.886 41.684 45.8545 41.6271 45.8363 41.5654C45.8182 41.5037 45.8139 41.4387 45.8236 41.3751C46.6876 35.7551 44.4236 33.4081 41.8066 30.6901C40.8911 29.7796 40.0354 28.8109 39.2446 27.7901C38.3149 26.5853 37.5349 25.272 36.9216 23.8792C36.5366 23.0242 36.4616 22.8571 35.7346 22.7341C35.5344 23.5276 35.5727 24.3624 35.8446 25.1341C36.1426 26.134 36.7042 27.0353 37.4706 27.7432C38.045 28.3346 38.5512 28.9887 38.9796 29.6931C39.7676 31.0541 38.8316 37.9491 38.6366 39.3181C38.3536 41.2961 35.9926 41.5982 34.7816 41.4812C34.7182 41.4752 34.657 41.4554 34.6021 41.4233C34.5472 41.3912 34.4999 41.3474 34.4636 41.2952C34.4274 41.243 34.4031 41.1836 34.3922 41.1211C34.3814 41.0586 34.3842 40.9944 34.4006 40.9331C34.8066 39.4161 35.7776 35.1592 35.3946 33.7022C34.9276 31.9272 34.3066 30.9901 32.2296 28.9311C31.7936 28.4991 31.3726 28.1031 30.9826 27.7311C29.3656 26.2071 28.1966 25.1062 28.4286 23.7712C28.4286 23.7612 28.4286 23.7512 28.4346 23.7402C26.4746 24.2402 23.9396 24.9122 22.8346 25.2842C22.6446 26.6122 22.4016 27.7681 22.0986 29.2081L21.8606 30.3441C21.6699 31.289 21.4312 32.2235 21.1456 33.1442C20.623 34.8777 20.3536 36.6776 20.3456 38.4881C20.3643 39.0635 20.2489 39.6354 20.0085 40.1585C19.7681 40.6816 19.4094 41.1416 18.9606 41.5021C18.4517 41.8397 17.8522 42.0148 17.2416 42.0042ZM16.8746 41.1042C17.4298 41.1906 17.9976 41.0749 18.4746 40.7781C18.8081 40.4888 19.0713 40.1274 19.2445 39.7213C19.4178 39.3152 19.4965 38.8751 19.4746 38.4342C19.4835 36.5557 19.764 34.6883 20.3076 32.8901C20.5872 31.996 20.8209 31.0882 21.0076 30.1702L21.2466 29.0322C21.5776 27.4552 21.8176 26.3151 22.0086 24.9051C22.0192 24.8268 22.0508 24.7527 22.1001 24.6909C22.1494 24.6291 22.2145 24.5818 22.2886 24.5541C23.8706 23.9601 30.4226 22.3372 30.8126 22.2412C32.3592 21.8303 33.965 21.6886 35.5596 21.8221H35.5856C36.9796 22.0121 37.2236 22.4061 37.7226 23.5151C38.3108 24.8501 39.0589 26.1086 39.9506 27.2631C40.7191 28.2551 41.5504 29.1967 42.4396 30.0821C45.0126 32.7521 47.4466 35.2821 46.7766 40.8901C47.3436 40.6965 47.8224 40.3063 48.1266 39.7901C48.8846 38.5381 49.2106 35.8041 46.4586 29.8901C46.2345 29.359 45.8576 28.9065 45.3756 28.5902C44.9371 28.2876 44.5719 27.8908 44.3066 27.4288C44.0414 26.9668 43.8828 26.4514 43.8426 25.9202C43.6139 24.9081 43.3104 23.9143 42.9346 22.9471C42.2678 21.3723 41.8985 19.6875 41.8456 17.9782C41.7379 16.5702 41.3537 15.1973 40.7148 13.938C40.076 12.6787 39.1951 11.5577 38.1226 10.6391C37.5729 10.2314 36.9665 9.90629 36.3226 9.67415C34.805 9.3324 33.2346 9.29535 31.7026 9.56515C30.4406 9.71915 29.2736 9.92915 28.1446 10.1332C24.9713 10.8937 21.6768 11.0043 18.4596 10.4581C18.387 10.4443 18.3191 10.4123 18.2623 10.365C18.2055 10.3178 18.1615 10.257 18.1346 10.1882C18.0926 10.0822 18.0446 9.95215 17.9886 9.80115C17.3409 8.03069 16.5377 6.32102 15.5886 4.69215C15.0493 3.68322 14.2815 2.81441 13.3466 2.15515C14.103 3.08516 14.5995 4.19894 14.7856 5.38315C14.8573 5.79099 14.8021 6.211 14.6276 6.58652C14.4531 6.96204 14.1676 7.27499 13.8096 7.48315C13.3231 7.72863 12.8005 7.89505 12.2616 7.97615C11.89 8.02622 11.5289 8.13632 11.1926 8.30215L10.9236 8.46615C10.0016 9.03315 9.13162 9.56615 7.92362 8.75415C7.83856 8.69812 7.76654 8.62449 7.71238 8.53823C7.65821 8.45198 7.62312 8.35511 7.60959 8.25415C7.53959 7.71415 8.06064 7.11715 8.84964 6.21415C9.07664 5.95415 9.32062 5.67515 9.56162 5.38215C9.88568 4.94217 10.1291 4.44818 10.2806 3.92315C10.5259 3.05498 10.9881 2.26349 11.6236 1.62315C11.3301 1.3632 10.9911 1.15978 10.6236 1.02315C8.71063 0.38515 6.68263 2.12315 6.24363 2.62315C5.71363 3.22915 4.05264 3.21415 1.94364 3.13215C1.53764 3.11615 1.12064 3.10015 0.935643 3.10915C0.828474 3.76413 0.870828 4.43487 1.05961 5.07115C1.12229 5.35664 1.14083 5.65004 1.1146 5.94115C1.06775 6.19406 1.075 6.45403 1.13584 6.70395C1.19668 6.95387 1.30977 7.18807 1.46763 7.39115C2.43153 8.04 3.47296 8.56543 4.5676 8.95515C5.2206 9.22915 5.78564 9.46615 6.12864 9.65515C7.04364 10.1551 7.33965 11.5691 7.65165 13.0661C7.73365 13.4661 7.81761 13.8661 7.91361 14.2471C8.01289 14.7278 8.22161 15.1792 8.52359 15.5661C8.69452 15.7641 8.82209 15.9957 8.89804 16.2459C8.974 16.4962 8.9967 16.7596 8.96463 17.0192C8.91699 18.8117 9.29389 20.5901 10.0646 22.2091C10.1746 22.4831 10.2816 22.7472 10.3776 23.0042C10.6755 24.0231 10.8002 25.0849 10.7466 26.1452C10.7264 27.179 10.8085 28.2124 10.9916 29.2302C11.3426 30.8982 11.7296 36.6481 9.99161 40.2071C10.2318 40.2728 10.4826 40.2902 10.7296 40.2585C10.9766 40.2267 11.2148 40.1464 11.4306 40.0222C12.1106 39.5992 12.9176 38.3992 12.9046 35.0882C12.97 32.7429 13.2346 30.4075 13.6956 28.1071C13.7846 27.6071 13.8586 27.1821 13.9026 26.8731C13.9663 26.4036 14.0037 25.9309 14.0146 25.4571C12.908 24.9363 12.0156 24.0489 11.4886 22.9451C11.3056 22.5934 11.2637 22.1851 11.3713 21.8035C11.4788 21.4218 11.7278 21.0956 12.0676 20.8911C12.6376 20.5851 13.5676 20.6541 14.2986 21.8561C14.7369 22.808 14.9396 23.8514 14.8896 24.8981C15.6051 25.2097 16.3516 25.4444 17.1166 25.5981C17.1967 25.6111 17.2716 25.646 17.333 25.699C17.3944 25.7519 17.44 25.8209 17.4646 25.8981C17.883 27.2367 18.1473 28.6187 18.2526 30.0172C18.2096 31.7462 18.0452 33.4701 17.7606 35.1762C17.6176 36.1682 17.4946 37.0241 17.4606 37.6961C17.4234 38.7238 17.2575 39.7428 16.9666 40.7292C16.9436 40.8412 16.9096 40.9672 16.8746 41.1042ZM30.9626 23.1042C30.3365 23.2188 29.7557 23.5087 29.2876 23.9401C29.1416 24.7941 30.1656 25.7601 31.5876 27.0961C31.9876 27.4691 32.4086 27.8691 32.8496 28.3081C35.0376 30.4771 35.7356 31.5402 36.2496 33.4782C36.6806 35.1162 35.7586 39.1492 35.3926 40.6192C36.1816 40.5952 37.6086 40.3841 37.7786 39.1941C38.3256 35.3661 38.6696 30.8942 38.2306 30.1312C37.8319 29.4813 37.3623 28.8776 36.8306 28.3311C35.9667 27.5164 35.3356 26.486 35.0026 25.3461C34.7292 24.475 34.677 23.5495 34.8506 22.6531C33.5858 22.5975 32.3199 22.7372 31.0976 23.0671C31.0772 23.0757 31.0561 23.0827 31.0346 23.0882L30.9626 23.1042ZM12.6976 21.6042C12.6278 21.6046 12.5591 21.6221 12.4976 21.6551C12.355 21.7539 12.2552 21.9029 12.2181 22.0723C12.1809 22.2417 12.2094 22.4189 12.2976 22.5681C12.6662 23.3561 13.268 24.0117 14.0216 24.4461C14.0301 23.7082 13.8755 22.9774 13.5686 22.3061C13.2856 21.8551 12.9716 21.6042 12.6976 21.6042ZM8.50559 8.08115C9.16159 8.48615 9.57362 8.26715 10.4676 7.71715L10.7436 7.54915C11.1652 7.32739 11.6219 7.18022 12.0936 7.11415C12.543 7.04861 12.9796 6.91366 13.3876 6.71415C13.5396 6.62915 14.0016 6.37315 13.9176 5.46415C13.6838 4.24957 13.107 3.12735 12.2556 2.23015C11.7077 2.77914 11.3132 3.46218 11.1116 4.21115C10.9281 4.83266 10.6341 5.416 10.2436 5.93315C9.99663 6.23315 9.74362 6.51815 9.51462 6.78415C9.13486 7.18088 8.79673 7.61548 8.50559 8.08115Z" fill="black"/>
<path d="M41.889 11.7892C41.2099 11.7997 40.5325 11.7186 39.875 11.5482C39.2488 11.3592 38.6615 11.0595 38.141 10.6632C38.0459 10.5965 37.9812 10.4948 37.9612 10.3804C37.9411 10.266 37.9673 10.1483 38.034 10.0532C38.1009 9.95832 38.2027 9.89385 38.3171 9.87397C38.4315 9.85409 38.549 9.88045 38.644 9.94723C39.0849 10.2865 39.5831 10.5439 40.115 10.7072C42.153 11.2892 46.169 10.7072 47.579 8.50723C48.3569 7.35427 49.3066 6.32706 50.395 5.46123C49.6572 5.84349 48.9456 6.27443 48.265 6.75122C46.64 7.83222 44.959 8.95123 42.941 8.78123C40.7925 8.62582 38.6355 8.92885 36.613 9.67023C36.5599 9.69218 36.5031 9.70346 36.4457 9.70343C36.3883 9.7034 36.3314 9.69205 36.2784 9.67004C36.2254 9.64803 36.1772 9.61579 36.1367 9.57516C36.0961 9.53452 36.0639 9.4863 36.042 9.43323C36.02 9.38018 36.0088 9.32331 36.0088 9.2659C36.0088 9.20849 36.0202 9.15165 36.0422 9.09862C36.0642 9.04559 36.0965 8.99742 36.1371 8.95686C36.1777 8.9163 36.2259 8.88414 36.279 8.86222C38.4288 8.06204 40.7266 7.73726 43.014 7.91023C44.728 8.05323 46.214 7.06722 47.78 6.02322C49.251 5.04422 50.772 4.03223 52.52 4.03223C52.6158 4.03208 52.709 4.06342 52.7852 4.12141C52.8615 4.17941 52.9166 4.26086 52.942 4.35323C52.9672 4.44582 52.9612 4.54411 52.925 4.633C52.8889 4.72188 52.8246 4.79644 52.742 4.84522C51.0102 5.92158 49.5056 7.32629 48.313 8.98023C46.985 11.0532 44.121 11.7892 41.889 11.7892Z" fill="black"/>
</svg>
