
<svg xmlns="http://www.w3.org/2000/svg" width="52.958" height="42" viewBox="0 0 52.958 42"><defs><style>.a{fill:#bc2e3e;}.b{fill:#001c72;}.c{fill:#fcf1e0;}</style></defs><g transform="translate(693.786 -55.796)"><g transform="translate(-693.786 55.796)"><g transform="translate(7.928 9.048)"><path class="a" d="M-672.045,87.006c.838-.482,7.222-4.17,10.234-6.4.151.391.271.714.355.931A15.945,15.945,0,0,0-664.494,91.6c-4.108-1.007-6.1-2.652-7-3.661A4.077,4.077,0,0,0-672.045,87.006Z" transform="translate(672.045 -80.61)"/></g><path class="b" d="M-676.544,97.8a3.781,3.781,0,0,1-1.036-.14.438.438,0,0,1-.294-.524c.08-.321.152-.593.217-.838a11.435,11.435,0,0,0,.466-2.857c.039-.71.166-1.584.311-2.6a36.2,36.2,0,0,0,.484-5.034,16.462,16.462,0,0,0-.677-3.614,12.418,12.418,0,0,1-1.829-.568c-.024.491-.065.9-.1,1.162-.045.315-.121.747-.211,1.262a40.71,40.71,0,0,0-.778,6.826c.012,2.99-.626,4.9-1.9,5.687a2.955,2.955,0,0,1-2.716.073.438.438,0,0,1-.221-.265.437.437,0,0,1,.04-.343c1.785-3.1,1.545-8.92,1.144-10.825a16.632,16.632,0,0,1-.264-3.255,8.919,8.919,0,0,0-.314-2.845c-.094-.25-.2-.508-.306-.775a12.272,12.272,0,0,1-1.162-5.566,1.05,1.05,0,0,0-.269-.882,4.04,4.04,0,0,1-.757-1.628c-.1-.4-.185-.807-.27-1.215-.258-1.237-.526-2.516-1.086-2.822-.3-.166-.876-.405-1.481-.66a13.236,13.236,0,0,1-3.38-1.752,2.6,2.6,0,0,1-.608-2.1,2.381,2.381,0,0,0-.022-.6c-.005-.019-.505-1.929,0-2.713a.743.743,0,0,1,.529-.35,9.051,9.051,0,0,1,1.227.01c.9.035,3.276.128,3.613-.212.637-.728,2.982-2.635,5.314-1.857a4.433,4.433,0,0,1,1.524.975,1.6,1.6,0,0,1,.614-.018c1.622.259,3.13,2.831,3.3,3.123a32.739,32.739,0,0,1,2.459,5.238l.054.146a23.408,23.408,0,0,0,9.126-.371c1.141-.206,2.321-.419,3.607-.575a12.356,12.356,0,0,1,4.982.141,7.824,7.824,0,0,1,2.084,1.11,11.555,11.555,0,0,1,4.061,8.03,12.95,12.95,0,0,0,1.037,4.671,21.775,21.775,0,0,1,.942,3.093c.309,1.491.7,1.779,1.194,2.143a3.732,3.732,0,0,1,1.359,1.638c2.348,5.044,2.89,8.658,1.611,10.74a3.353,3.353,0,0,1-2.589,1.611.435.435,0,0,1-.342-.147.438.438,0,0,1-.105-.357c.864-5.62-1.4-7.967-4.017-10.685a30.025,30.025,0,0,1-2.562-2.9,18.808,18.808,0,0,1-2.323-3.911c-.385-.855-.46-1.022-1.187-1.145a4.16,4.16,0,0,0,.11,2.4,5.81,5.81,0,0,0,1.626,2.609,11.01,11.01,0,0,1,1.509,1.95c.788,1.361-.148,8.256-.343,9.625-.283,1.978-2.644,2.28-3.855,2.163a.437.437,0,0,1-.318-.186.437.437,0,0,1-.063-.362c.406-1.517,1.377-5.774.994-7.231-.467-1.775-1.088-2.712-3.165-4.771-.436-.432-.857-.828-1.247-1.2-1.617-1.524-2.786-2.625-2.554-3.96,0-.01,0-.02.006-.031-1.96.5-4.495,1.172-5.6,1.544-.19,1.328-.433,2.484-.736,3.924l-.238,1.136a28.458,28.458,0,0,1-.715,2.8,18.8,18.8,0,0,0-.8,5.344,3.712,3.712,0,0,1-1.385,3.014A3.015,3.015,0,0,1-676.544,97.8Zm-.367-.9a2.346,2.346,0,0,0,1.6-.326,2.913,2.913,0,0,0,1-2.344,19.477,19.477,0,0,1,.833-5.544,27.441,27.441,0,0,0,.7-2.72l.239-1.138c.331-1.577.571-2.717.762-4.127a.437.437,0,0,1,.28-.351c1.582-.594,8.134-2.217,8.524-2.313a13.953,13.953,0,0,1,4.747-.419h.026c1.394.19,1.638.584,2.137,1.693a18.016,18.016,0,0,0,2.228,3.748,29.306,29.306,0,0,0,2.489,2.819c2.573,2.67,5.007,5.2,4.337,10.808a2.508,2.508,0,0,0,1.35-1.1c.758-1.252,1.084-3.986-1.668-9.9a2.907,2.907,0,0,0-1.083-1.3,3.571,3.571,0,0,1-1.533-2.67,20.98,20.98,0,0,0-.908-2.973,13.842,13.842,0,0,1-1.089-4.969,10.741,10.741,0,0,0-3.723-7.339,7.015,7.015,0,0,0-1.8-.965,11.752,11.752,0,0,0-4.62-.109c-1.262.154-2.429.364-3.558.568a24.187,24.187,0,0,1-9.685.325.437.437,0,0,1-.325-.27c-.042-.106-.09-.236-.146-.387a31.955,31.955,0,0,0-2.4-5.109,7.335,7.335,0,0,0-2.242-2.537A6.786,6.786,0,0,1-679,61.179a2.024,2.024,0,0,1-.976,2.1,5.132,5.132,0,0,1-1.548.493,3.463,3.463,0,0,0-1.069.326l-.269.164c-.922.567-1.792,1.1-3,.288a.712.712,0,0,1-.314-.5c-.07-.54.451-1.137,1.24-2.04.227-.26.471-.539.712-.832a4.62,4.62,0,0,0,.719-1.459,5.318,5.318,0,0,1,1.343-2.3,3.179,3.179,0,0,0-1-.6c-1.913-.638-3.941,1.1-4.38,1.6-.53.606-2.191.591-4.3.509-.406-.016-.823-.032-1.008-.023a4.4,4.4,0,0,0,.124,1.962,2.86,2.86,0,0,1,.055.87,1.822,1.822,0,0,0,.353,1.45,13.9,13.9,0,0,0,3.1,1.564c.653.274,1.218.511,1.561.7.915.5,1.211,1.914,1.523,3.411.082.4.166.8.262,1.181a3.194,3.194,0,0,0,.61,1.319,1.872,1.872,0,0,1,.441,1.453,11.372,11.372,0,0,0,1.1,5.19c.11.274.217.538.313.795a9.487,9.487,0,0,1,.369,3.141,15.694,15.694,0,0,0,.245,3.085c.351,1.668.738,7.418-1,10.977a1.887,1.887,0,0,0,1.439-.185c.68-.423,1.487-1.623,1.474-4.934a41.4,41.4,0,0,1,.791-6.981c.089-.5.163-.925.207-1.234a12.711,12.711,0,0,0,.112-1.416,5.3,5.3,0,0,1-2.526-2.512,1.558,1.558,0,0,1,.579-2.054c.57-.306,1.5-.237,2.231.965a6.53,6.53,0,0,1,.591,3.042,11.013,11.013,0,0,0,2.227.7.439.439,0,0,1,.348.3,18.454,18.454,0,0,1,.788,4.119,36.94,36.94,0,0,1-.492,5.159c-.143.992-.266,1.848-.3,2.52a12.3,12.3,0,0,1-.494,3.033C-676.842,96.637-676.876,96.763-676.911,96.9Zm14.088-18a3.365,3.365,0,0,0-1.675.836c-.146.854.878,1.82,2.3,3.156.4.373.821.773,1.262,1.212,2.188,2.169,2.886,3.232,3.4,5.17.431,1.638-.491,5.671-.857,7.141.789-.024,2.216-.235,2.386-1.425.547-3.828.891-8.3.452-9.063a10.317,10.317,0,0,0-1.4-1.8,6.677,6.677,0,0,1-1.828-2.985,5.5,5.5,0,0,1-.152-2.693,12.322,12.322,0,0,0-3.753.414.455.455,0,0,1-.063.021Zm-18.265-1.5a.428.428,0,0,0-.2.051.686.686,0,0,0-.2.913,4.242,4.242,0,0,0,1.724,1.878,5.009,5.009,0,0,0-.453-2.14C-680.5,77.651-680.814,77.4-681.088,77.4Zm-4.192-13.523c.656.405,1.068.186,1.962-.364l.276-.168a4.13,4.13,0,0,1,1.35-.435,4.387,4.387,0,0,0,1.294-.4c.152-.085.614-.341.53-1.25a6.477,6.477,0,0,0-1.662-3.234,4.437,4.437,0,0,0-1.144,1.981,5.39,5.39,0,0,1-.868,1.722c-.247.3-.5.585-.729.851A8.038,8.038,0,0,0-685.28,63.877Z" transform="translate(693.786 -55.796)"/><g transform="translate(36.008 4.026)"><path class="b" d="M-589.158,74.6a7.563,7.563,0,0,1-2.014-.241,5.474,5.474,0,0,1-1.734-.885.438.438,0,0,1-.107-.61.438.438,0,0,1,.61-.106,4.649,4.649,0,0,0,1.471.76c2.038.582,6.054,0,7.464-2.2a13.641,13.641,0,0,1,2.816-3.046,18.724,18.724,0,0,0-2.13,1.29c-1.625,1.081-3.306,2.2-5.324,2.03a15.2,15.2,0,0,0-6.328.889.437.437,0,0,1-.571-.237.437.437,0,0,1,.237-.571,15.876,15.876,0,0,1,6.735-.952c1.714.143,3.2-.843,4.766-1.887,1.471-.979,2.992-1.991,4.74-1.991a.437.437,0,0,1,.422.321.438.438,0,0,1-.2.492,15.636,15.636,0,0,0-4.429,4.135C-584.062,73.864-586.926,74.6-589.158,74.6Z" transform="translate(595.039 -66.837)"/></g></g><g transform="translate(-677.978 65.977)"><g transform="translate(0 1.033)"><path class="c" d="M-650.427,86.684l.02-.013c.009,0,.013,0,.019.012l.086.208c.006.013,0,.021,0,.028l-.017.013.005.013.1-.071-.006-.013-.026.018c-.008,0-.016,0-.019-.012l-.039-.094.047-.032c.031-.02.037-.014.052.011l.012-.01-.038-.083-.011.007c.009.031.007.04-.021.06l-.05.031-.043-.109c0-.008,0-.01.005-.015l.039-.029c.037-.025.04-.026.069.016l.009,0-.024-.067-.177.123Z" transform="translate(650.434 -86.549)"/></g><g transform="translate(0.254 1.025)"><path class="c" d="M-649.686,86.544a.131.131,0,0,0-.024.184.072.072,0,0,0,.111.018.1.1,0,0,0,.045-.1.143.143,0,0,0-.03-.087A.067.067,0,0,0-649.686,86.544Zm.006.013c.022-.016.039-.006.054.014s.064.131.016.163c-.02.012-.038.009-.057-.016S-649.723,86.588-649.68,86.557Z" transform="translate(649.737 -86.527)"/></g><g transform="translate(0.405 0.896)"><path class="c" d="M-649.186,86.408a1.049,1.049,0,0,1-.035-.1.151.151,0,0,1,0-.088c.011-.007.014,0,.026-.005a.026.026,0,0,0,0-.035.017.017,0,0,0-.027,0,.125.125,0,0,0-.018.108l-.029-.071h0l-.051.05,0,.009.024-.014c.006-.005.011,0,.023.034l.058.141Z" transform="translate(649.323 -86.171)"/></g><g transform="translate(0.591 0.587)"><path class="c" d="M-648.814,85.482l.006.013.02-.013c.007-.006.013,0,.019.012l.083.208c.009.013.008.021,0,.027l-.019.016,0,.011.1-.067-.006-.013-.02.012c-.008.008-.013,0-.02-.011l-.082-.208c-.006-.013-.008-.021,0-.028l.018-.015,0-.013Zm.139-.1,0,.012.014-.008c.009,0,.013,0,.007.01-.009.051-.028.109-.041.167a.756.756,0,0,0,.124.059.066.066,0,0,0,.076-.013l.025-.015-.006-.013a.065.065,0,0,1-.061.009.856.856,0,0,1-.136-.06,1.254,1.254,0,0,1,.043-.136.085.085,0,0,1,.039-.058l-.007-.012Z" transform="translate(648.814 -85.326)"/></g><g transform="translate(0.851 0.586)"><path class="c" d="M-647.965,85.555c-.012-.031-.023-.063-.033-.1a.135.135,0,0,1,0-.086c.011-.007.015,0,.027-.008s.007-.024,0-.032a.017.017,0,0,0-.027-.005c-.02.012-.025.057-.016.105v0l-.028-.073h0l-.051.05,0,.008.026-.012c.006,0,.011,0,.021.033l.058.141Z" transform="translate(648.1 -85.322)"/></g><g transform="translate(0.982 0.465)"><path class="c" d="M-647.74,85.118l.006.007.025-.015c.007-.006.012,0,.028.014a1.082,1.082,0,0,1,.1.112.092.092,0,0,1,.022.043.056.056,0,0,1-.006.046c-.005,0-.012,0-.022,0s-.011,0-.017,0a.025.025,0,0,0,0,.034c0,.009.022.012.038,0s.03-.054.022-.127c0-.015-.006-.071-.012-.119a.244.244,0,0,0-.015-.106c-.009-.013-.017-.016-.021-.015a.087.087,0,0,0-.022.027.323.323,0,0,1,.033.051.91.91,0,0,1,.02.127h0a1.339,1.339,0,0,0-.119-.137h0Z" transform="translate(647.74 -84.991)"/></g><g transform="translate(1.183 0.391)"><path class="c" d="M-647.156,84.8a.066.066,0,0,0-.022.092c.014.021.036.023.064.026s.046.012.053.023a.026.026,0,0,1-.006.04.04.04,0,0,1-.051-.007.015.015,0,0,0-.016,0,.022.022,0,0,0-.007.029.056.056,0,0,0,.075,0,.072.072,0,0,0,.025-.1c-.015-.021-.032-.024-.073-.028s-.038-.008-.045-.019a.028.028,0,0,1,0-.041c.011-.008.026-.005.042.006a.008.008,0,0,0,.014,0c.009,0,.015-.015.007-.024S-647.125,84.777-647.156,84.8Z" transform="translate(647.189 -84.786)"/></g><g transform="translate(1.29 0.26)"><path class="c" d="M-646.792,84.471l-.008-.016-.038.028-.021-.056,0,0-.022.039.015.038-.027.019,0,.016.03-.019.055.147c.011.022.025.037.044.021a.1.1,0,0,0,.028-.092l-.015,0c0,.018,0,.055-.011.061s-.009,0-.013-.012l-.059-.145Z" transform="translate(646.897 -84.427)"/></g><g transform="translate(1.444 0.167)"><path class="c" d="M-646.39,84.2l0,.005a.051.051,0,0,0-.032.011.164.164,0,0,0-.024.218c.013.023.034.038.06.02s.04-.09.037-.136v0l.012.043c.009.031.025.043.044.032a.1.1,0,0,0,.02-.094h-.013c0,.018.007.053,0,.058s-.012,0-.015-.013l-.059-.163Zm.008.021c0,.009.005.019.009.031.015.044.024.149-.007.169-.011.008-.02,0-.03-.01-.027-.038-.052-.147,0-.184A.032.032,0,0,1-646.381,84.216Z" transform="translate(646.473 -84.174)"/></g><g transform="translate(1.552 0)"><path class="c" d="M-645.993,83.934a.1.1,0,0,1-.007.059c-.005,0-.011,0-.013-.017l-.1-.26h0l-.059.052.005.008.021-.009c.009,0,.011,0,.019.012l.085.222c.013.023.025.037.045.025a.093.093,0,0,0,.021-.091Z" transform="translate(646.177 -83.715)"/></g></g></g></svg>