<svg width="225" height="225" viewBox="0 0 225 225" fill="none" xmlns="http://www.w3.org/2000/svg">
<circle cx="112.5" cy="112.5" r="112.5" fill="#001C72"/>
<path d="M85.7721 147.972C81.1699 147.972 76.8952 144.876 73.7527 139.252C70.7523 133.895 69.1012 126.808 69.1012 119.307C69.1012 111.244 71.8748 106.117 74.5595 101.159C77.0845 96.4914 79.6884 91.6655 80.4104 83.9367C80.6511 81.3417 82.1622 79.8111 84.3321 79.9325C87.8256 80.1276 92.8559 84.7909 96.8486 91.5398C101.703 99.8142 104.296 109.445 104.321 119.29C104.321 126.661 102.313 133.794 98.6634 139.35C95.0752 144.833 90.3743 147.972 85.7721 147.972ZM84.0579 83.4446C83.8172 83.4446 83.6633 83.5357 83.5982 84.2836C82.8092 92.7864 79.8916 98.1868 77.3134 102.95C74.6246 107.917 72.2989 112.205 72.2989 119.298C72.2989 126.167 73.7823 132.597 76.475 137.408C79.0177 141.949 82.318 144.451 85.7662 144.451C89.317 144.451 93.0808 141.85 96.0654 137.297C99.3243 132.334 101.117 125.941 101.117 119.303C101.096 110.136 98.6847 101.168 94.1697 93.4606C90.179 86.7161 85.922 83.553 84.1762 83.4489L84.0579 83.4446Z" fill="white"/>
<path d="M85.7721 139.69C85.3473 139.69 84.9398 139.505 84.6394 139.175C84.339 138.845 84.1703 138.397 84.1703 137.93C84.1703 137.463 84.339 137.015 84.6394 136.685C84.9398 136.355 85.3473 136.17 85.7721 136.17C86.5473 136.17 88.4825 134.973 90.3782 131.762C91.5776 129.731 93.5897 125.41 93.5897 119.298C93.5897 118.832 93.7585 118.384 94.0589 118.054C94.3593 117.724 94.7667 117.538 95.1915 117.538C95.6163 117.538 96.0238 117.724 96.3242 118.054C96.6246 118.384 96.7933 118.832 96.7933 119.298C96.7933 124.502 95.4697 129.605 93.067 133.679C90.8773 137.388 88.0801 139.69 85.7721 139.69Z" fill="white"/>
<path d="M127.713 144.837C123.268 144.837 119.445 143.352 116.901 140.555C113.648 136.978 112.622 131.471 114.013 125.047C115.338 118.927 118.729 112.634 123.562 107.322C128.748 101.623 134.017 100.153 139.099 98.7326C143.886 97.395 148.84 96.0118 154.318 91.1014C156.15 89.4581 158.198 89.5469 159.664 91.3182C162.009 94.1691 162.564 101.378 161.045 109.252C159.152 118.878 154.788 127.706 148.469 134.688C143.723 139.92 137.718 143.388 131.563 144.485C130.29 144.716 129.003 144.833 127.713 144.837ZM156.963 93.4558C156.829 93.4558 156.646 93.5555 156.342 93.8265C150.315 99.2313 144.774 100.777 139.888 102.143C134.793 103.565 130.392 104.794 125.827 109.811C121.408 114.667 118.319 120.367 117.129 125.854C116.005 131.042 116.735 135.376 119.167 138.055C121.684 140.822 126.016 141.897 131.05 141.002C136.548 140.026 141.93 136.9 146.204 132.2C152.084 125.702 156.146 117.49 157.912 108.534C159.429 100.664 158.46 95.1143 157.287 93.6899C157.182 93.562 157.097 93.458 156.963 93.458V93.4558Z" fill="white"/>
<path d="M127.648 136.558C125.28 136.558 123.337 135.907 122.229 134.7C122.08 134.536 121.962 134.342 121.881 134.128C121.801 133.915 121.759 133.686 121.759 133.454C121.759 133.223 121.801 132.994 121.881 132.78C121.962 132.566 122.08 132.372 122.229 132.209C122.378 132.045 122.554 131.915 122.749 131.827C122.943 131.738 123.152 131.693 123.362 131.693C123.572 131.693 123.781 131.738 123.975 131.827C124.17 131.915 124.346 132.045 124.495 132.209C125.044 132.811 127.182 133.47 130.589 132.673C132.743 132.168 136.947 130.674 140.878 126.353C141.179 126.023 141.586 125.838 142.011 125.838C142.436 125.838 142.843 126.024 143.144 126.354C143.444 126.684 143.613 127.132 143.613 127.599C143.612 128.066 143.443 128.514 143.143 128.844C139.789 132.53 135.576 135.103 131.256 136.115C130.07 136.401 128.861 136.549 127.648 136.558Z" fill="white"/>
<path d="M107.511 189.074C100.804 189.074 94.3137 186.865 89.2578 182.854C84.2768 178.904 81.4204 173.749 81.4204 168.682C81.4204 163.616 84.2393 158.926 89.3544 155.47C94.2289 152.175 100.677 150.358 107.503 150.358C114.839 150.358 119.505 153.409 124.016 156.359C128.263 159.134 132.654 161.996 139.689 162.79C142.04 163.052 143.437 164.706 143.322 167.106C143.145 170.943 138.902 176.472 132.761 180.862C125.232 186.196 116.469 189.047 107.511 189.074ZM107.511 153.879C101.261 153.879 95.4105 155.509 91.0351 158.469C86.8926 161.265 84.624 164.892 84.624 168.682C84.624 172.595 86.9912 176.719 91.1338 179.999C95.6492 183.58 101.467 185.553 107.507 185.553C115.847 185.526 124.005 182.874 131.017 177.911C137.154 173.523 140.038 168.847 140.127 166.928C140.142 166.586 140.152 166.38 139.367 166.293C131.63 165.426 126.717 162.217 122.383 159.384C117.867 156.431 113.965 153.879 107.511 153.879Z" fill="white"/>
<path d="M107.511 180.793C102.776 180.793 98.1327 179.338 94.4261 176.697C91.0509 174.293 88.9559 171.221 88.9559 168.676C88.9559 168.209 89.1247 167.761 89.4251 167.431C89.7255 167.101 90.1329 166.916 90.5577 166.916C90.9826 166.916 91.39 167.101 91.6904 167.431C91.9908 167.761 92.1595 168.209 92.1595 168.676C92.1595 169.528 93.2484 171.655 96.1699 173.738C98.0183 175.054 101.95 177.265 107.511 177.265C107.936 177.265 108.343 177.451 108.643 177.781C108.944 178.111 109.113 178.559 109.113 179.026C109.113 179.493 108.944 179.94 108.643 180.271C108.343 180.601 107.936 180.786 107.511 180.786V180.793Z" fill="white"/>
<path d="M21.2782 90.9854C20.6814 90.8889 20.1641 91.0167 19.7262 91.3686C19.2883 91.7206 18.97 92.2714 18.7713 93.0211C18.6362 93.5305 18.5943 93.9797 18.6455 94.3687C18.6919 94.7565 18.8152 95.0772 19.0154 95.3308C19.2169 95.5797 19.4762 95.7462 19.7934 95.8302C20.0551 95.9099 20.3004 95.9158 20.5293 95.8479C20.7595 95.7751 20.9753 95.6498 21.1768 95.4717C21.3735 95.2924 21.5623 95.075 21.7431 94.8195C21.9192 94.5627 22.086 94.2829 22.2434 93.98L22.9121 92.7377C23.227 92.132 23.5759 91.5918 23.9588 91.1173C24.3418 90.6428 24.7609 90.255 25.2162 89.9539C25.6714 89.6528 26.1656 89.4572 26.6987 89.3671C27.233 89.2721 27.8084 89.3037 28.4248 89.462C29.327 89.7063 30.0492 90.1446 30.5913 90.7769C31.13 91.4031 31.4685 92.1924 31.607 93.1446C31.742 94.0907 31.6502 95.1645 31.3318 96.3659C31.0159 97.5577 30.5581 98.5473 29.9585 99.3347C29.3602 100.117 28.6374 100.661 27.7901 100.966C26.9394 101.266 25.9798 101.286 24.9113 101.029L25.7119 98.0085C26.2158 98.1061 26.6667 98.0739 27.0645 97.9119C27.4588 97.7438 27.7961 97.4706 28.0764 97.0923C28.3532 96.7079 28.5629 96.2466 28.7055 95.7083C28.8457 95.1797 28.8904 94.7004 28.8398 94.2704C28.7905 93.8356 28.6575 93.4737 28.4409 93.1849C28.2243 92.896 27.9382 92.7044 27.5826 92.6102C27.251 92.5223 26.9462 92.5469 26.6681 92.6841C26.3913 92.8164 26.1239 93.049 25.8659 93.3818C25.6093 93.7098 25.3447 94.1257 25.0723 94.6296L24.2426 96.1301C23.6099 97.2945 22.876 98.1517 22.041 98.7019C21.206 99.2521 20.2437 99.3801 19.1541 99.0862C18.2589 98.8541 17.5411 98.4092 17.0005 97.7516C16.4611 97.0891 16.1162 96.2853 15.9655 95.3402C15.8149 94.3951 15.8822 93.3842 16.1675 92.3078C16.458 91.2121 16.8989 90.3055 17.4903 89.5879C18.0829 88.8654 18.7737 88.3645 19.5627 88.085C20.3517 87.8056 21.1879 87.7752 22.0711 87.9939L21.2782 90.9854Z" fill="white"/>
<path d="M23.8433 72.449L37.5694 79.1458L36.1536 82.0479L22.4274 75.351L23.8433 72.449Z" fill="white"/>
<path d="M41.77 71.4371L29.5401 62.2891L35.7043 54.0483L37.8362 55.6429L33.6061 61.298L36.5203 63.4778L40.4332 58.2467L42.5651 59.8414L38.6521 65.0725L41.5723 67.2568L45.8202 61.5778L47.9521 63.1724L41.77 71.4371Z" fill="white"/>
<path d="M44.8116 43.8414L47.9833 41.4335L57.538 47.0632L57.6806 46.955L54.8258 36.2388L57.9976 33.8309L67.2325 45.9953L64.7379 47.8891L58.727 39.9716L58.626 40.0483L61.4438 50.2963L59.745 51.5859L50.6088 46.088L50.5078 46.1647L56.5412 54.1119L54.0465 56.0058L44.8116 43.8414Z" fill="white"/>
<path d="M73.655 25.7026L79.8209 39.6753L76.8667 40.979L70.7008 27.0063L73.655 25.7026Z" fill="white"/>
<path d="M88.0037 36.4962L84.5624 21.6162L94.589 19.2974L95.1888 21.8912L88.3083 23.4824L89.1283 27.0281L95.493 25.5561L96.0928 28.1499L89.7282 29.6219L90.5498 33.1748L97.4594 31.5768L98.0593 34.1706L88.0037 36.4962ZM97.6143 38.6671C96.97 38.8161 96.3913 38.7738 95.8781 38.5404C95.3708 38.3108 94.9904 37.9012 94.7367 37.3118C94.5722 36.9315 94.4846 36.5307 94.474 36.1097C94.4682 35.6875 94.5526 35.2801 94.7271 34.8877C94.9066 34.4941 95.1876 34.1535 95.5701 33.8661L98.0666 34.1689C97.6605 34.4874 97.3408 34.8037 97.1073 35.1179C96.8738 35.4322 96.7998 35.7631 96.8853 36.1108C96.9342 36.3444 97.0338 36.5101 97.184 36.6081C97.3342 36.706 97.5256 36.7281 97.7581 36.6743C97.9179 36.6374 98.0558 36.5825 98.1716 36.5098C98.2886 36.4419 98.3916 36.3798 98.4807 36.3235L99.17 37.848C99.0143 37.9912 98.8066 38.1413 98.547 38.2983C98.2933 38.459 97.9824 38.5819 97.6143 38.6671Z" fill="white"/>
<path d="M118.308 33.0411L120.286 17.897L123.488 18.3151L121.855 30.8194L128.347 31.6673L128.003 34.3072L118.308 33.0411Z" fill="white"/>
<path d="M154.132 26.6566L148.515 40.8589L145.921 39.8331L143.278 28.4505L143.174 28.4094L139.638 37.3482L136.636 36.1607L142.253 21.9584L144.888 23.0006L147.486 34.357L147.61 34.4064L151.143 25.4745L154.132 26.6566Z" fill="white"/>
<path d="M168.547 34.9351L160.121 47.6731L157.428 45.8916L165.854 33.1536L168.547 34.9351Z" fill="white"/>
<path d="M169.148 54.6136L166.718 52.1502L181.293 45.178L184.215 48.1404L177.04 62.6142L174.61 60.1508L180.311 49.1527L180.228 49.0677L169.148 54.6136ZM173.269 50.2437L179.009 56.0623L177.215 57.8325L171.475 52.0139L173.269 50.2437Z" fill="white"/>
<path d="M202.184 73.6142L188.824 81.0148L187.472 78.575L192.661 68.1048L192.607 68.0069L184.198 72.6648L182.634 69.8402L195.994 62.4396L197.367 64.9185L192.159 75.3395L192.224 75.4569L200.626 70.8026L202.184 73.6142Z" fill="white"/>
<path d="M192.673 90.4847L207.461 86.6675L210.033 96.6321L207.455 97.2975L205.69 90.4595L202.166 91.369L203.799 97.6944L201.221 98.3598L199.588 92.0344L196.057 92.9459L197.83 99.8128L195.252 100.478L192.673 90.4847Z" fill="white"/>
</svg>
