<svg width="225" height="225" viewBox="0 0 225 225" fill="none" xmlns="http://www.w3.org/2000/svg">
<circle cx="112.5" cy="112.5" r="112.5" fill="#001C72"/>
<path d="M85.7721 145.972C81.1699 145.972 76.8951 142.876 73.7527 137.252C70.7523 131.895 69.1012 124.808 69.1012 117.307C69.1012 109.244 71.8747 104.117 74.5595 99.1588C77.0845 94.4912 79.6884 89.6653 80.4104 81.9365C80.6511 79.3414 82.1621 77.8109 84.332 77.9323C87.8256 78.1274 92.8559 82.7907 96.8485 89.5396C101.703 97.8139 104.296 107.445 104.321 117.29C104.321 124.661 102.313 131.793 98.6634 137.35C95.0751 142.833 90.3743 145.972 85.7721 145.972ZM84.0578 81.4444C83.8172 81.4444 83.6633 81.5354 83.5982 82.2834C82.8092 90.7861 79.8916 96.1866 77.3133 100.95C74.6246 105.916 72.2988 110.205 72.2988 117.298C72.2988 124.166 73.7823 130.597 76.475 135.407C79.0177 139.949 82.318 142.451 85.7662 142.451C89.3169 142.451 93.0808 139.849 96.0654 135.297C99.3242 130.334 101.117 123.941 101.117 117.303C101.096 108.136 98.6847 99.168 94.1697 91.4604C90.179 84.7158 85.922 81.5528 84.1762 81.4487L84.0578 81.4444Z" fill="white"/>
<path d="M127.713 142.837C123.268 142.837 119.445 141.352 116.901 138.555C113.648 134.978 112.622 129.471 114.013 123.048C115.338 116.928 118.729 110.634 123.562 105.322C128.748 99.6228 134.017 98.1529 139.099 96.7329C143.887 95.3952 148.84 94.0121 154.318 89.1016C156.151 87.4583 158.198 87.5472 159.664 89.3184C162.009 92.1693 162.564 99.3778 161.045 107.252C159.152 116.878 154.788 125.706 148.469 132.689C143.723 137.92 137.718 141.389 131.563 142.486C130.29 142.716 129.003 142.834 127.713 142.837ZM156.963 91.456C156.829 91.456 156.646 91.5558 156.342 91.8268C150.315 97.2315 144.774 98.7773 139.888 100.143C134.793 101.565 130.392 102.795 125.827 107.811C121.408 112.667 118.319 118.367 117.129 123.854C116.005 129.042 116.735 133.376 119.167 136.055C121.684 138.822 126.016 139.897 131.05 139.002C136.548 138.026 141.93 134.9 146.204 130.2C152.084 123.702 156.146 115.49 157.912 106.534C159.429 98.6645 158.461 93.1145 157.287 91.6902C157.182 91.5623 157.097 91.4582 156.963 91.4582V91.456Z" fill="white"/>
<path d="M127.648 134.557C125.28 134.557 123.337 133.907 122.229 132.699C122.08 132.536 121.962 132.342 121.881 132.128C121.801 131.914 121.759 131.685 121.759 131.454C121.759 131.223 121.801 130.994 121.881 130.78C121.962 130.566 122.08 130.372 122.229 130.208C122.378 130.045 122.554 129.915 122.749 129.827C122.943 129.738 123.152 129.693 123.362 129.693C123.572 129.693 123.781 129.738 123.975 129.827C124.17 129.915 124.346 130.045 124.495 130.208C125.044 130.811 127.182 131.47 130.589 130.672C132.743 130.167 136.947 128.674 140.878 124.353C141.179 124.023 141.586 123.837 142.011 123.838C142.436 123.838 142.844 124.024 143.144 124.354C143.444 124.684 143.613 125.132 143.613 125.599C143.612 126.066 143.443 126.514 143.143 126.844C139.789 130.529 135.576 133.103 131.256 134.115C130.07 134.4 128.861 134.549 127.648 134.557Z" fill="white"/>
<path d="M107.511 187.074C100.804 187.074 94.3137 184.865 89.2577 180.854C84.2768 176.904 81.4204 171.749 81.4204 166.682C81.4204 161.616 84.2393 156.926 89.3544 153.471C94.2288 150.175 100.677 148.359 107.503 148.359C114.839 148.359 119.504 151.409 124.016 154.36C128.263 157.135 132.654 159.996 139.689 160.79C142.04 161.052 143.437 162.706 143.322 165.106C143.145 168.944 138.902 174.472 132.761 178.862C125.232 184.197 116.469 187.047 107.511 187.074ZM107.511 151.879C101.261 151.879 95.4105 153.51 91.0351 156.469C86.8925 159.266 84.624 162.893 84.624 166.682C84.624 170.596 86.9912 174.719 91.1337 177.999C95.6491 181.581 101.467 183.553 107.507 183.553C115.847 183.526 124.005 180.874 131.017 175.911C137.154 171.523 140.038 166.847 140.127 164.928C140.142 164.586 140.152 164.38 139.367 164.293C131.63 163.426 126.717 160.217 122.383 157.384C117.867 154.431 113.965 151.879 107.511 151.879Z" fill="white"/>
<path d="M107.511 178.793C102.776 178.793 98.1327 177.338 94.4261 174.697C91.0509 172.293 88.9559 169.221 88.9559 166.676C88.9559 166.209 89.1247 165.761 89.4251 165.431C89.7255 165.101 90.1329 164.916 90.5577 164.916C90.9826 164.916 91.39 165.101 91.6904 165.431C91.9908 165.761 92.1595 166.209 92.1595 166.676C92.1595 167.528 93.2484 169.655 96.1699 171.738C98.0183 173.054 101.95 175.265 107.511 175.265C107.936 175.265 108.343 175.451 108.643 175.781C108.944 176.111 109.113 176.559 109.113 177.026C109.113 177.493 108.944 177.94 108.643 178.271C108.343 178.601 107.936 178.786 107.511 178.786V178.793Z" fill="white"/>
<path d="M44.9804 71.6614L32.6078 62.7074L34.501 60.0915L44.7168 67.4847L48.5555 62.1804L50.7123 63.7413L44.9804 71.6614Z" fill="white"/>
<path d="M55.2026 58.7506L45.0209 47.3669L52.6916 40.5062L54.4664 42.4905L49.2025 47.1986L51.6286 49.9111L56.4979 45.556L58.2727 47.5404L53.4035 51.8955L55.8346 54.6136L61.1207 49.8856L62.8955 51.87L55.2026 58.7506Z" fill="white"/>
<path d="M63.6282 33.0892L71.6356 46.0944L68.886 47.7874L60.8786 34.7821L63.6282 33.0892Z" fill="white"/>
<path d="M84.6297 23.6809L89.9478 37.9978L87.3333 38.969L77.7574 32.2717L77.6526 32.3107L80.9997 41.3216L77.9728 42.446L72.6547 28.1291L75.3111 27.1424L84.8355 33.8508L84.9613 33.8041L81.6167 24.8001L84.6297 23.6809Z" fill="white"/>
<path d="M104.442 24.5551C104.316 23.9638 104.01 23.5275 103.524 23.2463C103.037 22.965 102.409 22.8671 101.638 22.9526C101.114 23.0106 100.68 23.1338 100.336 23.322C99.9909 23.5052 99.7364 23.736 99.5721 24.0143C99.4128 24.2921 99.3513 24.5941 99.3874 24.9202C99.4076 25.193 99.4908 25.4239 99.6367 25.6128C99.7877 25.8012 99.9825 25.9572 100.221 26.0808C100.46 26.1994 100.73 26.297 101.034 26.3733C101.337 26.4448 101.658 26.4992 101.998 26.5367L103.397 26.7117C104.076 26.7865 104.706 26.9168 105.287 27.1025C105.867 27.2883 106.38 27.539 106.826 27.8549C107.271 28.1707 107.632 28.5608 107.908 29.0254C108.19 29.4894 108.368 30.0374 108.443 30.6693C108.541 31.5988 108.393 32.4306 107.999 33.1645C107.61 33.8929 106.996 34.4937 106.158 34.9667C105.325 35.4342 104.29 35.7364 103.055 35.8733C101.829 36.0092 100.741 35.9397 99.7904 35.6649C98.8445 35.3896 98.0763 34.912 97.4857 34.2321C96.8996 33.5468 96.5336 32.6595 96.3879 31.5702L99.4935 31.226C99.5845 31.7311 99.7774 32.1399 100.072 32.4524C100.371 32.7594 100.748 32.9752 101.202 33.1C101.66 33.2193 102.166 33.2482 102.72 33.1869C103.263 33.1266 103.726 32.9953 104.109 32.7928C104.497 32.5898 104.786 32.3351 104.977 32.0288C105.168 31.7225 105.244 31.3865 105.203 31.0209C105.165 30.6799 105.032 30.4046 104.804 30.1948C104.581 29.9844 104.267 29.8191 103.864 29.6987C103.465 29.5778 102.982 29.4813 102.413 29.4093L100.715 29.1774C99.4003 29.0079 98.3358 28.6332 97.5212 28.0532C96.7066 27.4732 96.2397 26.6221 96.1203 25.4999C96.0135 24.5813 96.1691 23.7512 96.5871 23.0096C97.0101 22.2675 97.635 21.6555 98.462 21.1737C99.2889 20.6919 100.256 20.3896 101.363 20.267C102.489 20.1421 103.494 20.2258 104.377 20.5182C105.264 20.8099 105.981 21.2732 106.527 21.9081C107.072 22.5429 107.402 23.3116 107.517 24.2142L104.442 24.5551Z" fill="white"/>
<path d="M118.377 35.3509L114.948 34.8855L122.227 20.4606L126.35 21.0203L129.513 36.8624L126.084 36.397L123.878 24.2068L123.76 24.1908L118.377 35.3509ZM118.97 29.3731L127.069 30.4724L126.73 32.9701L118.631 31.8708L118.97 29.3731Z" fill="white"/>
<path d="M142.016 24.4721L145.657 26.0849L145.347 37.1705L145.511 37.243L153.512 29.5643L157.153 31.1771L150.968 45.1412L148.104 43.8727L152.13 34.7838L152.014 34.7324L144.405 42.1524L142.455 41.2886L142.852 30.6331L142.736 30.5817L138.695 39.7047L135.831 38.4362L142.016 24.4721Z" fill="white"/>
<path d="M157.469 49.5343L167.08 37.6649L175.078 44.1413L173.403 46.2103L167.915 41.766L165.624 44.5943L170.701 48.7053L169.026 50.7743L163.949 46.6633L161.654 49.4973L167.166 53.9603L165.49 56.0293L157.469 49.5343Z" fill="white"/>
<path d="M190.471 61.9189L178.321 71.1737L176.631 68.9551L180.252 57.8445L180.184 57.7555L172.537 63.5804L170.58 61.0118L182.73 51.757L184.447 54.0112L180.801 65.0757L180.882 65.1825L188.523 59.3621L190.471 61.9189Z" fill="white"/>
</svg>
