<svg width="80" height="80" viewBox="0 0 80 80" fill="none" xmlns="http://www.w3.org/2000/svg">
<g clip-path="url(#clip0_447_471)">
<path d="M40 80C62.1 80 80 62.1 80 40C80 17.9 62.1 0 40 0C17.9 0 0 17.9 0 40C0 62.1 17.9 80 40 80Z" fill="#001C72"/>
<path d="M58.4004 41.4H71.1004L66.4004 34H58.4004V41.4Z" fill="white"/>
<path d="M56.0996 43.6999V31.7999H64.9996L62.7996 28.3999H52.5996V55.9999H54.9996C54.9996 51.9999 58.1996 48.7999 62.1996 48.7999C66.1996 48.7999 69.3996 51.9999 69.3996 55.9999H71.7996V43.6999H56.0996Z" fill="white"/>
<path d="M62.2002 51C59.5002 51 57.2002 53.2 57.2002 56C57.2002 58.8 59.4002 61 62.2002 61C65.0002 61 67.2002 58.8 67.2002 56C67.2002 53.2 65.0002 51 62.2002 51Z" fill="white"/>
<path d="M24.4004 51C21.7004 51 19.4004 53.2 19.4004 56C19.4004 58.8 21.6004 61 24.4004 61C27.2004 61 29.4004 58.8 29.4004 56C29.4004 53.2 27.1004 51 24.4004 51Z" fill="white"/>
<path d="M11.7998 21.5V55.9H17.0998C17.0998 51.9 20.2998 48.7 24.2998 48.7C28.2998 48.7 31.4998 51.9 31.4998 55.9H49.9998V21.5H11.7998Z" fill="white"/>
<path d="M18.1004 36.7002H21.8004V38.9002H18.1004V43.4002H15.4004V32.2002H21.8004V34.4002H18.1004V36.7002Z" fill="#001C72"/>
<path d="M25.9998 43.4002H23.2998V32.2002H26.8998C28.3998 32.2002 29.3998 32.5002 30.1998 33.0002C30.9998 33.6002 31.3998 34.6002 31.3998 35.8002C31.3998 37.5002 30.6998 38.6002 29.1998 39.2002L31.6998 43.3002H28.4998L25.9998 39.0002V43.4002ZM26.8998 37.5002C27.9998 37.5002 28.6998 36.9002 28.6998 36.0002C28.6998 35.1002 28.0998 34.4002 27.0998 34.4002H26.0998V37.5002H26.8998Z" fill="#001C72"/>
<path d="M35.4998 36.7002H39.1998V38.9002H35.4998V41.2002H39.1998V43.4002H32.7998V32.2002H39.1998V34.4002H35.4998V36.7002Z" fill="#001C72"/>
<path d="M43.2 36.7002H46.9V38.9002H43.2V41.2002H46.9V43.4002H40.5V32.2002H46.9V34.4002H43.2V36.7002Z" fill="#001C72"/>
</g>
<defs>
<clipPath id="clip0_447_471">
<rect width="80" height="80" fill="white"/>
</clipPath>
</defs>
</svg>
