<svg width="225" height="225" viewBox="0 0 225 225" fill="none" xmlns="http://www.w3.org/2000/svg">
<circle cx="112.5" cy="112.5" r="112.5" fill="#001C72"/>
<path d="M25.4962 84.3461C25.1178 84.348 24.7682 84.4018 24.4476 84.5078C24.1221 84.6124 23.828 84.7697 23.5651 84.9797C23.2988 85.1835 23.0669 85.4384 22.8693 85.7443C22.6732 86.0455 22.5169 86.3965 22.4004 86.7976C22.1828 87.5472 22.1781 88.2586 22.3863 88.9319C22.596 89.6004 23.0116 90.1927 23.6331 90.7087C24.2498 91.2233 25.0702 91.6249 26.0943 91.9134C27.1183 92.2019 28.0343 92.2921 28.8422 92.184C29.6501 92.0759 30.3256 91.7911 30.8686 91.3294C31.4068 90.8664 31.7883 90.2482 32.0128 89.4747C32.2167 88.7729 32.2662 88.1387 32.1616 87.572C32.0535 86.9993 31.8079 86.5169 31.4248 86.1249C31.043 85.7281 30.5387 85.4414 29.9119 85.2648L30.1882 84.6608L29.0901 88.4421L26.7501 87.7829L28.5324 81.6454L30.3843 82.1672C31.6763 82.5312 32.7075 83.1161 33.4778 83.9219C34.2433 84.7264 34.7386 85.6769 34.9638 86.7733C35.1842 87.8684 35.1155 89.0318 34.7578 90.2636C34.3586 91.6386 33.7039 92.7609 32.794 93.6305C31.8792 94.4988 30.775 95.0657 29.4813 95.3314C28.1842 95.5909 26.7605 95.5022 25.21 95.0654C24.0185 94.7297 23.0061 94.2586 22.1727 93.6519C21.336 93.0391 20.6831 92.3284 20.2139 91.5196C19.7447 90.7108 19.4609 89.8431 19.3623 88.9167C19.2638 87.9902 19.3553 87.0424 19.6367 86.0732C19.878 85.2424 20.2246 84.5034 20.6766 83.856C21.1238 83.2072 21.648 82.668 22.249 82.2382C22.8515 81.8036 23.5079 81.4953 24.2182 81.3132C24.9237 81.1298 25.6548 81.0904 26.4112 81.195L25.4962 84.3461Z" fill="white"/>
<path d="M39.9473 76.204L26.6843 68.6311L28.3221 65.8482L39.2731 72.1011L42.594 66.4581L44.906 67.7782L39.9473 76.204Z" fill="white"/>
<path d="M45.2151 44.0118L47.4852 41.7154L54.6432 48.581C55.447 49.3518 55.9632 50.2155 56.192 51.1719C56.4243 52.1249 56.3753 53.1007 56.045 54.0995C55.7111 55.0948 55.1003 56.0415 54.2125 56.9396C53.3212 57.8411 52.3749 58.4696 51.3737 58.8248C50.3688 59.1766 49.3797 59.2508 48.4065 59.0474C47.4332 58.8441 46.5447 58.357 45.741 57.5861L38.5829 50.7206L40.8531 48.4242L47.812 55.0987C48.2318 55.5014 48.6941 55.7691 49.1988 55.902C49.7071 56.0313 50.2188 56.0192 50.7339 55.8658C51.249 55.7124 51.725 55.4148 52.1619 54.9728C52.6023 54.5273 52.8918 54.0507 53.0302 53.543C53.1722 53.0317 53.1691 52.5293 53.0208 52.0358C52.8761 51.5388 52.5938 51.089 52.174 50.6863L45.2151 44.0118Z" fill="white"/>
<path d="M65.9024 46.4631L58.0619 33.3565L60.8546 31.7356L64.3117 37.5146L64.4858 37.4135L65.7823 28.8757L69.1297 26.9328L67.7385 35.6464L77.0283 40.0057L73.6873 41.9448L66.8455 38.6563L66.467 41.1176L68.6952 44.8422L65.9024 46.4631Z" fill="white"/>
<path d="M96.1483 25.805C96.5822 27.413 96.6458 28.861 96.3393 30.1488C96.0376 31.4355 95.4429 32.5136 94.555 33.3832C93.6706 34.2468 92.5767 34.8492 91.2733 35.1904C89.9603 35.5341 88.7016 35.5449 87.4974 35.2229C86.2931 34.9009 85.2359 34.2552 84.3255 33.2858C83.4152 32.3165 82.7438 31.0302 82.3112 29.427C81.8774 27.819 81.8113 26.3717 82.113 25.0851C82.4147 23.7985 83.0077 22.7234 83.8921 21.8598C84.7752 20.9914 85.8733 20.3854 87.1863 20.0417C88.4897 19.7005 89.7435 19.6909 90.9478 20.0129C92.1555 20.3289 93.2146 20.9715 94.1249 21.9409C95.04 22.909 95.7145 24.1971 96.1483 25.805ZM92.9812 26.6341C92.7002 25.5925 92.3069 24.755 91.8014 24.1216C91.3006 23.487 90.719 23.0585 90.0566 22.8362C89.3941 22.6139 88.6854 22.6016 87.9303 22.7992C87.1752 22.9969 86.5661 23.3542 86.1031 23.8711C85.6401 24.388 85.3488 25.0449 85.2291 25.8419C85.1142 26.6377 85.1973 27.5564 85.4783 28.598C85.7593 29.6396 86.1502 30.4777 86.651 31.1123C87.1566 31.7457 87.7406 32.1735 88.403 32.3958C89.0654 32.6181 89.7742 32.6304 90.5293 32.4328C91.2844 32.2351 91.8935 31.8779 92.3565 31.361C92.8195 30.8441 93.1084 30.1878 93.2233 29.392C93.3429 28.595 93.2623 27.6756 92.9812 26.6341Z" fill="white"/>
<path d="M107.124 32.0131L107.15 30.0968L114.912 19.5013L107.276 19.4036L107.311 16.7416L119.003 16.8911L118.978 18.8075L111.209 29.4029L118.852 29.5007L118.817 32.1627L107.124 32.0131Z" fill="white"/>
<path d="M130.9 33.9133L127.57 32.9729L136.913 19.7416L140.917 20.8726L141.716 36.9676L138.386 36.0272L137.997 23.6743L137.882 23.6419L130.9 33.9133ZM132.37 28.0905L140.236 30.3118L139.531 32.732L131.666 30.5107L132.37 28.0905Z" fill="white"/>
<path d="M157.927 27.2117L161.277 29.3641L159.151 40.1932L159.301 40.29L168.505 34.0075L171.856 36.1599L163.424 48.8941L160.789 47.2012L166.277 38.9128L166.17 38.8442L157.398 44.9342L155.603 43.7815L157.746 33.3878L157.639 33.3193L152.13 41.6389L149.495 39.946L157.927 27.2117Z" fill="white"/>
<path d="M184.094 47.4706L172.936 57.8985L170.695 55.5728L181.854 45.1449L184.094 47.4706Z" fill="white"/>
<path d="M198.358 66.9094L185.294 74.8217L183.818 72.4558L188.521 61.8395L188.462 61.7446L180.24 66.7246L178.53 63.9855L191.593 56.0731L193.094 58.4769L188.369 69.0451L188.44 69.159L196.656 64.1829L198.358 66.9094Z" fill="white"/>
<path d="M190.052 85.6753L189.087 82.3524L205.258 83.274L206.418 87.2701L193.186 96.4678L192.221 93.1448L202.495 86.2757L202.462 86.1612L190.052 85.6753ZM195.77 83.8397L198.049 91.6888L195.623 92.3723L193.344 84.5232L195.77 83.8397Z" fill="white"/>
<path fill-rule="evenodd" clip-rule="evenodd" d="M73.1163 88.7333C73.7307 88.3558 74.4696 88.2373 75.1703 88.4039C75.871 88.5705 76.4763 89.0084 76.8529 89.6215L88.6996 108.905C89.4457 110.12 89.9448 111.47 90.1682 112.878C90.3915 114.286 90.335 115.725 90.0016 117.112L89.5506 118.991C89.0544 121.052 89.3087 123.221 90.2678 125.11C91.2269 126.998 92.8282 128.483 94.7851 129.297C96.742 130.112 98.9266 130.203 100.948 129.555C102.969 128.907 104.695 127.562 105.816 125.761L106.209 125.138C107.026 123.826 108.137 122.722 109.454 121.913C110.771 121.104 112.259 120.611 113.798 120.475L114.531 120.407C116.645 120.221 118.625 119.289 120.116 117.779C121.608 116.269 122.514 114.279 122.672 112.165C122.83 110.052 122.229 107.952 120.978 106.243C119.728 104.534 117.908 103.327 115.844 102.838L113.965 102.391C112.577 102.061 111.268 101.461 110.112 100.625C108.957 99.7897 107.979 98.7345 107.233 97.52L95.386 78.236C95.0094 77.623 94.8923 76.8851 95.0605 76.1848C95.2286 75.4844 95.6683 74.8789 96.2827 74.5014C96.8971 74.124 97.6359 74.0055 98.3367 74.1721C99.0374 74.3387 99.6427 74.7766 100.019 75.3896L102.893 80.0679C122.598 75.8299 143.67 84.1136 154.798 102.228C165.926 120.342 163.791 142.884 151.104 158.544L153.978 163.223C154.354 163.836 154.472 164.574 154.303 165.274C154.135 165.974 153.696 166.58 153.081 166.957C152.467 167.335 151.728 167.453 151.027 167.287C150.326 167.12 149.721 166.682 149.345 166.069L137.498 146.785C136.752 145.571 136.253 144.221 136.029 142.813C135.806 141.405 135.862 139.966 136.196 138.578L136.647 136.7C137.143 134.638 136.889 132.469 135.93 130.581C134.971 128.692 133.369 127.208 131.412 126.394C129.455 125.579 127.271 125.488 125.25 126.135C123.229 126.783 121.503 128.128 120.381 129.93L119.989 130.553C119.172 131.864 118.06 132.968 116.743 133.778C115.426 134.587 113.939 135.079 112.4 135.215L111.666 135.284C109.553 135.47 107.573 136.401 106.081 137.911C104.59 139.421 103.684 141.411 103.526 143.525C103.368 145.639 103.968 147.738 105.219 149.447C106.47 151.156 108.29 152.364 110.353 152.853L112.233 153.3C113.621 153.629 114.93 154.229 116.085 155.065C117.24 155.901 118.219 156.956 118.965 158.171L130.811 177.455C131.188 178.068 131.305 178.805 131.137 179.506C130.969 180.206 130.529 180.812 129.915 181.189C129.3 181.567 128.562 181.685 127.861 181.518C127.16 181.352 126.555 180.914 126.178 180.301L123.304 175.623C103.6 179.861 82.5275 171.577 71.3992 153.463C60.271 135.348 62.4067 112.807 75.0936 97.1461L72.2196 92.4678C71.843 91.8548 71.7259 91.117 71.8941 90.4166C72.0622 89.7162 72.5019 89.1107 73.1163 88.7333V88.7333Z" fill="white"/>
</svg>
