<svg width="225" height="225" viewBox="0 0 225 225" fill="none" xmlns="http://www.w3.org/2000/svg">
<circle cx="112.5" cy="112.5" r="112.5" fill="#001C72"/>
<path d="M35.3101 75.2319C34.9353 75.188 34.5832 75.1996 34.2539 75.2664C33.92 75.3314 33.6112 75.4527 33.3274 75.6302C33.041 75.8013 32.7828 76.0273 32.5529 76.3084C32.3249 76.5848 32.1308 76.9158 31.9705 77.3014C31.6709 78.0222 31.5864 78.7306 31.717 79.4268C31.8495 80.1183 32.1944 80.7587 32.7517 81.3479C33.3044 81.9352 34.0714 82.4344 35.0527 82.8455C36.034 83.2566 36.9306 83.457 37.7424 83.4467C38.5543 83.4365 39.2549 83.2341 39.8442 82.8395C40.4289 82.4431 40.8759 81.873 41.185 81.1293C41.4655 80.4544 41.5858 79.8283 41.5458 79.251C41.5031 78.6672 41.3142 78.1568 40.9789 77.7199C40.6456 77.2784 40.1786 76.9318 39.5779 76.6802L39.9192 76.1116L38.4079 79.7475L36.1656 78.8082L38.6186 72.9067L40.3932 73.6501C41.6313 74.1688 42.5863 74.8762 43.2584 75.7722C43.9258 76.6663 44.3095 77.6732 44.4093 78.7931C44.5045 79.911 44.306 81.0622 43.8137 82.2466C43.2641 83.5688 42.4901 84.6083 41.4918 85.3651C40.4888 86.12 39.3322 86.5518 38.0218 86.6604C36.7087 86.7626 35.3093 86.5025 33.8236 85.8801C32.6818 85.4017 31.7326 84.81 30.9758 84.1049C30.2163 83.3932 29.6498 82.6061 29.2762 81.7435C28.9025 80.8808 28.7189 79.9819 28.7254 79.0467C28.7318 78.1115 28.9288 77.178 29.3161 76.246C29.6482 75.4472 30.0742 74.7525 30.5943 74.1619C31.1098 73.5693 31.6892 73.0951 32.3324 72.7393C32.9775 72.3789 33.6619 72.1508 34.3855 72.0551C35.1044 71.9574 35.8325 72.0064 36.5695 72.2019L35.3101 75.2319Z" fill="white"/>
<path d="M50.1151 69.5525L37.9397 60.3322L39.8794 57.7507L49.9325 65.3638L53.8657 60.1292L55.9881 61.7364L50.1151 69.5525Z" fill="white"/>
<path d="M58.7102 38.4805L61.2302 36.4615L67.4024 44.2253C68.0954 45.097 68.4942 46.0261 68.5988 47.0125C68.7073 47.9958 68.5365 48.9673 68.0863 49.9268C67.6329 50.8825 66.9135 51.7552 65.9281 52.5447C64.9387 53.3374 63.9296 53.8497 62.9009 54.0815C61.869 54.3095 60.8875 54.2613 59.9565 53.937C59.0255 53.6127 58.2135 53.0147 57.5204 52.143L51.3482 44.3792L53.8682 42.3601L59.8687 49.908C60.2307 50.3633 60.6514 50.6887 61.1308 50.8843C61.6141 51.0768 62.1185 51.1282 62.6441 51.0383C63.1697 50.9485 63.6749 50.7093 64.1599 50.3207C64.6488 49.929 64.9932 49.4874 65.1931 48.9959C65.397 48.5014 65.457 47.9977 65.3734 47.4851C65.2936 46.9693 65.0727 46.4837 64.7107 46.0284L58.7102 38.4805Z" fill="white"/>
<path d="M86.5029 29.5715L83.4914 30.8363C83.2738 30.4693 83.0172 30.17 82.7213 29.9383C82.4236 29.7021 82.0969 29.532 81.7412 29.4279C81.3854 29.3239 81.0095 29.2877 80.6133 29.3193C80.2217 29.3489 79.8242 29.4484 79.4208 29.6179C78.692 29.9239 78.1327 30.3718 77.7429 30.9615C77.3512 31.5467 77.1498 32.246 77.1387 33.0595C77.1257 33.8684 77.3229 34.7615 77.7302 35.739C78.149 36.744 78.6499 37.5258 79.2328 38.0845C79.8202 38.6412 80.4571 38.9804 81.1433 39.102C81.8295 39.2236 82.5279 39.1352 83.2383 38.8368C83.6371 38.6693 83.9841 38.4616 84.2793 38.2135C84.5791 37.9636 84.8199 37.6819 85.0016 37.3683C85.1814 37.0501 85.2972 36.7076 85.349 36.3408C85.4054 35.972 85.3895 35.585 85.3015 35.1798L88.3187 33.9288C88.5104 34.6086 88.5757 35.3145 88.5145 36.0466C88.456 36.7721 88.264 37.481 87.9384 38.1731C87.6155 38.8587 87.1516 39.4903 86.5467 40.0679C85.9445 40.639 85.1919 41.1142 84.2889 41.4934C83.0329 42.0209 81.7913 42.208 80.5641 42.0548C79.3415 41.8997 78.219 41.4032 77.1966 40.5654C76.1788 39.7257 75.3506 38.5395 74.7118 37.0067C74.0712 35.4694 73.8149 34.0402 73.9431 32.7192C74.0712 31.3982 74.5127 30.2476 75.2676 29.2673C76.0205 28.2824 77.0158 27.5301 78.2534 27.0103C79.0693 26.6676 79.8735 26.4647 80.6658 26.4016C81.4627 26.3365 82.2234 26.4106 82.9479 26.624C83.6705 26.8328 84.3333 27.1826 84.9364 27.6735C85.5441 28.1624 86.0663 28.795 86.5029 29.5715Z" fill="white"/>
<path d="M110.748 27.5221C110.934 29.1772 110.778 30.6208 110.281 31.8528C109.789 33.0843 109.039 34.0673 108.031 34.8018C107.027 35.5308 105.856 35.9711 104.517 36.1226C103.168 36.2752 101.924 36.1059 100.783 35.6146C99.6422 35.1233 98.6953 34.3323 97.9425 33.2418C97.1897 32.1512 96.7206 30.7808 96.5353 29.1307C96.3494 27.4756 96.5026 26.0323 96.9946 24.8009C97.4867 23.5694 98.2346 22.5891 99.2383 21.8601C100.242 21.1262 101.417 20.6829 102.766 20.5302C104.105 20.3787 105.345 20.5486 106.485 21.0399C107.631 21.5257 108.58 22.3139 109.332 23.4045C110.09 24.4945 110.562 25.8671 110.748 27.5221ZM107.495 27.8903C107.374 26.8182 107.112 25.9323 106.709 25.2325C106.31 24.5321 105.8 24.0244 105.179 23.7094C104.559 23.3944 103.86 23.2808 103.085 23.3686C102.309 23.4564 101.654 23.7232 101.119 24.169C100.583 24.6149 100.196 25.224 99.958 25.9965C99.7245 26.7684 99.6679 27.6904 99.7883 28.7625C99.9087 29.8346 100.168 30.7208 100.567 31.4212C100.971 32.121 101.483 32.6284 102.104 32.9434C102.725 33.2584 103.423 33.372 104.198 33.2842C104.974 33.1965 105.629 32.9297 106.165 32.4838C106.7 32.038 107.084 31.4291 107.318 30.6572C107.556 29.8847 107.615 28.9624 107.495 27.8903Z" fill="white"/>
<path d="M129.566 25.9715C129.602 25.368 129.423 24.8659 129.028 24.4653C128.634 24.0647 128.054 23.8029 127.288 23.68C126.768 23.5966 126.317 23.5997 125.935 23.6895C125.554 23.7744 125.248 23.9291 125.015 24.1537C124.788 24.3791 124.649 24.6538 124.597 24.9778C124.544 25.2463 124.563 25.491 124.654 25.712C124.75 25.9338 124.896 26.1361 125.094 26.3188C125.292 26.4966 125.527 26.6628 125.8 26.8173C126.073 26.9668 126.368 27.1048 126.685 27.2313L127.988 27.7727C128.623 28.0255 129.195 28.3188 129.706 28.6525C130.217 28.9862 130.645 29.3646 130.99 29.7876C131.336 30.2106 131.58 30.6828 131.724 31.2043C131.872 31.7266 131.899 32.3024 131.804 32.9316C131.652 33.8539 131.289 34.6164 130.714 35.2191C130.146 35.8177 129.395 36.2334 128.462 36.4664C127.534 36.6952 126.457 36.7112 125.23 36.5142C124.012 36.3189 122.982 35.9622 122.138 35.4441C121.299 34.9269 120.685 34.2619 120.296 33.4492C119.913 32.6324 119.795 31.6795 119.943 30.5905L123.028 31.0855C122.982 31.5968 123.06 32.0422 123.261 32.422C123.468 32.7976 123.774 33.1059 124.179 33.3471C124.589 33.5841 125.069 33.7468 125.619 33.835C126.159 33.9216 126.64 33.9183 127.063 33.825C127.49 33.7324 127.837 33.564 128.102 33.3196C128.367 33.0752 128.529 32.7713 128.587 32.408C128.641 32.0692 128.586 31.7683 128.421 31.5052C128.261 31.243 128.003 31.0001 127.646 30.7766C127.294 30.554 126.853 30.3322 126.325 30.1115L124.748 29.4356C123.526 28.9223 122.599 28.2776 121.968 27.5015C121.336 26.7255 121.112 25.7806 121.294 24.6668C121.434 23.7528 121.804 22.994 122.404 22.3903C123.008 21.7874 123.773 21.3638 124.698 21.1194C125.623 20.8751 126.635 20.8412 127.735 21.0176C128.854 21.1972 129.8 21.5454 130.574 22.0623C131.352 22.5799 131.92 23.2174 132.278 23.9747C132.636 24.7319 132.75 25.561 132.622 26.4619L129.566 25.9715Z" fill="white"/>
<path d="M140.701 40.3311L137.548 38.9072L148.597 27.1388L152.39 28.8512L150.944 44.9557L147.79 43.5318L149.121 31.2046L149.012 31.1555L140.701 40.3311ZM142.959 34.7635L150.408 38.1269L149.377 40.4272L141.928 37.0639L142.959 34.7635Z" fill="white"/>
<path d="M167.257 37.2112L170.229 39.8619L166.567 50.3458L166.701 50.4649L176.64 45.5804L179.612 48.2312L169.49 59.6681L167.153 57.5832L173.741 50.1392L173.646 50.0548L164.158 54.8121L162.566 53.3924L166.18 43.3454L166.086 43.261L159.473 50.733L157.135 48.6481L167.257 37.2112Z" fill="white"/>
<path d="M189.095 60.5954L176.564 69.3255L174.727 66.6693L187.259 57.9391L189.095 60.5954Z" fill="white"/>
<path d="M199.725 81.7011L185.639 87.6024L184.568 85.0269L190.884 75.1771L190.841 75.0738L181.975 78.788L180.736 75.8063L194.822 69.9051L195.91 72.5218L189.581 82.3205L189.633 82.4445L198.492 78.7332L199.725 81.7011Z" fill="white"/>
<path fill-rule="evenodd" clip-rule="evenodd" d="M74.1163 90.7333C74.7307 90.3558 75.4696 90.2373 76.1703 90.4039C76.871 90.5705 77.4763 91.0084 77.8529 91.6215L89.6996 110.905C90.4457 112.12 90.9448 113.47 91.1682 114.878C91.3915 116.286 91.335 117.725 91.0016 119.112L90.5506 120.991C90.0544 123.052 90.3087 125.221 91.2678 127.11C92.2269 128.998 93.8282 130.483 95.7851 131.297C97.742 132.112 99.9266 132.203 101.948 131.555C103.969 130.907 105.695 129.562 106.816 127.761L107.209 127.138C108.026 125.826 109.137 124.722 110.454 123.913C111.771 123.104 113.259 122.611 114.798 122.475L115.531 122.407C117.645 122.221 119.625 121.289 121.116 119.779C122.608 118.269 123.514 116.279 123.672 114.165C123.83 112.052 123.229 109.952 121.978 108.243C120.728 106.534 118.908 105.327 116.844 104.838L114.965 104.391C113.577 104.061 112.268 103.461 111.112 102.625C109.957 101.79 108.979 100.734 108.233 99.52L96.386 80.236C96.0094 79.623 95.8923 78.8851 96.0605 78.1848C96.2286 77.4844 96.6683 76.8789 97.2827 76.5014C97.8971 76.124 98.6359 76.0055 99.3367 76.1721C100.037 76.3387 100.643 76.7766 101.019 77.3896L103.893 82.0679C123.598 77.8299 144.67 86.1136 155.798 104.228C166.926 122.342 164.791 144.884 152.104 160.544L154.978 165.223C155.354 165.836 155.472 166.574 155.303 167.274C155.135 167.974 154.696 168.58 154.081 168.957C153.467 169.335 152.728 169.453 152.027 169.287C151.326 169.12 150.721 168.682 150.345 168.069L138.498 148.785C137.752 147.571 137.253 146.221 137.029 144.813C136.806 143.405 136.862 141.966 137.196 140.578L137.647 138.7C138.143 136.638 137.889 134.469 136.93 132.581C135.971 130.692 134.369 129.208 132.412 128.394C130.455 127.579 128.271 127.488 126.25 128.135C124.229 128.783 122.503 130.128 121.381 131.93L120.989 132.553C120.172 133.864 119.06 134.968 117.743 135.778C116.426 136.587 114.939 137.079 113.4 137.215L112.666 137.284C110.553 137.47 108.573 138.401 107.081 139.911C105.59 141.421 104.684 143.411 104.526 145.525C104.368 147.639 104.968 149.738 106.219 151.447C107.47 153.156 109.29 154.364 111.353 154.853L113.233 155.3C114.621 155.629 115.93 156.229 117.085 157.065C118.24 157.901 119.219 158.956 119.965 160.171L131.811 179.455C132.188 180.068 132.305 180.805 132.137 181.506C131.969 182.206 131.529 182.812 130.915 183.189C130.3 183.567 129.562 183.685 128.861 183.518C128.16 183.352 127.555 182.914 127.178 182.301L124.304 177.623C104.6 181.861 83.5275 173.577 72.3992 155.463C61.271 137.348 63.4067 114.807 76.0936 99.1461L73.2196 94.4678C72.843 93.8548 72.7259 93.117 72.8941 92.4166C73.0622 91.7162 73.5019 91.1107 74.1163 90.7333V90.7333Z" fill="white"/>
</svg>
