<svg width="227" height="227" viewBox="0 0 227 227" fill="none" xmlns="http://www.w3.org/2000/svg">
<g clip-path="url(#clip0_5_501)">
<path d="M113.39 226.78C176.014 226.78 226.78 176.014 226.78 113.39C226.78 50.7664 176.014 0 113.39 0C50.7664 0 0 50.7664 0 113.39C0 176.014 50.7664 226.78 113.39 226.78Z" fill="#001C72"/>
<path d="M73.1802 40.88L69.5201 42.75L60.4302 24.92L64.0899 23.05L67.94 30.59L74.7002 27.14L70.8599 19.61L74.5201 17.74L83.6099 35.57L79.9502 37.44L76.23 30.14L69.46 33.59L73.1802 40.88Z" fill="#FCF1E0"/>
<path d="M100.6 13.83C102.716 15.3871 104.149 17.7016 104.6 20.2901C104.886 21.6074 104.909 22.9684 104.667 24.2947C104.426 25.621 103.924 26.8864 103.192 28.0183C102.46 29.1502 101.511 30.1262 100.4 30.8902C99.2894 31.6542 98.0385 32.1911 96.7195 32.47C95.3891 32.7754 94.0111 32.8122 92.6663 32.5783C91.3215 32.3444 90.0372 31.8444 88.888 31.1078C87.7388 30.3712 86.748 29.4126 85.9739 28.2883C85.1998 27.164 84.6577 25.8965 84.3797 24.56C84.0699 23.2092 84.0349 21.8099 84.2771 20.4454C84.5193 19.0808 85.0336 17.779 85.7893 16.6173C86.5451 15.4557 87.5272 14.458 88.6766 13.6836C89.8259 12.9093 91.1193 12.3741 92.4798 12.11C93.8783 11.8134 95.3234 11.8133 96.722 12.1095C98.1206 12.4058 99.4417 12.9919 100.6 13.83V13.83ZM88.4397 23.63C88.5732 24.4593 88.8719 25.2533 89.3182 25.9649C89.7644 26.6765 90.349 27.2912 91.0374 27.7725C91.7258 28.2538 92.5039 28.5918 93.3255 28.7666C94.147 28.9414 94.995 28.9494 95.8196 28.7901C96.6304 28.6046 97.3962 28.2594 98.0721 27.7747C98.748 27.29 99.3204 26.6754 99.7561 25.9669C100.192 25.2584 100.482 24.4702 100.61 23.6483C100.737 22.8264 100.7 21.9873 100.5 21.18C99.6998 17.39 96.5899 15.13 93.1199 15.87C89.6499 16.61 87.6597 19.9 88.4397 23.63V23.63Z" fill="#FCF1E0"/>
<path d="M113.83 30.25L109.73 30.02L110.84 10.02L114.84 10.25L122.51 23.17L123.2 10.71L127.3 10.94L126.19 30.94L122.19 30.72L114.5 17.61L113.83 30.25Z" fill="#FCF1E0"/>
<path d="M137.01 21.64L143.77 23.5301L142.87 26.7601L136.11 24.8801L134.76 29.7L141.52 31.5901L140.62 34.83L129.9 31.83L135.27 12.55L145.99 15.55L145.09 18.7901L138.33 16.9001L137.01 21.64Z" fill="#FCF1E0"/>
<path d="M152.2 40.18L148.54 38.31L152.54 30.46L151.69 17.46L156.04 19.69L156.33 27.62L162.87 23.19L167.15 25.37L156.2 32.37L152.2 40.18Z" fill="#FCF1E0"/>
<path d="M142.69 98.03V64.19L113.37 47.26L84.07 64.18V98.03L90.1 101.52L113.38 114.95L142.69 98.03Z" fill="#FCF1E0"/>
<path d="M176.49 156.59V122.74L147.18 105.82L117.88 122.74V156.59L147.18 173.51L176.49 156.59Z" fill="#FCF1E0"/>
<path d="M50.28 122.73V156.58L79.59 173.5L108.89 156.58V122.74L79.58 105.81L50.28 122.73Z" fill="#FCF1E0"/>
</g>
<defs>
<clipPath id="clip0_5_501">
<rect width="226.77" height="226.77" fill="white"/>
</clipPath>
</defs>
</svg>
