<svg width="225" height="225" viewBox="0 0 225 225" fill="none" xmlns="http://www.w3.org/2000/svg">
<circle cx="112.5" cy="112.5" r="112.5" fill="#001C72"/>
<g clip-path="url(#clip0_116_206)">
<path d="M154.162 142.379C154.822 139.47 155.195 136.103 154.654 132.115C153.911 126.639 150.21 113.03 143.511 105.921C142.834 105.203 142.17 104.54 141.515 103.926C145.57 99.1919 148.025 94.9969 148.807 91.4522C148.963 90.7417 149.051 90.0574 149.078 89.397C150.071 88.784 150.753 87.8561 151.063 86.6872C151.744 84.1232 150.531 81.0703 149.55 79.6437C148.394 77.9637 146.125 77 143.326 77C141.748 77 140.888 77.7231 140.465 78.4693C138.327 77.4633 136.093 77 133.593 77C129.631 77 125.806 78.466 122.432 79.7597C121.18 80.2395 119.998 80.6926 118.894 81.0391C118.607 81.1292 117.84 81.2437 116.869 81.3888C111.049 82.2583 95.5893 84.5678 81.5647 95.9224C73.6513 102.329 67.4072 110.661 63.0058 120.687C57.6936 132.787 55 147.528 55 164.5C55 176.574 59.2371 179 66.0736 179C72.5633 179 82.0394 177.208 87.3872 172.156C89.9484 169.736 98.4553 160.647 100.381 145.277C101.253 138.316 104.725 133.285 112.244 128.231C111.676 132.168 111.532 136.008 111.835 139.591C112.438 146.713 114.735 152.719 118.662 157.445C119.187 158.077 119.791 159.593 120.491 161.348C122.732 166.967 126.409 176.189 135.436 176.189C135.791 176.189 136.157 176.17 136.528 176.141C137.464 176.803 140.794 179 143.729 179C147.305 179 150.253 177.789 152.742 175.296C154.835 172.923 156.201 169.56 156.701 165.019C157.047 161.136 157.763 153.082 154.162 142.379ZM143.326 78.619C145.551 78.619 147.379 79.3454 148.216 80.5619C149.055 81.7804 150.007 84.358 149.499 86.2717C149.383 86.7066 149.2 87.0772 148.95 87.3896C148.659 85.7933 147.919 84.3806 146.732 83.1651C145.1 81.4951 143.513 80.1966 141.891 79.23C142.075 78.9329 142.471 78.619 143.326 78.619ZM133.593 78.619C138.164 78.619 141.635 80.2638 145.573 84.2964C147.28 86.0444 147.836 88.3348 147.226 91.1039C146.503 94.3805 144.175 98.3285 140.31 102.844C139.643 102.273 138.986 101.757 138.338 101.295C138.652 98.6681 139.655 86.7635 133.35 78.6247C133.431 78.6233 133.512 78.619 133.593 78.619ZM131.38 78.7801C137.445 85.7002 137.118 96.6085 136.806 100.295C135.025 99.2431 133.308 98.6195 131.629 98.4129C131.245 96.1888 131.101 94.0597 130.965 91.996C130.636 86.995 130.343 82.6009 126.48 79.9999C128.069 79.4656 129.717 79.01 131.38 78.7801ZM109.285 84.5023C117.592 89.8251 118.996 101.383 119.01 101.5C119.056 101.914 119.406 102.219 119.813 102.219C119.843 102.219 119.874 102.218 119.904 102.214C120.349 102.164 120.668 101.764 120.618 101.32C120.564 100.832 119.261 90.0101 111.416 84.019L118.923 82.6952C122.649 85.9691 122.687 89.3746 122.687 89.5177C122.681 89.9647 123.039 90.3316 123.486 90.3377C123.489 90.3377 123.493 90.3377 123.496 90.3377C123.939 90.3377 124.3 89.9821 124.306 89.5387C124.308 89.3724 124.306 85.7309 120.695 82.1376L124.473 80.7165C128.731 82.7592 128.993 86.6969 129.35 92.1027C129.475 94.0121 129.616 96.144 129.974 98.3427C128.989 98.3834 128.014 98.5696 127.045 98.9011C122.569 100.432 116.923 109.665 113.913 120.376C113.904 120.41 113.896 120.442 113.886 120.476C112.227 118.384 111.125 115.465 109.882 112.161C108.468 108.403 106.891 104.213 104.097 100.516C105.617 98.9535 106.657 97.264 107.134 95.6982C111.53 102.138 113.146 108.721 113.163 108.792C113.252 109.164 113.584 109.414 113.95 109.414C114.012 109.414 114.076 109.406 114.139 109.391C114.574 109.287 114.842 108.851 114.738 108.416C114.661 108.091 112.785 100.426 107.4 93.2923C107.322 92.626 107.098 92.0221 106.715 91.5123C105.838 90.343 102.894 88.1882 94.4478 93.0435C93.2665 92.5433 91.9888 92.1011 90.6015 91.7277C95.9882 88.6695 102.179 86.2093 109.285 84.5023ZM103.071 99.249C101.303 97.2077 99.0969 95.3636 96.2552 93.8905C101.608 91.0319 104.528 91.2942 105.42 92.4834C106.343 93.7134 105.681 96.5032 103.071 99.249ZM63.9817 177.28C59.3362 176.775 56.7783 174.188 56.6267 165.351C57.9629 163.174 59.3326 162.276 60.1837 162.169C60.5751 162.12 60.8949 162.224 61.1587 162.488C61.6155 162.944 61.7851 163.671 61.9998 164.591C62.2925 165.844 62.6568 167.403 63.9884 168.816C65.2368 170.14 66.449 171.574 66.3701 173.261C66.3114 174.523 65.5074 175.874 63.9817 177.28ZM86.2752 170.979C81.6107 175.385 72.82 177.366 66.1468 177.38C67.3189 176.031 67.9243 174.698 67.9881 173.337C68.0968 171.017 66.5891 169.213 65.1674 167.706C64.1348 166.61 63.8514 165.396 63.5771 164.222C63.3254 163.144 63.0875 162.126 62.304 161.343C61.6807 160.719 60.8763 160.449 59.9817 160.562C58.8736 160.702 57.7112 161.432 56.6312 162.63C56.7062 156.438 57.1618 150 58.1838 143.582C75.3111 143.715 79.4729 151.916 83.496 159.852C84.9926 162.804 86.5375 165.85 88.7249 168.37C87.7052 169.572 86.8393 170.446 86.2752 170.979ZM65.2206 142.543C66.1499 139.564 67.6381 137.987 68.7886 137.502C69.1952 137.331 69.7931 137.193 70.3357 137.507C71.5402 138.205 71.8222 141.644 71.6608 144.4C69.7303 143.566 67.5881 142.948 65.2206 142.543ZM94.4957 159.494C92.9957 155.777 88.6411 146.921 78.843 139.188C78.4917 138.91 77.9826 138.971 77.706 139.321C77.4289 139.672 77.489 140.182 77.8397 140.458C88.8388 149.139 92.83 159.532 93.4884 161.429C92.2398 163.689 90.941 165.579 89.763 167.091C87.811 164.778 86.4114 162.023 84.9402 159.12C82.8332 154.964 80.6541 150.666 76.6328 147.392C75.5913 146.544 74.4578 145.798 73.2301 145.151C73.4092 143.091 73.6409 137.552 71.1478 136.107C70.2748 135.601 69.2134 135.566 68.1595 136.011C66.2088 136.833 64.5333 139.16 63.5998 142.303C61.9836 142.1 60.2693 141.987 58.4532 141.965C59.2298 137.512 60.2871 133.079 61.6867 128.755C73.2452 127.661 82.2369 131.652 87.0409 140.03C90.4327 145.946 95.4355 152.849 96.5987 154.435C95.965 156.265 95.2507 157.952 94.4957 159.494ZM98.7743 145.076C98.4379 147.761 97.8924 150.243 97.2132 152.527C95.4015 150.018 91.3302 144.255 88.4454 139.224C83.4064 130.436 74.1354 126.152 62.2482 127.079C64.5254 120.513 67.6217 114.229 71.7602 108.542C72.783 108.572 73.7691 108.677 74.7199 108.849C73.7148 111.184 73.8692 113.181 75.1869 114.309C75.8572 114.882 76.731 115.161 77.7377 115.161C79.4304 115.161 81.4979 114.37 83.6017 112.859C89.2989 117.166 93.286 123.904 96.5234 129.376C98.4381 132.612 99.9938 135.239 101.516 136.681C100.067 139.213 99.1617 141.984 98.7743 145.076ZM76.3319 109.212C78.4613 109.789 80.406 110.707 82.1914 111.869C79.3571 113.762 77.1562 113.862 76.2396 113.078C75.4494 112.402 75.4933 110.979 76.3319 109.212ZM92.2661 119.721C95.0888 118.576 96.9622 118.367 97.8341 119.109C99.289 120.347 98.6259 124.54 97.7406 128.254C96.19 125.633 94.3982 122.631 92.2661 119.721ZM103.444 133.844C103.071 134.311 102.724 134.788 102.395 135.273C101.356 134.192 100.198 132.372 98.915 130.231C100.773 123.065 100.761 119.473 98.8836 117.876C97.4156 116.627 95.0479 116.783 91.2575 118.386C86.8106 112.686 80.9606 107.644 72.9319 106.987C77.105 101.618 82.2638 96.8315 88.6065 92.9104C101.998 95.8137 105.381 104.797 108.366 112.731C109.773 116.468 111.107 120.003 113.392 122.366C113.087 123.603 112.822 124.838 112.598 126.066C108.508 128.67 105.591 131.147 103.444 133.844ZM119.798 156.276C110.197 144.561 113.569 127.587 115.472 120.814C118.633 109.565 124.105 101.618 127.569 100.432C128.484 100.12 129.41 99.9621 130.355 99.9621C133.625 99.9621 137.114 101.853 141.078 105.748C143.438 113.789 143.509 123.887 141.266 133.494C139.128 142.654 135.081 150.457 130.442 154.366C126.925 157.329 123.346 157.97 119.798 156.276ZM121.054 158.462C121.919 158.694 122.788 158.814 123.657 158.814C126.305 158.814 128.953 157.738 131.485 155.604C136.455 151.416 140.595 143.491 142.843 133.862C144.661 126.075 145.018 118.217 143.926 111.149C147.342 118.9 148.356 127.146 146.937 135.737C145.74 141.711 143.129 147.87 139.828 154.11C136.877 158.629 133.585 163.673 126.224 163.673C125.25 163.672 124.203 163.583 123.077 163.394L121.054 158.462ZM123.864 165.143C124.667 165.239 125.434 165.285 126.166 165.285C134.464 165.285 138.292 159.423 141.184 154.995C144.648 149.155 147.315 142.958 148.535 136.001C149.886 127.82 149.109 119.943 146.231 112.489C149.908 118.957 152.376 127.367 153.05 132.333C153.89 138.526 152.435 143.017 151.152 146.979C150.642 148.553 150.162 150.043 149.866 151.514C147.395 154.678 145.69 157.527 144.185 160.044C142.533 162.807 141.228 164.99 139.587 166.394C138.201 167.582 135.871 167.909 133.618 168.226C131.208 168.565 128.727 168.914 127.021 170.304C125.745 168.76 124.722 166.951 123.864 165.143ZM128.119 171.498C129.476 170.444 131.606 170.144 133.844 169.83C136.327 169.481 138.895 169.12 140.641 167.624C142.482 166.048 143.847 163.765 145.575 160.875C146.569 159.212 147.653 157.402 148.987 155.458C147.372 161.852 143.461 173.824 136.682 174.506C133.006 174.876 130.251 173.57 128.119 171.498ZM155.088 164.875C154.757 168.701 153.558 171.763 151.597 174.152C149.396 176.355 146.896 177.381 143.729 177.381C142.047 177.381 140.095 176.436 138.777 175.661C147.108 172.547 150.738 155.6 151.417 152.012C151.688 150.578 152.176 149.072 152.693 147.478C152.917 146.786 153.15 146.063 153.379 145.307C156.012 154.488 155.398 161.401 155.088 164.875Z" fill="white"/>
<path d="M132.098 119.789C131.955 117.188 131.269 115.736 130.06 115.472C127.488 114.904 125.027 120.579 123.824 126.084C122.621 131.588 122.495 137.768 125.063 138.33C125.186 138.357 125.31 138.37 125.433 138.37C126.522 138.37 127.625 137.325 128.717 135.256C129.746 133.305 130.663 130.628 131.3 127.718C131.936 124.807 132.219 121.991 132.098 119.789ZM129.717 127.372C129.111 130.144 128.247 132.676 127.285 134.501C126.251 136.46 125.531 136.776 125.408 136.748C125.286 136.721 124.763 136.134 124.641 133.923C124.528 131.863 124.799 129.202 125.405 126.43C126.011 123.657 126.875 121.126 127.838 119.301C128.834 117.414 129.538 117.052 129.698 117.052C129.704 117.052 129.709 117.053 129.714 117.054C129.837 117.08 130.359 117.667 130.481 119.879C130.595 121.938 130.323 124.599 129.717 127.372Z" fill="white"/>
<path d="M119.73 118.368C120.147 118.53 120.616 118.323 120.778 117.906C123.814 110.089 128.188 107.253 131.177 107.91C134.485 108.637 136.36 113.272 135.955 119.717C135.927 120.163 136.266 120.547 136.713 120.575C136.73 120.576 136.747 120.577 136.764 120.577C137.188 120.577 137.544 120.247 137.571 119.818C138.127 110.975 134.812 107.052 131.525 106.329C127.054 105.346 122.244 109.66 119.268 117.32C119.106 117.737 119.313 118.206 119.73 118.368Z" fill="white"/>
<path d="M128.735 146.202C129.423 144.706 130.193 143.952 131.084 143.079C132.244 141.944 133.557 140.658 134.965 137.602C135.153 137.196 134.975 136.715 134.569 136.528C134.162 136.34 133.682 136.518 133.495 136.924C132.211 139.71 131.063 140.834 129.952 141.922C128.987 142.866 128.076 143.758 127.263 145.526C126.22 147.797 124.478 149.004 122.824 148.6C120.716 148.085 118.389 144.701 118.768 136.859C118.79 136.412 118.445 136.033 117.999 136.011C117.544 135.996 117.173 136.334 117.151 136.781C116.725 145.598 119.603 149.48 122.44 150.173C122.785 150.257 123.131 150.299 123.475 150.299C125.559 150.299 127.548 148.784 128.735 146.202Z" fill="white"/>
<path d="M73.1084 166.349C72.7123 166.556 72.5591 167.045 72.7665 167.441C74.4274 170.615 74.7306 174.089 74.7335 174.123C74.7679 174.547 75.1221 174.868 75.5394 174.868C75.5613 174.868 75.5835 174.867 75.6058 174.865C76.0515 174.829 76.3834 174.438 76.3474 173.993C76.3347 173.838 76.0195 170.165 74.2011 166.691C73.9939 166.295 73.5045 166.142 73.1084 166.349Z" fill="white"/>
<path d="M58.8909 152.528C58.4489 152.595 58.1455 153.009 58.2131 153.451C58.2811 153.893 58.6946 154.197 59.136 154.128C65.2208 153.196 68.4157 158.138 70.7397 163.095C70.8775 163.388 71.169 163.561 71.4734 163.561C71.5884 163.561 71.7054 163.536 71.8165 163.484C72.2213 163.294 72.3955 162.812 72.2059 162.408C69.7781 157.23 66.0683 151.429 58.8909 152.528Z" fill="white"/>
<path d="M73.881 118.486C73.4541 118.352 72.9997 118.589 72.8656 119.015C72.7314 119.442 72.9682 119.896 73.3946 120.031C82.1987 122.802 86.4788 129.084 86.5205 129.146C86.6766 129.381 86.9334 129.508 87.1955 129.508C87.3496 129.508 87.505 129.464 87.6429 129.372C88.0153 129.125 88.1165 128.623 87.8689 128.25C87.685 127.973 83.2548 121.437 73.881 118.486Z" fill="white"/>
<path d="M84.318 97.9285C83.9035 97.7611 83.4317 97.9613 83.2639 98.3758C83.0965 98.7904 83.2967 99.2622 83.7112 99.4298C91.9514 102.76 95.5102 110.465 95.545 110.541C95.6798 110.842 95.9749 111.02 96.2837 111.02C96.3947 111.02 96.5074 110.997 96.6151 110.948C97.0231 110.765 97.2051 110.286 97.0219 109.878C96.8689 109.538 93.1787 101.509 84.318 97.9285Z" fill="white"/>
</g>
<path d="M46.5876 67.7357L35.3724 57.3686L37.5643 54.9974L42.5092 59.5685L42.6459 59.4206L41.4317 50.8136L44.0589 47.9715L45.2334 56.7753L55.3196 58.2893L52.6975 61.1259L45.2467 59.9358L45.5923 62.4184L48.7795 65.3645L46.5876 67.7357Z" fill="white"/>
<path d="M62.2266 34.2484L64.9651 32.5374L70.2205 40.949C70.8106 41.8934 71.1013 42.8608 71.0927 43.851C71.0884 44.8386 70.8073 45.7821 70.2496 46.6816C69.6893 47.5768 68.8737 48.359 67.8027 49.0281C66.7276 49.6999 65.6648 50.0912 64.6145 50.2023C63.5616 50.3091 62.5904 50.1479 61.7009 49.7188C60.8114 49.2897 60.0716 48.6029 59.4815 47.6585L54.2262 39.2469L56.9647 37.536L62.0738 45.7135C62.382 46.2068 62.7635 46.5781 63.2183 46.8275C63.6772 47.0742 64.1734 47.1833 64.7067 47.155C65.24 47.1266 65.7702 46.9478 66.2972 46.6185C66.8285 46.2866 67.2217 45.8885 67.4768 45.4243C67.7362 44.9574 67.8535 44.4649 67.8288 43.9469C67.8083 43.4262 67.644 42.9192 67.3358 42.4259L62.2266 34.2484Z" fill="white"/>
<path d="M82.6028 40.9354L78.1084 26.339L83.8671 24.5658C84.9695 24.2264 85.971 24.1339 86.8716 24.2883C87.7756 24.4365 88.5424 24.8064 89.1719 25.3981C89.8047 25.9835 90.2696 26.7585 90.5666 27.7231C90.8651 28.6924 90.9128 29.5906 90.7097 30.4178C90.5052 31.2403 90.0633 31.959 89.3839 32.5739C88.7093 33.1874 87.8113 33.6668 86.6899 34.012L82.8341 35.1993L82.0704 32.719L85.4273 31.6854C86.0165 31.504 86.481 31.2725 86.8209 30.991C87.1608 30.7095 87.376 30.3779 87.4666 29.9963C87.5619 29.6132 87.5357 29.1817 87.3879 28.7018C87.2387 28.2172 87.0155 27.8386 86.7182 27.5659C86.4258 27.2919 86.056 27.13 85.609 27.0804C85.1652 27.0245 84.6464 27.0881 84.0525 27.271L81.9713 27.9118L85.6889 39.9852L82.6028 40.9354ZM88.4402 31.8657L94.1132 37.3912L90.7064 38.4402L85.1118 32.8906L88.4402 31.8657Z" fill="white"/>
<path d="M102.932 35.6768L102.238 20.4199L105.464 20.2732L105.77 27.0002L105.971 26.9911L111.155 20.0143L115.022 19.8384L109.67 26.9273L115.783 35.0923L111.924 35.2678L107.459 29.1853L105.96 31.1944L106.158 35.5301L102.932 35.6768Z" fill="white"/>
<path d="M137.591 22.8416L140.741 23.5488L138.569 33.2263C138.326 34.313 137.853 35.2055 137.151 35.9039C136.454 36.6035 135.591 37.0773 134.562 37.3253C133.534 37.5685 132.404 37.5518 131.172 37.2753C129.935 36.9977 128.904 36.5293 128.079 35.8702C127.254 35.2063 126.677 34.4092 126.345 33.4788C126.014 32.5484 125.97 31.54 126.214 30.4534L128.386 20.7758L131.537 21.4829L129.425 30.8913C129.298 31.4588 129.308 31.9911 129.457 32.488C129.61 32.9861 129.886 33.4124 130.286 33.767C130.685 34.1216 131.188 34.3669 131.794 34.503C132.405 34.6402 132.965 34.6333 133.473 34.4823C133.985 34.3324 134.415 34.0645 134.761 33.6786C135.112 33.2937 135.352 32.8175 135.479 32.25L137.591 22.8416Z" fill="white"/>
<path d="M155.104 28.3727L158.56 30.3496L157.117 41.3452L157.273 41.4341L166.018 34.6144L169.475 36.5913L161.893 49.8492L159.174 48.2943L164.109 39.665L163.999 39.6021L155.67 46.2046L153.819 45.1458L155.304 34.5868L155.194 34.5238L150.241 43.1855L147.522 41.6306L155.104 28.3727Z" fill="white"/>
<path d="M172.504 58.5833L170.138 56.0577L184.89 49.4663L187.734 52.5036L180.186 66.7862L177.82 64.2605L183.806 53.4141L183.724 53.327L172.504 58.5833ZM176.738 54.322L182.324 60.2877L180.485 62.0106L174.898 56.0449L176.738 54.322Z" fill="white"/>
<defs>
<clipPath id="clip0_116_206">
<rect width="102" height="102" fill="white" transform="translate(55 77)"/>
</clipPath>
</defs>
</svg>
