<svg xmlns="http://www.w3.org/2000/svg" width="233.248" height="48.553" viewBox="0 0 233.248 48.553"><defs><style>.a{fill:#001c72;}</style></defs><g transform="translate(0 2617.81)"><path class="a" d="M9.508-2613.63H26.03c7.889,0,15.1,2.427,15.1,12,0,5.193-2.023,9.779-6.068,12.273-3.439,2.158-7.823,2.832-12,2.832a28.4,28.4,0,0,1-7.081-.81l-2.832,12.408c-.4,2.023-.135,2.968,1.416,3.1l4.383.337-.4,1.888H0l.472-1.888,3.439-.337c1.551-.2,2.158-.945,2.631-3.1l7.687-33.38c.472-2.091.067-2.967-1.416-3.1l-3.709-.337Zm7.553,22.186c-.471,1.956,2.361,2.63,5.395,2.63,7.485,0,11.666-4.517,11.666-13.621,0-5.665-3.236-8.969-9.441-8.969-3.1,0-3.3.337-3.709,2.293Z" transform="translate(0 -0.741)"/><path class="a" d="M65.849-2575.411c-4.384,7.081-10.116,9.238-15.173,9.238-3.978,0-9.374-1.617-9.374-10.452a25.277,25.277,0,0,1,5.26-15.241c3.506-4.316,7.957-7.013,13.689-7.013,5.26,0,7.553,3.034,7.553,6.474,0,8.7-13.42,11.194-19.961,11.935-.067.473-.135,2.023-.135,2.361,0,4.923,1.349,8.7,5.732,8.7,4.788,0,8.429-3.912,10.857-7.283Zm-3.777-17.466c0-2.157-1.214-3.776-3.439-3.776-4.99,0-9.508,6.406-10.587,14.026C56.205-2583.773,62.072-2586.808,62.072-2592.877Z" transform="translate(-7.317 -3.354)"/><path class="a" d="M82.858-2597.36l-5.6,22.86c-.4,1.551-.337,2.967.876,2.967,1.753,0,5.193-4.114,6.677-6.676l1.416,1.213c-2.563,4.788-6.542,9.036-11.666,9.036-3.237,0-4.046-2.7-3.1-6.406l5.664-23h-5.26l.674-2.495h5.193l1.484-5.732,5.8-3.372.741.472-2.292,8.632h11.08l-.742,2.495Z" transform="translate(-12.594 -1.568)"/><path class="a" d="M83.1-2569.6l.4-1.888,3.506-.337c1.551-.2,2.158-.877,2.63-3.1l7.62-33.38c.54-2.091.135-3.035-1.349-3.1l-3.709-.337.4-1.888h18.208l-.472,1.888-3.776.27c-1.619.067-2.226,1.079-2.7,3.17l-7.081,31.02c-1.146,4.99-.741,5.463,7.081,5.463,7.148,0,10.116-1.349,13.487-9.306h1.956L115.8-2569.6Z" transform="translate(-14.721 -0.741)"/><path class="a" d="M156.352-2598.2l-6.743,25.085c-.539,2.023-.539,3.372.607,3.372,1.686,0,4.517-4.451,5.664-6.743l1.618,1.011c-2.224,4.855-5.731,9.305-10.587,9.305-3.507,0-4.316-2.7-2.9-7.282l1.956-6.542h-.135c-3.641,6.406-9.575,13.823-16.387,13.823-4.585,0-5.866-3.3-5.866-7.687,0-8.362,6.946-25.018,21.916-25.018a8.837,8.837,0,0,1,5.058,1.483l.2-.809Zm-10.317,1.686c-9.845,0-15.982,15.51-15.982,22.456,0,2.495.607,4.316,2.63,4.316,5.732,0,13.756-14.229,15.712-20.5.54-1.821,1.08-3.506,1.484-4.99A5.634,5.634,0,0,0,146.035-2596.518Z" transform="translate(-21.893 -3.354)"/><path class="a" d="M169.84-2589.689h.2c4.721-8.295,10.924-12.543,15.781-12.543,4.72,0,6.811,3.372,6.811,8.092a31.354,31.354,0,0,1-3.912,14.161c-3.169,5.53-8.766,10.452-16.251,10.452-3.642,0-6.879-1.82-8.025-4.45l-2.023,3.641h-2.293l9.441-40.933c.54-2.5.337-2.968-1.28-3.1l-3.574-.472.337-1.484,11.531-1.483.337.27Zm13.149-8.969c-3.911,0-8.564,5.259-11.4,10.317-2.023,3.709-3.507,8.025-3.507,11.059,0,3.17,1.956,5.53,5.126,5.53,9.171,0,13.015-17.2,13.015-21.917C186.226-2597.175,185.215-2598.658,182.989-2598.658Z" transform="translate(-28.367)"/><path class="a" d="M237.147-2581.779l-3.507,10.318a29.307,29.307,0,0,1-13.15,2.7c-15.915,0-19.961-9.913-19.961-18.612a30.58,30.58,0,0,1,4.451-16.05c3.709-6.068,10.588-11.6,22.523-11.6,4.452,0,10.453,1.147,14.162,3.439l-2.361,9.643H237.35c.337-6.878-2.361-10.789-10.251-10.789-13.824,0-19.151,15.442-19.151,27.109,0,9.71,5.057,14.566,12.34,14.566,7.823,0,11.4-4.316,14.9-10.722Z" transform="translate(-35.525 -0.494)"/><path class="a" d="M272.8-2587.618a26.353,26.353,0,0,1-3.979,13.285c-2.966,4.721-7.418,8.159-14.43,8.159-8.093,0-11.734-4.855-11.734-11.6,0-5.8,3.844-21.107,18.746-21.107C266.525-2598.879,272.8-2596.384,272.8-2587.618Zm-23.872,12.476c0,4.383,2.023,6.676,5.6,6.676,8.564,0,11.935-16.926,11.935-21.444,0-3.843-1.349-6.676-5.26-6.676C253.037-2596.586,248.925-2581.953,248.925-2575.142Z" transform="translate(-42.987 -3.354)"/><path class="a" d="M274.04-2564.969c0-2.562,1.619-4.653,4.248-4.653,2.495,0,3.507,1.686,3.507,4.114a4.193,4.193,0,0,1-4.384,4.451C274.984-2561.057,274.04-2562.676,274.04-2564.969Z" transform="translate(-48.547 -8.537)"/></g></svg>