<svg width="225" height="225" viewBox="0 0 225 225" fill="none" xmlns="http://www.w3.org/2000/svg">
<path d="M225 112.5C225 174.632 174.632 225 112.5 225C50.368 225 0 174.632 0 112.5C0 50.368 50.368 0 112.5 0C174.632 0 225 50.368 225 112.5Z" fill="#001C72"/>
<path d="M111.754 61.6201L107.715 64.4321L109.139 59.7202L105.218 56.7488L110.138 56.6472L111.754 52L113.369 56.6472L118.291 56.7488L114.368 59.7202L115.795 64.4321L111.754 61.6201Z" fill="white"/>
<path d="M131.363 66.8747L127.323 69.6867L128.749 64.9768L124.827 62.0034L129.748 61.9009L131.363 57.2556L132.978 61.9009L137.9 62.0034L133.977 64.9768L135.404 69.6867L131.363 66.8747Z" fill="white"/>
<path d="M145.719 81.2287L141.679 84.0407L143.105 79.3297L139.183 76.3574L144.102 76.2558L145.719 71.6086L147.333 76.2558L152.255 76.3574L148.333 79.3297L149.76 84.0407L145.719 81.2287Z" fill="white"/>
<path d="M111.754 140.057L107.715 142.868L109.139 138.157L105.218 135.186L110.138 135.084L111.754 130.434L113.369 135.084L118.291 135.186L114.368 138.157L115.795 142.868L111.754 140.057Z" fill="white"/>
<path d="M92.1457 134.802L88.1059 137.614L89.5309 132.903L85.6096 129.93L90.5296 129.829L92.1457 125.181L93.7609 129.829L98.6819 129.93L94.7606 132.903L96.1866 137.614L92.1457 134.802Z" fill="white"/>
<path d="M77.7918 120.446L73.752 123.26L75.176 118.547L71.2537 115.575L76.1747 115.474L77.7918 110.825L79.408 115.474L84.326 115.575L80.4047 118.547L81.8317 123.26L77.7918 120.446Z" fill="white"/>
<path d="M150.972 100.839L146.932 103.65L148.359 98.9383L144.435 95.9659L149.357 95.8654L150.972 91.2171L152.588 95.8654L157.508 95.9659L153.586 98.9383L155.012 103.65L150.972 100.839Z" fill="white"/>
<path d="M145.717 120.45L141.679 123.26L143.105 118.549L139.181 115.577L144.101 115.475L145.717 110.825L147.333 115.475L152.254 115.577L148.331 118.549L149.756 123.26L145.717 120.45Z" fill="white"/>
<path d="M131.363 134.804L127.323 137.614L128.749 132.903L124.827 129.93L129.748 129.829L131.363 125.181L132.978 129.829L137.9 129.93L133.977 132.903L135.404 137.614L131.363 134.804Z" fill="white"/>
<path d="M72.5362 100.839L68.4974 103.65L69.9223 98.9383L66 95.966L70.9211 95.8654L72.5362 91.2152L74.1523 95.8654L79.0734 95.966L75.1511 98.9383L76.578 103.65L72.5362 100.839Z" fill="white"/>
<path d="M77.7918 81.2316L73.752 84.0427L75.176 79.3307L71.2537 76.3594L76.1747 76.2578L77.7918 71.6086L79.408 76.2578L84.326 76.3594L80.4047 79.3307L81.8317 84.0427L77.7918 81.2316Z" fill="white"/>
<path d="M92.1457 66.8757L88.1059 69.6867L89.5309 64.9768L85.6096 62.0014L90.5296 61.9009L92.1457 57.2536L93.7609 61.9009L98.6819 62.0014L94.7606 64.9768L96.1866 69.6867L92.1457 66.8757Z" fill="white"/>
<path d="M51.0831 167H49.1058L52.1186 158.273H54.4965L57.505 167H55.5277L53.3416 160.267H53.2734L51.0831 167ZM50.9595 163.57H55.63V165.01H50.9595V163.57Z" fill="white"/>
<path d="M63.946 158.273H65.7912V163.94C65.7912 164.577 65.6392 165.134 65.3352 165.611C65.0341 166.088 64.6122 166.46 64.0696 166.727C63.527 166.991 62.8949 167.124 62.1733 167.124C61.4489 167.124 60.8153 166.991 60.2727 166.727C59.7301 166.46 59.3082 166.088 59.0071 165.611C58.706 165.134 58.5554 164.577 58.5554 163.94V158.273H60.4006V163.783C60.4006 164.115 60.473 164.411 60.6179 164.669C60.7656 164.928 60.973 165.131 61.2401 165.278C61.5071 165.426 61.8182 165.5 62.1733 165.5C62.5313 165.5 62.8423 165.426 63.1065 165.278C63.3736 165.131 63.5796 164.928 63.7244 164.669C63.8722 164.411 63.946 164.115 63.946 163.783V158.273Z" fill="white"/>
<path d="M72.0437 160.783C72.0096 160.439 71.8633 160.172 71.6048 159.982C71.3462 159.791 70.9954 159.696 70.5522 159.696C70.2511 159.696 69.9968 159.739 69.7894 159.824C69.582 159.906 69.4229 160.021 69.3122 160.169C69.2042 160.317 69.1502 160.484 69.1502 160.672C69.1445 160.828 69.1772 160.964 69.2482 161.081C69.3221 161.197 69.4229 161.298 69.5508 161.384C69.6786 161.466 69.8264 161.538 69.994 161.601C70.1616 161.661 70.3406 161.712 70.5309 161.754L71.315 161.942C71.6957 162.027 72.0451 162.141 72.3633 162.283C72.6815 162.425 72.957 162.599 73.19 162.807C73.4229 163.014 73.6033 163.259 73.7312 163.54C73.8619 163.821 73.9286 164.143 73.9315 164.507C73.9286 165.041 73.7923 165.504 73.5224 165.896C73.2553 166.286 72.869 166.588 72.3633 166.804C71.8604 167.017 71.2539 167.124 70.5437 167.124C69.8391 167.124 69.2255 167.016 68.7028 166.8C68.1829 166.584 67.7766 166.264 67.484 165.841C67.1943 165.415 67.0423 164.888 67.0281 164.26H68.8136C68.8335 164.553 68.9173 164.797 69.065 164.993C69.2156 165.186 69.4158 165.332 69.6658 165.432C69.9187 165.528 70.2042 165.577 70.5224 165.577C70.8349 165.577 71.1062 165.531 71.3363 165.44C71.5693 165.349 71.7497 165.223 71.8775 165.061C72.0053 164.899 72.0693 164.713 72.0693 164.503C72.0693 164.307 72.011 164.142 71.8945 164.009C71.7809 163.875 71.6133 163.761 71.3917 163.668C71.1729 163.574 70.9045 163.489 70.5863 163.412L69.636 163.173C68.9002 162.994 68.3193 162.714 67.8931 162.334C67.467 161.953 67.2553 161.44 67.2582 160.795C67.2553 160.267 67.396 159.805 67.68 159.411C67.967 159.016 68.3604 158.707 68.8604 158.486C69.3604 158.264 69.9286 158.153 70.565 158.153C71.2127 158.153 71.7781 158.264 72.261 158.486C72.7468 158.707 73.1247 159.016 73.3945 159.411C73.6644 159.805 73.8036 160.263 73.8122 160.783H72.0437Z" fill="white"/>
<path d="M79.7951 158.273V167H77.9499V158.273H79.7951Z" fill="white"/>
<path d="M88.6129 158.273V167H87.0192L83.2223 161.507H83.1584V167H81.3132V158.273H82.9325L86.6996 163.761H86.7763V158.273H88.6129Z" fill="white"/>
<path d="M90.1374 167V158.273H91.9826V165.479H95.7241V167H90.1374Z" fill="white"/>
<path d="M98.673 167H96.6957L99.7085 158.273H102.086L105.095 167H103.118L100.931 160.267H100.863L98.673 167ZM98.5494 163.57H103.22V165.01H98.5494V163.57ZM99.5977 157.378C99.3533 157.378 99.1431 157.293 98.967 157.122C98.7908 156.949 98.7028 156.744 98.7028 156.509C98.7028 156.267 98.7908 156.062 98.967 155.895C99.1431 155.727 99.3533 155.643 99.5977 155.643C99.8448 155.643 100.054 155.727 100.224 155.895C100.397 156.062 100.484 156.267 100.484 156.509C100.484 156.744 100.397 156.949 100.224 157.122C100.054 157.293 99.8448 157.378 99.5977 157.378ZM102.206 157.378C101.961 157.378 101.751 157.293 101.575 157.122C101.399 156.949 101.311 156.744 101.311 156.509C101.311 156.267 101.399 156.062 101.575 155.895C101.751 155.727 101.961 155.643 102.206 155.643C102.453 155.643 102.662 155.727 102.832 155.895C103.005 156.062 103.092 156.267 103.092 156.509C103.092 156.744 103.005 156.949 102.832 157.122C102.662 157.293 102.453 157.378 102.206 157.378Z" fill="white"/>
<path d="M113.445 158.273V167H111.851L108.054 161.507H107.99V167H106.145V158.273H107.765L111.532 163.761H111.608V158.273H113.445Z" fill="white"/>
<path d="M118.063 167H114.969V158.273H118.089C118.967 158.273 119.722 158.447 120.356 158.797C120.989 159.143 121.477 159.642 121.817 160.293C122.161 160.943 122.333 161.722 122.333 162.628C122.333 163.537 122.161 164.318 121.817 164.972C121.477 165.625 120.987 166.126 120.347 166.476C119.711 166.825 118.95 167 118.063 167ZM116.815 165.419H117.987C118.532 165.419 118.991 165.322 119.363 165.129C119.738 164.933 120.019 164.631 120.207 164.222C120.397 163.81 120.492 163.278 120.492 162.628C120.492 161.983 120.397 161.456 120.207 161.047C120.019 160.638 119.739 160.337 119.367 160.143C118.995 159.95 118.536 159.854 117.991 159.854H116.815V165.419Z" fill="white"/>
<path d="M125.545 158.273V167H123.7V158.273H125.545Z" fill="white"/>
<path d="M131.798 160.783C131.764 160.439 131.617 160.172 131.359 159.982C131.1 159.791 130.749 159.696 130.306 159.696C130.005 159.696 129.751 159.739 129.543 159.824C129.336 159.906 129.177 160.021 129.066 160.169C128.958 160.317 128.904 160.484 128.904 160.672C128.898 160.828 128.931 160.964 129.002 161.081C129.076 161.197 129.177 161.298 129.305 161.384C129.433 161.466 129.58 161.538 129.748 161.601C129.915 161.661 130.094 161.712 130.285 161.754L131.069 161.942C131.45 162.027 131.799 162.141 132.117 162.283C132.435 162.425 132.711 162.599 132.944 162.807C133.177 163.014 133.357 163.259 133.485 163.54C133.616 163.821 133.683 164.143 133.685 164.507C133.683 165.041 133.546 165.504 133.276 165.896C133.009 166.286 132.623 166.588 132.117 166.804C131.614 167.017 131.008 167.124 130.298 167.124C129.593 167.124 128.979 167.016 128.457 166.8C127.937 166.584 127.531 166.264 127.238 165.841C126.948 165.415 126.796 164.888 126.782 164.26H128.567C128.587 164.553 128.671 164.797 128.819 164.993C128.969 165.186 129.17 165.332 129.42 165.432C129.673 165.528 129.958 165.577 130.276 165.577C130.589 165.577 130.86 165.531 131.09 165.44C131.323 165.349 131.504 165.223 131.631 165.061C131.759 164.899 131.823 164.713 131.823 164.503C131.823 164.307 131.765 164.142 131.648 164.009C131.535 163.875 131.367 163.761 131.146 163.668C130.927 163.574 130.658 163.489 130.34 163.412L129.39 163.173C128.654 162.994 128.073 162.714 127.647 162.334C127.221 161.953 127.009 161.44 127.012 160.795C127.009 160.267 127.15 159.805 127.434 159.411C127.721 159.016 128.114 158.707 128.614 158.486C129.114 158.264 129.683 158.153 130.319 158.153C130.967 158.153 131.532 158.264 132.015 158.486C132.501 158.707 132.879 159.016 133.148 159.411C133.418 159.805 133.558 160.263 133.566 160.783H131.798Z" fill="white"/>
<path d="M142.627 161.328H140.76C140.726 161.087 140.657 160.872 140.551 160.685C140.446 160.494 140.311 160.332 140.147 160.199C139.982 160.065 139.792 159.963 139.576 159.892C139.363 159.821 139.131 159.786 138.881 159.786C138.429 159.786 138.036 159.898 137.701 160.122C137.365 160.344 137.105 160.668 136.921 161.094C136.736 161.517 136.644 162.031 136.644 162.636C136.644 163.259 136.736 163.781 136.921 164.205C137.108 164.628 137.37 164.947 137.705 165.163C138.04 165.379 138.428 165.487 138.868 165.487C139.115 165.487 139.344 165.455 139.554 165.389C139.767 165.324 139.956 165.229 140.121 165.104C140.286 164.976 140.422 164.821 140.53 164.639C140.641 164.457 140.718 164.25 140.76 164.017L142.627 164.026C142.578 164.426 142.458 164.812 142.265 165.185C142.074 165.554 141.817 165.885 141.493 166.178C141.172 166.467 140.789 166.697 140.343 166.868C139.9 167.036 139.398 167.119 138.838 167.119C138.06 167.119 137.364 166.943 136.75 166.591C136.14 166.239 135.657 165.729 135.301 165.061C134.949 164.393 134.773 163.585 134.773 162.636C134.773 161.685 134.952 160.875 135.31 160.207C135.668 159.54 136.154 159.031 136.767 158.682C137.381 158.33 138.071 158.153 138.838 158.153C139.344 158.153 139.813 158.224 140.245 158.366C140.679 158.509 141.064 158.716 141.4 158.989C141.735 159.259 142.007 159.589 142.218 159.982C142.431 160.374 142.567 160.822 142.627 161.328Z" fill="white"/>
<path d="M143.95 167V158.273H145.795V161.874H149.541V158.273H151.382V167H149.541V163.395H145.795V167H143.95Z" fill="white"/>
<path d="M152.903 167V158.273H158.784V159.794H154.748V161.874H158.481V163.395H154.748V165.479H158.801V167H152.903Z" fill="white"/>
<path d="M167.55 158.273V167H165.957L162.16 161.507H162.096V167H160.251V158.273H161.87L165.637 163.761H165.714V158.273H167.55Z" fill="white"/>
<path d="M174.494 167.128C173.892 167.128 173.372 167.02 172.935 166.804C172.497 166.588 172.161 166.295 171.925 165.926C171.692 165.554 171.575 165.139 171.575 164.682C171.575 164.341 171.643 164.038 171.78 163.774C171.916 163.51 172.107 163.267 172.351 163.045C172.595 162.821 172.879 162.598 173.203 162.376L174.895 161.264C175.114 161.125 175.274 160.979 175.376 160.825C175.479 160.669 175.53 160.5 175.53 160.318C175.53 160.145 175.46 159.984 175.321 159.837C175.182 159.689 174.984 159.616 174.729 159.619C174.558 159.619 174.411 159.658 174.286 159.734C174.161 159.808 174.063 159.906 173.991 160.028C173.923 160.148 173.889 160.281 173.889 160.429C173.889 160.611 173.94 160.795 174.043 160.983C174.145 161.17 174.281 161.369 174.452 161.58C174.622 161.787 174.808 162.011 175.01 162.253L179.148 167H177.256L173.804 163.156C173.577 162.898 173.349 162.628 173.122 162.347C172.898 162.062 172.71 161.761 172.56 161.443C172.409 161.122 172.334 160.774 172.334 160.399C172.334 159.976 172.432 159.595 172.628 159.257C172.827 158.919 173.105 158.652 173.463 158.456C173.821 158.257 174.239 158.158 174.716 158.158C175.182 158.158 175.584 158.253 175.922 158.443C176.263 158.631 176.524 158.881 176.706 159.193C176.891 159.503 176.983 159.844 176.983 160.216C176.983 160.628 176.881 161.001 176.676 161.337C176.474 161.669 176.19 161.967 175.824 162.232L174.043 163.514C173.801 163.69 173.622 163.871 173.506 164.055C173.392 164.237 173.335 164.412 173.335 164.58C173.335 164.787 173.386 164.973 173.489 165.138C173.591 165.303 173.736 165.433 173.923 165.53C174.111 165.624 174.331 165.67 174.584 165.67C174.891 165.67 175.193 165.601 175.491 165.462C175.793 165.32 176.065 165.119 176.31 164.861C176.557 164.599 176.754 164.29 176.902 163.932C177.05 163.574 177.124 163.178 177.124 162.743H178.628C178.628 163.277 178.57 163.759 178.453 164.187C178.337 164.614 178.175 164.986 177.967 165.304C177.76 165.619 177.523 165.878 177.256 166.08C177.17 166.134 177.088 166.185 177.009 166.233C176.929 166.281 176.847 166.332 176.761 166.386C176.438 166.648 176.075 166.837 175.675 166.953C175.277 167.07 174.884 167.128 174.494 167.128Z" fill="white"/>
<path d="M38.8343 183L36.3372 174.273H38.3528L39.7974 180.337H39.8699L41.4636 174.273H43.1895L44.7789 180.349H44.8557L46.3003 174.273H48.3159L45.8187 183H44.0204L42.3585 177.294H42.2903L40.6326 183H38.8343Z" fill="white"/>
<path d="M49.3035 183V174.273H55.1841V175.794H51.1486V177.874H54.8816V179.395H51.1486V181.479H55.2012V183H49.3035Z" fill="white"/>
<path d="M56.6511 183V174.273H58.4963V181.479H62.2378V183H56.6511Z" fill="white"/>
<path d="M62.0375 175.794V174.273H69.2051V175.794H66.5332V183H64.7093V175.794H62.0375Z" fill="white"/>
<path d="M72.35 183L69.8528 174.273H71.8684L73.313 180.337H73.3855L74.9792 174.273H76.7051L78.2946 180.349H78.3713L79.8159 174.273H81.8315L79.3343 183H77.5361L75.8741 177.294H75.8059L74.1483 183H72.35Z" fill="white"/>
<path d="M82.8191 183V174.273H88.6998V175.794H84.6642V177.874H88.3972V179.395H84.6642V181.479H88.7168V183H82.8191Z" fill="white"/>
<path d="M92.0119 174.273V183H90.1667V174.273H92.0119Z" fill="white"/>
<path d="M93.1976 175.794V174.273H100.365V175.794H97.6934V183H95.8695V175.794H93.1976Z" fill="white"/>
<path d="M104.323 183V174.273H107.817C108.459 174.273 108.995 174.368 109.424 174.558C109.853 174.749 110.175 175.013 110.391 175.351C110.607 175.686 110.715 176.072 110.715 176.51C110.715 176.851 110.647 177.151 110.51 177.409C110.374 177.665 110.187 177.875 109.948 178.04C109.712 178.202 109.442 178.317 109.138 178.385V178.47C109.471 178.484 109.782 178.578 110.072 178.751C110.364 178.925 110.601 179.168 110.783 179.48C110.965 179.79 111.056 180.159 111.056 180.588C111.056 181.051 110.941 181.464 110.711 181.828C110.483 182.189 110.147 182.474 109.701 182.685C109.255 182.895 108.705 183 108.052 183H104.323ZM106.168 181.491H107.672C108.187 181.491 108.562 181.393 108.797 181.197C109.033 180.999 109.151 180.734 109.151 180.405C109.151 180.163 109.093 179.95 108.976 179.766C108.86 179.581 108.694 179.436 108.478 179.331C108.265 179.226 108.01 179.173 107.715 179.173H106.168V181.491ZM106.168 177.925H107.536C107.789 177.925 108.013 177.881 108.209 177.793C108.408 177.702 108.564 177.574 108.678 177.409C108.795 177.244 108.853 177.047 108.853 176.817C108.853 176.501 108.741 176.247 108.516 176.054C108.295 175.861 107.979 175.764 107.57 175.764H106.168V177.925Z" fill="white"/>
<path d="M112.257 183V174.273H118.137V175.794H114.102V177.874H117.835V179.395H114.102V181.479H118.154V183H112.257Z" fill="white"/>
<path d="M124.339 176.783C124.305 176.439 124.158 176.172 123.9 175.982C123.641 175.791 123.29 175.696 122.847 175.696C122.546 175.696 122.292 175.739 122.084 175.824C121.877 175.906 121.718 176.021 121.607 176.169C121.499 176.317 121.445 176.484 121.445 176.672C121.439 176.828 121.472 176.964 121.543 177.081C121.617 177.197 121.718 177.298 121.846 177.384C121.974 177.466 122.121 177.538 122.289 177.601C122.457 177.661 122.635 177.712 122.826 177.754L123.61 177.942C123.991 178.027 124.34 178.141 124.658 178.283C124.976 178.425 125.252 178.599 125.485 178.807C125.718 179.014 125.898 179.259 126.026 179.54C126.157 179.821 126.224 180.143 126.226 180.507C126.224 181.041 126.087 181.504 125.817 181.896C125.55 182.286 125.164 182.588 124.658 182.804C124.155 183.017 123.549 183.124 122.839 183.124C122.134 183.124 121.52 183.016 120.998 182.8C120.478 182.584 120.072 182.264 119.779 181.841C119.489 181.415 119.337 180.888 119.323 180.26H121.108C121.128 180.553 121.212 180.797 121.36 180.993C121.51 181.186 121.711 181.332 121.961 181.432C122.214 181.528 122.499 181.577 122.817 181.577C123.13 181.577 123.401 181.531 123.631 181.44C123.864 181.349 124.045 181.223 124.172 181.061C124.3 180.899 124.364 180.713 124.364 180.503C124.364 180.307 124.306 180.142 124.189 180.009C124.076 179.875 123.908 179.761 123.687 179.668C123.468 179.574 123.199 179.489 122.881 179.412L121.931 179.173C121.195 178.994 120.614 178.714 120.188 178.334C119.762 177.953 119.55 177.44 119.553 176.795C119.55 176.267 119.691 175.805 119.975 175.411C120.262 175.016 120.655 174.707 121.155 174.486C121.655 174.264 122.224 174.153 122.86 174.153C123.508 174.153 124.073 174.264 124.556 174.486C125.042 174.707 125.42 175.016 125.689 175.411C125.959 175.805 126.099 176.263 126.107 176.783H124.339Z" fill="white"/>
<path d="M135.168 177.328H133.301C133.267 177.087 133.198 176.872 133.093 176.685C132.987 176.494 132.852 176.332 132.688 176.199C132.523 176.065 132.333 175.963 132.117 175.892C131.904 175.821 131.672 175.786 131.422 175.786C130.97 175.786 130.577 175.898 130.242 176.122C129.906 176.344 129.646 176.668 129.462 177.094C129.277 177.517 129.185 178.031 129.185 178.636C129.185 179.259 129.277 179.781 129.462 180.205C129.649 180.628 129.911 180.947 130.246 181.163C130.581 181.379 130.969 181.487 131.409 181.487C131.656 181.487 131.885 181.455 132.095 181.389C132.308 181.324 132.497 181.229 132.662 181.104C132.827 180.976 132.963 180.821 133.071 180.639C133.182 180.457 133.259 180.25 133.301 180.017L135.168 180.026C135.12 180.426 134.999 180.812 134.806 181.185C134.615 181.554 134.358 181.885 134.034 182.178C133.713 182.467 133.33 182.697 132.884 182.868C132.441 183.036 131.939 183.119 131.379 183.119C130.601 183.119 129.905 182.943 129.291 182.591C128.681 182.239 128.198 181.729 127.843 181.061C127.49 180.393 127.314 179.585 127.314 178.636C127.314 177.685 127.493 176.875 127.851 176.207C128.209 175.54 128.695 175.031 129.308 174.682C129.922 174.33 130.612 174.153 131.379 174.153C131.885 174.153 132.354 174.224 132.786 174.366C133.22 174.509 133.605 174.716 133.941 174.989C134.276 175.259 134.548 175.589 134.759 175.982C134.972 176.374 135.108 176.822 135.168 177.328Z" fill="white"/>
<path d="M136.491 183V174.273H138.336V177.874H142.082V174.273H143.923V183H142.082V179.395H138.336V183H136.491Z" fill="white"/>
<path d="M146.948 183H144.971L147.984 174.273H150.362L153.37 183H151.393L149.207 176.267H149.139L146.948 183ZM146.825 179.57H151.495V181.01H146.825V179.57Z" fill="white"/>
<path d="M154.421 183V174.273H160.199V175.794H156.266V177.874H159.816V179.395H156.266V183H154.421Z" fill="white"/>
<path d="M161.44 183V174.273H167.219V175.794H163.285V177.874H166.835V179.395H163.285V183H161.44Z" fill="white"/>
<path d="M168.127 175.794V174.273H175.295V175.794H172.623V183H170.799V175.794H168.127Z" fill="white"/>
<path d="M176.475 183V174.273H182.356V175.794H178.32V177.874H182.053V179.395H178.32V181.479H182.373V183H176.475Z" fill="white"/>
<path d="M191.123 174.273V183H189.529L185.732 177.507H185.668V183H183.823V174.273H185.442L189.209 179.761H189.286V174.273H191.123Z" fill="white"/>
<path d="M63.2072 190.273V199H61.362V190.273H63.2072Z" fill="white"/>
<path d="M72.025 190.273V199H70.4313L66.6344 193.507H66.5705V199H64.7253V190.273H66.3446L70.1117 195.761H70.1884V190.273H72.025Z" fill="white"/>
<path d="M73.5495 199V190.273H75.3947V193.874H79.1405V190.273H80.9814V199H79.1405V195.395H75.3947V199H73.5495Z" fill="white"/>
<path d="M84.0069 199H82.0297L85.0424 190.273H87.4203L90.4288 199H88.4515L86.2655 192.267H86.1973L84.0069 199ZM83.8834 195.57H88.5538V197.01H83.8834V195.57Z" fill="white"/>
<path d="M91.4792 199V190.273H93.3244V197.479H97.0659V199H91.4792Z" fill="white"/>
<path d="M96.8656 191.794V190.273H104.033V191.794H101.361V199H99.5375V191.794H96.8656Z" fill="white"/>
<path d="M109.948 192.783C109.914 192.439 109.768 192.172 109.509 191.982C109.251 191.791 108.9 191.696 108.457 191.696C108.155 191.696 107.901 191.739 107.694 191.824C107.486 191.906 107.327 192.021 107.216 192.169C107.108 192.317 107.055 192.484 107.055 192.672C107.049 192.828 107.082 192.964 107.153 193.081C107.226 193.197 107.327 193.298 107.455 193.384C107.583 193.466 107.731 193.538 107.898 193.601C108.066 193.661 108.245 193.712 108.435 193.754L109.219 193.942C109.6 194.027 109.949 194.141 110.268 194.283C110.586 194.425 110.861 194.599 111.094 194.807C111.327 195.014 111.508 195.259 111.635 195.54C111.766 195.821 111.833 196.143 111.836 196.507C111.833 197.041 111.697 197.504 111.427 197.896C111.16 198.286 110.773 198.588 110.268 198.804C109.765 199.017 109.158 199.124 108.448 199.124C107.743 199.124 107.13 199.016 106.607 198.8C106.087 198.584 105.681 198.264 105.388 197.841C105.099 197.415 104.947 196.888 104.932 196.26H106.718C106.738 196.553 106.822 196.797 106.969 196.993C107.12 197.186 107.32 197.332 107.57 197.432C107.823 197.528 108.108 197.577 108.427 197.577C108.739 197.577 109.01 197.531 109.241 197.44C109.474 197.349 109.654 197.223 109.782 197.061C109.91 196.899 109.974 196.713 109.974 196.503C109.974 196.307 109.915 196.142 109.799 196.009C109.685 195.875 109.518 195.761 109.296 195.668C109.077 195.574 108.809 195.489 108.491 195.412L107.54 195.173C106.805 194.994 106.224 194.714 105.797 194.334C105.371 193.953 105.16 193.44 105.162 192.795C105.16 192.267 105.3 191.805 105.584 191.411C105.871 191.016 106.265 190.707 106.765 190.486C107.265 190.264 107.833 190.153 108.469 190.153C109.117 190.153 109.682 190.264 110.165 190.486C110.651 190.707 111.029 191.016 111.299 191.411C111.569 191.805 111.708 192.263 111.716 192.783H109.948Z" fill="white"/>
<path d="M117.811 192.783C117.777 192.439 117.631 192.172 117.372 191.982C117.114 191.791 116.763 191.696 116.32 191.696C116.019 191.696 115.764 191.739 115.557 191.824C115.35 191.906 115.191 192.021 115.08 192.169C114.972 192.317 114.918 192.484 114.918 192.672C114.912 192.828 114.945 192.964 115.016 193.081C115.09 193.197 115.191 193.298 115.318 193.384C115.446 193.466 115.594 193.538 115.762 193.601C115.929 193.661 116.108 193.712 116.298 193.754L117.083 193.942C117.463 194.027 117.813 194.141 118.131 194.283C118.449 194.425 118.725 194.599 118.958 194.807C119.191 195.014 119.371 195.259 119.499 195.54C119.629 195.821 119.696 196.143 119.699 196.507C119.696 197.041 119.56 197.504 119.29 197.896C119.023 198.286 118.637 198.588 118.131 198.804C117.628 199.017 117.021 199.124 116.311 199.124C115.607 199.124 114.993 199.016 114.47 198.8C113.95 198.584 113.544 198.264 113.252 197.841C112.962 197.415 112.81 196.888 112.796 196.26H114.581C114.601 196.553 114.685 196.797 114.833 196.993C114.983 197.186 115.183 197.332 115.433 197.432C115.686 197.528 115.972 197.577 116.29 197.577C116.602 197.577 116.874 197.531 117.104 197.44C117.337 197.349 117.517 197.223 117.645 197.061C117.773 196.899 117.837 196.713 117.837 196.503C117.837 196.307 117.779 196.142 117.662 196.009C117.548 195.875 117.381 195.761 117.159 195.668C116.941 195.574 116.672 195.489 116.354 195.412L115.404 195.173C114.668 194.994 114.087 194.714 113.661 194.334C113.235 193.953 113.023 193.44 113.026 192.795C113.023 192.267 113.164 191.805 113.448 191.411C113.735 191.016 114.128 190.707 114.628 190.486C115.128 190.264 115.696 190.153 116.333 190.153C116.98 190.153 117.546 190.264 118.029 190.486C118.514 190.707 118.892 191.016 119.162 191.411C119.432 191.805 119.571 192.263 119.58 192.783H117.811Z" fill="white"/>
<path d="M120.608 191.794V190.273H127.775V191.794H125.104V199H123.28V191.794H120.608Z" fill="white"/>
<path d="M136.577 194.636C136.577 195.588 136.397 196.398 136.036 197.065C135.678 197.733 135.189 198.243 134.57 198.595C133.954 198.945 133.26 199.119 132.491 199.119C131.715 199.119 131.019 198.943 130.403 198.591C129.786 198.239 129.299 197.729 128.941 197.061C128.583 196.393 128.404 195.585 128.404 194.636C128.404 193.685 128.583 192.875 128.941 192.207C129.299 191.54 129.786 191.031 130.403 190.682C131.019 190.33 131.715 190.153 132.491 190.153C133.26 190.153 133.954 190.33 134.57 190.682C135.189 191.031 135.678 191.54 136.036 192.207C136.397 192.875 136.577 193.685 136.577 194.636ZM134.707 194.636C134.707 194.02 134.614 193.5 134.43 193.077C134.248 192.653 133.991 192.332 133.658 192.114C133.326 191.895 132.937 191.786 132.491 191.786C132.045 191.786 131.655 191.895 131.323 192.114C130.991 192.332 130.732 192.653 130.547 193.077C130.366 193.5 130.275 194.02 130.275 194.636C130.275 195.253 130.366 195.773 130.547 196.196C130.732 196.619 130.991 196.94 131.323 197.159C131.655 197.378 132.045 197.487 132.491 197.487C132.937 197.487 133.326 197.378 133.658 197.159C133.991 196.94 134.248 196.619 134.43 196.196C134.614 195.773 134.707 195.253 134.707 194.636Z" fill="white"/>
<path d="M137.944 199V190.273H143.722V191.794H139.789V193.874H143.339V195.395H139.789V199H137.944Z" fill="white"/>
<path d="M144.964 199V190.273H150.742V191.794H146.809V193.874H150.358V195.395H146.809V199H144.964Z" fill="white"/>
<path d="M151.983 199V190.273H157.864V191.794H153.828V193.874H157.561V195.395H153.828V197.479H157.881V199H151.983Z" fill="white"/>
<path d="M166.631 190.273V199H165.037L161.24 193.507H161.176V199H159.331V190.273H160.95L164.717 195.761H164.794V190.273H166.631Z" fill="white"/>
<path d="M33.7826 96.2175L20.3424 93.0074L21.0114 90.1636L26.5568 91.488L27.9149 85.7148L22.3695 84.3904L23.0369 81.5531L36.4771 84.7631L35.8096 87.6005L30.2577 86.2744L28.8996 92.0476L34.4516 93.3736L33.7826 96.2175Z" fill="white"/>
<path d="M37.2577 83.3844L24.4628 78.166L27.9334 69.5259L30.1638 70.4356L27.7821 76.3647L30.8309 77.6081L33.034 72.1236L35.2644 73.0332L33.0613 78.5178L36.1163 79.7638L38.5081 73.8097L40.7384 74.7193L37.2577 83.3844Z" fill="white"/>
<path d="M41.7277 73.1115L29.8163 66.1071L32.5485 61.3895C33.0715 60.4865 33.6788 59.8104 34.3703 59.3613C35.0603 58.906 35.7949 58.6831 36.5742 58.6927C37.352 58.6961 38.1344 58.9292 38.9215 59.392C39.7125 59.8571 40.2938 60.4286 40.6654 61.1063C41.0331 61.7817 41.18 62.5333 41.1059 63.3612C41.0342 64.1852 40.7323 65.0565 40.2002 65.9751L38.3708 69.1338L36.3468 67.9436L37.9395 65.1936C38.2191 64.711 38.3853 64.2713 38.4384 63.8746C38.4914 63.4779 38.4312 63.1242 38.2577 62.8134C38.0864 62.4988 37.805 62.2263 37.4134 61.996C37.0179 61.7635 36.6382 61.6472 36.2744 61.6472C35.9128 61.6433 35.5686 61.7618 35.2419 62.0028C34.9136 62.2376 34.6086 62.5983 34.3268 63.0848L33.3394 64.7897L43.1919 70.5834L41.7277 73.1115ZM40.047 63.4664L47.1888 63.6821L45.5724 66.473L38.4678 66.1931L40.047 63.4664Z" fill="white"/>
<path d="M46.4649 49.9709C46.1518 49.8358 45.8442 49.7548 45.542 49.7277C45.2364 49.6977 44.938 49.7232 44.6468 49.8041C44.355 49.8787 44.0736 50.0083 43.8025 50.1931C43.5342 50.3743 43.2812 50.6118 43.0435 50.9055C42.5992 51.4544 42.3441 52.0482 42.2784 52.687C42.2155 53.3224 42.3495 53.9682 42.6805 54.6245C43.008 55.278 43.5436 55.9103 44.2872 56.5215C45.0309 57.1327 45.7553 57.5389 46.4605 57.7401C47.1657 57.9412 47.824 57.9466 48.4353 57.7562C49.0431 57.5629 49.5763 57.1831 50.0348 56.6167C50.4508 56.1028 50.7156 55.5898 50.8293 55.0776C50.9423 54.5592 50.9098 54.0667 50.7318 53.6002C50.5567 53.1302 50.2416 52.7082 49.7863 52.334L50.2277 51.9282L47.9862 54.6972L46.2869 53.3005L49.9251 48.8062L51.2699 49.9115C52.2082 50.6827 52.853 51.5446 53.2046 52.4972C53.5526 53.447 53.626 54.4215 53.4249 55.4206C53.2202 56.4169 52.7528 57.366 52.0227 58.2681C51.2076 59.275 50.2709 59.9781 49.2126 60.3776C48.1508 60.7741 47.039 60.8501 45.8771 60.6054C44.7145 60.3544 43.5703 59.7662 42.4444 58.8409C41.5792 58.1297 40.9096 57.3698 40.4357 56.5611C39.9612 55.7461 39.6731 54.9154 39.5712 54.0689C39.4694 53.2225 39.5413 52.3937 39.787 51.5826C40.0328 50.7715 40.4429 50.0111 41.0174 49.3013C41.5098 48.693 42.0569 48.1995 42.6587 47.8207C43.257 47.4391 43.8801 47.1769 44.5281 47.0341C45.1789 46.8878 45.8297 46.8666 46.4805 46.9707C47.1277 47.0718 47.7452 47.3027 48.3328 47.6634L46.4649 49.9709Z" fill="white"/>
<path d="M56.6081 52.9994L47.3837 42.7109L54.2691 36.443L55.8771 38.2364L51.1521 42.5377L53.3501 44.9892L57.7208 41.0105L59.3288 42.8039L54.958 46.7827L57.1605 49.2393L61.9055 44.9198L63.5134 46.7133L56.6081 52.9994Z" fill="white"/>
<path d="M65.8364 33.3212C65.49 32.8984 65.0637 32.6763 64.5576 32.6547C64.0515 32.6332 63.5078 32.8189 62.9265 33.212C62.5315 33.4791 62.2354 33.7607 62.0382 34.057C61.8385 34.3495 61.7308 34.6422 61.7151 34.9352C61.7032 35.2256 61.7795 35.4943 61.9441 35.7414C62.0737 35.9524 62.2363 36.1031 62.4316 36.1936C62.6308 36.2816 62.8515 36.3251 63.094 36.324C63.334 36.3192 63.5914 36.2836 63.8661 36.2173C64.1383 36.1473 64.4179 36.056 64.7049 35.9433L65.8979 35.495C66.472 35.2697 67.0301 35.1095 67.5721 35.0145C68.1141 34.9195 68.6289 34.9053 69.1164 34.972C69.604 35.0387 70.055 35.2007 70.4695 35.4579C70.8878 35.7127 71.2584 36.0784 71.5812 36.5551C72.0462 37.2614 72.2738 37.9926 72.2639 38.7486C72.2552 39.4984 72.014 40.2398 71.5402 40.9728C71.0677 41.6996 70.3657 42.3779 69.4341 43.0078C68.51 43.6327 67.6104 44.0346 66.7353 44.2137C65.8639 44.3903 65.0506 44.3294 64.2953 44.0311C63.5412 43.7265 62.8793 43.1668 62.3097 42.352L64.6516 40.7685C64.9345 41.1364 65.2588 41.3841 65.6246 41.5114C65.9917 41.6324 66.3828 41.6476 66.7979 41.5569C67.2143 41.4599 67.6312 41.2704 68.0485 40.9882C68.4584 40.711 68.7744 40.4105 68.9964 40.0866C69.2222 39.7602 69.3478 39.4336 69.3734 39.1068C69.399 38.78 69.3195 38.4781 69.135 38.2011C68.9629 37.9427 68.7419 37.7773 68.472 37.7046C68.2057 37.6294 67.8862 37.6283 67.5132 37.7013C67.144 37.7718 66.7171 37.8976 66.2325 38.0787L64.7766 38.607C63.6545 39.0237 62.6469 39.1702 61.7538 39.0465C60.8608 38.9228 60.1331 38.4347 59.5709 37.5824C59.1034 36.8885 58.8827 36.1554 58.9087 35.3831C58.9385 34.6082 59.184 33.853 59.6454 33.1176C60.1067 32.3821 60.7547 31.7322 61.5894 31.1678C62.4389 30.5933 63.2777 30.2379 64.1056 30.1016C64.9373 29.9627 65.7034 30.0338 66.4039 30.3149C67.1045 30.5959 67.6885 31.0752 68.156 31.7527L65.8364 33.3212Z" fill="white"/>
<path d="M69.7567 29.2772L68.73 27.0982L78.9674 22.2004L79.9942 24.3794L76.1779 26.2051L81.0412 36.5262L78.4362 37.7725L73.5729 27.4514L69.7567 29.2772Z" fill="white"/>
<path d="M85.9563 34.5911L81.9059 21.3799L90.7963 18.6125L91.5023 20.9154L85.4015 22.8145L86.3666 25.9625L92.01 24.2058L92.7161 26.5087L87.0727 28.2654L88.0398 31.4199L94.1664 29.5127L94.8724 31.8157L85.9563 34.5911Z" fill="white"/>
<path d="M96.7537 31.6096L94.5119 17.9745L97.3935 17.4934L99.2446 28.7517L105.088 27.7763L105.479 30.1531L96.7537 31.6096Z" fill="white"/>
<path d="M107.174 30.2091L106.724 16.3982L109.644 16.3016L110.016 27.705L115.937 27.509L116.015 29.9164L107.174 30.2091Z" fill="white"/>
<path d="M118.32 18.768L118.575 16.3728L129.858 17.5907L129.603 19.9859L125.397 19.5319L124.191 30.8774L121.32 30.5675L122.526 19.222L118.32 18.768Z" fill="white"/>
<path d="M142.811 21.3095L138.653 34.4873L135.871 33.5959L140.029 20.4182L142.811 21.3095Z" fill="white"/>
<path d="M158.735 28.1738L152.999 40.7451L150.709 39.6842L148.865 29.2448L148.773 29.2022L145.163 37.1145L142.512 35.8863L148.248 23.3151L150.575 24.3929L152.379 34.8064L152.489 34.8575L156.097 26.9513L158.735 28.1738Z" fill="white"/>
<path d="M162.996 48.2013L159.165 45.149L167.695 34.278L171.558 37.3556C172.645 38.2217 173.41 39.1849 173.853 40.2452C174.298 41.302 174.414 42.4037 174.201 43.5504C173.991 44.7 173.443 45.8391 172.557 46.968C171.668 48.1004 170.692 48.9039 169.627 49.3787C168.567 49.8563 167.47 49.9973 166.337 49.8019C165.207 49.6094 164.093 49.0758 162.996 48.2013ZM162.995 45.0002L164.446 46.1563C165.121 46.6945 165.784 47.0269 166.434 47.1534C167.09 47.2792 167.734 47.1798 168.366 46.8552C169.004 46.5299 169.641 45.9621 170.277 45.1517C170.907 44.3484 171.305 43.5981 171.469 42.9007C171.636 42.2062 171.584 41.555 171.312 40.9472C171.04 40.3394 170.566 39.7664 169.891 39.2282L168.434 38.0678L162.995 45.0002Z" fill="white"/>
<path d="M168.71 53.3199L178.747 43.8223L185.095 50.6338L183.346 52.2893L178.989 47.6151L176.598 49.8782L180.627 54.202L178.878 55.8576L174.848 51.5338L172.452 53.8015L176.826 58.4955L175.077 60.1511L168.71 53.3199Z" fill="white"/>
<path d="M193.945 63.3136L182.618 71.2274L181.187 69.1486L184.909 59.2151L184.851 59.1317L177.722 64.1127L176.066 61.7059L187.393 53.792L188.847 55.9042L185.104 65.7949L185.173 65.895L192.297 60.9179L193.945 63.3136Z" fill="white"/>
<path d="M185.717 78.2605L198.555 73.1479L201.955 81.816L199.717 82.7072L197.384 76.7589L194.325 77.9772L196.483 83.4795L194.245 84.3707L192.087 78.8684L189.022 80.0891L191.365 86.0626L189.127 86.9538L185.717 78.2605Z" fill="white"/>
<path d="M204.867 93.9423L205.524 96.7889L196.787 98.8375C195.806 99.0675 194.894 99.0343 194.05 98.7379C193.207 98.4458 192.483 97.9295 191.878 97.1889C191.277 96.4473 190.848 95.5199 190.591 94.4067C190.333 93.2891 190.311 92.264 190.525 91.3314C190.743 90.3977 191.167 89.6124 191.795 88.9753C192.424 88.3382 193.228 87.9047 194.209 87.6746L202.946 85.6261L203.604 88.4727L195.11 90.4643C194.597 90.5844 194.168 90.8029 193.821 91.1199C193.475 91.4413 193.236 91.8346 193.103 92.3C192.971 92.7654 192.968 93.272 193.094 93.8198C193.222 94.3721 193.446 94.8253 193.768 95.1795C194.091 95.538 194.478 95.7824 194.928 95.9125C195.379 96.0469 195.861 96.0541 196.373 95.9339L204.867 93.9423Z" fill="white"/>
</svg>
