<svg width="225" height="225" viewBox="0 0 225 225" fill="none" xmlns="http://www.w3.org/2000/svg">
<path d="M225 112.5C225 174.632 174.632 225 112.5 225C50.368 225 0 174.632 0 112.5C0 50.368 50.368 0 112.5 0C174.632 0 225 50.368 225 112.5Z" fill="#001C72"/>
<path d="M111.754 61.6201L107.715 64.4321L109.139 59.7202L105.218 56.7488L110.138 56.6472L111.754 52L113.369 56.6472L118.291 56.7488L114.368 59.7202L115.795 64.4321L111.754 61.6201Z" fill="white"/>
<path d="M131.363 66.8749L127.323 69.687L128.749 64.977L124.827 62.0037L129.748 61.9011L131.363 57.2559L132.978 61.9011L137.9 62.0037L133.977 64.977L135.404 69.687L131.363 66.8749Z" fill="white"/>
<path d="M145.719 81.2285L141.679 84.0405L143.105 79.3296L139.183 76.3572L144.102 76.2556L145.719 71.6084L147.333 76.2556L152.255 76.3572L148.333 79.3296L149.76 84.0405L145.719 81.2285Z" fill="white"/>
<path d="M111.754 140.057L107.715 142.868L109.139 138.157L105.218 135.186L110.138 135.084L111.754 130.434L113.369 135.084L118.291 135.186L114.368 138.157L115.795 142.868L111.754 140.057Z" fill="white"/>
<path d="M92.1457 134.802L88.1059 137.614L89.5309 132.903L85.6096 129.93L90.5296 129.829L92.1457 125.181L93.7609 129.829L98.6819 129.93L94.7606 132.903L96.1866 137.614L92.1457 134.802Z" fill="white"/>
<path d="M77.7918 120.446L73.752 123.26L75.176 118.547L71.2537 115.575L76.1747 115.474L77.7918 110.825L79.408 115.474L84.326 115.575L80.4047 118.547L81.8317 123.26L77.7918 120.446Z" fill="white"/>
<path d="M150.972 100.839L146.932 103.65L148.359 98.9384L144.435 95.9661L149.357 95.8655L150.972 91.2173L152.588 95.8655L157.508 95.9661L153.586 98.9384L155.012 103.65L150.972 100.839Z" fill="white"/>
<path d="M145.717 120.45L141.679 123.26L143.105 118.549L139.181 115.577L144.101 115.475L145.717 110.825L147.333 115.475L152.254 115.577L148.331 118.549L149.756 123.26L145.717 120.45Z" fill="white"/>
<path d="M131.363 134.804L127.323 137.614L128.749 132.903L124.827 129.93L129.748 129.829L131.363 125.181L132.978 129.829L137.9 129.93L133.977 132.903L135.404 137.614L131.363 134.804Z" fill="white"/>
<path d="M72.5362 100.839L68.4974 103.65L69.9223 98.9385L66 95.9661L70.9211 95.8655L72.5362 91.2153L74.1523 95.8655L79.0734 95.9661L75.1511 98.9385L76.578 103.65L72.5362 100.839Z" fill="white"/>
<path d="M77.7918 81.2315L73.752 84.0425L75.176 79.3305L71.2537 76.3592L76.1747 76.2576L77.7918 71.6084L79.408 76.2576L84.326 76.3592L80.4047 79.3305L81.8317 84.0425L77.7918 81.2315Z" fill="white"/>
<path d="M92.1457 66.8755L88.1059 69.6865L89.5309 64.9766L85.6096 62.0012L90.5296 61.9006L92.1457 57.2534L93.7609 61.9006L98.6819 62.0012L94.7606 64.9766L96.1866 69.6865L92.1457 66.8755Z" fill="white"/>
<path d="M28.2736 123.806L13.4911 129.56L13.1477 126.05L23.4684 122.557L23.4561 122.431L12.6177 120.632L12.3237 117.626L22.642 113.879L22.6289 113.745L11.7936 112.208L11.4502 108.697L27.0836 111.641L27.39 114.773L17.7301 118.587L17.7417 118.705L27.9672 120.674L28.2736 123.806Z" fill="white"/>
<path d="M12.229 104.189L12.7443 100.609L19.7579 98.0477L19.7791 97.9L13.7578 93.5669L14.273 89.987L23.263 96.8309L28.6129 97.5582L28.1561 100.732L22.8062 100.005L12.229 104.189Z" fill="white"/>
<path d="M30.6351 88.6761L16.1622 83.7985L18.187 78.1234C18.5763 77.0324 19.1175 76.1735 19.8108 75.5469C20.4994 74.9187 21.2854 74.5279 22.1687 74.3745C23.049 74.2148 23.9697 74.2969 24.9308 74.6208C25.8919 74.9447 26.6664 75.4365 27.2543 76.0963C27.8423 76.756 28.2017 77.5459 28.3326 78.466C28.4651 79.3815 28.3343 80.3917 27.94 81.4968L26.6494 85.114L24.1972 84.2876L25.3124 81.162C25.5212 80.5767 25.592 80.0603 25.5247 79.6127C25.4544 79.1589 25.2713 78.7772 24.9754 78.4677C24.6764 78.1518 24.289 77.9137 23.8131 77.7534C23.3326 77.5914 22.879 77.5461 22.4525 77.6174C22.0229 77.6825 21.6407 77.8736 21.3058 78.1909C20.9662 78.5066 20.6912 78.9594 20.4807 79.5494L19.7489 81.6004L31.7202 85.6348L30.6351 88.6761Z" fill="white"/>
<path d="M36.4024 74.4459L23.0483 67.0347L26.1008 61.8395C26.6851 60.8451 27.3641 60.0965 28.138 59.5937C28.91 59.0843 29.7325 58.8274 30.6055 58.823C31.4766 58.812 32.3534 59.0513 33.2359 59.5411C34.1227 60.0332 34.7748 60.6452 35.1922 61.3771C35.6052 62.1065 35.7709 62.9232 35.6894 63.8272C35.6104 64.727 35.2737 65.6826 34.6793 66.6942L32.6356 70.1727L30.3664 68.9134L32.1458 65.885C32.4581 65.3535 32.6436 64.871 32.7023 64.4374C32.761 64.0039 32.6929 63.6194 32.4981 63.2839C32.3057 62.9441 31.9901 62.6524 31.551 62.4087C31.1076 62.1626 30.6821 62.043 30.2746 62.0499C29.8696 62.0525 29.4843 62.1882 29.1187 62.4572C28.7514 62.7194 28.4103 63.1184 28.0955 63.6542L26.9924 65.5317L38.0381 71.6619L36.4024 74.4459ZM34.5035 63.962L42.5035 64.062L40.6977 67.1354L32.7392 66.9647L34.5035 63.962Z" fill="white"/>
<path d="M48.2385 46.1452C49.5076 47.2237 50.3761 48.376 50.844 49.6019C51.3153 50.8242 51.4233 52.0378 51.1682 53.2427C50.9125 54.4407 50.3341 55.5405 49.433 56.5421C48.5251 57.551 47.4756 58.2569 46.2842 58.6596C45.0929 59.0624 43.8426 59.1183 42.5334 58.8274C41.2241 58.5365 39.9369 57.8533 38.6716 56.778C37.4025 55.6994 36.5323 54.549 36.0611 53.3268C35.5898 52.1045 35.482 50.8944 35.7376 49.6964C35.9895 48.4951 36.5693 47.3901 37.4771 46.3811C38.3783 45.3795 39.4245 44.6774 40.6159 44.2746C41.8068 43.8649 43.0568 43.8056 44.3661 44.0965C45.6786 44.3837 46.9694 45.0666 48.2385 46.1452ZM46.0488 48.5788C45.2267 47.8802 44.4254 47.4111 43.6448 47.1716C42.8675 46.9285 42.1385 46.8991 41.4578 47.0836C40.777 47.2681 40.1756 47.6505 39.6535 48.2307C39.1314 48.811 38.8217 49.4413 38.7243 50.1216C38.627 50.8019 38.7524 51.502 39.1008 52.222C39.4524 52.9382 40.0392 53.6457 40.8613 54.3443C41.6834 55.043 42.483 55.5139 43.2603 55.757C44.0409 55.9965 44.7716 56.024 45.4523 55.8395C46.1331 55.655 46.7345 55.2727 47.2566 54.6924C47.7787 54.1122 48.0884 53.4819 48.1857 52.8016C48.2831 52.1213 48.156 51.423 47.8043 50.7067C47.456 49.9868 46.8708 49.2775 46.0488 48.5788Z" fill="white"/>
<path d="M61.6161 45.5434L57.2389 48.7297L47.9161 36.6326L52.3294 33.4199C53.5714 32.5158 54.8272 31.9797 56.0969 31.8116C57.3634 31.6396 58.5854 31.8289 59.7627 32.3795C60.944 32.9273 62.0187 33.8292 62.9868 35.0854C63.9579 36.3456 64.5493 37.6055 64.7609 38.8652C64.9766 40.1221 64.8189 41.3218 64.2878 42.4645C63.7607 43.6042 62.8701 44.6306 61.6161 45.5434ZM58.1607 44.6379L59.8187 43.431C60.5904 42.8692 61.1364 42.2628 61.4566 41.6118C61.7777 40.9538 61.8525 40.2448 61.6807 39.4846C61.51 38.7176 61.0771 37.8832 60.3822 36.9814C59.6933 36.0875 58.9957 35.4551 58.2894 35.084C57.5871 34.7101 56.8695 34.5809 56.1366 34.6964C55.4037 34.8119 54.6513 35.1505 53.8796 35.7123L52.2156 36.9236L58.1607 44.6379Z" fill="white"/>
<path d="M73.4803 21.5337L76.4188 20.1951L80.7273 29.1288C81.2111 30.1318 81.3924 31.1198 81.2711 32.0926C81.1543 33.0634 80.7654 33.9561 80.1043 34.7707C79.441 35.5808 78.5347 36.2476 77.3856 36.7711C76.2319 37.2966 75.1226 37.548 74.0576 37.5252C72.9904 37.4979 72.0357 37.2173 71.1933 36.6835C70.3509 36.1497 69.6878 35.3812 69.204 34.3781L64.8955 25.4445L67.834 24.1059L72.0227 32.791C72.2754 33.3149 72.6153 33.7281 73.0426 34.0305C73.4744 34.3308 73.9591 34.5005 74.4967 34.5396C75.0342 34.5788 75.5858 34.4695 76.1513 34.2119C76.7214 33.9522 77.1607 33.6101 77.4691 33.1856C77.7821 32.759 77.9557 32.2894 77.9899 31.7768C78.0286 31.2621 77.9217 30.7428 77.669 30.2189L73.4803 21.5337Z" fill="white"/>
<path d="M87.5194 32.6873L83.8109 17.8717L86.9533 17.1287L88.5884 23.6612L88.7844 23.6149L92.4979 15.8178L96.2644 14.9273L92.4094 22.8651L100.038 29.7275L96.2789 30.6163L90.6829 25.4877L89.6079 27.734L90.6618 31.9444L87.5194 32.6873Z" fill="white"/>
<path d="M117.377 21.3398C117.435 23.0043 117.17 24.4308 116.58 25.6193C115.994 26.8076 115.171 27.7278 114.109 28.3798C113.053 29.0267 111.851 29.3724 110.504 29.4171C109.148 29.462 107.92 29.1943 106.82 28.614C105.72 28.0336 104.837 27.17 104.17 26.0231C103.502 24.8763 103.14 23.4731 103.082 21.8136C103.023 20.1492 103.287 18.7228 103.872 17.5344C104.457 16.346 105.278 15.4284 106.335 14.7816C107.391 14.1297 108.598 13.7813 109.954 13.7364C111.301 13.6917 112.524 13.9596 113.624 14.54C114.728 15.1152 115.614 15.9762 116.281 17.1231C116.953 18.2698 117.319 19.6753 117.377 21.3398ZM114.105 21.4483C114.067 20.3701 113.874 19.4662 113.525 18.7366C113.181 18.0068 112.711 17.4603 112.117 17.097C111.522 16.7337 110.834 16.5649 110.054 16.5908C109.274 16.6166 108.6 16.8305 108.032 17.2323C107.464 17.6342 107.032 18.2106 106.735 18.9616C106.443 19.7125 106.316 20.627 106.354 21.7052C106.391 22.7833 106.582 23.6873 106.926 24.4171C107.275 25.1467 107.747 25.6932 108.342 26.0565C108.937 26.4198 109.624 26.5885 110.404 26.5626C111.184 26.5368 111.858 26.3229 112.426 25.9211C112.994 25.5192 113.424 24.9429 113.716 24.192C114.013 23.441 114.143 22.5264 114.105 21.4483Z" fill="white"/>
<path d="M125.041 29.9187L123.946 14.1187L127.403 14.8159L127.666 25.6936L127.791 25.7186L132.74 15.8918L135.701 16.4887L136.208 27.4384L136.339 27.4649L141.037 17.5646L144.495 18.2617L137.023 32.3343L133.938 31.7124L133.171 21.3721L133.054 21.3485L128.126 30.5406L125.041 29.9187Z" fill="white"/>
<path d="M145.82 35.6174L142.672 34.183L154.104 22.6122L157.891 24.3372L156.048 40.2763L152.899 38.8419L154.536 26.643L154.427 26.5936L145.82 35.6174ZM148.231 30.1206L155.669 33.5088L154.574 35.7792L147.136 32.3909L148.231 30.1206Z" fill="white"/>
<path d="M178.569 37.5544L169.246 49.6516L166.991 48.0101L167.487 36.4858L167.396 36.42L161.528 44.0339L158.918 42.1335L168.241 30.0363L170.532 31.7041L169.998 43.1918L170.107 43.2708L175.97 35.6628L178.569 37.5544Z" fill="white"/>
<path d="M187.736 58.1C186.467 59.1785 185.176 59.8614 183.864 60.1487C182.555 60.4396 181.303 60.3818 180.108 59.9754C178.92 59.5694 177.876 58.8656 176.975 57.864C176.067 56.8551 175.487 55.75 175.235 54.5488C174.984 53.3476 175.093 52.1358 175.565 50.9136C176.036 49.6913 176.904 48.5425 178.169 47.4672C179.438 46.3886 180.728 45.7039 182.037 45.4129C183.346 45.122 184.594 45.1795 185.782 45.5855C186.973 45.9883 188.023 46.6941 188.931 47.7031C189.832 48.7047 190.408 49.806 190.66 51.0073C190.919 52.2089 190.813 53.4209 190.342 54.6432C189.874 55.8692 189.005 57.0214 187.736 58.1ZM185.547 55.6663C186.369 54.9676 186.954 54.2584 187.302 53.5384C187.654 52.8222 187.781 52.1239 187.684 51.4436C187.586 50.7633 187.276 50.133 186.754 49.5527C186.232 48.9725 185.631 48.5901 184.95 48.4056C184.269 48.2211 183.539 48.2486 182.758 48.4881C181.981 48.7313 181.181 49.2022 180.359 49.9008C179.537 50.5995 178.95 51.3069 178.599 52.0232C178.25 52.7431 178.125 53.4433 178.222 54.1236C178.319 54.8039 178.629 55.4342 179.151 56.0144C179.673 56.5946 180.275 56.977 180.956 57.1615C181.636 57.346 182.365 57.3167 183.143 57.0735C183.923 56.834 184.724 56.3649 185.547 55.6663Z" fill="white"/>
<path d="M189.782 76.2566L202.335 66.6574L203.684 69.9166L194.768 76.1166L194.816 76.2338L205.766 74.9466L206.921 77.7372L198.081 84.1797L198.132 84.3037L209.003 82.7672L210.352 86.0263L194.457 87.55L193.253 84.6423L201.441 78.3189L201.395 78.2086L190.986 79.1644L189.782 76.2566Z" fill="white"/>
<path d="M213.128 110.343L213.299 113.568L203.393 114.062C202.28 114.118 201.293 113.901 200.431 113.411C199.569 112.926 198.879 112.222 198.363 111.297C197.851 110.371 197.561 109.278 197.495 108.017C197.428 106.751 197.6 105.633 198.012 104.661C198.429 103.69 199.04 102.92 199.846 102.352C200.653 101.784 201.612 101.473 202.724 101.417L212.63 100.923L212.801 104.147L203.17 104.628C202.589 104.657 202.08 104.809 201.641 105.085C201.203 105.366 200.867 105.746 200.634 106.225C200.4 106.705 200.3 107.255 200.332 107.876C200.366 108.501 200.523 109.038 200.806 109.487C201.089 109.941 201.463 110.283 201.928 110.514C202.394 110.749 202.917 110.853 203.498 110.824L213.128 110.343Z" fill="white"/>
<path d="M197.549 118.675L212.683 120.727L211.221 130.913L208.583 130.556L209.587 123.565L205.98 123.076L205.052 129.543L202.414 129.185L203.342 122.719L199.729 122.229L198.721 129.249L196.083 128.891L197.549 118.675Z" fill="white"/>
<path d="M69.4609 169V167.996L73.4531 162.395H69.4531V161H75.5781V162.004L71.582 167.605H75.5859V169H69.4609ZM76.8838 169V161H82.2744V162.395H78.5752V164.301H81.9971V165.695H78.5752V167.605H82.29V169H76.8838ZM90.5049 163.301C90.4736 162.986 90.3395 162.741 90.1025 162.566C89.8656 162.392 89.5439 162.305 89.1377 162.305C88.8617 162.305 88.6286 162.344 88.4385 162.422C88.2484 162.497 88.1025 162.603 88.001 162.738C87.902 162.874 87.8525 163.027 87.8525 163.199C87.8473 163.342 87.8773 163.467 87.9424 163.574C88.0101 163.681 88.1025 163.773 88.2197 163.852C88.3369 163.927 88.4723 163.993 88.626 164.051C88.7796 164.105 88.9437 164.152 89.1182 164.191L89.8369 164.363C90.1859 164.441 90.5062 164.546 90.7979 164.676C91.0895 164.806 91.3421 164.966 91.5557 165.156C91.7692 165.346 91.9346 165.57 92.0518 165.828C92.1715 166.086 92.2327 166.382 92.2354 166.715C92.2327 167.204 92.1077 167.629 91.8604 167.988C91.6156 168.345 91.2614 168.622 90.7979 168.82C90.3369 169.016 89.7809 169.113 89.1299 169.113C88.484 169.113 87.9215 169.014 87.4424 168.816C86.9658 168.618 86.5934 168.326 86.3252 167.937C86.0596 167.547 85.9202 167.064 85.9072 166.488H87.5439C87.5622 166.757 87.639 166.98 87.7744 167.16C87.9124 167.337 88.096 167.471 88.3252 167.562C88.557 167.651 88.8187 167.695 89.1104 167.695C89.3968 167.695 89.6455 167.654 89.8564 167.57C90.07 167.487 90.2354 167.371 90.3525 167.223C90.4697 167.074 90.5283 166.904 90.5283 166.711C90.5283 166.531 90.4749 166.38 90.3682 166.258C90.264 166.135 90.1104 166.031 89.9072 165.945C89.7067 165.859 89.4606 165.781 89.1689 165.711L88.2979 165.492C87.6234 165.328 87.0908 165.072 86.7002 164.723C86.3096 164.374 86.1156 163.904 86.1182 163.312C86.1156 162.828 86.2445 162.405 86.5049 162.043C86.7679 161.681 87.1286 161.398 87.5869 161.195C88.0452 160.992 88.5661 160.891 89.1494 160.891C89.7432 160.891 90.2614 160.992 90.7041 161.195C91.1494 161.398 91.4958 161.681 91.7432 162.043C91.9906 162.405 92.1182 162.824 92.126 163.301H90.5049ZM93.373 169V161H95.0645V164.527H95.1699L98.0488 161H100.076L97.1074 164.582L100.111 169H98.0879L95.8965 165.711L95.0645 166.727V169H93.373ZM104.043 163.832V164.758L100.422 165.758V164.84L104.043 163.832ZM101.297 169V161H102.988V167.605H106.414V169H101.297ZM108.985 169H107.173L109.935 161H112.114L114.872 169H113.06L111.056 162.828H110.993L108.985 169ZM108.872 165.855H113.153V167.176H108.872V165.855ZM118.671 169H115.835V161H118.694C119.499 161 120.192 161.16 120.772 161.48C121.353 161.798 121.8 162.255 122.112 162.852C122.427 163.448 122.585 164.161 122.585 164.992C122.585 165.826 122.427 166.542 122.112 167.141C121.8 167.74 121.351 168.199 120.765 168.52C120.181 168.84 119.483 169 118.671 169ZM117.526 167.551H118.601C119.101 167.551 119.521 167.462 119.862 167.285C120.206 167.105 120.464 166.828 120.636 166.453C120.81 166.076 120.897 165.589 120.897 164.992C120.897 164.401 120.81 163.918 120.636 163.543C120.464 163.168 120.207 162.892 119.866 162.715C119.525 162.538 119.104 162.449 118.604 162.449H117.526V167.551ZM130.529 161V169H129.068L125.588 163.965H125.529V169H123.838V161H125.322L128.775 166.031H128.846V161H130.529ZM133.618 161V169H131.927V161H133.618ZM135.01 169V161H136.701V164.527H136.807L139.686 161H141.713L138.744 164.582L141.748 169H139.725L137.533 165.711L136.701 166.727V169H135.01ZM149.494 165C149.494 165.872 149.329 166.615 148.998 167.227C148.67 167.839 148.222 168.306 147.654 168.629C147.089 168.949 146.454 169.109 145.748 169.109C145.037 169.109 144.399 168.948 143.834 168.625C143.269 168.302 142.822 167.835 142.494 167.223C142.166 166.611 142.002 165.87 142.002 165C142.002 164.128 142.166 163.385 142.494 162.773C142.822 162.161 143.269 161.695 143.834 161.375C144.399 161.052 145.037 160.891 145.748 160.891C146.454 160.891 147.089 161.052 147.654 161.375C148.222 161.695 148.67 162.161 148.998 162.773C149.329 163.385 149.494 164.128 149.494 165ZM147.779 165C147.779 164.435 147.695 163.958 147.525 163.57C147.359 163.182 147.123 162.888 146.818 162.688C146.514 162.487 146.157 162.387 145.748 162.387C145.339 162.387 144.982 162.487 144.678 162.688C144.373 162.888 144.136 163.182 143.967 163.57C143.8 163.958 143.717 164.435 143.717 165C143.717 165.565 143.8 166.042 143.967 166.43C144.136 166.818 144.373 167.112 144.678 167.312C144.982 167.513 145.339 167.613 145.748 167.613C146.157 167.613 146.514 167.513 146.818 167.312C147.123 167.112 147.359 166.818 147.525 166.43C147.695 166.042 147.779 165.565 147.779 165ZM145.15 160.227L145.979 158.449H147.518L146.326 160.227H145.15ZM152.247 169L149.958 161H151.806L153.13 166.559H153.196L154.657 161H156.239L157.696 166.57H157.767L159.091 161H160.938L158.649 169H157.001L155.478 163.77H155.415L153.896 169H152.247ZM65.8032 182V174H68.9595C69.5662 174 70.0832 174.116 70.5103 174.348C70.9373 174.577 71.2629 174.896 71.4868 175.305C71.7134 175.711 71.8267 176.18 71.8267 176.711C71.8267 177.242 71.7121 177.711 71.4829 178.117C71.2537 178.523 70.9217 178.84 70.4868 179.066C70.0545 179.293 69.5311 179.406 68.9165 179.406H66.9048V178.051H68.6431C68.9686 178.051 69.2368 177.995 69.4478 177.883C69.6613 177.768 69.8201 177.611 69.9243 177.41C70.0311 177.207 70.0845 176.974 70.0845 176.711C70.0845 176.445 70.0311 176.214 69.9243 176.016C69.8201 175.815 69.6613 175.66 69.4478 175.551C69.2342 175.439 68.9634 175.383 68.6353 175.383H67.4946V182H65.8032ZM80.2769 178C80.2769 178.872 80.1115 179.615 79.7808 180.227C79.4526 180.839 79.0047 181.306 78.437 181.629C77.8719 181.949 77.2365 182.109 76.5308 182.109C75.8198 182.109 75.1818 181.948 74.6167 181.625C74.0516 181.302 73.605 180.835 73.2769 180.223C72.9487 179.611 72.7847 178.87 72.7847 178C72.7847 177.128 72.9487 176.385 73.2769 175.773C73.605 175.161 74.0516 174.695 74.6167 174.375C75.1818 174.052 75.8198 173.891 76.5308 173.891C77.2365 173.891 77.8719 174.052 78.437 174.375C79.0047 174.695 79.4526 175.161 79.7808 175.773C80.1115 176.385 80.2769 177.128 80.2769 178ZM78.562 178C78.562 177.435 78.4774 176.958 78.3081 176.57C78.1414 176.182 77.9058 175.888 77.6011 175.688C77.2964 175.487 76.9396 175.387 76.5308 175.387C76.1219 175.387 75.7651 175.487 75.4604 175.688C75.1558 175.888 74.9188 176.182 74.7495 176.57C74.5828 176.958 74.4995 177.435 74.4995 178C74.4995 178.565 74.5828 179.042 74.7495 179.43C74.9188 179.818 75.1558 180.112 75.4604 180.312C75.7651 180.513 76.1219 180.613 76.5308 180.613C76.9396 180.613 77.2964 180.513 77.6011 180.312C77.9058 180.112 78.1414 179.818 78.3081 179.43C78.4774 179.042 78.562 178.565 78.562 178ZM81.4438 182V180.996L85.436 175.395H81.436V174H87.561V175.004L83.5649 180.605H87.5688V182H81.4438ZM88.3979 174H90.2925L92.1167 177.445H92.1948L94.019 174H95.9136L92.9956 179.172V182H91.3159V179.172L88.3979 174ZM101.177 176.301C101.146 175.986 101.012 175.741 100.775 175.566C100.538 175.392 100.216 175.305 99.8101 175.305C99.534 175.305 99.3009 175.344 99.1108 175.422C98.9207 175.497 98.7749 175.603 98.6733 175.738C98.5744 175.874 98.5249 176.027 98.5249 176.199C98.5197 176.342 98.5496 176.467 98.6147 176.574C98.6825 176.681 98.7749 176.773 98.8921 176.852C99.0093 176.927 99.1447 176.993 99.2983 177.051C99.452 177.105 99.616 177.152 99.7905 177.191L100.509 177.363C100.858 177.441 101.179 177.546 101.47 177.676C101.762 177.806 102.014 177.966 102.228 178.156C102.442 178.346 102.607 178.57 102.724 178.828C102.844 179.086 102.905 179.382 102.908 179.715C102.905 180.204 102.78 180.629 102.533 180.988C102.288 181.345 101.934 181.622 101.47 181.82C101.009 182.016 100.453 182.113 99.8022 182.113C99.1564 182.113 98.5939 182.014 98.1147 181.816C97.6382 181.618 97.2658 181.326 96.9976 180.937C96.7319 180.547 96.5926 180.064 96.5796 179.488H98.2163C98.2345 179.757 98.3114 179.98 98.4468 180.16C98.5848 180.337 98.7684 180.471 98.9976 180.562C99.2293 180.651 99.491 180.695 99.7827 180.695C100.069 180.695 100.318 180.654 100.529 180.57C100.742 180.487 100.908 180.371 101.025 180.223C101.142 180.074 101.201 179.904 101.201 179.711C101.201 179.531 101.147 179.38 101.041 179.258C100.936 179.135 100.783 179.031 100.58 178.945C100.379 178.859 100.133 178.781 99.8413 178.711L98.9702 178.492C98.2957 178.328 97.7632 178.072 97.3726 177.723C96.9819 177.374 96.7879 176.904 96.7905 176.312C96.7879 175.828 96.9168 175.405 97.1772 175.043C97.4403 174.681 97.8009 174.398 98.2593 174.195C98.7176 173.992 99.2384 173.891 99.8218 173.891C100.416 173.891 100.934 173.992 101.376 174.195C101.822 174.398 102.168 174.681 102.416 175.043C102.663 175.405 102.791 175.824 102.798 176.301H101.177ZM104.045 182V174H105.737V177.527H105.842L108.721 174H110.749L107.78 177.582L110.784 182H108.76L106.569 178.711L105.737 179.727V182H104.045ZM113.321 174V182H111.629V174H113.321ZM116.513 182L114.224 174H116.072L117.396 179.559H117.462L118.923 174H120.505L121.962 179.57H122.033L123.357 174H125.205L122.916 182H121.267L119.744 176.77H119.681L118.162 182H116.513ZM126.683 182H124.871L127.632 174H129.812L132.57 182H130.757L128.753 175.828H128.691L126.683 182ZM126.57 178.855H130.851V180.176H126.57V178.855ZM140.224 174V182H138.763L135.283 176.965H135.224V182H133.533V174H135.017L138.47 179.031H138.541V174H140.224ZM141.153 174H143.047L144.872 177.445H144.95L146.774 174H148.668L145.75 179.172V182H144.071V179.172L141.153 174ZM156.167 176.801H154.457C154.425 176.579 154.361 176.383 154.265 176.211C154.169 176.036 154.045 175.888 153.894 175.766C153.743 175.643 153.569 175.549 153.371 175.484C153.175 175.419 152.963 175.387 152.734 175.387C152.32 175.387 151.959 175.49 151.652 175.695C151.345 175.898 151.106 176.195 150.937 176.586C150.768 176.974 150.683 177.445 150.683 178C150.683 178.57 150.768 179.049 150.937 179.437C151.109 179.826 151.348 180.118 151.656 180.316C151.963 180.514 152.319 180.613 152.722 180.613C152.949 180.613 153.158 180.583 153.351 180.523C153.546 180.464 153.72 180.376 153.871 180.262C154.022 180.145 154.147 180.003 154.246 179.836C154.347 179.669 154.417 179.479 154.457 179.266L156.167 179.273C156.123 179.641 156.013 179.995 155.835 180.336C155.661 180.674 155.425 180.978 155.128 181.246C154.834 181.512 154.483 181.723 154.074 181.879C153.667 182.033 153.208 182.109 152.695 182.109C151.981 182.109 151.343 181.948 150.781 181.625C150.221 181.302 149.778 180.835 149.453 180.223C149.13 179.611 148.968 178.87 148.968 178C148.968 177.128 149.132 176.385 149.46 175.773C149.789 175.161 150.234 174.695 150.796 174.375C151.359 174.052 151.992 173.891 152.695 173.891C153.158 173.891 153.588 173.956 153.984 174.086C154.382 174.216 154.735 174.406 155.042 174.656C155.35 174.904 155.6 175.207 155.792 175.566C155.988 175.926 156.113 176.337 156.167 176.801ZM157.38 182V174H159.072V177.301H162.505V174H164.193V182H162.505V178.695H159.072V182H157.38ZM71.4805 195V187H73.1719V193.605H76.6016V195H71.4805ZM84.7617 191C84.7617 191.872 84.5964 192.615 84.2656 193.227C83.9375 193.839 83.4896 194.306 82.9219 194.629C82.3568 194.949 81.7214 195.109 81.0156 195.109C80.3047 195.109 79.6667 194.948 79.1016 194.625C78.5365 194.302 78.0898 193.835 77.7617 193.223C77.4336 192.611 77.2695 191.87 77.2695 191C77.2695 190.128 77.4336 189.385 77.7617 188.773C78.0898 188.161 78.5365 187.695 79.1016 187.375C79.6667 187.052 80.3047 186.891 81.0156 186.891C81.7214 186.891 82.3568 187.052 82.9219 187.375C83.4896 187.695 83.9375 188.161 84.2656 188.773C84.5964 189.385 84.7617 190.128 84.7617 191ZM83.0469 191C83.0469 190.435 82.9622 189.958 82.793 189.57C82.6263 189.182 82.3906 188.888 82.0859 188.688C81.7813 188.487 81.4245 188.387 81.0156 188.387C80.6068 188.387 80.25 188.487 79.9453 188.688C79.6406 188.888 79.4036 189.182 79.2344 189.57C79.0677 189.958 78.9844 190.435 78.9844 191C78.9844 191.565 79.0677 192.042 79.2344 192.43C79.4036 192.818 79.6406 193.112 79.9453 193.312C80.25 193.513 80.6068 193.613 81.0156 193.613C81.4245 193.613 81.7813 193.513 82.0859 193.312C82.3906 193.112 82.6263 192.818 82.793 192.43C82.9622 192.042 83.0469 191.565 83.0469 191ZM86.0146 195V187H87.7061V190.527H87.8115L90.6904 187H92.7178L89.749 190.582L92.7529 195H90.7295L88.5381 191.711L87.7061 192.727V195H86.0146ZM94.9775 195H93.165L95.9268 187H98.1064L100.864 195H99.0518L97.0479 188.828H96.9854L94.9775 195ZM94.8643 191.855H99.1455V193.176H94.8643V191.855ZM101.827 195V187H103.519V193.605H106.948V195H101.827ZM114.76 187V195H113.299L109.818 189.965H109.76V195H108.068V187H109.553L113.006 192.031H113.076V187H114.76ZM117.849 187V195H116.157V187H117.849ZM119.24 195V187H124.631V188.395H120.932V190.301H124.354V191.695H120.932V193.605H124.646V195H119.24ZM135.873 191C135.873 191.872 135.708 192.615 135.377 193.227C135.049 193.839 134.601 194.306 134.033 194.629C133.468 194.949 132.833 195.109 132.127 195.109C131.416 195.109 130.778 194.948 130.213 194.625C129.648 194.302 129.201 193.835 128.873 193.223C128.545 192.611 128.381 191.87 128.381 191C128.381 190.128 128.545 189.385 128.873 188.773C129.201 188.161 129.648 187.695 130.213 187.375C130.778 187.052 131.416 186.891 132.127 186.891C132.833 186.891 133.468 187.052 134.033 187.375C134.601 187.695 135.049 188.161 135.377 188.773C135.708 189.385 135.873 190.128 135.873 191ZM134.158 191C134.158 190.435 134.074 189.958 133.904 189.57C133.738 189.182 133.502 188.888 133.197 188.688C132.893 188.487 132.536 188.387 132.127 188.387C131.718 188.387 131.361 188.487 131.057 188.688C130.752 188.888 130.515 189.182 130.346 189.57C130.179 189.958 130.096 190.435 130.096 191C130.096 191.565 130.179 192.042 130.346 192.43C130.515 192.818 130.752 193.112 131.057 193.312C131.361 193.513 131.718 193.613 132.127 193.613C132.536 193.613 132.893 193.513 133.197 193.312C133.502 193.112 133.738 192.818 133.904 192.43C134.074 192.042 134.158 191.565 134.158 191ZM137.126 195V187H140.282C140.886 187 141.402 187.108 141.829 187.324C142.259 187.538 142.586 187.841 142.81 188.234C143.036 188.625 143.149 189.085 143.149 189.613C143.149 190.145 143.035 190.602 142.806 190.984C142.576 191.365 142.244 191.656 141.81 191.859C141.377 192.062 140.854 192.164 140.239 192.164H138.126V190.805H139.966C140.289 190.805 140.557 190.76 140.771 190.672C140.984 190.583 141.143 190.451 141.247 190.273C141.354 190.096 141.407 189.876 141.407 189.613C141.407 189.348 141.354 189.124 141.247 188.941C141.143 188.759 140.983 188.621 140.767 188.527C140.553 188.431 140.284 188.383 139.958 188.383H138.817V195H137.126ZM141.446 191.359L143.435 195H141.567L139.622 191.359H141.446ZM145.724 195H143.911L146.673 187H148.853L151.61 195H149.798L147.794 188.828H147.731L145.724 195ZM145.61 191.855H149.892V193.176H145.61V191.855ZM152.487 195V193.996L156.479 188.395H152.479V187H158.604V188.004L154.608 193.605H158.612V195H152.487ZM89.7241 202.586C89.6694 202.396 89.5926 202.228 89.4937 202.082C89.3947 201.934 89.2736 201.809 89.1304 201.707C88.9897 201.603 88.8283 201.523 88.646 201.469C88.4663 201.414 88.2671 201.387 88.0483 201.387C87.6395 201.387 87.2801 201.488 86.9702 201.691C86.6629 201.895 86.4233 202.19 86.2515 202.578C86.0796 202.964 85.9937 203.435 85.9937 203.992C85.9937 204.549 86.0783 205.023 86.2476 205.414C86.4168 205.805 86.6564 206.103 86.9663 206.309C87.2762 206.512 87.6421 206.613 88.064 206.613C88.4468 206.613 88.7736 206.546 89.0444 206.41C89.3179 206.272 89.5262 206.078 89.6694 205.828C89.8153 205.578 89.8882 205.283 89.8882 204.941L90.2319 204.992H88.1694V203.719H91.5171V204.727C91.5171 205.43 91.3687 206.034 91.0718 206.539C90.7749 207.042 90.366 207.43 89.8452 207.703C89.3244 207.974 88.728 208.109 88.0562 208.109C87.3062 208.109 86.6473 207.944 86.0796 207.613C85.5119 207.28 85.0692 206.807 84.7515 206.195C84.4364 205.581 84.2788 204.852 84.2788 204.008C84.2788 203.359 84.3726 202.781 84.5601 202.273C84.7502 201.763 85.0158 201.331 85.3569 200.977C85.6981 200.622 86.0952 200.353 86.5483 200.168C87.0015 199.983 87.4924 199.891 88.021 199.891C88.4741 199.891 88.896 199.957 89.2866 200.09C89.6772 200.22 90.0236 200.405 90.3257 200.645C90.6304 200.884 90.8791 201.169 91.0718 201.5C91.2645 201.828 91.3882 202.19 91.4429 202.586H89.7241ZM92.7876 208V200H94.479V206.605H97.9087V208H92.7876ZM106.069 204C106.069 204.872 105.903 205.615 105.573 206.227C105.245 206.839 104.797 207.306 104.229 207.629C103.664 207.949 103.028 208.109 102.323 208.109C101.612 208.109 100.974 207.948 100.409 207.625C99.8436 207.302 99.397 206.835 99.0688 206.223C98.7407 205.611 98.5767 204.87 98.5767 204C98.5767 203.128 98.7407 202.385 99.0688 201.773C99.397 201.161 99.8436 200.695 100.409 200.375C100.974 200.052 101.612 199.891 102.323 199.891C103.028 199.891 103.664 200.052 104.229 200.375C104.797 200.695 105.245 201.161 105.573 201.773C105.903 202.385 106.069 203.128 106.069 204ZM104.354 204C104.354 203.435 104.269 202.958 104.1 202.57C103.933 202.182 103.698 201.888 103.393 201.688C103.088 201.487 102.732 201.387 102.323 201.387C101.914 201.387 101.557 201.487 101.252 201.688C100.948 201.888 100.711 202.182 100.542 202.57C100.375 202.958 100.292 203.435 100.292 204C100.292 204.565 100.375 205.042 100.542 205.43C100.711 205.818 100.948 206.112 101.252 206.312C101.557 206.513 101.914 206.613 102.323 206.613C102.732 206.613 103.088 206.513 103.393 206.312C103.698 206.112 103.933 205.818 104.1 205.43C104.269 205.042 104.354 204.565 104.354 204ZM107.322 208V200H110.525C111.113 200 111.604 200.087 111.998 200.262C112.391 200.436 112.686 200.678 112.884 200.988C113.082 201.296 113.181 201.65 113.181 202.051C113.181 202.363 113.119 202.638 112.994 202.875C112.869 203.109 112.697 203.302 112.478 203.453C112.262 203.602 112.014 203.707 111.736 203.77V203.848C112.041 203.861 112.326 203.947 112.591 204.105C112.86 204.264 113.077 204.487 113.244 204.773C113.41 205.057 113.494 205.396 113.494 205.789C113.494 206.214 113.388 206.592 113.177 206.926C112.969 207.257 112.66 207.518 112.251 207.711C111.843 207.904 111.339 208 110.74 208H107.322ZM109.013 206.617H110.392C110.863 206.617 111.207 206.527 111.423 206.348C111.639 206.165 111.748 205.923 111.748 205.621C111.748 205.4 111.694 205.204 111.587 205.035C111.481 204.866 111.328 204.733 111.13 204.637C110.935 204.54 110.702 204.492 110.431 204.492H109.013V206.617ZM109.013 203.348H110.267C110.499 203.348 110.705 203.307 110.884 203.227C111.067 203.143 111.21 203.026 111.314 202.875C111.421 202.724 111.474 202.543 111.474 202.332C111.474 202.043 111.371 201.81 111.166 201.633C110.962 201.456 110.673 201.367 110.298 201.367H109.013V203.348ZM115.973 208H114.161L116.922 200H119.102L121.86 208H120.047L118.043 201.828H117.981L115.973 208ZM115.86 204.855H120.141V206.176H115.86V204.855ZM122.823 208V200H124.514V206.605H127.944V208H122.823ZM135.755 200V208H134.294L130.814 202.965H130.755V208H129.064V200H130.548L134.001 205.031H134.072V200H135.755ZM138.844 200V208H137.153V200H138.844ZM140.236 208V200H145.626V201.395H141.927V203.301H145.349V204.695H141.927V206.605H145.642V208H140.236Z" fill="white"/>
</svg>
