<svg width="227" height="26" viewBox="0 0 227 26" fill="none" xmlns="http://www.w3.org/2000/svg">
<path d="M35.4 1.5H4.6C2.9 1.5 1.5 2.9 1.5 4.6V21.3C1.5 23 2.9 24.4 4.6 24.4H35.4C37.1 24.4 38.5 23 38.5 21.3V4.7C38.5 2.9 37.1 1.5 35.4 1.5Z" fill="white"/>
<path d="M35.4 1H4.6C2.6 1 1 2.6 1 4.7V21.4C1 23.4 2.6 25.1 4.6 25.1H35.4C37.4 25.1 39 23.5 39 21.4V4.7C39 2.6 37.4 1 35.4 1Z" stroke="#C3C3C3"/>
<path d="M20.5 11.2C20.5 12.6 21.7 13.4 22.7 13.9C23.7 14.4 24 14.7 24 15.1C24 15.8 23.2 16.1 22.5 16.1C21.6 16.1 20.7 15.9 19.9 15.5L19.4 17.7C20.3 18.1 21.2 18.2 22.2 18.2C24.8 18.2 26.6 16.9 26.6 14.8C26.6 12.2 23.1 12.1 23.1 10.9C23.1 10.5 23.4 10.2 24.2 10.1C25 10 25.9 10.2 26.7 10.5L27.1 8.40002C26.4 8.10002 25.6 8.00002 24.8 8.00002C22.2 7.90002 20.5 9.20002 20.5 11.2ZM31.3 8.10002C31.1 8.10002 30.8 8.20002 30.7 8.30002C30.5 8.40002 30.4 8.60002 30.3 8.80002L26.5 17.9H29.1L29.6 16.4H32.8L33.1 17.9H35.4L33.4 8.10002H31.3ZM31.7 10.7L32.5 14.4H30.4L31.7 10.7ZM17.3 8.10002L15.2 17.9H17.7L19.8 8.10002H17.3ZM13.6 8.10002L11 14.8L9.9 9.10002C9.9 8.80002 9.7 8.60002 9.5 8.40002C9.3 8.20002 9.1 8.10002 8.8 8.10002H4.5V8.40002C5.4 8.60002 6.2 8.90002 7 9.20002C7.2 9.30002 7.3 9.40002 7.4 9.60002C7.5 9.80002 7.6 9.90002 7.6 10.1L9.6 18H12.2L16.3 8.20002L13.6 8.10002Z" fill="#1A1F71"/>
<path d="M81.4 1.5H50.6C48.9 1.5 47.5 2.9 47.5 4.6V21.3C47.5 23 48.9 24.4 50.6 24.4H81.4C83.1 24.4 84.5 23 84.5 21.3V4.7C84.5 2.9 83.1 1.5 81.4 1.5Z" fill="white"/>
<path d="M81.4 1H50.6C48.6 1 47 2.6 47 4.7V21.4C47 23.4 48.6 25.1 50.6 25.1H81.4C83.4 25.1 85 23.5 85 21.4V4.7C85 2.6 83.4 1 81.4 1Z" stroke="#C3C3C3"/>
<path d="M69.6004 6.3999H62.4004V19.4999H69.6004V6.3999Z" fill="#FF5F00"/>
<path d="M62.8996 13C62.8996 11.7 63.1996 10.5 63.6996 9.39998C64.1996 8.19998 64.9996 7.19999 65.9996 6.39999C64.7996 5.39999 63.2996 4.79999 61.7996 4.69999C60.2996 4.49999 58.6996 4.79999 57.2996 5.49999C55.8996 6.19999 54.6996 7.29999 53.8996 8.59999C53.0996 9.89999 52.5996 11.5 52.5996 13C52.5996 14.6 52.9996 16.1 53.8996 17.4C54.6996 18.7 55.8996 19.8 57.2996 20.5C58.6996 21.2 60.1996 21.5 61.7996 21.3C63.2996 21.1 64.7996 20.5 65.9996 19.6C64.9996 18.8 64.1996 17.8 63.6996 16.7C63.0996 15.5 62.8996 14.3 62.8996 13Z" fill="#EB001B"/>
<path d="M79.3 13C79.3 14.6 78.9 16.1 78.1 17.4C77.3 18.7 76.1 19.8 74.7 20.5C73.3 21.2 71.8 21.5 70.2 21.3C68.7 21.1 67.2 20.5 66 19.6C67 18.8 67.8 17.8 68.3 16.7C68.8 15.6 69.1 14.3 69.1 13.1C69.1 11.8 68.8 10.6 68.3 9.49999C67.8 8.19999 67 7.19999 66 6.39999C67.2 5.39999 68.7 4.79999 70.2 4.69999C71.7 4.49999 73.3 4.79999 74.7 5.49999C76.1 6.19999 77.3 7.29999 78.1 8.59999C78.9 9.89999 79.3 11.4 79.3 13Z" fill="#F79E1B"/>
<path d="M128.4 1.5H95.6C94.5 1.5 93.5 2.4 93.5 3.6V22.4C93.5 23.6 94.4 24.5 95.6 24.5H128.5C129.6 24.5 130.6 23.6 130.6 22.4V3.6C130.5 2.5 129.6 1.5 128.4 1.5Z" fill="#036FD0"/>
<path d="M101.3 19.3998V13.7998H107.1L107.7 14.5998L108.3 13.7998H129.4V18.9998C129 19.1998 128.6 19.3998 128.2 19.3998H116.5L115.8 18.4998V19.3998H113.5V17.8998C113.2 18.0998 112.8 18.0998 112.5 18.0998H111.7V19.3998H108.2L107.6 18.5998L107 19.3998H101.3Z" fill="white"/>
<path d="M94.5 9.7001L95.8 6.6001H98.1L98.8 8.3001V6.6001H101.6L102 7.9001L102.4 6.6001H115.1V7.2001C115.6 6.8001 116.2 6.6001 116.9 6.6001H121L121.7 8.3001V6.6001H124.1L124.8 7.6001V6.6001H127.2V12.2001H124.8L124.2 11.2001V12.2001H120.7L120.4 11.3001H119.5L119.2 12.2001H116.8C116.2 12.2001 115.7 12.0001 115.3 11.6001V12.2001H111.8L111.1 11.3001V12.2001H97.7L97.4 11.3001H96.5L96.2 12.2001H94.6L94.5 9.7001Z" fill="white"/>
<path d="M96.3 7.2002L94.5 11.4002H95.7L96 10.6002H97.9L98.2 11.4002H99.4L97.6 7.2002H96.3ZM96.9 8.2002L97.5 9.7002H96.3L96.9 8.2002Z" fill="#016FD0"/>
<path d="M99.5 11.4002V7.2002H101.1L102.1 9.9002L103 7.2002H104.6V11.4002H103.6V8.3002L102.5 11.4002H101.6L100.5 8.3002V11.4002H99.5Z" fill="#016FD0"/>
<path d="M105.3 11.4002V7.2002H108.7V8.1002H106.4V8.8002H108.7V9.7002H106.4V10.4002H108.7V11.3002L105.3 11.4002Z" fill="#016FD0"/>
<path d="M109.3 7.2002V11.4002H110.3V9.9002H110.7L111.9 11.4002H113.2L111.8 9.9002C112.1 9.9002 112.4 9.7002 112.6 9.5002C112.8 9.3002 112.9 9.0002 112.9 8.6002C112.9 8.4002 112.9 8.2002 112.8 8.1002C112.7 7.9002 112.6 7.8002 112.5 7.6002C112.4 7.5002 112.2 7.4002 112 7.3002C111.8 7.2002 111.6 7.2002 111.5 7.2002H109.3ZM110.3 8.2002H111.5C111.6 8.2002 111.7 8.2002 111.8 8.3002C111.9 8.4002 111.9 8.5002 112 8.6002C112 8.7002 111.9 8.8002 111.9 8.9002C111.8 9.0002 111.7 9.0002 111.6 9.0002H110.4L110.3 8.2002Z" fill="#016FD0"/>
<path d="M114.5 11.4002H113.4V7.2002H114.5V11.4002Z" fill="#016FD0"/>
<path d="M117 11.4002H116.8C116.5 11.4002 116.3 11.3002 116.1 11.2002C115.9 11.1002 115.7 10.9002 115.5 10.7002C115.3 10.5002 115.2 10.3002 115.1 10.0002C115 9.9002 115 9.6002 115 9.3002C115 9.0002 115 8.7002 115.1 8.5002C115.2 8.2002 115.3 8.0002 115.5 7.8002C115.7 7.6002 115.9 7.4002 116.2 7.3002C116.5 7.2002 116.7 7.2002 117 7.2002H118.1V8.2002H117C116.9 8.2002 116.7 8.2002 116.6 8.3002C116.5 8.4002 116.4 8.4002 116.3 8.6002C116.2 8.7002 116.1 8.8002 116.1 9.0002C116.1 9.1002 116 9.3002 116.1 9.4002C116.1 9.6002 116.1 9.7002 116.1 9.9002C116.1 10.0002 116.2 10.2002 116.3 10.3002C116.4 10.4002 116.5 10.5002 116.7 10.5002C116.8 10.6002 117 10.6002 117.1 10.6002H117.4L117 11.4002Z" fill="#016FD0"/>
<path d="M119.2 7.2002L117.4 11.4002H118.6L118.9 10.6002H120.8L121.1 11.4002H122.3L120.5 7.2002H119.2ZM119.9 8.2002L120.5 9.7002H119.3L119.9 8.2002Z" fill="#016FD0"/>
<path d="M122.5 11.4002V7.2002H123.8L125.5 9.8002V7.2002H126.5V11.4002H125.2L123.5 8.7002V11.4002H122.5Z" fill="#016FD0"/>
<path d="M102 18.7V14.5H105.4V15.4H103V16.1H105.3V17H103V17.7H105.3V18.6L102 18.7Z" fill="#016FD0"/>
<path d="M118.4 18.7V14.5H121.8V15.4H119.5V16.1H121.8V17H119.5V17.7H121.8V18.6L118.4 18.7Z" fill="#016FD0"/>
<path d="M105.5 18.7L107.1 16.6L105.4 14.5H106.7L107.7 15.8L108.7 14.5H109.9L108.2 16.6L109.8 18.7H108.5L107.5 17.4L106.6 18.7H105.5Z" fill="#016FD0"/>
<path d="M110.1 14.6V18.8H111.2V17.5H112.3C112.5 17.5 112.7 17.5 112.9 17.4C113.1 17.3 113.3 17.2 113.4 17.1C113.6 17 113.7 16.8 113.8 16.6C113.9 16.4 113.9 16.2 113.9 16C113.9 15.8 113.9 15.6 113.8 15.4C113.7 15.2 113.6 15.1 113.5 14.9C113.4 14.8 113.2 14.7 113 14.6C112.8 14.5 112.6 14.5 112.4 14.5H110.1V14.6ZM111.1 15.5H112.2C112.3 15.5 112.3 15.5 112.4 15.5C112.5 15.5 112.5 15.6 112.6 15.6C112.6 15.6 112.7 15.7 112.7 15.8C112.7 15.9 112.7 15.9 112.7 16C112.7 16.1 112.7 16.1 112.7 16.2C112.7 16.3 112.6 16.3 112.6 16.4C112.6 16.4 112.5 16.5 112.4 16.5C112.3 16.5 112.3 16.5 112.2 16.5H111.1V15.5Z" fill="#016FD0"/>
<path d="M114.3 14.6001V18.8001H115.3V17.3001H115.7L116.9 18.8001H118.2L116.8 17.3001C117.1 17.3001 117.4 17.1001 117.6 16.9001C117.8 16.7001 117.9 16.4001 117.9 16.0001C117.9 15.8001 117.9 15.6001 117.8 15.5001C117.7 15.4001 117.6 15.2001 117.5 15.0001C117.4 14.9001 117.2 14.8001 117 14.7001C116.8 14.6001 116.6 14.6001 116.5 14.6001H114.3ZM115.3 15.5001H116.5C116.6 15.5001 116.7 15.5001 116.8 15.6001C116.9 15.7001 116.9 15.8001 117 15.9001C117 16.0001 116.9 16.1001 116.8 16.2001C116.7 16.3001 116.6 16.3001 116.5 16.3001H115.3V15.5001Z" fill="#016FD0"/>
<path d="M122.3 18.6999V17.7999H124.4C124.7 17.7999 124.8 17.5999 124.8 17.3999C124.8 17.1999 124.7 16.9999 124.4 16.9999H123.5C123.3 16.9999 123.2 16.9999 123 16.8999C122.8 16.7999 122.7 16.7999 122.6 16.5999C122.5 16.4999 122.4 16.2999 122.3 16.1999C122.2 15.9999 122.2 15.8999 122.2 15.6999C122.2 14.9999 122.6 14.3999 123.8 14.3999H125.8L125.4 15.2999H123.7C123.4 15.2999 123.3 15.4999 123.3 15.5999V15.6999C123.3 15.6999 123.3 15.7999 123.4 15.7999L123.5 15.8999H123.6H124.6C124.8 15.8999 124.9 15.8999 125.1 15.8999C125.3 15.8999 125.4 15.9999 125.5 16.1999C125.6 16.2999 125.7 16.4999 125.8 16.5999C125.9 16.7999 125.9 16.8999 125.9 17.0999C125.9 17.2999 125.9 17.4999 125.8 17.5999C125.7 17.6999 125.6 17.8999 125.5 17.9999C125.4 18.0999 125.2 18.1999 125.1 18.2999C124.9 18.3999 124.8 18.3999 124.6 18.3999L122.3 18.6999Z" fill="#016FD0"/>
<path d="M126 18.6999V17.7999H128.1C128.4 17.7999 128.5 17.5999 128.5 17.3999C128.5 17.1999 128.4 16.9999 128.1 16.9999H127.2C127 16.9999 126.9 16.9999 126.7 16.8999C126.5 16.7999 126.4 16.7999 126.3 16.5999C126.2 16.4999 126.1 16.2999 126 16.1999C125.9 16.0999 125.9 15.8999 125.9 15.6999C125.9 14.9999 126.3 14.3999 127.5 14.3999H129.5L129.1 15.2999H127.4C127.1 15.2999 127 15.4999 127 15.5999V15.6999C127 15.6999 127 15.7999 127.1 15.7999L127.2 15.8999H127.3H128.3C128.5 15.8999 128.6 15.8999 128.8 15.8999C129 15.8999 129.1 15.9999 129.2 16.1999C129.3 16.2999 129.4 16.4999 129.5 16.5999C129.6 16.7999 129.6 16.8999 129.6 17.0999C129.6 17.2999 129.6 17.4999 129.5 17.5999C129.4 17.7999 129.3 17.8999 129.2 17.9999C129.1 18.0999 128.9 18.1999 128.8 18.2999C128.7 18.3999 128.5 18.3999 128.3 18.3999L126 18.6999Z" fill="#016FD0"/>
<path d="M127.4 1H96.6C94.6 1 93 2.6 93 4.7V21.4C93 23.4 94.6 25.1 96.6 25.1H127.4C129.4 25.1 131 23.5 131 21.4V4.7C131 2.6 129.4 1 127.4 1Z" stroke="#C3C3C3"/>
<path d="M173.4 1.5H142.6C140.9 1.5 139.5 2.9 139.5 4.6V21.3C139.5 23 140.9 24.4 142.6 24.4H173.4C175.1 24.4 176.5 23 176.5 21.3V4.7C176.5 2.9 175.1 1.5 173.4 1.5Z" fill="white"/>
<path d="M173.4 1H142.6C140.6 1 139 2.6 139 4.7V21.4C139 23.4 140.6 25.1 142.6 25.1H173.4C175.4 25.1 177 23.5 177 21.4V4.7C177 2.6 175.4 1 173.4 1Z" stroke="#C3C3C3"/>
<path d="M155 20.7998L155.3 18.9998H154.7H151.7L153.8 5.3998C153.8 5.3998 153.8 5.2998 153.9 5.2998H154H159.1C160.8 5.2998 162 5.6998 162.6 6.3998C162.9 6.6998 163.1 7.0998 163.2 7.4998C163.3 7.9998 163.3 8.4998 163.2 8.9998V9.3998L163.5 9.5998C163.7 9.6998 163.9 9.8998 164.1 9.9998C164.4 10.2998 164.5 10.6998 164.6 11.0998C164.7 11.5998 164.6 12.0998 164.5 12.6998C164.4 13.2998 164.2 13.8998 163.9 14.4998C163.6 14.8998 163.3 15.2998 162.9 15.5998C162.5 15.8998 162 16.0998 161.6 16.1998C161.1 16.2998 160.5 16.3998 159.9 16.3998H159.5C159.2 16.3998 158.9 16.4998 158.7 16.6998C158.5 16.8998 158.3 17.0998 158.3 17.3998V17.5998L157.8 20.7998V20.8998V20.9998C157.8 20.9998 157.8 20.9998 157.7 20.9998L155 20.7998Z" fill="#253B80"/>
<path d="M163.6 8.8999C163.6 8.9999 163.6 9.0999 163.5 9.1999C162.8 12.6999 160.5 13.8999 157.6 13.8999H156.1C155.9 13.8999 155.8 13.9999 155.6 14.0999C155.5 14.1999 155.4 14.3999 155.4 14.4999L154.6 19.3999L154.4 20.7999C154.4 20.8999 154.4 20.8999 154.4 20.9999C154.4 21.0999 154.4 21.0999 154.5 21.0999L154.6 21.1999C154.7 21.1999 154.7 21.1999 154.8 21.1999H157.5C157.7 21.1999 157.8 21.0999 157.9 20.9999C158 20.8999 158.1 20.7999 158.1 20.5999V20.4999L158.6 17.2999V17.0999C158.6 16.8999 158.7 16.7999 158.8 16.6999C158.9 16.5999 159.1 16.4999 159.2 16.4999H159.6C162.2 16.4999 164.2 15.3999 164.8 12.3999C165 11.8999 165 11.2999 164.9 10.7999C164.8 10.2999 164.6 9.6999 164.3 9.2999C164.1 9.1999 163.9 8.9999 163.6 8.8999Z" fill="#179BD7"/>
<path d="M162.9 8.5999C162.7 8.4999 162.5 8.4999 162.2 8.4999C161.8 8.3999 161.3 8.3999 160.9 8.3999H156.9C156.7 8.3999 156.6 8.4999 156.5 8.5999C156.4 8.6999 156.3 8.7999 156.3 8.9999L155.4 14.4999V14.6999C155.4 14.4999 155.5 14.3999 155.6 14.2999C155.7 14.1999 155.9 14.0999 156.1 14.0999H157.6C160.5 14.0999 162.8 12.8999 163.5 9.3999C163.5 9.2999 163.5 9.1999 163.6 9.0999C163.4 8.9999 163.2 8.8999 163 8.8999L162.9 8.5999Z" fill="#222D65"/>
<path d="M156.3 8.9C156.3 8.7 156.4 8.6 156.5 8.5C156.6 8.4 156.8 8.3 156.9 8.3H160.9C161.3 8.3 161.8 8.3 162.2 8.4C162.5 8.4 162.7 8.5 163 8.6C163.2 8.7 163.4 8.7 163.6 8.8C163.7 8.3 163.7 7.7 163.6 7.2C163.5 6.7 163.2 6.2 162.9 5.8C162.1 4.9 160.8 4.5 159 4.5H153.9C153.7 4.5 153.6 4.6 153.4 4.7C153.3 4.8 153.2 5 153.2 5.1L151 19C151 19.1 151 19.1 151 19.2C151 19.3 151 19.3 151.1 19.4C151.2 19.5 151.2 19.5 151.2 19.5C151.3 19.5 151.3 19.5 151.4 19.5H154.6L155.4 14.4L156.3 8.9Z" fill="#253B80"/>
<g clip-path="url(#clip0_447_470)">
<mask id="mask0_447_470" style="mask-type:luminance" maskUnits="userSpaceOnUse" x="184" y="1" width="43" height="24">
<path d="M227 1H184V25H227V1Z" fill="white"/>
</mask>
<g mask="url(#mask0_447_470)">
<path d="M222.865 1.01611H188.14C185.86 1.01611 184.013 2.87112 184.013 5.15938V20.8445C184.013 23.1328 185.86 24.9878 188.14 24.9878H222.865C225.144 24.9878 226.991 23.1328 226.991 20.8445V5.15938C226.991 2.87112 225.144 1.01611 222.865 1.01611Z" fill="#FFB3C7"/>
<path fill-rule="evenodd" clip-rule="evenodd" d="M222.967 15.0865C222.405 15.0865 221.949 15.5482 221.949 16.1179C221.949 16.6875 222.405 17.1494 222.967 17.1494C223.53 17.1494 223.986 16.6875 223.986 16.1179C223.986 15.5482 223.53 15.0865 222.967 15.0865ZM219.618 14.289C219.618 13.5091 218.96 12.877 218.148 12.877C217.336 12.877 216.678 13.5091 216.678 14.289C216.678 15.069 217.336 15.7012 218.148 15.7012C218.96 15.7012 219.618 15.069 219.618 14.289ZM219.623 11.5445H221.245V17.0333H219.623V16.6825C219.165 16.9991 218.612 17.1852 218.015 17.1852C216.436 17.1852 215.156 15.8886 215.156 14.289C215.156 12.6894 216.436 11.3928 218.015 11.3928C218.612 11.3928 219.165 11.5789 219.623 11.8956V11.5445ZM206.641 12.2595V11.5446H204.981V17.0332H206.645V14.4707C206.645 13.6061 207.57 13.1414 208.212 13.1414C208.219 13.1414 208.225 13.142 208.231 13.1421V11.545C207.573 11.545 206.967 11.8307 206.641 12.2595ZM202.504 14.289C202.504 13.5091 201.846 12.877 201.035 12.877C200.223 12.877 199.565 13.5091 199.565 14.289C199.565 15.069 200.223 15.7012 201.035 15.7012C201.846 15.7012 202.504 15.069 202.504 14.289ZM202.51 11.5446H204.132V17.0333H202.51V16.6825C202.052 16.9991 201.498 17.1852 200.902 17.1852C199.323 17.1852 198.043 15.8886 198.043 14.289C198.043 12.6894 199.323 11.3928 200.902 11.3928C201.498 11.3928 202.052 11.5789 202.51 11.8956V11.5446ZM212.274 11.397C211.626 11.397 211.012 11.6007 210.602 12.163V11.5449H208.987V17.0333H210.622V14.149C210.622 13.3143 211.175 12.9056 211.84 12.9056C212.553 12.9056 212.963 13.337 212.963 14.1377V17.0333H214.583V13.543C214.583 12.2657 213.58 11.397 212.274 11.397ZM195.68 17.0333H197.378V9.09862H195.68V17.0333ZM188.222 17.0356H190.02V9.09717H188.222V17.0356ZM194.51 9.09717C194.51 10.8158 193.849 12.4145 192.671 13.6028L195.156 17.0359H192.935L190.235 13.3049L190.932 12.7761C192.088 11.8988 192.751 10.558 192.751 9.09717H194.51Z" fill="#0A0B09"/>
</g>
</g>
<rect x="184.4" y="1.4" width="42.2" height="23.2" rx="3.6" stroke="#C3C3C3" stroke-width="0.8"/>
<defs>
<clipPath id="clip0_447_470">
<rect x="184" y="1" width="43" height="24" rx="4" fill="white"/>
</clipPath>
</defs>
</svg>
