<?xml version="1.0" encoding="utf-8"?>
<!-- Generator: Adobe Illustrator 26.5.0, SVG Export Plug-In . SVG Version: 6.00 Build 0)  -->
<svg version="1.1" id="Layer_1" xmlns="http://www.w3.org/2000/svg" xmlns:xlink="http://www.w3.org/1999/xlink" x="0px" y="0px"
	 viewBox="0 0 315.2 26" style="enable-background:new 0 0 315.2 26;" xml:space="preserve">
<style type="text/css">
	.st0{fill:#FFFFFF;}
	.st1{fill:none;stroke:#C3C3C3;}
	.st2{fill:#1A1F71;}
	.st3{fill:#FF5F00;}
	.st4{fill:#EB001B;}
	.st5{fill:#F79E1B;}
	.st6{fill:#036FD0;}
	.st7{fill:#016FD0;}
	.st8{fill:#253B80;}
	.st9{fill:#179BD7;}
	.st10{fill:#222D65;}
	.st11{fill:#EF7D00;}
	.st12{fill:url(#SVGID_1_);}
	.st13{clip-path:url(#SVGID_00000024723801649000906020000013557893004398817176_);}
	.st14{fill:#F8BD01;}
	.st15{fill:#E4472E;}
	.st16{fill:#42A945;}
	.st17{fill:#4782FB;}
</style>
<path class="st0" d="M35.4,1.5H4.6c-1.7,0-3.1,1.4-3.1,3.1v16.7c0,1.7,1.4,3.1,3.1,3.1h30.8c1.7,0,3.1-1.4,3.1-3.1V4.7
	C38.5,2.9,37.1,1.5,35.4,1.5z"/>
<path class="st1" d="M35.4,1H4.6C2.6,1,1,2.6,1,4.7v16.7c0,2,1.6,3.7,3.6,3.7h30.8c2,0,3.6-1.6,3.6-3.7V4.7C39,2.6,37.4,1,35.4,1z"
	/>
<path class="st2" d="M20.5,11.2c0,1.4,1.2,2.2,2.2,2.7s1.3,0.8,1.3,1.2c0,0.7-0.8,1-1.5,1c-0.9,0-1.8-0.2-2.6-0.6l-0.5,2.2
	c0.9,0.4,1.8,0.5,2.8,0.5c2.6,0,4.4-1.3,4.4-3.4c0-2.6-3.5-2.7-3.5-3.9c0-0.4,0.3-0.7,1.1-0.8c0.8-0.1,1.7,0.1,2.5,0.4l0.4-2.1
	C26.4,8.1,25.6,8,24.8,8C22.2,7.9,20.5,9.2,20.5,11.2L20.5,11.2z M31.3,8.1c-0.2,0-0.5,0.1-0.6,0.2c-0.2,0.1-0.3,0.3-0.4,0.5
	l-3.8,9.1h2.6l0.5-1.5h3.2l0.3,1.5h2.3l-2-9.8L31.3,8.1L31.3,8.1z M31.7,10.7l0.8,3.7h-2.1L31.7,10.7z M17.3,8.1l-2.1,9.8h2.5
	l2.1-9.8C19.8,8.1,17.3,8.1,17.3,8.1z M13.6,8.1L11,14.8L9.9,9.1c0-0.3-0.2-0.5-0.4-0.7C9.3,8.2,9.1,8.1,8.8,8.1H4.5v0.3
	C5.4,8.6,6.2,8.9,7,9.2c0.2,0.1,0.3,0.2,0.4,0.4s0.2,0.3,0.2,0.5l2,7.9h2.6l4.1-9.8L13.6,8.1"/>
<path class="st0" d="M81.4,1.5H50.6c-1.7,0-3.1,1.4-3.1,3.1v16.7c0,1.7,1.4,3.1,3.1,3.1h30.8c1.7,0,3.1-1.4,3.1-3.1V4.7
	C84.5,2.9,83.1,1.5,81.4,1.5z"/>
<path class="st1" d="M81.4,1H50.6c-2,0-3.6,1.6-3.6,3.7v16.7c0,2,1.6,3.7,3.6,3.7h30.8c2,0,3.6-1.6,3.6-3.7V4.7
	C85,2.6,83.4,1,81.4,1z"/>
<path class="st3" d="M69.6,6.4h-7.2v13.1h7.2V6.4z"/>
<path class="st4" d="M62.9,13c0-1.3,0.3-2.5,0.8-3.6c0.5-1.2,1.3-2.2,2.3-3c-1.2-1-2.7-1.6-4.2-1.7c-1.5-0.2-3.1,0.1-4.5,0.8
	s-2.6,1.8-3.4,3.1c-0.8,1.3-1.3,2.9-1.3,4.4c0,1.6,0.4,3.1,1.3,4.4c0.8,1.3,2,2.4,3.4,3.1s2.9,1,4.5,0.8c1.5-0.2,3-0.8,4.2-1.7
	c-1-0.8-1.8-1.8-2.3-2.9C63.1,15.5,62.9,14.3,62.9,13z"/>
<path class="st5" d="M79.3,13c0,1.6-0.4,3.1-1.2,4.4c-0.8,1.3-2,2.4-3.4,3.1s-2.9,1-4.5,0.8c-1.5-0.2-3-0.8-4.2-1.7
	c1-0.8,1.8-1.8,2.3-2.9s0.8-2.4,0.8-3.6c0-1.3-0.3-2.5-0.8-3.6C67.8,8.2,67,7.2,66,6.4c1.2-1,2.7-1.6,4.2-1.7
	c1.5-0.2,3.1,0.1,4.5,0.8s2.6,1.8,3.4,3.1S79.3,11.4,79.3,13z"/>
<path class="st6" d="M128.4,1.5H95.6c-1.1,0-2.1,0.9-2.1,2.1v18.8c0,1.2,0.9,2.1,2.1,2.1h32.9c1.1,0,2.1-0.9,2.1-2.1V3.6
	C130.5,2.5,129.6,1.5,128.4,1.5z"/>
<path class="st0" d="M101.3,19.4v-5.6h5.8l0.6,0.8l0.6-0.8h21.1V19c-0.4,0.2-0.8,0.4-1.2,0.4h-11.7l-0.7-0.9v0.9h-2.3v-1.5
	c-0.3,0.2-0.7,0.2-1,0.2h-0.8v1.3h-3.5l-0.6-0.8l-0.6,0.8H101.3z"/>
<path class="st0" d="M94.5,9.7l1.3-3.1h2.3l0.7,1.7V6.6h2.8l0.4,1.3l0.4-1.3h12.7v0.6c0.5-0.4,1.1-0.6,1.8-0.6h4.1l0.7,1.7V6.6h2.4
	l0.7,1v-1h2.4v5.6h-2.4l-0.6-1v1h-3.5l-0.3-0.9h-0.9l-0.3,0.9h-2.4c-0.6,0-1.1-0.2-1.5-0.6v0.6h-3.5l-0.7-0.9v0.9H97.7l-0.3-0.9
	h-0.9l-0.3,0.9h-1.6L94.5,9.7L94.5,9.7z"/>
<path class="st7" d="M96.3,7.2l-1.8,4.2h1.2l0.3-0.8h1.9l0.3,0.8h1.2l-1.8-4.2H96.3z M96.9,8.2l0.6,1.5h-1.2L96.9,8.2z"/>
<path class="st7" d="M99.5,11.4V7.2h1.6l1,2.7l0.9-2.7h1.6v4.2h-1V8.3l-1.1,3.1h-0.9l-1.1-3.1v3.1H99.5z"/>
<path class="st7" d="M105.3,11.4V7.2h3.4v0.9h-2.3v0.7h2.3v0.9h-2.3v0.7h2.3v0.9L105.3,11.4z"/>
<path class="st7" d="M109.3,7.2v4.2h1V9.9h0.4l1.2,1.5h1.3l-1.4-1.5c0.3,0,0.6-0.2,0.8-0.4s0.3-0.5,0.3-0.9c0-0.2,0-0.4-0.1-0.5
	c-0.1-0.2-0.2-0.3-0.3-0.5c-0.1-0.1-0.3-0.2-0.5-0.3c-0.2-0.1-0.4-0.1-0.5-0.1L109.3,7.2z M110.3,8.2h1.2c0.1,0,0.2,0,0.3,0.1
	c0.1,0.1,0.1,0.2,0.2,0.3c0,0.1-0.1,0.2-0.1,0.3C111.8,9,111.7,9,111.6,9h-1.2L110.3,8.2L110.3,8.2z"/>
<path class="st7" d="M114.5,11.4h-1.1V7.2h1.1V11.4z"/>
<path class="st7" d="M117,11.4h-0.2c-0.3,0-0.5-0.1-0.7-0.2c-0.2-0.1-0.4-0.3-0.6-0.5s-0.3-0.4-0.4-0.7C115,9.9,115,9.6,115,9.3
	s0-0.6,0.1-0.8c0.1-0.3,0.2-0.5,0.4-0.7c0.2-0.2,0.4-0.4,0.7-0.5c0.3-0.1,0.5-0.1,0.8-0.1h1.1v1H117c-0.1,0-0.3,0-0.4,0.1
	s-0.2,0.1-0.3,0.3c-0.1,0.1-0.2,0.2-0.2,0.4c0,0.1-0.1,0.3,0,0.4c0,0.2,0,0.3,0,0.5c0,0.1,0.1,0.3,0.2,0.4c0.1,0.1,0.2,0.2,0.4,0.2
	c0.1,0.1,0.3,0.1,0.4,0.1h0.3L117,11.4z"/>
<path class="st7" d="M119.2,7.2l-1.8,4.2h1.2l0.3-0.8h1.9l0.3,0.8h1.2l-1.8-4.2H119.2z M119.9,8.2l0.6,1.5h-1.2L119.9,8.2z"/>
<path class="st7" d="M122.5,11.4V7.2h1.3l1.7,2.6V7.2h1v4.2h-1.3l-1.7-2.7v2.7H122.5z"/>
<path class="st7" d="M102,18.7v-4.2h3.4v0.9H103v0.7h2.3V17H103v0.7h2.3v0.9L102,18.7z"/>
<path class="st7" d="M118.4,18.7v-4.2h3.4v0.9h-2.3v0.7h2.3V17h-2.3v0.7h2.3v0.9L118.4,18.7z"/>
<path class="st7" d="M105.5,18.7l1.6-2.1l-1.7-2.1h1.3l1,1.3l1-1.3h1.2l-1.7,2.1l1.6,2.1h-1.3l-1-1.3l-0.9,1.3H105.5z"/>
<path class="st7" d="M110.1,14.6v4.2h1.1v-1.3h1.1c0.2,0,0.4,0,0.6-0.1s0.4-0.2,0.5-0.3c0.2-0.1,0.3-0.3,0.4-0.5s0.1-0.4,0.1-0.6
	c0-0.2,0-0.4-0.1-0.6c-0.1-0.2-0.2-0.3-0.3-0.5c-0.1-0.1-0.3-0.2-0.5-0.3s-0.4-0.1-0.6-0.1h-2.3V14.6z M111.1,15.5h1.1
	c0.1,0,0.1,0,0.2,0s0.1,0.1,0.2,0.1c0,0,0.1,0.1,0.1,0.2c0,0.1,0,0.1,0,0.2c0,0.1,0,0.1,0,0.2s-0.1,0.1-0.1,0.2c0,0-0.1,0.1-0.2,0.1
	s-0.1,0-0.2,0h-1.1V15.5z"/>
<path class="st7" d="M114.3,14.6v4.2h1v-1.5h0.4l1.2,1.5h1.3l-1.4-1.5c0.3,0,0.6-0.2,0.8-0.4c0.2-0.2,0.3-0.5,0.3-0.9
	c0-0.2,0-0.4-0.1-0.5s-0.2-0.3-0.3-0.5c-0.1-0.1-0.3-0.2-0.5-0.3s-0.4-0.1-0.5-0.1L114.3,14.6z M115.3,15.5h1.2c0.1,0,0.2,0,0.3,0.1
	c0.1,0.1,0.1,0.2,0.2,0.3c0,0.1-0.1,0.2-0.2,0.3s-0.2,0.1-0.3,0.1h-1.2V15.5z"/>
<path class="st7" d="M122.3,18.7v-0.9h2.1c0.3,0,0.4-0.2,0.4-0.4c0-0.2-0.1-0.4-0.4-0.4h-0.9c-0.2,0-0.3,0-0.5-0.1s-0.3-0.1-0.4-0.3
	c-0.1-0.1-0.2-0.3-0.3-0.4c-0.1-0.2-0.1-0.3-0.1-0.5c0-0.7,0.4-1.3,1.6-1.3h2l-0.4,0.9h-1.7c-0.3,0-0.4,0.2-0.4,0.3v0.1
	c0,0,0,0.1,0.1,0.1l0.1,0.1h0.1h1c0.2,0,0.3,0,0.5,0s0.3,0.1,0.4,0.3c0.1,0.1,0.2,0.3,0.3,0.4c0.1,0.2,0.1,0.3,0.1,0.5
	s0,0.4-0.1,0.5s-0.2,0.3-0.3,0.4c-0.1,0.1-0.3,0.2-0.4,0.3c-0.2,0.1-0.3,0.1-0.5,0.1L122.3,18.7z"/>
<path class="st7" d="M126,18.7v-0.9h2.1c0.3,0,0.4-0.2,0.4-0.4c0-0.2-0.1-0.4-0.4-0.4h-0.9c-0.2,0-0.3,0-0.5-0.1s-0.3-0.1-0.4-0.3
	c-0.1-0.1-0.2-0.3-0.3-0.4s-0.1-0.3-0.1-0.5c0-0.7,0.4-1.3,1.6-1.3h2l-0.4,0.9h-1.7c-0.3,0-0.4,0.2-0.4,0.3v0.1c0,0,0,0.1,0.1,0.1
	l0.1,0.1h0.1h1c0.2,0,0.3,0,0.5,0s0.3,0.1,0.4,0.3c0.1,0.1,0.2,0.3,0.3,0.4c0.1,0.2,0.1,0.3,0.1,0.5s0,0.4-0.1,0.5
	c-0.1,0.2-0.2,0.3-0.3,0.4s-0.3,0.2-0.4,0.3s-0.3,0.1-0.5,0.1L126,18.7z"/>
<path class="st1" d="M127.4,1H96.6c-2,0-3.6,1.6-3.6,3.7v16.7c0,2,1.6,3.7,3.6,3.7h30.8c2,0,3.6-1.6,3.6-3.7V4.7
	C131,2.6,129.4,1,127.4,1z"/>
<path class="st0" d="M173.4,1.5h-30.8c-1.7,0-3.1,1.4-3.1,3.1v16.7c0,1.7,1.4,3.1,3.1,3.1h30.8c1.7,0,3.1-1.4,3.1-3.1V4.7
	C176.5,2.9,175.1,1.5,173.4,1.5z"/>
<path class="st1" d="M173.4,1h-30.8c-2,0-3.6,1.6-3.6,3.7v16.7c0,2,1.6,3.7,3.6,3.7h30.8c2,0,3.6-1.6,3.6-3.7V4.7
	C177,2.6,175.4,1,173.4,1z"/>
<path class="st8" d="M155,20.8l0.3-1.8h-0.6h-3l2.1-13.6c0,0,0-0.1,0.1-0.1h0.1h5.1c1.7,0,2.9,0.4,3.5,1.1c0.3,0.3,0.5,0.7,0.6,1.1
	c0.1,0.5,0.1,1,0,1.5l0,0v0.4l0.3,0.2c0.2,0.1,0.4,0.3,0.6,0.4c0.3,0.3,0.4,0.7,0.5,1.1c0.1,0.5,0,1-0.1,1.6s-0.3,1.2-0.6,1.8
	c-0.3,0.4-0.6,0.8-1,1.1s-0.9,0.5-1.3,0.6c-0.5,0.1-1.1,0.2-1.7,0.2h-0.4c-0.3,0-0.6,0.1-0.8,0.3c-0.2,0.2-0.4,0.4-0.4,0.7v0.2
	l-0.5,3.2v0.1V21c0,0,0,0-0.1,0L155,20.8z"/>
<path class="st9" d="M163.6,8.9c0,0.1,0,0.2-0.1,0.3c-0.7,3.5-3,4.7-5.9,4.7h-1.5c-0.2,0-0.3,0.1-0.5,0.2c-0.1,0.1-0.2,0.3-0.2,0.4
	l-0.8,4.9l-0.2,1.4c0,0.1,0,0.1,0,0.2s0,0.1,0.1,0.1l0.1,0.1c0.1,0,0.1,0,0.2,0h2.7c0.2,0,0.3-0.1,0.4-0.2c0.1-0.1,0.2-0.2,0.2-0.4
	v-0.1l0.5-3.2v-0.2c0-0.2,0.1-0.3,0.2-0.4c0.1-0.1,0.3-0.2,0.4-0.2h0.4c2.6,0,4.6-1.1,5.2-4.1c0.2-0.5,0.2-1.1,0.1-1.6
	c-0.1-0.5-0.3-1.1-0.6-1.5C164.1,9.2,163.9,9,163.6,8.9L163.6,8.9z"/>
<path class="st10" d="M162.9,8.6c-0.2-0.1-0.4-0.1-0.7-0.1c-0.4-0.1-0.9-0.1-1.3-0.1h-4c-0.2,0-0.3,0.1-0.4,0.2s-0.2,0.2-0.2,0.4
	l-0.9,5.5v0.2c0-0.2,0.1-0.3,0.2-0.4c0.1-0.1,0.3-0.2,0.5-0.2h1.5c2.9,0,5.2-1.2,5.9-4.7c0-0.1,0-0.2,0.1-0.3
	c-0.2-0.1-0.4-0.2-0.6-0.2L162.9,8.6L162.9,8.6z"/>
<path class="st8" d="M156.3,8.9c0-0.2,0.1-0.3,0.2-0.4c0.1-0.1,0.3-0.2,0.4-0.2h4c0.4,0,0.9,0,1.3,0.1c0.3,0,0.5,0.1,0.8,0.2
	c0.2,0.1,0.4,0.1,0.6,0.2c0.1-0.5,0.1-1.1,0-1.6s-0.4-1-0.7-1.4c-0.8-0.9-2.1-1.3-3.9-1.3h-5.1c-0.2,0-0.3,0.1-0.5,0.2
	c-0.1,0.1-0.2,0.3-0.2,0.4L151,19c0,0.1,0,0.1,0,0.2s0,0.1,0.1,0.2s0.1,0.1,0.1,0.1c0.1,0,0.1,0,0.2,0h3.2l0.8-5.1L156.3,8.9z"/>
<path class="st0" d="M219,1h-30c-2.2,0-4,1.8-4,4v16c0,2.2,1.8,4,4,4h30c2.2,0,4-1.8,4-4V5C223,2.8,221.2,1,219,1z"/>
<path class="st11" d="M222.1,14.3c0,0-9.9,7-28.1,10.1c0,0,24.8,0.7,27.3-1C223.8,21.8,222.1,14.3,222.1,14.3z"/>
<radialGradient id="SVGID_1_" cx="-654.5781" cy="419.7502" r="1" gradientTransform="matrix(2.6554 0 0 2.6649 1938.1991 -1108.6974)" gradientUnits="userSpaceOnUse">
	<stop  offset="6.000000e-03" style="stop-color:#FFF3E8"/>
	<stop  offset="9.700001e-02" style="stop-color:#FEEFE0"/>
	<stop  offset="0.246" style="stop-color:#FEE3CA"/>
	<stop  offset="0.434" style="stop-color:#FCD0A5"/>
	<stop  offset="0.653" style="stop-color:#F8B471"/>
	<stop  offset="0.897" style="stop-color:#F28E2C"/>
	<stop  offset="1" style="stop-color:#EF7D00"/>
</radialGradient>
<path class="st12" d="M204.9,7.3c-0.7,0-1.4,0.3-1.9,0.7c-0.5,0.5-0.8,1.2-0.8,1.9c0,0.4,0.1,0.7,0.2,1c0.1,0.3,0.3,0.6,0.6,0.9
	c0.3,0.2,0.6,0.4,0.9,0.6s0.7,0.2,1,0.2c0.4,0,0.7-0.1,1-0.2c0.3-0.1,0.6-0.3,0.9-0.6c0.2-0.2,0.4-0.5,0.6-0.9
	c0.1-0.3,0.2-0.7,0.2-1s-0.1-0.7-0.2-1c-0.1-0.3-0.3-0.6-0.6-0.9c-0.2-0.2-0.5-0.4-0.9-0.6C205.6,7.3,205.3,7.2,204.9,7.3L204.9,7.3
	z"/>
<path d="M189.6,7.3h-1.4v5.1h1.4c0.7,0,1.3-0.2,1.8-0.6c0.3-0.2,0.5-0.5,0.7-0.9c0.2-0.3,0.2-0.7,0.2-1.1c0-0.3-0.1-0.7-0.2-1
	c-0.1-0.3-0.3-0.6-0.6-0.8s-0.6-0.4-0.9-0.5C190.3,7.4,190,7.3,189.6,7.3z M190.8,11.1c-0.4,0.3-0.9,0.4-1.4,0.4h-0.3V8.2h0.3
	c0.2,0,0.5,0,0.7,0.1s0.4,0.2,0.6,0.3c0.2,0.2,0.3,0.4,0.4,0.6c0.1,0.2,0.1,0.4,0.1,0.7c0,0.2,0,0.5-0.1,0.7
	C191.1,10.8,190.9,11,190.8,11.1L190.8,11.1z"/>
<path d="M193.8,7.3h-1v5.1h1V7.3z"/>
<path d="M196.2,9.3c-0.6-0.2-0.8-0.4-0.8-0.6c0-0.3,0.3-0.6,0.7-0.6c0.2,0,0.3,0,0.4,0.1s0.3,0.2,0.3,0.3l0.5-0.7
	c-0.4-0.4-0.9-0.6-1.5-0.6c-0.2,0-0.4,0-0.6,0.1c-0.2,0.1-0.4,0.2-0.5,0.3c-0.1,0.1-0.3,0.3-0.3,0.5c-0.1,0.2-0.1,0.4-0.1,0.6
	c0,0.7,0.3,1.1,1.2,1.4c0.2,0.1,0.5,0.2,0.7,0.3c0.1,0.1,0.2,0.1,0.2,0.2c0.1,0.1,0.1,0.2,0.1,0.3s0,0.2-0.1,0.3
	c0,0.1-0.1,0.2-0.2,0.2c-0.1,0.1-0.2,0.1-0.2,0.2c-0.1,0-0.2,0-0.3,0c-0.2,0-0.4-0.1-0.6-0.2c-0.2-0.1-0.3-0.3-0.4-0.5l-0.6,0.6
	c0.2,0.3,0.4,0.6,0.7,0.7c0.3,0.2,0.7,0.3,1,0.2c0.2,0,0.5,0,0.7-0.1s0.4-0.2,0.6-0.4c0.2-0.2,0.3-0.3,0.4-0.6
	c0.1-0.2,0.1-0.4,0.1-0.7C197.6,10.1,197.3,9.7,196.2,9.3z"/>
<path d="M198,9.9c0,0.4,0.1,0.7,0.2,1c0.1,0.3,0.3,0.6,0.6,0.9c0.2,0.2,0.5,0.4,0.9,0.6c0.3,0.1,0.7,0.2,1,0.2
	c0.4,0,0.9-0.1,1.2-0.3v-1.2c-0.1,0.2-0.3,0.3-0.5,0.4s-0.4,0.1-0.7,0.1s-0.6,0-0.9-0.2c-0.3-0.1-0.5-0.3-0.7-0.6
	c-0.2-0.2-0.3-0.5-0.3-0.8s0-0.6,0.1-0.9c0.1-0.3,0.3-0.5,0.5-0.7s0.5-0.3,0.8-0.4s0.6,0,0.9,0.1c0.3,0.1,0.5,0.3,0.7,0.5V7.5
	c-0.4-0.2-0.8-0.3-1.2-0.3s-0.7,0.1-1,0.2S199,7.7,198.7,8c-0.2,0.2-0.4,0.5-0.6,0.9C198,9.2,198,9.5,198,9.9z"/>
<path d="M209.9,10.7l-1.4-3.4h-1.1l2.1,5.2h0.5l2.2-5.2h-1.1L209.9,10.7z"/>
<path d="M212.7,12.4h2.8v-0.9h-1.8v-1.4h1.7V9.3h-1.7V8.2h1.8V7.3h-2.8V12.4z"/>
<path d="M219.5,8.8c0-0.9-0.7-1.5-1.8-1.5h-1.5v5.1h1v-2h0.1l1.4,2h1.2l-1.6-2.1c0.3,0,0.6-0.2,0.9-0.5
	C219.4,9.5,219.5,9.2,219.5,8.8z M217.5,9.7h-0.3V8.1h0.3c0.6,0,0.9,0.3,0.9,0.8C218.4,9.4,218.1,9.7,217.5,9.7z"/>
<path d="M220.1,7.7c0-0.1-0.1-0.1-0.2-0.1h-0.1V8h0.1V7.8L220,8h0.1L220,7.8l0,0C220.1,7.8,220.1,7.8,220.1,7.7
	C220.1,7.8,220.1,7.8,220.1,7.7C220.2,7.7,220.2,7.7,220.1,7.7z M220,7.8L220,7.8L220,7.8L220,7.8C220,7.7,220,7.7,220,7.8L220,7.8
	L220,7.8z"/>
<path d="M220,7.4c-0.1,0-0.2,0-0.3,0.1s-0.1,0.2-0.1,0.3c0,0.1,0,0.2,0.1,0.3s0.2,0.1,0.3,0.1s0.2,0,0.3-0.1s0.1-0.2,0.1-0.3
	c0-0.1,0-0.2-0.1-0.3C220.2,7.5,220.1,7.4,220,7.4z M220,8.1c-0.1,0-0.1,0-0.2,0c-0.1,0-0.1-0.1-0.1-0.1c0-0.1,0-0.1,0-0.2
	s0-0.1,0.1-0.2c0,0,0.1-0.1,0.2-0.1c0.1,0,0.1,0,0.2,0c0.1,0,0.1,0.1,0.1,0.1c0,0.1,0.1,0.1,0.1,0.2s0,0.2-0.1,0.2
	C220.2,8.1,220.1,8.1,220,8.1z"/>
<path d="M197,13.7l1.3,1.4v-1.3h0.2v1.8l-1.3-1.4v1.3H197V13.7z"/>
<path d="M197,13.7v1.8h0.2v-1.3c0.1,0.1,1.3,1.4,1.3,1.4v-1.8h-0.2v1.3C198.3,15,197,13.7,197,13.7L197,13.7z M197,13.8
	c0.1,0.1,1.3,1.4,1.3,1.4v-1.3h0.2v1.7c-0.1-0.1-1.3-1.4-1.3-1.4v1.3H197V13.8z"/>
<path d="M199.4,13.8h0.9V14h-0.7v0.5h0.7v0.2h-0.7v0.7h0.7v0.2h-0.9V13.8z"/>
<path d="M200.3,13.8h-0.9v1.7h0.9v-0.2h-0.7v-0.6h0.7v-0.2h-0.7V14h0.7V13.8L200.3,13.8L200.3,13.8z M200.3,13.8V14h-0.7v0.5h0.7
	v0.1h-0.7v0.7h0.7v0.1h-0.8v-1.7C199.5,13.8,200.3,13.8,200.3,13.8z"/>
<path d="M201.6,15.5h-0.2V14H201v-0.2h1V14h-0.4V15.5z"/>
<path d="M202.1,13.8h-1V14h0.4v1.5h0.2V14h0.4L202.1,13.8L202.1,13.8z M202,13.8V14h-0.4v1.5h-0.2V14H201v-0.1L202,13.8L202,13.8z"
	/>
<path d="M203.3,15.1l0.6-1.4l0.5,1.4l0.4-1.3h0.2l-0.6,1.8l-0.5-1.4l-0.5,1.4l-0.7-1.8h0.2L203.3,15.1z"/>
<path d="M203.9,13.7c0,0-0.5,1.2-0.5,1.3c0-0.1-0.4-1.2-0.4-1.2h-0.2l0.7,1.9c0,0,0.5-1.3,0.5-1.4c0,0.1,0.5,1.4,0.5,1.4l0.7-1.9
	h-0.3l-0.4,1.2C204.4,15,203.9,13.7,203.9,13.7L203.9,13.7z M203.3,15.1c0,0,0.5-1.2,0.5-1.3c0,0.1,0.5,1.4,0.5,1.4l0.5-1.3h0.2
	c0,0-0.6,1.6-0.6,1.7c0-0.1-0.5-1.4-0.5-1.4s-0.5,1.3-0.5,1.4c0-0.1-0.6-1.7-0.6-1.7h0.2C202.9,13.9,203.3,15.1,203.3,15.1
	L203.3,15.1z"/>
<path d="M207.5,14.7c0,0.2-0.1,0.5-0.3,0.6c-0.2,0.2-0.4,0.3-0.6,0.3c-0.2,0-0.5-0.1-0.6-0.3c-0.2-0.2-0.3-0.4-0.3-0.6
	s0.1-0.5,0.3-0.6c0.2-0.2,0.4-0.3,0.6-0.3c0.2,0,0.5,0.1,0.6,0.3C207.4,14.2,207.5,14.4,207.5,14.7z M205.9,14.7
	c0,0.1,0,0.3,0.1,0.4c0.1,0.1,0.2,0.2,0.3,0.3s0.3,0.1,0.4,0c0.1,0,0.3-0.1,0.4-0.2s0.2-0.2,0.2-0.4c0-0.1,0-0.3,0-0.4
	c-0.1-0.1-0.1-0.2-0.3-0.3c-0.1-0.1-0.2-0.1-0.4-0.1s-0.4,0.1-0.5,0.2C206,14.3,205.9,14.5,205.9,14.7L205.9,14.7z"/>
<path d="M205.7,14.7c0,0.2,0.1,0.4,0.1,0.5c0.1,0.1,0.2,0.3,0.4,0.3c0.2,0.1,0.3,0.1,0.5,0.1s0.3-0.1,0.5-0.2
	c0.1-0.1,0.2-0.3,0.2-0.5s0-0.4,0-0.5c-0.1-0.2-0.2-0.3-0.3-0.4c-0.1-0.1-0.3-0.2-0.5-0.2s-0.5,0.1-0.6,0.3
	C205.8,14.2,205.7,14.4,205.7,14.7z M205.8,14.7c0-0.2,0.1-0.4,0.3-0.6c0.2-0.2,0.4-0.3,0.6-0.3c0.2,0,0.3,0.1,0.5,0.1
	c0.1,0.1,0.2,0.2,0.3,0.4s0.1,0.3,0,0.5c0,0.2-0.1,0.3-0.2,0.4c-0.1,0.1-0.3,0.2-0.4,0.2c-0.2,0-0.3,0-0.5,0
	c-0.2-0.1-0.3-0.2-0.4-0.3C205.8,15,205.8,14.8,205.8,14.7z"/>
<path d="M205.9,14.7c0,0.1,0,0.3,0.1,0.4c0.1,0.1,0.2,0.2,0.3,0.3s0.3,0.1,0.4,0c0.1,0,0.3-0.1,0.4-0.2c0.1-0.1,0.2-0.2,0.2-0.4
	c0-0.1,0-0.3,0-0.4c-0.1-0.1-0.1-0.2-0.3-0.3c-0.1-0.1-0.3-0.1-0.4-0.1c-0.1,0-0.2,0-0.3,0.1c-0.1,0-0.2,0.1-0.2,0.2
	c-0.1,0.1-0.1,0.1-0.2,0.2C205.9,14.5,205.9,14.6,205.9,14.7z M205.9,14.7c0-0.1,0-0.3,0.1-0.4c0.1-0.1,0.2-0.2,0.3-0.2
	s0.3-0.1,0.4,0c0.1,0,0.2,0.1,0.3,0.2c0.1,0.1,0.2,0.2,0.2,0.3s0,0.3,0,0.4c-0.1,0.1-0.1,0.2-0.2,0.3c-0.1,0.1-0.2,0.1-0.4,0.1
	s-0.4-0.1-0.5-0.2C206,15,205.9,14.8,205.9,14.7z"/>
<path d="M208.5,15.5h-0.2v-1.7h0.2c0.3,0,0.6,0.1,0.6,0.5c0,0.1,0,0.2-0.1,0.3s-0.2,0.1-0.3,0.1l0.5,0.8H209l-0.5-0.7l0,0V15.5z
	 M208.5,14.6L208.5,14.6c0.3,0,0.5,0,0.5-0.3s-0.2-0.3-0.4-0.3h-0.1V14.6z"/>
<path d="M208.3,13.8L208.3,13.8v1.7h0.2v-0.7l0,0l0.5,0.7h0.2l0,0c0,0-0.5-0.7-0.5-0.8c0.1,0,0.2-0.1,0.3-0.2
	c0.1-0.1,0.1-0.2,0.1-0.3c0-0.3-0.2-0.5-0.6-0.5h-0.2V13.8z M208.6,13.8c0.4,0,0.6,0.1,0.6,0.5c0,0.1,0,0.1,0,0.2
	c0,0.1,0,0.1-0.1,0.1l-0.1,0.1c-0.1,0-0.1,0-0.2,0l0,0c0,0,0.5,0.7,0.5,0.8h-0.2l-0.5-0.7h-0.1l0,0v0.7h-0.2v-1.7
	C208.3,13.8,208.6,13.8,208.6,13.8z"/>
<path d="M208.5,14L208.5,14v0.6h0.1c0.2,0,0.5,0,0.5-0.3S208.8,14,208.5,14L208.5,14z M208.6,14c0.2,0,0.4,0,0.4,0.3
	s-0.2,0.3-0.4,0.3l0,0V14L208.6,14z"/>
<path d="M211,13.8h0.3l-0.8,0.8l0.8,0.9H211l-0.7-0.8l0,0v0.7h-0.2v-1.7h0.2v0.7L211,13.8z"/>
<path d="M211.3,13.8H211c0,0-0.6,0.6-0.7,0.7v-0.7h-0.2v1.7h0.2v-0.7l0,0l0.7,0.8h0.3l0,0l-0.8-0.9
	C210.5,14.6,211.3,13.8,211.3,13.8L211.3,13.8L211.3,13.8z M211.2,13.8l-0.8,0.8c0,0,0.8,0.8,0.8,0.9H211l-0.7-0.8l0,0l-0.1,0.1v0.7
	H210v-1.7h0.2v0.8l0.7-0.8C211.1,13.8,211.1,13.8,211.2,13.8L211.2,13.8z"/>
<path class="st1" d="M219,1.5h-30c-1.9,0-3.5,1.6-3.5,3.5v16c0,1.9,1.6,3.5,3.5,3.5h30c1.9,0,3.5-1.6,3.5-3.5V5
	C222.5,3.1,220.9,1.5,219,1.5z"/>
<path d="M235,1.5h30c1.9,0,3.5,1.6,3.5,3.5v16c0,1.9-1.6,3.5-3.5,3.5h-30c-1.9,0-3.5-1.6-3.5-3.5V5C231.5,3.1,233.1,1.5,235,1.5z"/>
<g>
	<g>
		<defs>
			<rect id="SVGID_00000164497360181674959790000003170070644614482357_" x="238.5" y="8.5" width="23" height="9"/>
		</defs>
		<clipPath id="SVGID_00000100354125524545468700000009531812628159312772_">
			<use xlink:href="#SVGID_00000164497360181674959790000003170070644614482357_"  style="overflow:visible;"/>
		</clipPath>
		<g style="clip-path:url(#SVGID_00000100354125524545468700000009531812628159312772_);">
			<path class="st14" d="M238.9,13.9c-0.2-0.4-0.3-0.8-0.4-1.3c0-0.3,0-0.7,0-1c0.1-0.4,0.2-0.7,0.4-1l1.3,1c-0.2,0.5-0.2,1,0,1.4
				L238.9,13.9L238.9,13.9z"/>
			<path class="st0" d="M248.5,12.3V9.2c0-0.1,0-0.1,0.1-0.1h2.2c0.9,0,1.7,0.6,1.9,1.4c0.3,1-0.3,2.1-1.4,2.4c-0.1,0-0.2,0-0.3,0.1
				c-0.4,0-0.8,0-1.2,0h-0.4c-0.1,0-0.1,0-0.1,0.1v2.4c0,0.1,0,0.1-0.1,0.1h-0.6c-0.1,0-0.1,0-0.1-0.1L248.5,12.3L248.5,12.3z
				 M249.4,11v1c0,0.1,0,0.1,0.1,0.1h1.4c0.6,0,1.1-0.6,1.1-1.2c0-0.5-0.5-1-1-1s-1,0-1.5,0c-0.1,0-0.1,0-0.1,0.1V11L249.4,11z"/>
			<path class="st0" d="M256,14.9c-0.1,0.1-0.1,0.1-0.2,0.2c-0.4,0.4-0.9,0.6-1.5,0.6c-0.5,0-1-0.3-1.3-0.7c-0.5-0.6-0.3-1.5,0.3-2
				c0.1-0.1,0.2-0.2,0.4-0.2c0.7-0.3,1.5-0.3,2.2,0c0,0,0,0,0.1,0c0.1-0.6-0.3-1.1-0.9-1.2c-0.5-0.1-1,0.1-1.3,0.5
				c0,0.1-0.1,0.1-0.1,0c-0.2-0.1-0.4-0.2-0.6-0.4c-0.1,0-0.1-0.1,0-0.1c0.3-0.4,0.8-0.7,1.3-0.8c0.4-0.1,0.9-0.1,1.3,0.1
				c0.7,0.2,1.2,0.9,1.2,1.6c0,0.9,0,1.9,0,2.8c0,0.1,0,0.1-0.1,0.1h-0.6c-0.1,0-0.1,0-0.1-0.1L256,14.9L256,14.9z M255,13.3
				c-0.4,0-0.8,0.1-1,0.4c-0.3,0.3-0.3,0.7,0,1l0.1,0.1c0.2,0.2,0.5,0.2,0.8,0.2c0.6-0.1,1.1-0.5,1.2-1.1c0-0.1,0-0.2-0.1-0.3
				C255.6,13.4,255.3,13.3,255,13.3L255,13.3L255,13.3z"/>
			<path class="st0" d="M259.3,14.3l0.5-1.3c0.3-0.6,0.5-1.2,0.8-1.9c0-0.1,0.1-0.1,0.1-0.1h0.7c0.1,0,0.1,0,0.1,0.1l-1,2.3
				c-0.6,1.3-1.1,2.6-1.7,3.9c0,0.1-0.1,0.1-0.2,0.1h-0.8l0.3-0.7c0.2-0.5,0.5-1,0.7-1.5c0,0,0-0.1,0-0.2c-0.6-1.3-1.2-2.6-1.8-4
				c0-0.1,0-0.1,0.1-0.1h0.7c0.1,0,0.1,0,0.1,0.1c0.4,1,0.8,2,1.3,3C259.3,14.2,259.3,14.3,259.3,14.3L259.3,14.3z"/>
			<path class="st15" d="M240.2,11.5l-1.3-1c0.3-0.6,0.8-1.2,1.4-1.5c1-0.6,2.3-0.7,3.4-0.2c0.4,0.2,0.7,0.4,1,0.6
				c0.1,0.1,0.1,0.1,0,0.1c-0.3,0.3-0.6,0.6-0.9,0.9c0,0-0.1,0.1-0.1,0c-0.9-0.8-2.3-0.6-3.1,0.3C240.4,11,240.3,11.2,240.2,11.5
				L240.2,11.5L240.2,11.5z"/>
			<path class="st16" d="M238.9,13.9l1.3-1c0.2,0.5,0.5,0.9,0.9,1.2s0.9,0.4,1.5,0.3c0.4,0,0.7-0.2,1.1-0.3c0,0,0,0,0.1,0.1l1.1,0.9
				c-0.3,0.3-0.6,0.5-1,0.6c-1.2,0.5-2.6,0.3-3.7-0.4C239.6,15,239.2,14.5,238.9,13.9L238.9,13.9z"/>
			<path class="st17" d="M244.8,15.1l-1.1-0.9c0,0-0.1,0-0.1-0.1c0.2-0.2,0.5-0.4,0.6-0.7c0.1-0.1,0.1-0.2,0.1-0.3s0-0.1-0.1-0.1
				h-1.8c-0.1,0-0.1,0-0.1-0.1v-1.2c0-0.1,0-0.1,0.1-0.1h3.4c0.1,0,0.1,0.1,0.1,0.1c0.1,0.3,0.1,0.7,0,1.1c0,0.6-0.2,1.2-0.5,1.7
				C245.2,14.7,245,14.9,244.8,15.1z"/>
		</g>
	</g>
</g>
<path class="st1" d="M235,1.5h30c1.9,0,3.5,1.6,3.5,3.5v16c0,1.9-1.6,3.5-3.5,3.5h-30c-1.9,0-3.5-1.6-3.5-3.5V5
	C231.5,3.1,233.1,1.5,235,1.5z"/>
<path d="M290.9,13.8c-0.2,0.7-0.6,1.2-1.1,1.7c-0.3,0.3-0.6,0.3-1,0.1c-0.5-0.2-1-0.2-1.6,0c-0.3,0.2-0.7,0.1-1-0.1
	c-1-0.9-1.6-2.6-1.2-3.9c0.2-0.8,0.9-1.4,1.7-1.4c0.2,0,0.4,0,0.5,0.1c0.4,0.2,0.9,0.2,1.3,0s0.8-0.2,1.2,0c0.3,0.1,0.6,0.3,0.8,0.6
	c-0.5,0.4-0.8,0.9-0.8,1.5C290,13.1,290.3,13.5,290.9,13.8L290.9,13.8z"/>
<path d="M293.9,15.7h-1V9c0.1,0,0.1,0,0.2,0c0.9,0,1.8,0,2.8,0.1c1.1,0.1,1.8,1,1.7,2.2c0,1.1-0.8,2-1.8,2.1c-0.5,0.1-1,0-1.5,0
	c-0.1,0-0.2,0-0.4,0L293.9,15.7L293.9,15.7z M293.9,12.6c0.6,0,1.1,0,1.7-0.1s0.9-0.6,1-1.3c0-0.7-0.3-1.2-0.9-1.3s-1.1-0.1-1.7-0.1
	v2.8H293.9z"/>
<path d="M298.1,12.3c0-0.5,0.2-0.8,0.6-1.1c0.7-0.5,2-0.6,2.7-0.1c0.4,0.2,0.6,0.6,0.6,1c0,1.2,0,2.3,0,3.5h-1v-0.7
	c-0.1,0-0.1,0.1-0.1,0.1c-0.5,0.7-1.4,0.9-2.2,0.6c-0.6-0.2-0.9-0.7-0.9-1.3s0.3-1.1,0.9-1.2c0.4-0.1,0.9-0.2,1.4-0.2
	c0.3,0,0.6,0,0.8-0.1c0.1-0.6-0.1-1-0.5-1.1c-0.6-0.2-1.2,0-1.4,0.5c0,0.1-0.1,0.1-0.2,0.1C298.6,12.3,298.3,12.3,298.1,12.3
	L298.1,12.3z M301,13.5c-0.5,0.1-1.1,0.1-1.6,0.2c-0.1,0-0.1,0.1-0.2,0.1c-0.2,0.1-0.3,0.3-0.3,0.5s0.1,0.4,0.3,0.5
	c0.5,0.2,1,0.2,1.4-0.1C301,14.4,301,14,301,13.5L301,13.5z"/>
<path d="M302.9,17.5v-0.8c0.1,0,0.2,0,0.3,0c0.6,0,1-0.4,1-1c0-0.1,0-0.1-0.1-0.2c-0.5-1.5-1.1-2.9-1.6-4.4c0-0.1-0.1-0.1-0.1-0.3
	c0.3,0,0.7,0,1,0c0.1,0,0.1,0.1,0.2,0.2c0.4,1.2,0.7,2.3,1.1,3.5c0,0.1,0.1,0.2,0.1,0.3c0.1-0.1,0.1-0.2,0.1-0.3
	c0.4-1.1,0.7-2.3,1.1-3.4c0.1-0.2,0.1-0.2,0.3-0.2c0.3,0,0.5,0,0.8,0c0,0.1,0,0.2-0.1,0.2c-0.6,1.6-1.2,3.3-1.8,4.9
	c-0.1,0.3-0.2,0.5-0.3,0.7c-0.3,0.5-0.7,0.8-1.3,0.8C303.3,17.5,303.2,17.5,302.9,17.5L302.9,17.5z"/>
<path d="M287.9,10.1c-0.1-0.8,0.6-1.6,1.4-1.6C289.5,9.1,288.8,10.2,287.9,10.1z"/>
<path class="st1" d="M281,1.5h30c1.9,0,3.5,1.6,3.5,3.5v16c0,1.9-1.6,3.5-3.5,3.5h-30c-1.9,0-3.5-1.6-3.5-3.5V5
	C277.5,3.1,279.1,1.5,281,1.5z"/>
</svg>
