<svg width="225" height="225" viewBox="0 0 225 225" fill="none" xmlns="http://www.w3.org/2000/svg">
<path d="M225 112.5C225 174.632 174.632 225 112.5 225C50.368 225 0 174.632 0 112.5C0 50.368 50.368 0 112.5 0C174.632 0 225 50.368 225 112.5Z" fill="#001C72"/>
<path d="M107.092 127.906C104.679 131.943 100.158 136.069 82.6911 139.953C76.6592 141.369 70.8897 143.732 65.597 146.953C76.9199 149.937 98.5124 151.934 112.907 130.429C110.855 129.88 108.896 129.029 107.092 127.906Z" fill="white"/>
<path d="M104.393 123.649C107.114 118.119 113.719 119.677 118.196 116.298C124.011 111.909 121.619 97.0972 119.885 90.4044C115.832 88.08 111.356 86.5879 106.719 86.0156C83.1739 82.1316 61.6253 100.191 58.7068 124.461L58.0704 129.661C58.0704 141.489 57.3682 143.552 60.2648 145.197C80.7381 131 97.5688 137.21 104.393 123.649Z" fill="white"/>
<path d="M156.816 94.1568C146.11 94.903 135.351 94.2836 124.801 92.3135C131.625 124.329 114.048 121.477 109.572 124.307C117.318 129.025 126.863 126.436 134.873 122.442C145.537 117.11 154.754 104.602 157.87 100.016C159.472 97.7117 159.581 94.1568 156.816 94.1568Z" fill="white"/>
<path d="M119.512 137.802L115.124 135.103C113.329 137.527 111.308 139.775 109.089 141.818C118.722 147.392 117.318 145.439 117.318 161.94H126.095C126.095 147.414 125.854 147.063 126.798 145.197L136.014 126.765C132.018 128.729 127.762 130.111 123.374 130.868L119.512 137.802Z" fill="white"/>
<path d="M112.929 82.9436V61H104.152V81.2539C107.12 81.5674 110.057 82.1326 112.929 82.9436Z" fill="white"/>
<path d="M72.7886 39.3722L68.579 24.691L71.6829 23.801L75.1588 35.923L81.4527 34.1183L82.1865 36.6774L72.7886 39.3722Z" fill="white"/>
<path d="M88.9324 35.2123L86.6928 20.1047L96.8728 18.5956L97.2632 21.2291L90.2773 22.2647L90.811 25.8645L97.2731 24.9066L97.6634 27.5401L91.2014 28.4981L91.7361 32.1053L98.7514 31.0653L99.1418 33.6988L88.9324 35.2123Z" fill="white"/>
<path d="M106.459 33.095L106.343 17.8228L112.458 17.7766C113.582 17.7681 114.52 17.9276 115.273 18.255C116.027 18.5824 116.594 19.0405 116.977 19.6293C117.359 20.2131 117.553 20.8877 117.559 21.6533C117.563 22.2499 117.448 22.7753 117.213 23.2295C116.977 23.6787 116.652 24.0491 116.237 24.3406C115.826 24.6271 115.355 24.832 114.824 24.9553L114.825 25.1045C115.407 25.1249 115.953 25.2849 116.462 25.5843C116.977 25.8837 117.395 26.3056 117.717 26.8501C118.039 27.3896 118.203 28.0347 118.209 28.7854C118.215 29.5957 118.019 30.3206 117.621 30.96C117.228 31.5943 116.643 32.0984 115.865 32.4722C115.088 32.846 114.127 33.0372 112.984 33.0458L106.459 33.095ZM109.668 30.4308L112.3 30.411C113.2 30.4042 113.855 30.2277 114.265 29.8816C114.675 29.5305 114.878 29.0665 114.873 28.4899C114.87 28.0673 114.765 27.6952 114.559 27.3736C114.353 27.052 114.06 26.8006 113.681 26.6195C113.307 26.4384 112.861 26.3498 112.344 26.3537L109.637 26.3741L109.668 30.4308ZM109.621 24.1892L112.014 24.1711C112.457 24.1678 112.849 24.0878 113.191 23.9311C113.538 23.7693 113.809 23.5436 114.006 23.2537C114.208 22.9638 114.307 22.6175 114.304 22.2149C114.3 21.663 114.1 21.2196 113.705 20.8845C113.314 20.5493 112.761 20.3845 112.045 20.3899L109.592 20.4084L109.621 24.1892Z" fill="white"/>
<path d="M125.105 33.4995L127.116 18.3598L137.317 19.7151L136.967 22.3542L129.966 21.4241L129.487 25.0317L135.963 25.892L135.612 28.5311L129.136 27.6708L128.656 31.2857L135.686 32.2196L135.336 34.8587L125.105 33.4995Z" fill="white"/>
<path d="M142.535 36.2951L146.634 21.5826L152.439 23.1996C153.55 23.5092 154.443 23.9721 155.117 24.5884C155.798 25.2013 156.244 25.9267 156.454 26.7646C156.671 27.5991 156.644 28.5024 156.373 29.4746C156.101 30.4516 155.656 31.2334 155.038 31.82C154.422 32.4018 153.662 32.7681 152.758 32.9188C151.859 33.0709 150.844 32.9895 149.714 32.6746L145.827 31.5919L146.524 29.092L149.907 30.0346C150.501 30.2 151.017 30.256 151.455 30.2026C151.893 30.1492 152.254 29.9863 152.536 29.714C152.823 29.4431 153.034 29.0657 153.169 28.582C153.305 28.0935 153.321 27.6543 153.218 27.2643C153.12 26.8757 152.896 26.5398 152.547 26.2567C152.204 25.9701 151.733 25.7434 151.134 25.5766L149.036 24.9922L145.646 37.1616L142.535 36.2951ZM152.346 31.8132L154.137 39.5272L150.703 38.5706L148.991 30.8786L152.346 31.8132Z" fill="white"/>
<path d="M37.9027 149.384L40.291 152.57L35.5118 163.146L35.6191 163.289L45.4431 159.445L47.8314 162.631L36.9639 173.362L35.0855 170.856L42.1589 163.871L42.0829 163.77L32.6921 167.539L31.413 165.833L36.0896 155.712L36.0136 155.61L28.9136 162.621L27.0352 160.115L37.9027 149.384Z" fill="white"/>
<path d="M52.4124 166.634L43.0862 178.729L40.8211 176.427L50.1473 164.333L52.4124 166.634Z" fill="white"/>
<path d="M53.9424 171.7L55.3217 169.423L65.1256 177.247L63.7463 179.524L60.0917 176.607L53.5583 187.393L51.0636 185.402L57.597 174.616L53.9424 171.7Z" fill="white"/>
<path d="M81.2539 190.906C81.2773 190.519 81.2485 190.155 81.1674 189.814C81.0879 189.468 80.9554 189.147 80.7698 188.85C80.5903 188.551 80.3592 188.28 80.0766 188.037C79.7984 187.797 79.4692 187.59 79.0891 187.417C78.3786 187.094 77.6909 186.993 77.0258 187.114C76.3652 187.238 75.7647 187.582 75.2243 188.146C74.6855 188.706 74.2424 189.488 73.8952 190.494C73.5479 191.5 73.3996 192.422 73.4504 193.261C73.5011 194.099 73.7316 194.827 74.142 195.443C74.5539 196.055 75.1264 196.527 75.8595 196.861C76.5247 197.163 77.1348 197.299 77.6899 197.269C78.251 197.236 78.7339 197.051 79.1386 196.713C79.5478 196.377 79.8587 195.901 80.0712 195.286L80.6369 195.649L77.0529 194.019L77.8464 191.721L83.6637 194.367L83.0357 196.186C82.5976 197.455 81.9632 198.428 81.1325 199.105C80.3034 199.777 79.3512 200.154 78.2757 200.236C77.2019 200.312 76.0812 200.085 74.9137 199.554C73.6104 198.961 72.5686 198.142 71.7881 197.096C71.0093 196.046 70.5345 194.843 70.3638 193.488C70.1992 192.129 70.3798 190.689 70.9055 189.167C71.3096 187.996 71.8327 187.027 72.475 186.259C73.1234 185.488 73.8543 184.918 74.6678 184.549C75.4813 184.179 76.3394 184.007 77.242 184.032C78.1446 184.056 79.0552 184.277 79.9738 184.695C80.7612 185.054 81.453 185.507 82.049 186.055C82.6467 186.599 83.1333 187.207 83.5089 187.878C83.8891 188.551 84.1436 189.262 84.2724 190.011C84.4028 190.756 84.3922 191.507 84.2406 192.264L81.2539 190.906Z" fill="white"/>
<path d="M84.4289 202.684L87.484 187.72L97.422 190.393L96.8894 193.002L90.0697 191.168L89.3417 194.733L95.6501 196.43L95.1176 199.039L88.8092 197.342L88.0797 200.915L94.9282 202.757L94.3957 205.365L84.4289 202.684Z" fill="white"/>
<path d="M107.591 195.822C107.579 195.216 107.361 194.724 106.937 194.345C106.514 193.966 105.916 193.736 105.145 193.656C104.621 193.601 104.172 193.629 103.799 193.74C103.427 193.846 103.134 194.018 102.921 194.256C102.713 194.494 102.596 194.776 102.57 195.104C102.538 195.375 102.576 195.619 102.684 195.835C102.796 196.052 102.958 196.246 103.169 196.418C103.38 196.585 103.627 196.738 103.91 196.877C104.194 197.012 104.498 197.133 104.824 197.242L106.163 197.712C106.813 197.929 107.406 198.191 107.94 198.497C108.474 198.802 108.93 199.157 109.307 199.561C109.684 199.965 109.964 200.424 110.147 200.938C110.336 201.452 110.408 202.027 110.363 202.662C110.284 203.593 109.983 204.376 109.459 205.011C108.94 205.642 108.226 206.099 107.316 206.384C106.411 206.665 105.341 206.741 104.105 206.612C102.878 206.484 101.825 206.184 100.945 205.713C100.07 205.242 99.4072 204.61 98.9563 203.819C98.5107 203.023 98.3189 202.076 98.3808 200.978L101.489 201.302C101.483 201.816 101.595 202.258 101.825 202.626C102.061 202.991 102.389 203.282 102.81 203.501C103.237 203.715 103.727 203.852 104.281 203.909C104.825 203.966 105.304 203.936 105.717 203.819C106.135 203.703 106.466 203.515 106.711 203.256C106.956 202.996 107.093 202.683 107.122 202.317C107.149 201.975 107.07 201.677 106.886 201.422C106.707 201.169 106.431 200.94 106.058 200.736C105.69 200.533 105.234 200.336 104.691 200.144L103.07 199.556C101.814 199.11 100.842 198.516 100.152 197.775C99.4632 197.033 99.1656 196.1 99.2596 194.976C99.3275 194.054 99.636 193.274 100.185 192.636C100.739 191.999 101.466 191.533 102.367 191.237C103.268 190.941 104.272 190.851 105.38 190.967C106.507 191.084 107.476 191.38 108.286 191.854C109.101 192.329 109.716 192.935 110.131 193.673C110.547 194.411 110.726 195.234 110.669 196.143L107.591 195.822Z" fill="white"/>
<path d="M126.512 195.977L123.253 196.203C123.171 195.785 123.03 195.419 122.829 195.104C122.628 194.784 122.378 194.517 122.078 194.304C121.778 194.09 121.436 193.935 121.053 193.837C120.674 193.738 120.267 193.704 119.83 193.735C119.042 193.789 118.365 194.033 117.801 194.466C117.236 194.894 116.812 195.491 116.529 196.258C116.245 197.021 116.131 197.93 116.187 198.988C116.244 200.075 116.454 200.977 116.815 201.695C117.181 202.412 117.667 202.939 118.272 203.275C118.877 203.612 119.564 203.754 120.333 203.7C120.764 203.671 121.161 203.586 121.522 203.446C121.888 203.306 122.209 203.117 122.485 202.878C122.761 202.635 122.985 202.348 123.156 202.017C123.333 201.686 123.448 201.314 123.501 200.902L126.76 200.691C126.713 201.397 126.537 202.087 126.234 202.76C125.936 203.429 125.518 204.038 124.979 204.589C124.445 205.134 123.797 205.583 123.034 205.935C122.276 206.281 121.408 206.488 120.431 206.556C119.072 206.651 117.841 206.427 116.737 205.886C115.638 205.344 114.748 204.512 114.067 203.388C113.39 202.264 113.008 200.873 112.921 199.214C112.834 197.551 113.071 196.115 113.635 194.905C114.198 193.695 115 192.747 116.039 192.062C117.078 191.372 118.267 190.981 119.606 190.888C120.489 190.826 121.314 190.894 122.08 191.09C122.852 191.285 123.543 191.601 124.154 192.037C124.764 192.468 125.271 193.013 125.674 193.673C126.082 194.332 126.361 195.1 126.512 195.977Z" fill="white"/>
<path d="M130.207 205.126L127.301 190.132L130.43 189.334L131.628 195.52L137.98 193.898L136.781 187.712L139.902 186.915L142.808 201.909L139.687 202.706L138.486 196.512L132.135 198.134L133.335 204.327L130.207 205.126Z" fill="white"/>
<path d="M141.343 186.269L144.939 184.56L152.219 192.408L152.381 192.331L152.699 180.873L156.296 179.164L161.477 193.531L158.648 194.875L155.276 185.524L155.161 185.578L154.938 196.556L153.012 197.471L146.082 189.851L145.968 189.905L149.353 199.292L146.524 200.636L141.343 186.269Z" fill="white"/>
<path d="M166.832 189.907L164.037 191.946L160.9 175.477L164.262 173.025L175.912 183.285L173.117 185.324L164.319 177.27L164.223 177.34L166.832 189.907ZM163.75 184.783L170.354 179.966L171.574 182.172L164.971 186.988L163.75 184.783Z" fill="white"/>
<path d="M182.171 163.461L179.879 165.789C179.579 165.496 179.265 165.286 178.935 165.157C178.603 165.025 178.264 164.968 177.919 164.989C177.574 165.009 177.231 165.105 176.89 165.276C176.553 165.443 176.231 165.683 175.924 165.995C175.369 166.558 175.006 167.204 174.835 167.933C174.66 168.658 174.687 169.431 174.916 170.252C175.141 171.069 175.577 171.897 176.224 172.736C176.889 173.598 177.561 174.207 178.24 174.563C178.922 174.916 179.585 175.033 180.227 174.914C180.869 174.795 181.461 174.461 182.001 173.912C182.305 173.604 182.55 173.273 182.739 172.921C182.93 172.564 183.061 172.197 183.129 171.818C183.195 171.435 183.197 171.051 183.135 170.664C183.077 170.274 182.949 169.891 182.753 169.515L185.053 167.199C185.422 167.814 185.687 168.5 185.847 169.257C186.008 170.006 186.046 170.785 185.961 171.595C185.877 172.397 185.652 173.194 185.287 173.987C184.922 174.772 184.396 175.513 183.709 176.211C182.753 177.182 181.71 177.806 180.581 178.083C179.454 178.357 178.317 178.252 177.167 177.77C176.021 177.284 174.941 176.384 173.927 175.069C172.91 173.75 172.265 172.405 171.991 171.033C171.717 169.661 171.77 168.351 172.15 167.101C172.527 165.848 173.186 164.743 174.127 163.786C174.748 163.155 175.4 162.669 176.081 162.327C176.767 161.982 177.461 161.789 178.164 161.749C178.864 161.705 179.552 161.824 180.229 162.105C180.91 162.382 181.557 162.834 182.171 163.461Z" fill="white"/>
<path d="M191.268 167.955L180.197 157.434L182.086 154.815L186.967 159.454L187.085 159.29L185.419 150.194L187.683 147.055L189.324 156.362L198.793 157.522L196.533 160.655L189.534 159.722L190.01 162.346L193.157 165.336L191.268 167.955Z" fill="white"/>
</svg>
