<svg width="225" height="225" viewBox="0 0 225 225" fill="none" xmlns="http://www.w3.org/2000/svg">
<path d="M225 112.5C225 174.632 174.632 225 112.5 225C50.368 225 0 174.632 0 112.5C0 50.368 50.368 0 112.5 0C174.632 0 225 50.368 225 112.5Z" fill="#001C72"/>
<path d="M111.092 137.906C108.679 141.943 104.158 146.069 86.6911 149.953C80.6592 151.369 74.8897 153.732 69.597 156.953C80.9199 159.937 102.512 161.934 116.907 140.429C114.855 139.88 112.896 139.029 111.092 137.906Z" fill="white"/>
<path d="M108.393 133.649C111.114 128.119 117.719 129.677 122.196 126.298C128.011 121.909 125.619 107.097 123.885 100.405C119.832 98.0802 115.356 96.5881 110.719 96.0158C87.1739 92.1318 65.6253 110.191 62.7068 134.461L62.0704 139.662C62.0704 151.489 61.3682 153.552 64.2648 155.198C84.7381 141 101.569 147.21 108.393 133.649Z" fill="white"/>
<path d="M160.816 104.157C150.11 104.903 139.351 104.284 128.801 102.313C135.625 134.329 118.048 131.476 113.572 134.307C121.318 139.025 130.863 136.436 138.873 132.442C149.537 127.11 158.754 114.602 161.87 110.016C163.472 107.712 163.581 104.157 160.816 104.157Z" fill="white"/>
<path d="M123.512 147.802L119.124 145.103C117.329 147.527 115.308 149.775 113.089 151.818C122.722 157.392 121.318 155.439 121.318 171.94H130.095C130.095 157.414 129.854 157.062 130.798 155.197L140.014 136.765C136.018 138.729 131.762 140.111 127.374 140.868L123.512 147.802Z" fill="white"/>
<path d="M116.929 92.9436V71H108.152V91.2539C111.12 91.5674 114.057 92.1326 116.929 92.9436Z" fill="white"/>
<path d="M23.9226 137.466C25.4965 136.921 26.9457 136.754 28.2703 136.963C29.5931 137.168 30.735 137.677 31.696 138.491C32.6506 139.302 33.3632 140.339 33.8336 141.601C34.3076 142.873 34.4416 144.115 34.2358 145.328C34.0299 146.541 33.4844 147.631 32.599 148.6C31.7137 149.57 30.4865 150.326 28.9173 150.869C27.3434 151.413 25.895 151.583 24.5722 151.379C23.2494 151.174 22.1107 150.666 21.1561 149.855C20.1968 149.046 19.4802 148.005 19.0062 146.733C18.5358 145.471 18.4035 144.233 18.6093 143.021C18.8087 141.805 19.3511 140.713 20.2364 139.744C21.12 138.77 22.3487 138.011 23.9226 137.466ZM25.0658 140.534C24.0463 140.886 23.243 141.335 22.6558 141.881C22.0669 142.421 21.6931 143.026 21.5344 143.697C21.3758 144.367 21.4328 145.068 21.7053 145.799C21.9779 146.53 22.3966 147.106 22.9615 147.526C23.5264 147.946 24.2152 148.186 25.0281 148.247C25.8392 148.302 26.7546 148.154 27.7741 147.801C28.7936 147.448 29.5978 147.002 30.1867 146.461C30.7739 145.916 31.1468 145.308 31.3054 144.638C31.4641 143.968 31.4071 143.267 31.1345 142.536C30.862 141.804 30.4433 141.229 29.8784 140.809C29.3135 140.389 28.6255 140.151 27.8144 140.095C27.0015 140.035 26.0853 140.181 25.0658 140.534Z" fill="white"/>
<path d="M17.6201 106.407C17.0161 106.436 16.5357 106.669 16.1789 107.104C15.8222 107.54 15.6232 108.144 15.5819 108.919C15.5538 109.445 15.6046 109.893 15.7343 110.263C15.859 110.633 16.0453 110.921 16.2931 111.127C16.5413 111.328 16.8292 111.437 17.157 111.453C17.4295 111.477 17.6709 111.432 17.8811 111.318C18.0916 111.199 18.2773 111.031 18.4381 110.815C18.594 110.599 18.7344 110.347 18.8593 110.059C18.9792 109.772 19.0852 109.463 19.1774 109.134L19.5782 107.78C19.7626 107.122 19.9937 106.522 20.2717 105.978C20.5496 105.434 20.8806 104.968 21.2648 104.579C21.649 104.189 22.0928 103.895 22.5963 103.696C23.1 103.492 23.6698 103.403 24.3057 103.43C25.239 103.481 26.0356 103.759 26.6957 104.265C27.3511 104.765 27.844 105.467 28.1743 106.369C28.4998 107.266 28.6296 108.335 28.5634 109.576C28.4978 110.808 28.252 111.871 27.8259 112.765C27.4001 113.655 26.8036 114.338 26.0365 114.812C25.2647 115.282 24.3295 115.502 23.2308 115.472L23.3971 112.352C23.9104 112.343 24.3452 112.217 24.7016 111.976C25.0532 111.73 25.3276 111.392 25.5247 110.964C25.7171 110.531 25.8281 110.036 25.8577 109.48C25.8868 108.934 25.8326 108.456 25.6952 108.046C25.558 107.631 25.3538 107.305 25.0827 107.067C24.8116 106.83 24.4923 106.702 24.1248 106.684C23.7822 106.667 23.4888 106.754 23.2445 106.946C23.0006 107.133 22.7864 107.416 22.6019 107.796C22.4176 108.17 22.2436 108.631 22.0799 109.181L21.5743 110.821C21.193 112.091 20.6498 113.082 19.9447 113.794C19.2396 114.506 18.3237 114.831 17.1967 114.77C16.2729 114.73 15.4791 114.444 14.8154 113.913C14.1519 113.378 13.6498 112.664 13.309 111.771C12.9683 110.878 12.8275 109.875 12.8868 108.763C12.9471 107.631 13.1934 106.653 13.6257 105.828C14.0583 104.998 14.6322 104.365 15.3476 103.927C16.0629 103.49 16.8753 103.286 17.7848 103.316L17.6201 106.407Z" fill="white"/>
<path d="M15.4185 90.2449L16.7793 86.5023L27.9385 85.8325L27.9997 85.6643L19.7149 78.4286L21.0756 74.686L35.5456 79.5723L34.4754 82.5159L25.0571 79.3355L25.0138 79.4546L33.0108 86.3257L32.282 88.3301L21.5486 88.8761L21.5052 88.9953L30.9588 92.1876L29.8885 95.1312L15.4185 90.2449Z" fill="white"/>
<path d="M42.1554 68.6827L40.0518 71.4301L30.8108 58.3927L33.3406 55.0888L48.9878 59.7599L46.8841 62.5072L34.9562 58.716L34.8836 58.8108L42.1554 68.6827ZM37.1317 65.3753L42.1007 58.886L44.1549 60.3468L39.1858 66.8361L37.1317 65.3753Z" fill="white"/>
<path d="M55.253 53.7417L45.568 41.9325L48.1368 39.9759L52.4071 45.1828L52.5672 45.0608L52.6692 36.5237L55.7482 34.1785L55.576 42.9003L65.4865 45.9471L62.4135 48.2877L55.1036 45.9675L55.0695 48.4292L57.8217 51.7852L55.253 53.7417Z" fill="white"/>
<path d="M75.64 24.0317L78.6272 22.8057L82.6361 31.8778C83.0862 32.8964 83.234 33.8887 83.0795 34.8546C82.9296 35.8186 82.5098 36.6946 81.8202 37.4826C81.1286 38.2661 80.1987 38.8975 79.0305 39.377C77.8577 39.8583 76.7386 40.0678 75.6732 40.0054C74.6059 39.9385 73.6596 39.6231 72.8345 39.0592C72.0094 38.4953 71.3718 37.7041 70.9217 36.6854L66.9128 27.6134L69.9 26.3874L73.7974 35.2071C74.0325 35.7391 74.3588 36.1639 74.7762 36.4815C75.1982 36.7971 75.6776 36.9845 76.2145 37.0435C76.7513 37.1025 77.3072 37.0141 77.8821 36.7781C78.4616 36.5403 78.913 36.2154 79.2362 35.8034C79.5641 35.3895 79.7538 34.9275 79.8055 34.4174C79.8618 33.9054 79.7724 33.3834 79.5373 32.8514L75.64 24.0317Z" fill="white"/>
<path d="M108.799 32.1625L105.049 16.7382L108.574 16.8707L110.671 27.5688L110.798 27.5735L114.014 17.075L117.032 17.1884L119.382 27.9184L119.516 27.9234L122.472 17.3928L125.997 17.5252L121.013 32.6214L117.868 32.5032L115.365 22.4168L115.246 22.4123L111.943 32.2807L108.799 32.1625Z" fill="white"/>
<path d="M150.711 32.3022C150.11 33.8553 149.301 35.0698 148.285 35.9456C147.274 36.8232 146.147 37.366 144.904 37.5742C143.668 37.7793 142.416 37.654 141.148 37.1981C139.871 36.7388 138.836 36.0392 138.044 35.0992C137.251 34.1593 136.771 33.0385 136.603 31.7371C136.436 30.4356 136.652 29.0106 137.251 27.4621C137.853 25.909 138.659 24.6937 139.67 23.8161C140.682 22.9386 141.805 22.3972 143.041 22.192C144.279 21.9822 145.537 22.107 146.814 22.5662C148.082 23.0221 149.112 23.7201 149.904 24.66C150.704 25.597 151.187 26.7163 151.354 28.0178C151.527 29.3209 151.312 30.7491 150.711 32.3022ZM147.63 31.1944C148.02 30.1883 148.196 29.2852 148.16 28.4851C148.128 27.6866 147.907 27.0105 147.498 26.4566C147.089 25.9028 146.517 25.4939 145.783 25.2297C145.048 24.9656 144.338 24.9136 143.652 25.0738C142.967 25.2339 142.338 25.6047 141.767 26.1862C141.2 26.7693 140.722 27.5639 140.332 28.5699C139.943 29.576 139.764 30.4782 139.796 31.2767C139.832 32.0768 140.055 32.7538 140.464 33.3076C140.873 33.8615 141.445 34.2704 142.18 34.5346C142.914 34.7987 143.624 34.8507 144.31 34.6905C144.995 34.5304 145.622 34.1587 146.189 33.5756C146.76 32.9942 147.241 32.2004 147.63 31.1944Z" fill="white"/>
<path d="M167.583 39.1967L166.535 40.6202L159.696 38.257L160.735 36.8455L167.583 39.1967ZM157.407 44.1848L166.459 31.8839L169.125 33.706L161.65 43.8626L167.05 47.553L165.472 49.6972L157.407 44.1848Z" fill="white"/>
<path d="M187.775 61.1128C186.476 62.1549 185.165 62.8026 183.841 63.0558C182.52 63.3128 181.265 63.224 180.075 62.7896C178.893 62.3557 177.862 61.629 176.981 60.6094C176.094 59.5822 175.538 58.4676 175.314 57.2654C175.09 56.0632 175.228 54.8595 175.73 53.6544C176.232 52.4493 177.131 51.3272 178.426 50.2882C179.725 49.246 181.035 48.5965 182.356 48.3395C183.677 48.0825 184.928 48.1709 186.11 48.6047C187.296 49.0354 188.333 49.7644 189.22 50.7915C190.101 51.8112 190.653 52.9221 190.878 54.1243C191.109 55.3271 190.974 56.5311 190.472 57.7362C189.973 58.9451 189.074 60.0706 187.775 61.1128ZM185.635 58.6352C186.477 57.9601 187.081 57.2686 187.448 56.5605C187.817 55.8562 187.962 55.1641 187.88 54.4844C187.798 53.8046 187.502 53.1694 186.992 52.5787C186.482 51.988 185.888 51.5923 185.209 51.3916C184.53 51.191 183.796 51.2001 183.007 51.4191C182.221 51.6418 181.407 52.0907 180.566 52.7657C179.724 53.4408 179.119 54.1305 178.749 54.8348C178.382 55.5429 178.24 56.2368 178.321 56.9165C178.403 57.5963 178.699 58.2315 179.209 58.8222C179.719 59.4129 180.314 59.8086 180.993 60.0093C181.671 60.2099 182.404 60.1989 183.189 59.9762C183.979 59.7572 184.794 59.3102 185.635 58.6352Z" fill="white"/>
<path d="M188.954 76.8196L201.572 67.345L202.909 70.6091L193.949 76.7219L193.997 76.8392L204.972 75.6467L206.117 78.4416L197.232 84.7969L197.283 84.9211L208.181 83.4792L209.518 86.7433L193.587 88.1301L192.394 85.218L200.624 78.976L200.579 78.8656L190.147 79.7318L188.954 76.8196Z" fill="white"/>
<path d="M212.244 102.191L197.09 104.089L196.658 100.889L211.813 98.9914L212.244 102.191Z" fill="white"/>
<path d="M212.138 126.366L196.909 125.211L197.136 122.431L207.262 116.536L207.271 116.424L197.686 115.697L197.949 112.479L213.178 113.634L212.948 116.458L202.833 122.302L202.822 122.436L212.4 123.163L212.138 126.366Z" fill="white"/>
<path d="M209.673 138.792L208.387 142.173L200.947 143.237L200.894 143.377L205.858 148.822L204.573 152.203L197.243 143.708L192.152 141.91L193.292 138.913L198.383 140.711L209.673 138.792Z" fill="white"/>
</svg>
