<svg xmlns="http://www.w3.org/2000/svg" viewBox="0 0 226.77 226.77"><defs><style>.cls-1{fill:#001c72;}.cls-2{fill:#fcf1e0;}</style></defs><g id="Layer_2" data-name="Layer 2"><g id="Graphic"><circle class="cls-1" cx="113.39" cy="113.39" r="113.39"/><path class="cls-2" d="M61.15,49.34l-3.21,2.57L45.45,36.27l5-4c3.71-3,7.23-2.82,9.78.36s2.08,7-1.36,9.73l-2,1.6Zm-5-9.12c1.85-1.48,2.22-3.23,1-4.8s-3.1-1.63-4.86-.22l-1.45,1.16,4,5Z"/><path class="cls-2" d="M71,32.63c.81,1.67,1.47,2.48,2.41,2.9a3.78,3.78,0,0,0,5.06-2.63c.19-1,0-1.85-.84-3.53L72.53,18.85,76.26,17l5.06,10.42c1.28,2.64,1.61,4.75,1.05,6.69a7.69,7.69,0,0,1-4.19,4.64,8.06,8.06,0,0,1-6.54.41c-1.79-.74-3-2.13-4.39-4.91l-5-10.42,3.69-1.8Z"/><path class="cls-2" d="M92.38,32.82l-4,.73L84.76,13.87,89.33,13l8,10.89,3.73-13,4.57-.83,3.58,19.69-4.05.73L103,18.21l-4.09,14L90.15,20.54Z"/><path class="cls-2" d="M117.5,30.43l-4.1-.31,1.5-20,6.37.48c4.73.35,7.22,2.86,6.91,6.93s-3.22,6.52-7.62,6.19L118,23.57ZM120,20.32c2.37.18,3.83-.85,4-2.86s-1.17-3.3-3.41-3.47l-1.86-.14-.47,6.34Z"/><path class="cls-2" d="M134.11,33l-4-1.15,5.63-19.21,4,1.16-2.45,8.35,7.89-6.76,4.58,1.34-8.93,7.42,3.3,11.79-4.64-1.36-2.87-10.13Z"/><path class="cls-2" d="M150.49,39.27l-3.7-1.79,8.69-18,3.7,1.78Z"/><path class="cls-2" d="M158.15,43.67l-3.31-2.44,11.87-16.11,3.26,2.4-.66,15,7.4-10.05L180,34.92,168.15,51l-3.23-2.38.74-15.18Z"/><path class="cls-2" d="M127.93,84a31.73,31.73,0,0,1,7.2-3.82A35.44,35.44,0,0,0,127.37,75,48.13,48.13,0,0,1,127.93,84Z"/><path class="cls-2" d="M99.28,84.23A15.73,15.73,0,0,0,98.1,75.7a35.25,35.25,0,0,0-6.46,4.43,31.6,31.6,0,0,1,7.64,4.12Z"/><path class="cls-2" d="M145.1,86.43a21.14,21.14,0,0,0-12.3,4.17c10.27,8.65,17,24,17,42,0,14-4.1,26.49-10.79,35.4a19.86,19.86,0,0,0,6.09,1c15.61,0,28.27-18.48,28.27-41.27S160.71,86.43,145.1,86.43Z"/><path class="cls-2" d="M94,90.6a21.2,21.2,0,0,0-12.31-4.17c-15.61,0-28.27,18.48-28.27,41.28S66.06,169,81.67,169a19.86,19.86,0,0,0,6.09-1C81.07,159.08,77,146.61,77,132.59,77,114.63,83.7,99.24,94,90.6Z"/><path class="cls-2" d="M107.51,83.83a28.56,28.56,0,0,1,5.88-.67,27.74,27.74,0,0,1,6.39.78c.46-9.57-2.75-24.78-18.12-31h0L97.05,64.24C107.45,68.48,107.78,79.63,107.51,83.83Z"/><path class="cls-2" d="M113.39,91.31c-15.61,0-28.26,18.48-28.26,41.28s12.65,41.27,28.26,41.27,28.26-18.48,28.26-41.27S129,91.31,113.39,91.31Z"/></g></g></svg>