
<svg xmlns="http://www.w3.org/2000/svg" xmlns:xlink="http://www.w3.org/1999/xlink" width="52.39" height="66.367" viewBox="0 0 52.39 66.367"><defs><style>.a,.b{fill:#bc2e3e;}.a,.c,.d{stroke:#fff;}.b{stroke-miterlimit:10;}.c{fill:#d49ca1;}.d{fill:#fff;}.e,.f{stroke:none;}.f{fill:#fff;}.g{filter:url(#c);}.h{filter:url(#a);}</style><filter id="a" x="16.698" y="27.863" width="35.692" height="38.504" filterUnits="userSpaceOnUse"><feOffset dy="3" input="SourceAlpha"/><feGaussianBlur stdDeviation="3" result="b"/><feFlood flood-opacity="0.161"/><feComposite operator="in" in2="b"/><feComposite in="SourceGraphic"/></filter><filter id="c" x="0" y="27.85" width="35.731" height="38.517" filterUnits="userSpaceOnUse"><feOffset dy="3" input="SourceAlpha"/><feGaussianBlur stdDeviation="3" result="d"/><feFlood flood-opacity="0.161"/><feComposite operator="in" in2="d"/><feComposite in="SourceGraphic"/></filter></defs><g transform="translate(7.518 2)"><g class="h" transform="matrix(1, 0, 0, 1, -7.52, -2)"><path class="a" d="M16.485,16.2,9.66,14.487,4.637,19.418,0,2.325V2.312c1.332,0,2.913,2.43,4.161,2.149C5.441,4.167,5.813,1.287,6.976.725s3.664.934,4.67.124A1.375,1.375,0,0,0,12.09,0Z" transform="translate(26.2 33.99)"/></g><g class="g" transform="matrix(1, 0, 0, 1, -7.52, -2)"><path class="a" d="M16.492,2.338,11.848,19.431,6.825,14.5,0,16.218,4.4,0a1.36,1.36,0,0,0,.444.862C5.859,1.672,8.341.17,9.523.738c1.156.562,1.528,3.442,2.815,3.736,1.241.281,2.822-2.142,4.147-2.149Z" transform="translate(9.71 33.98)"/></g><g class="b" transform="translate(0 0)"><path class="e" d="M 14.73297595977783 37.47772216796875 C 14.58797550201416 37.47772979736328 14.44405555725098 37.46181106567383 14.30522632598877 37.43038940429688 C 13.1482458114624 37.16612243652344 12.58674621582031 35.99444961547852 12.09133625030518 34.96070098876953 C 11.88502597808838 34.53020095825195 11.50100612640381 33.7288818359375 11.27387619018555 33.6185188293457 C 11.26617622375488 33.61483001708984 11.19983577728271 33.58720016479492 11.02463626861572 33.58720016479492 C 10.66622638702393 33.58720016479492 10.16340637207031 33.70220184326172 9.677145957946777 33.81340026855469 C 9.085556030273438 33.94869995117188 8.47381591796875 34.08860015869141 7.894515991210938 34.08866119384766 C 7.296463012695312 34.08872222900391 6.798046588897705 33.93330001831055 6.413059234619141 33.62673187255859 C 5.994745254516602 33.29692840576172 5.723882675170898 32.80617904663086 5.607812404632568 32.16788101196289 C 5.500857830047607 31.63089942932129 5.500231742858887 31.04322242736816 5.499636173248291 30.47476005554199 C 5.499085903167725 29.9569206237793 5.498166084289551 29.0902099609375 5.331935882568359 28.88199043273926 C 5.171296119689941 28.6795597076416 4.299856185913086 28.48239135742188 3.831686019897461 28.3764705657959 C 2.718806028366089 28.12467002868652 1.457435965538025 27.83929061889648 0.947115957736969 26.77758026123047 C 0.4422759711742401 25.73857116699219 0.9984059929847717 24.58665084838867 1.489076018333435 23.5703296661377 C 1.716665983200073 23.09891128540039 2.097595930099487 22.30990028381348 2.036115884780884 22.0407600402832 C 1.981685996055603 21.79903984069824 1.290956020355225 21.2506103515625 0.9198659658432007 20.95597076416016 C 0.01996597275137901 20.24147033691406 -1.000004053115845 19.431640625 -1.000004053115845 18.23883056640625 C -1.000004053115845 17.05072975158691 0.018335971981287 16.24090003967285 0.9168059825897217 15.52640056610107 C 1.288875937461853 15.23051071166992 1.981436014175415 14.67976093292236 2.035425901412964 14.43995094299316 C 2.097235918045044 14.17069053649902 1.717115998268127 13.38266086578369 1.490005970001221 12.91182041168213 C 0.9988259673118591 11.89355087280273 0.4421159625053406 10.73942089080811 0.9489559531211853 9.696270942687988 C 1.457605957984924 8.63800048828125 2.720115900039673 8.35265064239502 3.834006071090698 8.100890159606934 C 4.336366176605225 7.987350463867188 5.177165985107422 7.797310352325439 5.33910608291626 7.5948805809021 C 5.501215934753418 7.392250537872314 5.499755859375 6.493300437927246 5.49897575378418 6.010350704193115 C 5.49712610244751 4.871480464935303 5.495026111602783 3.580650568008423 6.412126064300537 2.851670503616333 C 6.795055866241455 2.545320510864258 7.294596195220947 2.389000654220581 7.894405841827393 2.389000654220581 C 8.473786354064941 2.389000654220581 9.085565567016602 2.5289306640625 9.677206039428711 2.664250612258911 C 10.16341590881348 2.775460481643677 10.66618633270264 2.89046049118042 11.02462577819824 2.89046049118042 C 11.19982624053955 2.89046049118042 11.2661657333374 2.86284065246582 11.27768611907959 2.857300519943237 C 11.50100612640381 2.748780488967896 11.88503551483154 1.947460532188416 12.09134578704834 1.516960620880127 C 12.58674621582031 0.4832205772399902 13.1482458114624 -0.6884494423866272 14.30327606201172 -0.9522894620895386 C 14.44380569458008 -0.9840994477272034 14.58752632141113 -0.9999994039535522 14.73237609863281 -0.9999994039535522 C 15.68082618713379 -0.9999994039535522 16.50091552734375 -0.3445794284343719 17.29400634765625 0.2892505526542664 C 17.70686531066895 0.6192105412483215 18.39785575866699 1.171450614929199 18.67996597290039 1.171450614929199 C 18.96529579162598 1.171450614929199 19.65658569335938 0.6189905405044556 20.06962585449219 0.2889005541801453 C 20.86252593994141 -0.3447594344615936 21.68241691589355 -0.9999994039535522 22.63313674926758 -0.9999994039535522 C 22.77789688110352 -0.9999994039535522 22.92156600952148 -0.9841794371604919 23.06013679504395 -0.9529794454574585 C 24.21284675598145 -0.6883394122123718 24.77251625061035 0.4789005517959595 25.26629638671875 1.508740544319153 C 25.47374534606934 1.941380620002747 25.85988616943359 2.746710538864136 26.09059524536133 2.858170509338379 C 26.09755516052246 2.861540555953979 26.16250610351562 2.89046049118042 26.33957672119141 2.89046049118042 C 26.69686508178711 2.89046049118042 27.19946670532227 2.775600671768188 27.68550682067871 2.664510488510132 C 28.27817535400391 2.52906060218811 28.89102554321289 2.389000654220581 29.47130584716797 2.389000654220581 C 30.07162666320801 2.389000654220581 30.5714054107666 2.545320510864258 30.95678520202637 2.853620529174805 C 31.86607551574707 3.581060647964478 31.8642463684082 4.866320610046387 31.86262512207031 6.000290393829346 C 31.86188507080078 6.519370555877686 31.86064529418945 7.388150691986084 32.02490615844727 7.591830730438232 L 32.02736663818359 7.594890594482422 L 32.02981567382812 7.597970485687256 C 32.18862533569336 7.798100471496582 33.06006622314453 7.995270729064941 33.52823638916016 8.101190567016602 C 34.6411247253418 8.352980613708496 35.90249633789062 8.638370513916016 36.41281509399414 9.700080871582031 C 36.91781616210938 10.73941040039062 36.36110687255859 11.89355087280273 35.86993408203125 12.91182041168213 C 35.64282608032227 13.38265037536621 35.2627067565918 14.17069053649902 35.32357406616211 14.43582057952881 C 35.37850570678711 14.67976093292236 36.07106781005859 15.23052024841309 36.44313430786133 15.52640056610107 C 37.34159469604492 16.24090003967285 38.35993576049805 17.05074119567871 38.35993576049805 18.23883056640625 C 38.35993576049805 19.431640625 37.3399658203125 20.24147033691406 36.44006729125977 20.95597076416016 C 36.06898498535156 21.25060081481934 35.37824630737305 21.79903030395508 35.32451629638672 22.03770065307617 C 35.26234436035156 22.30990982055664 35.64326477050781 23.09892082214355 35.87086486816406 23.57034111022949 C 36.36152648925781 24.58666038513184 36.91765594482422 25.73858070373535 36.41097640991211 26.78139114379883 C 35.90249633789062 27.83929061889648 34.6411247253418 28.12467002868652 33.52824783325195 28.3764705657959 C 33.06007766723633 28.48239135742188 32.18863677978516 28.6795597076416 32.02981567382812 28.87969970703125 L 32.02731704711914 28.88284111022949 L 32.02479553222656 28.88597106933594 C 31.86018562316895 29.09003067016602 31.86094665527344 29.95370101928711 31.86139678955078 30.4697208404541 C 31.86190414428711 31.04875564575195 31.86244010925293 31.64740371704102 31.74970817565918 32.19304656982422 C 31.6213264465332 32.83243179321289 31.35908889770508 33.30117416381836 30.9482421875 33.62565231323242 C 30.5643196105957 33.93290328979492 30.06643676757812 34.08866119384766 29.46822547912598 34.08866119384766 C 28.88940620422363 34.08866119384766 28.27748680114746 33.94869995117188 27.68571662902832 33.81335067749023 C 27.19961547851562 33.70217132568359 26.69697570800781 33.58720016479492 26.33953666687012 33.58720016479492 C 26.16249656677246 33.58720016479492 26.09755516052246 33.61611938476562 26.09073638916016 33.61941909790039 C 25.85988616943359 33.73094940185547 25.47374534606934 34.53628158569336 25.26629638671875 34.96892929077148 C 24.77251625061035 35.99876022338867 24.21284675598145 37.16600036621094 23.06427574157715 37.4296989440918 C 22.92159652709961 37.46183013916016 22.77794647216797 37.4776496887207 22.63317680358887 37.4776611328125 C 21.68239593505859 37.47769927978516 20.86249542236328 36.82244110107422 20.06960678100586 36.18875885009766 C 19.65658569335938 35.85866928100586 18.96531677246094 35.30620956420898 18.67996597290039 35.30620956420898 L 18.67343521118164 35.30620956420898 C 18.39473533630371 35.30760192871094 17.70569610595703 35.85879135131836 17.29400634765625 36.1881217956543 C 16.50152587890625 36.82205963134766 15.68206596374512 37.47759246826172 14.73297595977783 37.47772216796875 Z"/><path class="f" d="M 14.73284530639648 36.47771453857422 C 15.93930149078369 36.47755432128906 17.42021751403809 34.31239318847656 18.67343521118164 34.30620956420898 L 18.67996597290039 34.30620956420898 C 20.01238441467285 34.30620956420898 21.59300231933594 36.73588943481445 22.84050559997559 36.45505905151367 C 24.12066650390625 36.16115188598633 24.49296569824219 33.28078079223633 25.65556526184082 32.71907043457031 C 26.57054138183594 32.27684783935547 28.28066825866699 33.08866119384766 29.46822547912598 33.08866119384766 C 29.80658340454102 33.08866119384766 30.10251998901367 33.02275848388672 30.3255558013916 32.84317016601562 C 30.56721687316895 32.65375900268555 30.69784545898438 32.35330963134766 30.76969528198242 31.99408149719238 C 31.01135635375977 30.83148002624512 30.61947631835938 29.03532981872559 31.24648666381836 28.25809097290039 C 32.04985427856445 27.2457103729248 34.94329452514648 27.52655982971191 35.51152420043945 26.34436988830566 C 36.07323455810547 25.18830108642578 34.05501556396484 23.10477066040039 34.34893417358398 21.81807136535645 C 34.62978744506836 20.57056045532227 37.35993576049805 19.57125091552734 37.35993576049805 18.23883056640625 C 37.35993576049805 16.91294097900391 34.62978744506836 15.90710067749023 34.34893417358398 14.65959072113037 C 34.05501556396484 13.37943077087402 36.07323455810547 11.28936100006104 35.51152420043945 10.13329029083252 C 34.94329452514648 8.95110034942627 32.04985427856445 9.231950759887695 31.24648666381836 8.21958065032959 C 30.43005561828613 7.207200527191162 31.3444652557373 4.444390773773193 30.33208656311035 3.634490489959717 C 29.48834419250488 2.959492683410645 27.61942291259766 3.890460729598999 26.33957672119141 3.89046049118042 C 26.08379554748535 3.89046049118042 25.85138893127441 3.8532395362854 25.65556526184082 3.758590459823608 C 24.49296569824219 3.196890592575073 24.12066650390625 0.3165205717086792 22.84050559997559 0.0226005669683218 C 21.59304809570312 -0.2582448422908783 20.01238822937012 2.171450614929199 18.67996597290039 2.171450614929199 C 17.35408592224121 2.171450853347778 15.76695442199707 -0.2582507133483887 14.52596569061279 0.0226005669683218 C 13.23925590515137 0.3165205717086792 12.86696624755859 3.196890592575073 11.71090602874756 3.758590459823608 C 10.79078006744385 4.200862884521484 9.083556175231934 3.389001131057739 7.894407749176025 3.38900089263916 C 7.555717468261719 3.38900089263916 7.258800029754639 3.454952239990234 7.03437614440918 3.634490489959717 C 6.015475749969482 4.444390773773193 6.92987585067749 7.207200527191162 6.119976043701172 8.21958065032959 C 5.310075759887695 9.231950759887695 2.416635990142822 8.95110034942627 1.848405957221985 10.13329029083252 C 1.286695957183838 11.28936100006104 3.304915904998779 13.37943077087402 3.011005878448486 14.65959072113037 C 2.730145931243896 15.90710067749023 -4.027099748782348e-06 16.91294097900391 -4.027099748782348e-06 18.23883056640625 C -4.027099748782348e-06 19.57125091552734 2.730145931243896 20.57056045532227 3.011005878448486 21.81807136535645 C 3.304915904998779 23.10477066040039 1.286695957183838 25.18830108642578 1.848405957221985 26.34436988830566 C 2.416635990142822 27.52655982971191 5.310075759887695 27.2457103729248 6.11344575881958 28.25809097290039 C 6.733935832977295 29.03532981872559 6.355105876922607 30.81842041015625 6.590246200561523 31.98101997375488 C 6.655556201934814 32.34677886962891 6.792716026306152 32.65375900268555 7.03437614440918 32.84317016601562 C 7.878129005432129 33.51816940307617 9.742514610290527 32.58720397949219 11.02463245391846 32.58720397949219 C 11.28086853027344 32.58720397949219 11.51399326324463 32.62442398071289 11.71090602874756 32.71907043457031 C 12.86696624755859 33.28078079223633 13.23925590515137 36.16115188598633 14.52596569061279 36.45505905151367 C 14.5939826965332 36.47045516967773 14.66288566589355 36.47772598266602 14.73284530639648 36.47771453857422 M 14.73312568664551 38.47772216796875 L 14.7328462600708 38.47772216796875 C 14.51376628875732 38.47772216796875 14.2956657409668 38.45351028442383 14.0846061706543 38.4057502746582 C 12.45504570007324 38.03353118896484 11.7236156463623 36.50728988647461 11.18954563140869 35.39287185668945 C 11.07505130767822 35.15396118164062 10.91980075836182 34.83000564575195 10.79131412506104 34.60700607299805 C 10.53844165802002 34.64224243164062 10.20427989959717 34.71866226196289 9.900086402893066 34.78823089599609 C 9.284496307373047 34.92901992797852 8.586766242980957 35.08858871459961 7.894626140594482 35.08866119384766 C 7.065847396850586 35.08876037597656 6.358763217926025 34.86083221435547 5.792810916900635 34.41114807128906 C 5.368847370147705 34.07642364501953 4.826888084411621 33.44977951049805 4.625552177429199 32.35556030273438 C 4.500955104827881 31.72446441650391 4.500248908996582 31.0615119934082 4.499636173248291 30.47582054138184 C 4.499345779418945 30.20237159729004 4.498948574066162 29.82992362976074 4.477293491363525 29.56874465942383 C 4.229977607727051 29.49185752868652 3.873310089111328 29.41116142272949 3.611016035079956 29.35181999206543 C 2.411455392837524 29.08041000366211 0.7690239548683167 28.70870208740234 0.04814592376351357 27.21561622619629 C -0.6680033206939697 25.73803520202637 0.05821984261274338 24.2340087890625 0.5885259509086609 23.13556098937988 C 0.7093388438224792 22.88532447814941 0.8740725517272949 22.54410552978516 0.9689466953277588 22.29622650146484 C 0.7820452451705933 22.12341690063477 0.5034542679786682 21.90222358703613 0.2980559766292572 21.7391414642334 C -0.6717740297317505 20.9691104888916 -2.000004053115845 19.91452980041504 -2.000004053115845 18.23883056640625 C -2.000004053115845 16.56832122802734 -0.6738940477371216 15.51374053955078 0.2943859696388245 14.74372100830078 C 0.5008106827735901 14.57955932617188 0.7808824181556702 14.35683441162109 0.9684509038925171 14.18298721313477 C 0.8735866546630859 13.93561744689941 0.7096271514892578 13.59571743011475 0.5893159508705139 13.34628009796143 C 0.05864007025957108 12.24613285064697 -0.6680745482444763 10.73977184295654 0.04814394563436508 9.262049674987793 C 0.7692641019821167 7.7684645652771 2.413016319274902 7.396842002868652 3.613545894622803 7.125490665435791 C 3.875690698623657 7.066245555877686 4.231707572937012 6.985777378082275 4.479934692382812 6.908865451812744 C 4.500005722045898 6.648792266845703 4.499410629272461 6.281973361968994 4.49897575378418 6.011970520019531 C 4.496978282928467 4.784021377563477 4.494247913360596 3.102835416793823 5.785142421722412 2.072629690170288 C 6.352237701416016 1.619019746780396 7.061917781829834 1.389000535011292 7.894405841827393 1.389000535011292 C 8.586695671081543 1.389000535011292 9.284505844116211 1.54861056804657 9.900165557861328 1.689430594444275 C 10.20432281494141 1.75899875164032 10.53845596313477 1.835421204566956 10.79131698608398 1.870656967163086 C 10.91980457305908 1.64765739440918 11.07505130767822 1.32370126247406 11.18954563140869 1.084790587425232 C 11.7236156463623 -0.02961943298578262 12.45503616333008 -1.555859446525574 14.08058643341064 -1.927179455757141 C 14.29544639587402 -1.975799441337585 14.51340579986572 -1.999999403953552 14.73237609863281 -1.999999403953552 C 16.03132629394531 -1.999999403953552 17.03382682800293 -1.19879949092865 17.91831588745117 -0.4919194281101227 C 18.1319580078125 -0.3211802542209625 18.45159149169922 -0.06573212146759033 18.68142127990723 0.08543609827756882 C 18.91136932373047 -0.06556428968906403 19.23145294189453 -0.3213624656200409 19.44532585144043 -0.492279440164566 C 20.32962608337402 -1.198999404907227 21.3319263458252 -1.999999403953552 22.63313674926758 -1.999999403953552 C 22.85168647766113 -1.999999403953552 23.06926536560059 -1.975959420204163 23.27981567382812 -1.928559422492981 L 23.28805541992188 -1.926679491996765 C 24.90622520446777 -1.555159449577332 25.63550567626953 -0.0341794341802597 26.16800689697266 1.076380610466003 C 26.283935546875 1.318172693252563 26.44143486022949 1.646647453308105 26.5712890625 1.87080717086792 C 26.82378578186035 1.835667014122009 27.15826797485352 1.759223818778992 27.46270561218262 1.689650535583496 C 28.07932662963867 1.548730611801147 28.77820587158203 1.389000535011292 29.47130584716797 1.389000535011292 C 30.30439567565918 1.389000535011292 31.01437568664551 1.619050621986389 31.58150672912598 2.072770595550537 C 32.86676406860352 3.100980520248413 32.86437606811523 4.77755069732666 32.86262512207031 6.001720428466797 C 32.86223602294922 6.275150775909424 32.8617057800293 6.647511959075928 32.88259124755859 6.908905506134033 C 33.12990951538086 6.98579216003418 33.48661041259766 7.066500186920166 33.74890518188477 7.125840663909912 C 34.94855117797852 7.397268772125244 36.59098815917969 7.768746376037598 37.31179809570312 9.26207160949707 C 38.02800750732422 10.73979473114014 37.30129241943359 12.24613285064697 36.77062606811523 13.34628009796143 C 36.65030670166016 13.59571075439453 36.48634719848633 13.93561935424805 36.39148330688477 14.18298816680908 C 36.57905197143555 14.35683441162109 36.859130859375 14.57956600189209 37.06555557250977 14.74372100830078 C 38.03383636474609 15.51374053955078 39.35993576049805 16.56832122802734 39.35993576049805 18.23883056640625 C 39.35993576049805 19.91452980041504 38.03171539306641 20.9691104888916 37.06188583374023 21.7391300201416 C 36.85648727416992 21.90221214294434 36.57788848876953 22.1234188079834 36.39098739624023 22.29622840881348 C 36.48585891723633 22.54411315917969 36.65058135986328 22.88531303405762 36.77140426635742 23.13557052612305 C 37.30172348022461 24.2340087890625 38.02793502807617 25.73803520202637 37.31178665161133 27.21561622619629 C 36.59090805053711 28.70870208740234 34.9484748840332 29.08041000366211 33.74891662597656 29.35181999206543 C 33.48628234863281 29.4112377166748 33.1290168762207 29.4920711517334 32.88166427612305 29.56904792785645 C 32.86083221435547 29.82840347290039 32.86115646362305 30.19765281677246 32.86139678955078 30.46883964538574 C 32.86192321777344 31.06869888305664 32.86251068115234 31.74834823608398 32.7292594909668 32.39426422119141 C 32.55427932739258 33.26133728027344 32.16399002075195 33.9393310546875 31.56903839111328 34.40963363647461 C 31.00408363342285 34.8602294921875 30.29737854003906 35.08866119384766 29.46822547912598 35.08866119384766 C 28.7765064239502 35.08866119384766 28.07854652404785 34.92901992797852 27.46275520324707 34.78818130493164 C 27.15830230712891 34.71854019165039 26.82380867004395 34.64203643798828 26.57128524780273 34.60686874389648 C 26.44142913818359 34.83103179931641 26.2839412689209 35.15948867797852 26.16800689697266 35.40127944946289 C 25.63550567626953 36.5118522644043 24.90622520446777 38.03282928466797 23.28803634643555 38.40435028076172 L 23.27969551086426 38.40624237060547 C 23.06916618347168 38.45363235473633 22.85162544250488 38.4776611328125 22.63312530517578 38.4776611328125 C 21.33190536499023 38.47772216796875 20.32960510253906 37.67668151855469 19.44528579711914 36.96992874145508 C 19.23125076293945 36.79887390136719 18.91083908081055 36.54280090332031 18.68086433410645 36.39185333251953 C 18.45139312744141 36.54286956787109 18.13206481933594 36.79831314086914 17.91867637634277 36.96900939941406 C 17.03475570678711 37.67610168457031 16.03289604187012 38.4775390625 14.73312568664551 38.47772216796875 Z"/></g><circle class="c" cx="13.974" cy="13.974" r="13.974" transform="translate(4.707 4.266)"/><path class="d" d="M10.278,16.867,5.7,20.04l-.371-5.554L0,12.888,4.111,9.135,2.036,3.969l5.5.874L10.278,0l2.744,4.843,5.5-.874L16.444,9.135l4.111,3.753-5.332,1.6-.371,5.554Z" transform="translate(8.403 8.22)"/></g></svg>