<svg width="60" height="61" viewBox="0 0 60 61" fill="none" xmlns="http://www.w3.org/2000/svg">
<path d="M59.835 27.4402C59.19 20.9452 56.445 15.0652 52.305 10.4752C52.23 10.3702 52.14 10.2652 52.035 10.1752C49.86 7.82024 47.325 5.81024 44.49 4.25024C44.43 4.20524 44.355 4.16024 44.295 4.13024C43.695 3.80024 43.065 3.51524 42.435 3.23024C42.18 3.11024 41.925 2.97524 41.67 2.85524C41.16 2.64524 40.62 2.48024 40.095 2.28524C39.705 2.15024 39.315 1.98524 38.91 1.85024C38.415 1.70024 37.89 1.59524 37.38 1.46024C36.93 1.34024 36.495 1.20524 36.045 1.11524C35.52 1.01024 34.98 0.950244 34.455 0.875244C33.99 0.800244 33.54 0.710244 33.06 0.665244C32.055 0.560244 31.035 0.500244 30 0.500244C13.425 0.500244 0 13.9402 0 30.5002C0 31.5352 0.045 32.5702 0.15 33.5752C0.195 34.0402 0.285 34.5052 0.36 34.9702C0.435 35.4952 0.495 36.0352 0.6 36.5452C0.69 37.0102 0.84 37.4452 0.945 37.8952C1.08 38.4052 1.185 38.9302 1.335 39.4252C1.47 39.8302 1.635 40.2202 1.77 40.6102C1.965 41.1352 2.13 41.6752 2.355 42.1852C2.445 42.4252 2.58 42.6352 2.685 42.8752C4.185 46.1752 6.27 49.1602 8.805 51.6952C8.94 51.8602 9.105 52.0252 9.285 52.1752C13.965 56.6752 20.1 59.6602 26.925 60.3502C27.93 60.4552 28.965 60.5002 30 60.5002C38.055 60.5002 45.36 57.3352 50.73 52.1752C50.76 52.1602 50.79 52.1302 50.805 52.1002C56.475 46.6552 60 38.9902 60 30.5002C60 29.4652 59.94 28.4452 59.835 27.4402ZM21.93 9.80024L22.62 7.67024C22.62 7.67024 22.77 7.61024 22.845 7.59524L23.58 9.80024H26.22L24.075 11.3602L24.9 13.8802L22.755 12.3202L20.61 13.8802L21.42 11.3602L19.29 9.80024H21.93ZM21.93 18.4852L22.755 15.9652L23.58 18.4852H26.22L24.075 20.0452L24.9 22.5652L22.755 21.0052L20.61 22.5652L21.42 20.0452L19.29 18.4852H21.93ZM9.255 18.4852H11.685L12.495 15.9652L13.32 18.4852H15.96L13.83 20.0452L14.64 22.5652L12.495 21.0052L10.35 22.5652L11.175 20.0452L9.18 18.6052C9.18 18.6052 9.225 18.5302 9.255 18.4852ZM48.15 46.1752C45.99 48.6802 43.32 50.7352 40.29 52.1752C37.17 53.6752 33.675 54.5002 30 54.5002C26.325 54.5002 22.83 53.6752 19.71 52.1752C16.68 50.7352 13.995 48.6802 11.85 46.1752C10.29 44.3902 9 42.3652 8.04 40.1752C7.2 38.3002 6.6 36.2752 6.27 34.1752C6.09 32.9752 6 31.7452 6 30.5002C6 29.6152 6.045 28.7452 6.15 27.8752H30V6.50024C34.68 6.50024 39.06 7.85024 42.75 10.1752C45.27 11.7652 47.475 13.8052 49.245 16.1752C50.55 17.9152 51.615 19.8202 52.395 21.8752C53.13 23.7652 53.625 25.7752 53.865 27.8752C53.955 28.7302 54 29.6152 54 30.5002C54 31.7452 53.91 32.9752 53.73 34.1752C53.4 36.2752 52.8 38.3002 51.96 40.1752C51 42.3652 49.71 44.3902 48.15 46.1752Z" fill="#001C72"/>
<path d="M49.245 16.1752H30V10.1752H42.75C45.27 11.7652 47.475 13.8052 49.245 16.1752Z" fill="#BC2E3E"/>
<path d="M53.865 27.8752H30V21.8752H52.395C53.13 23.7652 53.625 25.7752 53.865 27.8752Z" fill="#BC2E3E"/>
<path d="M48.15 46.1752C45.99 48.6802 43.32 50.7352 40.29 52.1752H19.71C16.68 50.7352 13.995 48.6802 11.85 46.1752H48.15Z" fill="#BC2E3E"/>
<path d="M53.73 34.1752C53.4 36.2752 52.8 38.3002 51.96 40.1752H8.04C7.2 38.3002 6.6 36.2752 6.27 34.1752H53.73Z" fill="#BC2E3E"/>
</svg>
