<svg width="60" height="61" viewBox="0 0 60 61" fill="none" xmlns="http://www.w3.org/2000/svg">
<path d="M59.835 27.44C59.19 20.945 56.445 15.065 52.305 10.475C52.23 10.37 52.14 10.265 52.035 10.175C49.86 7.82 47.325 5.81 44.49 4.25C44.43 4.205 44.355 4.16 44.295 4.13C43.695 3.8 43.065 3.515 42.435 3.23C42.18 3.11 41.925 2.975 41.67 2.855C41.16 2.645 40.62 2.48 40.095 2.285C39.705 2.15 39.315 1.985 38.91 1.85C38.415 1.7 37.89 1.595 37.38 1.46C36.93 1.34 36.495 1.205 36.045 1.115C35.52 1.01 34.98 0.95 34.455 0.875C33.99 0.8 33.54 0.71 33.06 0.665C32.055 0.56 31.035 0.5 30 0.5C13.425 0.5 0 13.94 0 30.5C0 31.535 0.045 32.57 0.15 33.575C0.195 34.04 0.285 34.505 0.36 34.97C0.435 35.495 0.495 36.035 0.6 36.545C0.69 37.01 0.84 37.445 0.945 37.895C1.08 38.405 1.185 38.93 1.335 39.425C1.47 39.83 1.635 40.22 1.77 40.61C1.965 41.135 2.13 41.675 2.355 42.185C2.445 42.425 2.58 42.635 2.685 42.875C4.185 46.175 6.27 49.16 8.805 51.695C8.94 51.86 9.105 52.025 9.285 52.175C13.965 56.675 20.1 59.66 26.925 60.35C27.93 60.455 28.965 60.5 30 60.5C38.055 60.5 45.36 57.335 50.73 52.175C50.76 52.16 50.79 52.13 50.805 52.1C56.475 46.655 60 38.99 60 30.5C60 29.465 59.94 28.445 59.835 27.44ZM21.93 9.8L22.62 7.67C22.62 7.67 22.77 7.61 22.845 7.595L23.58 9.8H26.22L24.075 11.36L24.9 13.88L22.755 12.32L20.61 13.88L21.42 11.36L19.29 9.8H21.93ZM21.93 18.485L22.755 15.965L23.58 18.485H26.22L24.075 20.045L24.9 22.565L22.755 21.005L20.61 22.565L21.42 20.045L19.29 18.485H21.93ZM9.255 18.485H11.685L12.495 15.965L13.32 18.485H15.96L13.83 20.045L14.64 22.565L12.495 21.005L10.35 22.565L11.175 20.045L9.18 18.605C9.18 18.605 9.225 18.53 9.255 18.485ZM48.15 46.175C45.99 48.68 43.32 50.735 40.29 52.175C37.17 53.675 33.675 54.5 30 54.5C26.325 54.5 22.83 53.675 19.71 52.175C16.68 50.735 13.995 48.68 11.85 46.175C10.29 44.39 9 42.365 8.04 40.175C7.2 38.3 6.6 36.275 6.27 34.175C6.09 32.975 6 31.745 6 30.5C6 29.615 6.045 28.745 6.15 27.875H30V6.5C34.68 6.5 39.06 7.85 42.75 10.175C45.27 11.765 47.475 13.805 49.245 16.175C50.55 17.915 51.615 19.82 52.395 21.875C53.13 23.765 53.625 25.775 53.865 27.875C53.955 28.73 54 29.615 54 30.5C54 31.745 53.91 32.975 53.73 34.175C53.4 36.275 52.8 38.3 51.96 40.175C51 42.365 49.71 44.39 48.15 46.175Z" fill="#001C72"/>
<g clip-path="url(#clip0_447_371)">
<path d="M30 56C43.8071 56 55 44.8071 55 31C55 17.1929 43.8071 6 30 6C16.1929 6 5 17.1929 5 31C5 44.8071 16.1929 56 30 56Z" fill="#1E3796"/>
<path d="M29.9996 16.9506L28.4148 18.0537L28.9738 16.2053L27.4355 15.0396L29.3656 14.9998L29.9996 13.1768L30.6332 14.9998L32.5637 15.0396L31.025 16.2053L31.5848 18.0537L29.9996 16.9506Z" fill="#FFE100"/>
<path d="M37.692 19.0117L36.1072 20.1148L36.6666 18.2672L35.1279 17.1008L37.0584 17.0605L37.692 15.2383L38.3256 17.0605L40.2564 17.1008L38.7174 18.2672L39.2771 20.1148L37.692 19.0117Z" fill="#FFE100"/>
<path d="M43.3238 24.643L41.7391 25.7461L42.2984 23.898L40.7598 22.732L42.6895 22.6922L43.3238 20.8691L43.957 22.6922L45.8879 22.732L44.3492 23.898L44.909 25.7461L43.3238 24.643Z" fill="#FFE100"/>
<path d="M29.9996 47.7203L28.4148 48.823L28.9738 46.975L27.4355 45.8094L29.3656 45.7695L29.9996 43.9453L30.6332 45.7695L32.5637 45.8094L31.025 46.975L31.5848 48.823L29.9996 47.7203Z" fill="#FFE100"/>
<path d="M22.3072 45.659L20.7225 46.7621L21.2814 44.9141L19.7432 43.748L21.6732 43.7082L22.3072 41.8848L22.9408 43.7082L24.8713 43.748L23.333 44.9141L23.8924 46.7621L22.3072 45.659Z" fill="#FFE100"/>
<path d="M16.6762 40.0271L15.0914 41.1311L15.65 39.2822L14.1113 38.1162L16.0418 38.0768L16.6762 36.2529L17.3102 38.0768L19.2395 38.1162L17.7012 39.2822L18.2609 41.1311L16.6762 40.0271Z" fill="#FFE100"/>
<path d="M45.3848 32.3356L43.7996 33.4384L44.3594 31.5899L42.8203 30.4239L44.7512 30.3845L45.3848 28.561L46.0184 30.3845L47.9484 30.4239L46.4102 31.5899L46.9695 33.4384L45.3848 32.3356Z" fill="#FFE100"/>
<path d="M43.3229 40.0287L41.7389 41.1311L42.2982 39.283L40.7588 38.1174L42.6889 38.0771L43.3229 36.2529L43.9568 38.0771L45.8873 38.1174L44.3482 39.283L44.9072 41.1311L43.3229 40.0287Z" fill="#FFE100"/>
<path d="M37.692 45.6598L36.1072 46.7621L36.6666 44.9141L35.1279 43.748L37.0584 43.7082L37.692 41.8848L38.3256 43.7082L40.2564 43.748L38.7174 44.9141L39.2771 46.7621L37.692 45.6598Z" fill="#FFE100"/>
<path d="M14.6148 32.3359L13.0305 33.4387L13.5895 31.5902L12.0508 30.4242L13.9812 30.3848L14.6148 28.5605L15.2488 30.3848L17.1793 30.4242L15.6406 31.5902L16.2004 33.4387L14.6148 32.3359Z" fill="#FFE100"/>
<path d="M16.6762 24.6441L15.0914 25.7469L15.65 23.8984L14.1113 22.7328L16.0418 22.693L16.6762 20.8691L17.3102 22.693L19.2395 22.7328L17.7012 23.8984L18.2609 25.7469L16.6762 24.6441Z" fill="#FFE100"/>
<path d="M22.3072 19.0124L20.7225 20.1151L21.2814 18.2675L19.7432 17.1003L21.6732 17.0608L22.3072 15.2378L22.9408 17.0608L24.8713 17.1003L23.333 18.2675L23.8924 20.1151L22.3072 19.0124Z" fill="#FFE100"/>
</g>
<defs>
<clipPath id="clip0_447_371">
<rect width="50" height="50" fill="white" transform="translate(5 6)"/>
</clipPath>
</defs>
</svg>
