<svg width="225" height="225" viewBox="0 0 225 225" fill="none" xmlns="http://www.w3.org/2000/svg">
<circle cx="112.5" cy="112.5" r="112.5" fill="#001C72"/>
<path d="M120.837 77C105.045 77 92.274 90.1445 92.274 105.936C92.274 106.508 92.274 106.733 92.2963 107.296C97.347 104.938 102.942 103.993 108.487 104.562C114.032 105.132 119.319 107.194 123.785 110.529C126.456 106.48 130.007 103.087 134.173 100.604C138.34 98.1209 143.013 96.6115 147.845 96.1888C145.892 90.5828 142.242 85.7236 137.403 82.2852C132.563 78.8468 126.774 76.9997 120.837 77ZM116.682 93.4606L111.321 98.8221C110.755 99.4219 110.075 99.9022 109.321 100.235C108.567 100.567 107.754 100.744 106.93 100.757C106.106 100.769 105.287 100.616 104.523 100.307C103.76 99.9972 103.066 99.5376 102.482 98.9551C101.899 98.3725 101.439 97.679 101.129 96.9154C100.819 96.1518 100.665 95.3337 100.676 94.5096C100.688 93.6854 100.865 92.872 101.196 92.1175C101.528 91.3629 102.008 90.6826 102.607 90.1167L107.968 84.7552C108.534 84.1554 109.214 83.6751 109.968 83.3428C110.722 83.0105 111.535 82.8328 112.359 82.8205C113.184 82.8081 114.002 82.9611 114.766 83.2706C115.53 83.5801 116.224 84.0397 116.807 84.6223C117.39 85.2048 117.85 85.8984 118.16 86.662C118.47 87.4256 118.624 88.2436 118.613 89.0678C118.601 89.8919 118.424 90.7053 118.093 91.4599C117.761 92.2144 117.281 92.8948 116.682 93.4606Z" fill="white"/>
<path d="M107.634 100.338C107.634 100.338 107.759 96.9439 106.126 95.3221C104.493 93.7003 101.11 93.8146 101.11 93.8146C101.11 93.8146 105.756 91.3484 107.478 89.6346C109.2 87.9208 111.658 83.2672 111.658 83.2672C111.658 83.2672 111.532 86.6613 113.165 88.2831C114.798 89.9049 118.181 89.7907 118.181 89.7907C118.181 89.7907 114.38 91.4125 111.814 93.9706C109.247 96.5287 107.634 100.338 107.634 100.338Z" fill="white"/>
<path d="M106.712 147.875C106.712 147.875 105.876 143.662 103.343 141.134C100.81 138.607 96.6017 137.768 96.6017 137.768C96.6017 137.768 101.693 136.049 103.343 134.399C104.992 132.749 106.712 127.658 106.712 127.658C106.712 127.658 107.548 131.872 110.081 134.399C112.614 136.927 116.821 137.768 116.821 137.768C116.821 137.768 112.538 138.682 110.081 141.137C107.623 143.592 106.712 147.875 106.712 147.875Z" fill="white"/>
<path d="M161.742 147.078C161.742 147.078 161.235 143.202 159.042 141.009C156.849 138.816 152.973 138.309 152.973 138.309C152.973 138.309 157.838 136.358 159.488 134.717C161.137 133.075 163.08 128.202 163.08 128.202C163.08 128.202 163.587 132.078 165.78 134.271C167.973 136.464 171.849 136.971 171.849 136.971C171.849 136.971 167.792 138.105 165.334 140.555C162.876 143.004 161.742 147.078 161.742 147.078Z" fill="white"/>
<path d="M150.236 99.2485C140.121 99.2485 131.627 104.894 126.55 112.819C131.57 117.52 134.879 123.761 135.953 130.554C137.026 137.348 135.803 144.305 132.477 150.325C137.415 154.385 143.345 157.21 150.242 157.21C166.033 157.21 179.223 144.024 179.223 128.229C179.223 112.435 166.028 99.2485 150.236 99.2485ZM134.946 116.991C133.846 115.401 132.52 113.98 131.008 112.775C134.266 108.597 138.774 105.57 143.875 104.138C148.975 102.705 154.4 102.942 159.357 104.813C144.523 102.035 137.278 111.788 134.946 116.991ZM170.021 141.728L166.51 145.239C165.185 146.557 163.393 147.296 161.525 147.296C159.656 147.296 157.864 146.557 156.539 145.239L154.817 143.517C153.5 142.192 152.76 140.4 152.76 138.532C152.76 136.663 153.5 134.871 154.817 133.546L158.328 130.035C159.653 128.718 161.445 127.978 163.314 127.978C165.182 127.978 166.974 128.718 168.299 130.035L170.021 131.757C171.339 133.082 172.078 134.874 172.078 136.743C172.078 138.611 171.339 140.403 170.021 141.728Z" fill="white"/>
<path d="M105.65 107.051C89.5794 107.051 77.7836 119.783 77.7836 134.917C77.7836 150.052 90.2147 162.784 105.349 162.784C120.483 162.784 133.516 151.166 133.516 136.032C133.516 120.898 120.784 107.051 105.65 107.051ZM86.7008 132.688C85.0149 132.688 83.524 133.056 81.5957 133.85C81.8237 130.114 82.9317 126.485 84.8292 123.259C86.7267 120.033 89.36 117.301 92.5143 115.286C95.6686 113.271 99.2545 112.031 102.979 111.665C106.704 111.3 110.463 111.821 113.949 113.184C101.47 112.764 91.3461 117.311 86.7008 132.688ZM115.205 142.748L111.694 146.259C110.369 147.576 108.577 148.316 106.709 148.316C104.841 148.316 103.048 147.576 101.724 146.259L98.2124 142.748C96.8949 141.423 96.1554 139.631 96.1554 137.763C96.1554 135.894 96.8949 134.102 98.2124 132.777L101.724 129.266C103.048 127.949 104.841 127.209 106.709 127.209C108.577 127.209 110.369 127.949 111.694 129.266L115.205 132.777C116.523 134.102 117.262 135.894 117.262 137.763C117.262 139.631 116.523 141.423 115.205 142.748Z" fill="white"/>
<path d="M90.7999 92.9033C83.5547 87.5168 68.309 80.5028 43.0593 88.5562C43.0593 88.5562 45.8069 105.134 59.9463 119.309C62.524 117.916 71.7895 115.757 77.8839 119.886C80.7513 115.035 83.6327 111.507 88.866 107.973C88.7406 106.803 88.7908 101.687 90.7999 92.9033ZM80.0129 109.28C78.7115 101.291 51.0319 92.5606 51.0319 92.5606C81.3142 97.3898 82.2422 108.166 82.2422 108.166L80.0129 109.28Z" fill="white"/>
<path d="M76.3902 123.211C63.6107 113.374 41 133.8 41 133.8C54.8579 148.747 68.7159 146.189 75.8329 143.553C73.719 136.904 73.9154 129.735 76.3902 123.211ZM72.2103 134.915C69.7943 130.177 47.6879 133.8 47.6879 133.8C70.02 126.884 72.2103 132.685 72.2103 132.685V134.915Z" fill="white"/>
<path d="M37.078 59.0612C36.6757 58.6236 36.2192 58.4361 35.7085 58.4987C35.1977 58.5612 34.6761 58.8745 34.1436 59.4383C33.7817 59.8214 33.521 60.2045 33.3614 60.5876C33.1988 60.9668 33.1286 61.3301 33.1507 61.6778C33.1763 62.0218 33.2876 62.325 33.4847 62.5874C33.6421 62.8132 33.8247 62.9624 34.0325 63.0351C34.2436 63.1041 34.4708 63.1169 34.714 63.0735C34.9542 63.0261 35.2079 62.9395 35.475 62.8137C35.7391 62.6839 36.0079 62.5278 36.2814 62.3452L37.4207 61.61C37.9677 61.2449 38.507 60.9593 39.0387 60.7533C39.5703 60.5472 40.0851 60.4411 40.583 60.4349C41.0809 60.4287 41.5545 60.541 42.0037 60.7718C42.4564 60.9991 42.8755 61.3653 43.2612 61.8705C43.8191 62.6214 44.142 63.4428 44.2298 64.3347C44.318 65.219 44.1718 66.1339 43.7911 67.0793C43.4108 68.0172 42.794 68.9379 41.9406 69.8415C41.094 70.7378 40.2432 71.3675 39.3881 71.7305C38.5365 72.0898 37.7124 72.1595 36.9158 71.9395C36.1197 71.7119 35.3832 71.168 34.7062 70.3076L36.8517 68.036C37.1831 68.4201 37.5406 68.6553 37.9242 68.7416C38.3082 68.8203 38.7026 68.7702 39.1075 68.5913C39.5129 68.4047 39.9067 68.1091 40.289 67.7043C40.6645 67.3067 40.9428 66.8979 41.1237 66.478C41.3081 66.0544 41.392 65.648 41.3754 65.2588C41.3588 64.8696 41.24 64.5279 41.019 64.2337C40.813 63.9595 40.5698 63.803 40.2895 63.7644C40.0126 63.7221 39.6917 63.7764 39.3269 63.9271C38.9655 64.0743 38.5534 64.2966 38.0904 64.5941L36.6977 65.4692C35.6254 66.1549 34.6332 66.5025 33.721 66.512C32.8088 66.5216 32.0155 66.0734 31.3411 65.1674C30.7822 64.4317 30.466 63.6069 30.3923 62.693C30.322 61.7754 30.4708 60.8435 30.8387 59.8974C31.2065 58.9512 31.7728 58.0733 32.5375 57.2637C33.3158 56.4396 34.1116 55.8754 34.9248 55.571C35.7415 55.2629 36.5195 55.2135 37.2588 55.4227C37.9982 55.6318 38.6462 56.0947 39.203 56.8112L37.078 59.0612Z" fill="white"/>
<path d="M49.6763 42.2866L52.2307 40.3112L57.0018 49.0066C57.5375 49.9829 57.7959 50.9999 57.7768 52.0576C57.7617 53.1122 57.491 54.1348 56.9647 55.1254C56.4359 56.1117 55.6721 56.991 54.6731 57.7635C53.6703 58.5391 52.682 59.0146 51.7085 59.1902C50.7325 59.3613 49.8352 59.242 49.0165 58.8321C48.1978 58.4223 47.5207 57.7292 46.985 56.7529L42.2138 48.0575L44.7682 46.0822L49.4066 54.5356C49.6864 55.0456 50.0354 55.4213 50.4536 55.6628C50.8757 55.9013 51.3338 55.9909 51.8279 55.9317C52.3219 55.8725 52.8148 55.6528 53.3064 55.2726C53.8019 54.8894 54.1704 54.443 54.4117 53.9336C54.6571 53.421 54.7712 52.8889 54.7541 52.3371C54.741 51.7824 54.5945 51.25 54.3147 50.74L49.6763 42.2866Z" fill="white"/>
<path d="M64.1879 50.4209L58.7296 36.1568L64.033 33.2966C65.0525 32.7467 66.0002 32.4849 66.876 32.5111C67.75 32.5327 68.5146 32.8065 69.1699 33.3325C69.8277 33.8516 70.3379 34.5847 70.7004 35.5319C71.0628 36.4791 71.1901 37.4188 71.0823 38.3508C70.9744 39.2828 70.6323 40.1478 70.0562 40.9459C69.4844 41.7416 68.6821 42.418 67.6494 42.9749L64.2692 44.798L63.3443 42.3811L66.2652 40.8059C66.8121 40.5109 67.2246 40.168 67.5027 39.7772C67.7833 39.3794 67.9427 38.9545 67.9809 38.5026C68.0218 38.0436 67.9524 37.5797 67.773 37.1107C67.5917 36.6371 67.3439 36.2722 67.0295 36.0161C66.7176 35.753 66.345 35.6207 65.9115 35.6192C65.4763 35.613 64.983 35.7586 64.4317 36.056L62.5151 37.0896L67.03 48.8881L64.1879 50.4209Z" fill="white"/>
<path d="M78.5815 42.9814L74.8993 28.1592L84.6123 24.7585L85.2542 27.3422L78.5888 29.6759L79.4662 33.2078L85.6318 31.049L86.2737 33.6328L80.108 35.7915L80.9872 39.3306L87.6808 36.9871L88.3227 39.5708L78.5815 42.9814Z" fill="white"/>
<path d="M92.9248 38.3085L91.0324 23.1535L96.9668 22.1091C98.1028 21.9092 99.0978 21.9433 99.9519 22.2114C100.81 22.4738 101.497 22.9404 102.011 23.6112C102.529 24.2762 102.851 25.1094 102.976 26.1109C103.102 27.1173 102.994 28.021 102.654 28.822C102.313 29.6181 101.758 30.2805 100.988 30.8092C100.223 31.337 99.2631 31.7026 98.1076 31.906L94.1342 32.6053L93.8126 30.0301L97.2719 29.4213C97.8791 29.3144 98.3729 29.1418 98.7535 28.9034C99.134 28.665 99.4013 28.3609 99.5552 27.991C99.7141 27.6202 99.7624 27.1856 99.7002 26.6874C99.6374 26.1842 99.484 25.7776 99.2401 25.4676C99.0012 25.1567 98.6674 24.9482 98.2388 24.8422C97.8145 24.7303 97.2964 24.7282 96.6843 24.8359L94.5397 25.2134L96.105 37.7488L92.9248 38.3085ZM100.187 29.9822L104.786 36.221L101.276 36.8389L96.7568 30.5858L100.187 29.9822Z" fill="white"/>
<path d="M108.526 36.0858L108.429 20.8134L118.541 20.7228L118.558 23.385L111.675 23.4467L111.698 27.0858L117.91 27.0301L117.926 29.6924L111.715 29.748L111.755 36.0569L108.526 36.0858Z" fill="white"/>
<path d="M134.47 22.8565L137.655 23.3878L136.489 33.2374C136.358 34.3433 135.981 35.2672 135.358 36.0091C134.74 36.7518 133.935 37.2771 132.944 37.5849C131.953 37.8878 130.834 37.9353 129.589 37.7275C128.338 37.5189 127.272 37.1069 126.39 36.4914C125.508 35.8711 124.856 35.1028 124.435 34.1867C124.013 33.2705 123.868 32.2595 123.999 31.1535L125.165 21.304L128.35 21.8354L127.216 31.4109C127.148 31.9886 127.212 32.5229 127.409 33.0139C127.611 33.5057 127.927 33.9184 128.357 34.2521C128.788 34.5857 129.31 34.8037 129.923 34.9059C130.541 35.009 131.093 34.9703 131.579 34.7896C132.071 34.6098 132.468 34.3161 132.771 33.9086C133.079 33.5018 133.268 33.0096 133.336 32.432L134.47 22.8565Z" fill="white"/>
<path d="M142.983 27.7322L143.642 25.1527L155.444 29.4002L154.785 31.9797L150.386 30.3964L147.266 42.6148L144.262 41.5339L147.382 29.3156L142.983 27.7322Z" fill="white"/>
<path d="M160.112 34.665L161.105 32.1948L172.018 38.3781L171.025 40.8483L166.957 38.5433L162.253 50.2437L159.476 48.6703L164.18 36.9699L160.112 34.665Z" fill="white"/>
<path d="M170.341 55.9412L177.827 42.6292L185.892 49.0216L184.587 51.3421L179.053 46.9554L177.269 50.1274L182.389 54.1852L181.084 56.5057L175.964 52.4479L174.176 55.6264L179.734 60.0317L178.429 62.3522L170.341 55.9412Z" fill="white"/>
<path d="M182.098 66.3951L191.271 54.1843L195.408 58.5649C196.2 59.4034 196.752 60.284 197.064 61.2067C197.383 62.129 197.463 63.0457 197.306 63.9567C197.155 64.8674 196.776 65.7262 196.17 66.5331C195.561 67.344 194.887 67.8825 194.147 68.1488C193.411 68.4111 192.641 68.3954 191.838 68.1019C191.039 67.8119 190.236 67.2404 189.431 66.3875L186.66 63.4544L188.219 61.3795L190.631 63.9331C191.054 64.3812 191.457 64.6859 191.838 64.8472C192.22 65.0084 192.58 65.0262 192.92 64.9004C193.263 64.7783 193.585 64.5166 193.887 64.1151C194.191 63.7097 194.378 63.2937 194.447 62.8673C194.52 62.4445 194.468 62.0115 194.292 61.5684C194.123 61.125 193.825 60.6774 193.398 60.2256L191.903 58.6425L184.315 68.7427L182.098 66.3951ZM191.936 66.8345L190.367 75.1509L187.92 72.5594L189.544 64.3026L191.936 66.8345Z" fill="white"/>
<path d="M56.8639 170.94L60.2362 173.058L59.2323 184.485L59.3838 184.58L67.5111 177.627L70.8833 179.745L64.088 193.423L61.4357 191.757L65.8586 182.855L65.7512 182.787L58.0146 189.521L56.2085 188.386L57.2678 177.415L57.1605 177.347L52.721 186.283L50.0687 184.617L56.8639 170.94Z" fill="white"/>
<path d="M78.2889 182.754L73.2612 197.175L70.3064 195.873L75.3341 181.452L78.2889 182.754Z" fill="white"/>
<path d="M90.2454 191.434C90.3269 190.831 90.1894 190.303 89.8328 189.849C89.4762 189.395 88.9265 189.057 88.1835 188.834C87.6787 188.683 87.2352 188.628 86.8532 188.669C86.4723 188.705 86.1592 188.821 85.9138 189.017C85.6732 189.214 85.5151 189.472 85.4395 189.792C85.3669 190.055 85.3667 190.304 85.4387 190.538C85.5155 190.773 85.6439 190.995 85.8238 191.205C86.0049 191.409 86.2233 191.607 86.4791 191.797C86.736 191.983 87.0154 192.16 87.3173 192.328L88.5561 193.041C89.1599 193.378 89.6998 193.747 90.1759 194.148C90.652 194.55 91.0435 194.986 91.3503 195.456C91.6571 195.926 91.861 196.433 91.9618 196.976C92.0674 197.52 92.0492 198.103 91.9073 198.724C91.687 199.632 91.2716 200.352 90.6609 200.884C90.0562 201.412 89.2865 201.734 88.3516 201.847C87.4227 201.958 86.3629 201.834 85.1723 201.478C83.9912 201.124 83.006 200.632 82.2169 200.002C81.4325 199.373 80.8804 198.625 80.5606 197.757C80.2468 196.886 80.2046 195.912 80.4342 194.836L83.4274 195.733C83.3426 196.241 83.3846 196.699 83.5531 197.107C83.7276 197.512 84.0043 197.861 84.3833 198.156C84.7682 198.448 85.2273 198.673 85.7607 198.833C86.2846 198.99 86.7577 199.049 87.1802 199.01C87.6074 198.972 87.9608 198.847 88.2405 198.636C88.5201 198.424 88.7024 198.139 88.7872 197.781C88.8663 197.447 88.8351 197.138 88.6937 196.852C88.5571 196.567 88.322 196.29 87.9883 196.019C87.6594 195.749 87.2438 195.469 86.7413 195.179L85.2446 194.295C84.0833 193.621 83.2223 192.853 82.6615 191.99C82.1007 191.128 81.9528 190.149 82.2178 189.052C82.4262 188.151 82.8483 187.435 83.4838 186.906C84.1242 186.377 84.9082 186.05 85.8358 185.924C86.7634 185.797 87.7606 185.894 88.8274 186.214C89.9132 186.539 90.8162 187.012 91.5365 187.631C92.2614 188.253 92.7705 188.967 93.0636 189.775C93.3567 190.583 93.4055 191.432 93.21 192.322L90.2454 191.434Z" fill="white"/>
<path d="M110.955 195.759L107.713 195.359C107.695 194.931 107.611 194.542 107.46 194.193C107.31 193.839 107.103 193.528 106.84 193.26C106.576 192.992 106.263 192.773 105.9 192.603C105.542 192.434 105.146 192.322 104.712 192.269C103.927 192.172 103.225 192.283 102.605 192.602C101.985 192.916 101.478 193.424 101.085 194.127C100.692 194.824 100.444 195.7 100.341 196.754C100.235 197.838 100.307 198.768 100.555 199.545C100.809 200.322 101.208 200.935 101.754 201.383C102.299 201.831 102.955 202.102 103.719 202.197C104.149 202.25 104.551 202.242 104.928 202.173C105.309 202.105 105.653 201.98 105.961 201.798C106.268 201.61 106.532 201.37 106.75 201.076C106.973 200.783 107.142 200.439 107.256 200.042L110.496 200.457C110.344 201.145 110.068 201.792 109.67 202.399C109.276 203.001 108.773 203.522 108.161 203.962C107.554 204.398 106.849 204.717 106.045 204.918C105.247 205.115 104.362 205.153 103.39 205.033C102.038 204.866 100.859 204.41 99.8532 203.665C98.8523 202.92 98.1003 201.928 97.5971 200.689C97.0989 199.451 96.9306 198.005 97.0921 196.353C97.2541 194.695 97.7027 193.323 98.438 192.237C99.1733 191.151 100.104 190.37 101.229 189.893C102.355 189.411 103.584 189.252 104.916 189.417C105.794 189.526 106.596 189.75 107.322 190.09C108.053 190.431 108.686 190.874 109.222 191.421C109.758 191.963 110.175 192.598 110.474 193.326C110.777 194.055 110.937 194.866 110.955 195.759Z" fill="white"/>
<path d="M115.593 205.641L114.927 190.383L118.151 190.205L118.426 196.501L124.971 196.139L124.696 189.844L127.913 189.666L128.579 204.924L125.362 205.102L125.087 198.799L118.542 199.16L118.817 205.463L115.593 205.641Z" fill="white"/>
<path d="M140.941 186.827L144.083 186.083L145.909 195.832C146.114 196.927 146.034 197.946 145.67 198.889C145.311 199.832 144.713 200.642 143.875 201.32C143.036 201.993 142.002 202.475 140.773 202.766C139.539 203.058 138.418 203.087 137.409 202.851C136.399 202.61 135.561 202.14 134.894 201.441C134.227 200.741 133.792 199.844 133.587 198.75L131.761 189.001L134.903 188.257L136.678 197.734C136.785 198.306 137.004 198.785 137.334 199.171C137.669 199.556 138.087 199.822 138.59 199.969C139.092 200.115 139.645 200.117 140.25 199.973C140.86 199.829 141.366 199.577 141.768 199.216C142.175 198.854 142.46 198.422 142.624 197.919C142.792 197.414 142.823 196.876 142.716 196.305L140.941 186.827Z" fill="white"/>
<path d="M159.925 179.617L164.853 194.073L162.292 195.177L153.088 188.708L152.985 188.753L156.087 197.851L153.122 199.129L148.194 184.673L150.796 183.552L159.949 190.034L160.072 189.981L156.973 180.889L159.925 179.617Z" fill="white"/>
<path d="M174.572 176.372C174.318 176.106 174.048 175.901 173.763 175.757C173.475 175.608 173.172 175.522 172.854 175.498C172.538 175.468 172.21 175.501 171.871 175.598C171.535 175.692 171.193 175.853 170.842 176.081C170.188 176.507 169.702 177.053 169.383 177.721C169.069 178.385 168.944 179.136 169.008 179.974C169.069 180.807 169.344 181.697 169.83 182.643C170.317 183.589 170.867 184.305 171.479 184.792C172.091 185.279 172.735 185.536 173.41 185.562C174.084 185.585 174.758 185.376 175.433 184.937C176.046 184.538 176.509 184.083 176.824 183.571C177.141 183.052 177.305 182.506 177.316 181.933C177.331 181.357 177.19 180.779 176.892 180.2L177.486 179.928L174.186 182.075L173.073 179.914L178.43 176.428L179.311 178.139C179.925 179.333 180.215 180.513 180.181 181.68C180.145 182.842 179.83 183.926 179.235 184.933C178.638 185.935 177.802 186.785 176.727 187.485C175.527 188.266 174.328 188.671 173.131 188.7C171.931 188.726 170.81 188.384 169.767 187.676C168.726 186.961 167.837 185.887 167.1 184.455C166.533 183.354 166.178 182.275 166.035 181.218C165.893 180.153 165.941 179.143 166.177 178.187C166.414 177.23 166.814 176.359 167.377 175.574C167.941 174.788 168.646 174.12 169.492 173.57C170.217 173.098 170.95 172.772 171.691 172.59C172.43 172.405 173.146 172.358 173.838 172.45C174.535 172.54 175.182 172.765 175.78 173.126C176.375 173.482 176.889 173.968 177.322 174.583L174.572 176.372Z" fill="white"/>
</svg>
