<svg xmlns="http://www.w3.org/2000/svg" viewBox="0 0 103 20" width="103" height="20">
	<style>
		tspan { white-space:pre }
		.shp0 { fill: #ed3725 } 
		.shp1 { fill: #ed3726 } 
	</style>
	<path id="Layer" fill-rule="evenodd" class="shp0" d="M10.43 9.25C11.13 9.46 11.75 9.78 12.27 10.28C12.79 10.78 13.09 11.39 13.31 12.07C13.46 12.55 13.47 13.04 13.49 13.53C13.52 14.83 13.07 15.95 12.12 16.84C11.39 17.52 10.49 17.86 9.51 17.99C8.82 18.08 8.13 18.06 7.44 18.06C5.25 18.07 3.06 18.07 0.87 18.09C0.63 18.09 0.57 18.03 0.57 17.79C0.58 12.28 0.58 6.76 0.57 1.25C0.57 0.99 0.64 0.94 0.89 0.94C3.53 0.95 6.17 0.91 8.82 0.98C10.07 1.01 11.15 1.44 12.03 2.35C13.55 3.92 13.54 6.77 12.01 8.28C11.6 8.68 11.12 8.96 10.57 9.15C10.52 9.16 10.47 9.16 10.43 9.25ZM4.28 12.88C4.28 13.46 4.29 14.04 4.28 14.61C4.28 14.78 4.32 14.86 4.5 14.86C5.71 14.85 6.93 14.94 8.14 14.81C8.85 14.73 9.4 14.38 9.65 13.68C10.04 12.62 9.68 11.17 8 10.99C6.82 10.86 5.63 10.96 4.45 10.92C4.28 10.92 4.27 11.01 4.27 11.14C4.28 11.73 4.28 12.3 4.28 12.88ZM6.14 4.14C5.61 4.14 5.08 4.15 4.55 4.13C4.31 4.12 4.25 4.21 4.25 4.42C4.25 5.46 4.25 6.5 4.25 7.54C4.25 7.69 4.3 7.74 4.45 7.74C4.88 7.73 5.32 7.75 5.75 7.74C6.46 7.72 7.18 7.79 7.89 7.7C8.89 7.58 9.48 6.87 9.46 5.86C9.44 4.93 8.75 4.24 7.79 4.16C7.23 4.12 6.68 4.14 6.14 4.14Z" />
	<path id="Layer" class="shp1" d="M50.06 9.5C50.06 6.75 50.06 4 50.05 1.26C50.05 1.03 50.1 0.95 50.35 0.95C54.11 0.96 57.87 0.96 61.63 0.95C61.89 0.95 61.96 1.02 61.95 1.27C61.94 2.1 61.95 2.93 61.95 3.76C61.95 4.06 61.83 4.16 61.53 4.16C59.01 4.15 56.5 4.15 53.98 4.14C53.77 4.14 53.72 4.2 53.72 4.4C53.73 5.42 53.73 6.44 53.72 7.47C53.72 7.68 53.76 7.75 53.99 7.75C55.65 7.74 57.31 7.74 58.97 7.74C59.18 7.74 59.39 7.76 59.6 7.76C59.79 7.76 59.89 7.86 59.89 8.04C59.89 8.96 59.89 9.87 59.89 10.79C59.89 10.93 59.81 10.94 59.71 10.94C59.5 10.94 59.29 10.94 59.07 10.94C57.37 10.94 55.68 10.95 53.98 10.93C53.73 10.93 53.68 11 53.69 11.23C53.7 13.41 53.69 15.59 53.7 17.77C53.7 17.99 53.66 18.06 53.42 18.06C52.39 18.05 51.36 18.05 50.33 18.06C50.09 18.06 50.05 17.98 50.05 17.77C50.07 15.01 50.06 12.25 50.06 9.5Z" />
	<path id="Layer" fill-rule="evenodd" class="shp0" d="M68.73 12.91C67.27 12.91 65.82 12.92 64.36 12.9C64.14 12.9 64.07 12.95 64.13 13.17C64.36 14.05 64.8 14.77 65.63 15.19C66.97 15.88 68.34 15.89 69.71 15.24C70.07 15.07 70.43 14.88 70.75 14.65C70.91 14.54 71.01 14.57 71.11 14.72C71.52 15.32 71.92 15.92 72.33 16.52C72.42 16.65 72.41 16.72 72.27 16.81C71.16 17.58 69.96 18.07 68.62 18.3C67.24 18.54 65.93 18.36 64.64 17.92C63.83 17.64 63.1 17.17 62.48 16.54C61.8 15.85 61.34 15.05 61 14.16C60.84 13.76 60.84 13.34 60.74 12.94C60.59 12.37 60.67 11.78 60.66 11.21C60.66 10.79 60.82 10.31 60.95 9.87C61.18 9.05 61.54 8.3 62.06 7.64C62.68 6.84 63.51 6.29 64.44 5.89C65.31 5.51 66.23 5.35 67.18 5.34C70.23 5.33 72.43 7.34 73.07 10.03C73.28 10.91 73.28 11.81 73.36 12.71C73.38 12.91 73.28 12.92 73.13 12.92C71.64 12.91 70.18 12.91 68.73 12.91ZM67.12 10.65C68.06 10.65 68.99 10.65 69.93 10.65C70.11 10.65 70.16 10.59 70.15 10.42C70.1 9.93 69.93 9.48 69.62 9.1C68.37 7.59 65.73 7.65 64.57 9.22C64.31 9.57 64.15 9.95 64.13 10.39C64.12 10.59 64.18 10.65 64.38 10.65C65.29 10.65 66.2 10.65 67.12 10.65Z" />
	<path id="Layer" fill-rule="evenodd" class="shp0" d="M81.99 12.91C80.54 12.91 79.1 12.91 77.65 12.9C77.43 12.9 77.38 12.95 77.43 13.17C77.67 14.31 78.39 15.06 79.44 15.44C81.02 16.01 82.5 15.64 83.88 14.76C83.92 14.73 83.95 14.67 83.98 14.63C84.1 14.5 84.22 14.47 84.33 14.64C84.76 15.28 85.2 15.92 85.64 16.56C85.71 16.66 85.68 16.69 85.6 16.75C85.05 17.2 84.44 17.56 83.79 17.82C83.23 18.04 82.62 18.16 82.02 18.27C81.46 18.37 80.89 18.42 80.31 18.4C79.67 18.38 79.05 18.25 78.45 18.08C76.63 17.57 75.3 16.43 74.51 14.72C74.25 14.16 74.1 13.55 74.02 12.92C73.94 12.32 73.94 11.71 73.98 11.12C74.05 9.93 74.49 8.86 75.19 7.89C75.81 7.03 76.6 6.37 77.55 5.93C78.64 5.43 79.8 5.25 81.01 5.34C81.55 5.38 82.06 5.51 82.56 5.68C83.97 6.16 85.07 7.18 85.73 8.4C86.24 9.33 86.46 10.33 86.56 11.37C86.61 11.83 86.58 12.3 86.58 12.76C86.58 12.97 86.42 12.89 86.33 12.89C84.88 12.91 83.44 12.91 81.99 12.91ZM80.42 10.65C81.34 10.65 82.25 10.64 83.17 10.66C83.4 10.66 83.44 10.59 83.42 10.38C83.36 9.71 83.06 9.16 82.53 8.76C81.6 8.04 80.55 7.84 79.43 8.16C78.29 8.48 77.52 9.36 77.41 10.37C77.38 10.6 77.44 10.67 77.68 10.67C78.59 10.64 79.51 10.65 80.42 10.65Z" />
	<path id="Layer" fill-rule="evenodd" class="shp0" d="M87.4 11.84C87.4 9.91 87.4 7.98 87.4 6.05C87.4 5.56 87.44 5.53 87.92 5.61C87.99 5.62 88.07 5.61 88.15 5.61C89.37 5.61 90.6 5.6 91.82 5.61C92.89 5.62 93.96 5.69 95 6C96.75 6.51 97.95 7.61 98.66 9.27C99.04 10.16 99.22 11.09 99.19 12.06C99.14 13.75 98.52 15.2 97.3 16.37C96.43 17.2 95.37 17.71 94.19 17.93C92.8 18.19 91.39 18.04 89.99 18.08C89.23 18.1 88.47 18.07 87.7 18.07C87.46 18.07 87.39 18 87.39 17.76C87.4 15.79 87.4 13.81 87.4 11.84ZM90.52 11.86C90.52 12.96 90.53 14.06 90.52 15.16C90.52 15.36 90.58 15.42 90.78 15.42C91.44 15.4 92.09 15.43 92.75 15.4C94.18 15.34 95.3 14.5 95.77 13.18C95.88 12.87 95.94 12.55 95.99 12.23C96.22 10.67 95.32 8.51 92.93 8.34C92.25 8.29 91.58 8.34 90.91 8.34C90.53 8.34 90.53 8.34 90.53 8.72C90.52 9.76 90.52 10.81 90.52 11.86Z" />
	<path id="Layer" class="shp1" d="M17.48 9.69C17.48 10.91 17.45 12.14 17.49 13.36C17.52 14.32 18.02 14.98 18.93 15.34C19.98 15.75 20.97 15.63 21.86 14.97C22.28 14.66 22.56 14.22 22.64 13.69C22.84 12.46 22.71 11.21 22.73 9.98C22.76 8.64 22.74 7.3 22.73 5.96C22.73 5.75 22.78 5.68 23 5.68C23.91 5.69 24.81 5.69 25.72 5.68C25.92 5.68 25.98 5.73 25.98 5.94C25.97 8.38 25.99 10.82 25.97 13.26C25.96 14.56 25.61 15.76 24.71 16.74C23.97 17.55 23.02 18 21.96 18.24C21 18.46 20.03 18.45 19.07 18.39C18.55 18.36 18.02 18.21 17.52 18.05C16.03 17.57 14.98 16.58 14.45 15.1C14.27 14.59 14.18 14.04 14.19 13.49C14.2 10.97 14.19 8.46 14.19 5.94C14.19 5.74 14.26 5.7 14.44 5.7C15.37 5.71 16.29 5.71 17.22 5.7C17.43 5.7 17.48 5.77 17.48 5.97C17.47 7.21 17.48 8.46 17.48 9.7C17.47 9.69 17.47 9.69 17.48 9.69Z" />
	<path id="Layer" class="shp1" d="M31.35 15.18C33.21 15.18 35.01 15.19 36.8 15.17C37.07 15.17 37.11 15.25 37.11 15.49C37.09 16.26 37.1 17.03 37.11 17.8C37.11 17.98 37.07 18.05 36.87 18.05C33.65 18.04 30.43 18.04 27.21 18.05C27.03 18.05 26.98 18 26.99 17.82C27 17.12 27.01 16.41 27 15.71C27 15.45 27.2 15.33 27.32 15.17C28.13 14.13 28.96 13.1 29.78 12.07C30.44 11.23 31.09 10.37 31.75 9.53C31.96 9.26 32.19 8.99 32.39 8.71C32.55 8.49 32.43 8.51 32.27 8.51C31.09 8.51 29.92 8.51 28.74 8.51C28.24 8.51 27.74 8.5 27.24 8.51C27.07 8.51 27.03 8.46 27.03 8.3C27.04 7.5 27.04 6.7 27.03 5.9C27.03 5.73 27.08 5.69 27.25 5.69C30.44 5.69 33.64 5.69 36.83 5.69C36.93 5.69 37.06 5.65 37.05 5.83C37.01 6.48 37.12 7.14 37 7.79C36.91 8.29 36.55 8.62 36.25 8.99C35.26 10.25 34.27 11.5 33.27 12.75C32.64 13.54 32.01 14.34 31.35 15.18Z" />
	<path id="Layer" class="shp0" d="M42.37 15.21C44.14 15.21 45.86 15.21 47.59 15.21C48.07 15.21 48.12 15.26 48.12 15.73C48.12 16.42 48.11 17.12 48.11 17.81C48.11 18 48.06 18.06 47.87 18.06C44.66 18.05 41.45 18.05 38.24 18.06C38.05 18.06 38 18 38 17.81C38.01 17.19 38.01 16.58 38.01 15.96C38.01 15.69 38.07 15.48 38.25 15.26C39.8 13.32 41.33 11.36 42.87 9.4C43.09 9.12 43.31 8.84 43.54 8.54C43.43 8.48 43.32 8.5 43.22 8.5C41.57 8.5 39.92 8.49 38.27 8.5C38.05 8.5 37.98 8.45 37.98 8.21C37.99 7.42 37.99 6.63 37.98 5.84C37.98 5.71 38.01 5.66 38.14 5.67C38.19 5.67 38.24 5.67 38.28 5.67C41.41 5.67 44.55 5.67 47.68 5.66C47.93 5.66 48.01 5.72 48 5.98C47.98 6.51 47.99 7.04 47.99 7.57C47.99 7.89 47.95 8.15 47.69 8.4C47.3 8.79 46.99 9.26 46.64 9.69C45.43 11.22 44.22 12.76 43.01 14.29C42.8 14.6 42.55 14.86 42.37 15.21Z" />
</svg>