<svg width="82" height="69" viewBox="0 0 82 69" fill="none" xmlns="http://www.w3.org/2000/svg">
<path d="M8.35236 13.8548C6.0733 14.5592 5.77781 24.9022 7.08322 27.7707L7.87248 29.5336C9.6516 27.1705 12.1721 25.4037 14.4697 23.7079C16.1007 22.5035 20.1018 20.3286 18.4515 18.6822C16.1725 15.2443 11.5117 12.8727 8.35236 13.8548Z" fill="#F9BB48"/>
<path d="M13.2362 22.3809C13.2192 22.3809 13.2015 22.3809 13.1837 22.3809C13.0826 22.3742 12.9838 22.3475 12.893 22.3026C12.8021 22.2576 12.7211 22.1952 12.6544 22.1189C12.5876 22.0426 12.5366 21.9539 12.5042 21.8579C12.4718 21.7618 12.4586 21.6604 12.4654 21.5593C12.4708 21.4173 12.4654 20.0587 10.5112 19.4167C10.4149 19.3851 10.3259 19.3348 10.2491 19.2687C10.1723 19.2026 10.1092 19.122 10.0635 19.0316C10.0179 18.9411 9.99046 18.8426 9.98288 18.7415C9.97529 18.6405 9.98769 18.539 10.0194 18.4427C10.051 18.3465 10.1013 18.2574 10.1674 18.1806C10.2335 18.1038 10.3141 18.0407 10.4045 17.9951C10.495 17.9494 10.5935 17.922 10.6946 17.9144C10.7956 17.9068 10.8971 17.9192 10.9934 17.9509C13.5178 18.7802 14.0679 20.7414 14.0023 21.6626C13.9889 21.857 13.9024 22.039 13.7603 22.1722C13.6182 22.3055 13.431 22.38 13.2362 22.3809Z" fill="#EF8E35"/>
<path d="M42.7815 13.8548C45.0606 14.5592 45.3561 24.9022 44.0506 27.7707L43.2614 29.5336C41.4823 27.1705 38.9625 25.4037 36.6642 23.7079C35.0339 22.5035 31.0321 20.3286 32.6831 18.6822C34.9622 15.2443 39.6221 12.8727 42.7815 13.8548Z" fill="#F9BB48"/>
<path d="M37.8969 22.3763C37.7016 22.3779 37.513 22.305 37.3696 22.1724C37.2263 22.0398 37.1389 21.8575 37.1254 21.6626C37.0636 20.7414 37.6137 18.7802 40.1343 17.9509C40.2305 17.9192 40.3321 17.9068 40.4331 17.9144C40.5342 17.922 40.6327 17.9494 40.7232 17.9951C40.8136 18.0407 40.8942 18.1038 40.9603 18.1806C41.0263 18.2574 41.0767 18.3465 41.1083 18.4427C41.14 18.539 41.1524 18.6405 41.1448 18.7415C41.1372 18.8426 41.1098 18.9411 41.0641 19.0316C41.0185 19.122 40.9554 19.2026 40.8786 19.2687C40.8018 19.3348 40.7127 19.3851 40.6165 19.4167C38.6638 20.0587 38.6568 21.4173 38.663 21.5708C38.6709 21.773 38.5996 21.9702 38.4643 22.1207C38.329 22.2711 38.1404 22.3628 37.9385 22.3763H37.8969Z" fill="#EF8E35"/>
<path d="M81.7689 11.3029C81.7773 11.8129 81.7773 12.3144 81.7689 12.8243C81.762 15.8025 80.5829 18.6583 78.4868 20.7739C76.3907 22.8895 73.546 24.0949 70.568 24.1294H65.4945C65.4945 24.1294 60.1448 28.1413 60.0669 27.6128C59.9457 26.8174 60.8878 24.043 60.8878 24.043C58.1603 23.688 55.6545 22.355 53.8358 20.2916C52.0172 18.2282 51.0095 15.5748 51 12.8243V11.3029C51.0075 8.32559 52.1871 5.47096 54.2835 3.35681C56.3799 1.24265 59.2245 0.0390089 62.2017 0.00636501C64.9938 -0.00212167 67.7766 -0.00212167 70.568 0.00636501C73.545 0.0392102 76.3894 1.24294 78.4856 3.35707C80.5818 5.47121 81.7613 8.32572 81.7689 11.3029Z" fill="#FFEED2"/>
<path d="M71.9706 8.56327C73.7775 11.1826 72.5238 15.1582 66.9488 17.3192C66.5871 17.4573 66.1872 17.4573 65.8255 17.3192C60.2505 15.159 58.9976 11.1826 60.8107 8.56327C61.9602 6.89525 65.297 6.53187 66.3856 8.60648C67.4742 6.53187 70.8134 6.89834 71.9706 8.56327Z" fill="#FF9280"/>
<path d="M50.8652 43.9941C50.0085 38.0949 47.6626 32.5114 44.0488 27.7706C42.3057 25.4311 40.2336 23.3559 37.8968 21.6093C36.2906 20.4141 34.5375 19.4304 32.6805 18.6822C28.1237 16.8161 23.016 16.8161 18.4592 18.6822C16.6003 19.4325 14.8444 20.4161 13.2337 21.6093C10.8972 23.3563 8.82513 25.4315 7.0816 27.7706C3.47357 32.5105 1.13032 38.0901 0.27219 43.9848C0.0952689 45.2372 0.00529983 46.5004 0.00292969 47.7652C0.00292969 61.884 11.4453 68.4172 25.5656 68.4172C39.6859 68.4172 51.1367 61.8856 51.1367 47.7652C51.1332 46.5034 51.0425 45.2434 50.8652 43.9941Z" fill="#FFCF6E"/>
<path d="M31.761 44.2533C37.4703 42.8546 42.6749 37.4902 50.8653 43.9941C51.0416 45.2432 51.1313 46.503 51.1338 47.7645C51.1338 61.8833 39.6822 68.4165 25.5627 68.4165C11.4431 68.4165 0 61.8848 0 47.7645C0.00237014 46.4997 0.0923378 45.2365 0.269259 43.9841C9.02443 37.0404 14.3518 43.6315 20.5409 44.4748C22.7165 44.6422 28.5477 44.2533 31.761 44.2533Z" fill="#FFEED2"/>
<path d="M19.9708 44.4756C19.9367 44.3174 19.9211 44.1559 19.9245 43.9941C19.9245 41.7336 22.4543 39.8989 25.5674 39.8989C28.6805 39.8989 31.2095 41.7336 31.2095 43.9941C31.2126 44.081 31.2064 44.1679 31.191 44.2534C31.0151 46.3936 28.5601 48.0801 25.5674 48.0801C22.6781 48.0801 20.2956 46.5139 19.9708 44.4756Z" fill="#823A52"/>
<path d="M34.6466 37.1376V39.1852C34.645 39.5385 34.5039 39.8769 34.2541 40.1267C34.0043 40.3765 33.666 40.5176 33.3127 40.5192H33.1275C32.7723 40.5202 32.4313 40.3804 32.179 40.1303C31.9268 39.8803 31.784 39.5404 31.782 39.1852V37.1376C31.7822 36.7815 31.9238 36.4399 32.1756 36.1881C32.4275 35.9362 32.769 35.7946 33.1252 35.7944H33.3104C33.6655 35.7961 34.0054 35.9383 34.2559 36.1901C34.5063 36.4418 34.6468 36.7825 34.6466 37.1376Z" fill="#823A52"/>
<path d="M19.3504 37.1376V39.1852C19.3488 39.5385 19.2077 39.8769 18.9579 40.1267C18.7081 40.3765 18.3697 40.5176 18.0164 40.5192H17.8305C17.4758 40.5194 17.1354 40.3792 16.8838 40.1293C16.6321 39.8793 16.4895 39.5399 16.4873 39.1852V37.1376C16.4877 36.7815 16.6294 36.4401 16.8812 36.1883C17.133 35.9365 17.4744 35.7948 17.8305 35.7944H18.0164C18.3711 35.7967 18.7105 35.9392 18.9605 36.1909C19.2104 36.4426 19.3506 36.7829 19.3504 37.1376Z" fill="#823A52"/>
<path d="M25.649 51.687C24.513 51.6489 23.4184 51.2507 22.5236 50.5497C22.4414 50.4905 22.3716 50.4156 22.3184 50.3294C22.2651 50.2431 22.2293 50.1473 22.2131 50.0472C22.1969 49.9472 22.2005 49.8449 22.2238 49.7463C22.2471 49.6476 22.2896 49.5545 22.3488 49.4723C22.4081 49.3901 22.483 49.3204 22.5692 49.2671C22.6554 49.2138 22.7513 49.178 22.8514 49.1618C22.9514 49.1456 23.0537 49.1492 23.1523 49.1725C23.251 49.1958 23.3441 49.2383 23.4263 49.2976C24.9786 50.4178 26.3272 50.4263 27.6758 49.3261C27.8349 49.2033 28.0357 49.1474 28.2354 49.1703C28.4351 49.1933 28.6179 49.2933 28.745 49.449C28.8721 49.6048 28.9334 49.804 28.9158 50.0042C28.8983 50.2045 28.8032 50.39 28.651 50.5212C27.8185 51.2507 26.7556 51.6635 25.649 51.687Z" fill="#FF6D69"/>
<path d="M35.1372 32.406C34.7669 33.1374 33.3033 33.2114 32.3952 32.7485C32.175 32.6901 31.9706 32.5832 31.7969 32.4357C31.6233 32.2881 31.4849 32.1036 31.3917 31.8957C31.2985 31.6877 31.253 31.4616 31.2585 31.2338C31.264 31.006 31.3203 30.7823 31.4233 30.5791C31.5263 30.3758 31.6735 30.1982 31.854 30.0591C32.0345 29.9201 32.2438 29.8231 32.4666 29.7753C32.6894 29.7275 32.92 29.7302 33.1417 29.783C33.3633 29.8358 33.5704 29.9375 33.7477 30.0806C34.665 30.5412 35.5176 31.6622 35.1372 32.406Z" fill="#FCF0D7"/>
<path d="M15.9959 32.406C16.3763 33.1374 17.8306 33.2114 18.7387 32.7485C18.9589 32.6901 19.1633 32.5832 19.337 32.4357C19.5106 32.2881 19.649 32.1036 19.7422 31.8957C19.8354 31.6877 19.8809 31.4616 19.8754 31.2338C19.8699 31.006 19.8136 30.7823 19.7106 30.5791C19.6076 30.3758 19.4604 30.1982 19.2799 30.0591C19.0994 29.9201 18.8901 29.8231 18.6673 29.7753C18.4445 29.7275 18.2139 29.7302 17.9922 29.783C17.7706 29.8358 17.5635 29.9375 17.3862 30.0806C16.4781 30.5412 15.6163 31.6622 15.9959 32.406Z" fill="#FCF0D7"/>
</svg>
