<svg width="41" height="44" viewBox="0 0 41 44" fill="none" xmlns="http://www.w3.org/2000/svg">
<path d="M8.50031 19.0001C9.40417 18.6571 11.66 18.227 14.9876 16.5031C15.0747 16.9131 14.4971 17.9909 17.486 16.9982C14.9295 19.5394 14.2995 21.384 13.8801 24.9641C9.98391 23.3181 9.3435 22.5736 8.61497 21.4346C8.52842 21.0823 8.6766 19.3171 8.50031 19.0001Z" fill="#B00202"/>
<path d="M22.8957 16.2495C23.8411 17.4835 25.0284 18.7072 27.9882 21.4736C30.8062 24.1067 34.1733 26.0559 34.0903 38.1236" stroke="black" stroke-width="1.1" stroke-miterlimit="10" stroke-linejoin="round"/>
<path d="M27.2722 28.9946C27.2722 28.9946 21.3695 26.1426 19.9566 29.6867C19.9566 29.6867 18.1273 33.9223 23.2819 39.1954H19.1256C19.1256 39.1954 16.2985 39.368 16.2985 42.9999H34.9212C39.9091 42.6532 39.5763 34.0086 37.2487 28.0958C34.4066 20.8817 40.002 18.0426 40.002 18.0426C40.002 18.0426 35.9522 16.6863 33.2918 21.5269" stroke="black" stroke-width="1.1" stroke-miterlimit="10" stroke-linecap="round" stroke-linejoin="round"/>
<path d="M13.4358 42.9997H7.98232C7.98232 39.3678 10.8088 39.1951 10.8088 39.1951H13.5522L14.3014 31.2427C14.3014 31.2427 5.97053 27.7448 9.35664 13.4356H4.15946C4.15946 13.4356 1.16695 13.0889 1.00023 7.5568L6.32097 5.13579C6.32097 5.13579 6.48704 2.19672 9.64628 1.50529C9.64628 1.50529 16.9618 -1.43377 19.4561 6.8647C19.4561 6.8647 22.616 16.8588 17.7935 17.3782C17.7935 17.3782 11.8084 19.2274 13.6372 7.5568" stroke="black" stroke-width="1.1" stroke-miterlimit="10" stroke-linejoin="round"/>
</svg>
