<svg xmlns="http://www.w3.org/2000/svg" viewBox="0 0 84 24" width="84" height="24">
	<style>
		tspan { white-space:pre }
		.shp0 { fill: #24639f } 
	</style>
	<path id="Layer" fill-rule="evenodd" class="shp0" d="M47.52 1.6C47.52 3.82 47.52 6.03 47.52 8.33C47.77 8.22 47.98 8.12 48.2 8.05C50.31 7.32 52.33 7.32 54.12 8.85C55.31 9.86 55.97 11.21 56.23 12.72C56.5 14.3 56.47 15.88 56.01 17.44C55.13 20.47 53.08 22.2 50.01 22.65C47.73 22.99 45.47 22.64 43.21 22.1C43.21 21.28 43.21 20.48 43.21 19.67C43.21 15.11 43.2 10.56 43.19 6C43.19 5.63 43.14 5.25 43.07 4.89C42.92 4.17 42.54 3.66 41.74 3.57C41.47 3.54 41.21 3.49 41.21 3.1C41.21 2.71 41.5 2.74 41.73 2.69C43.42 2.36 45.11 2.04 46.81 1.71C46.93 1.69 47.04 1.64 47.15 1.61C47.28 1.6 47.4 1.6 47.52 1.6ZM47.59 21.07C47.59 21.31 47.61 21.52 47.92 21.55C48.73 21.64 49.47 21.5 50.07 20.89C50.66 20.29 51.02 19.55 51.29 18.76C51.93 16.86 52 14.91 51.73 12.94C51.61 12.06 51.34 11.22 50.82 10.47C50.08 9.42 49.12 9.09 47.88 9.42C47.59 9.5 47.51 9.63 47.51 9.92C47.51 11.76 47.59 19.19 47.59 21.07Z" />
	<path id="Layer" class="shp0" d="M9.16 3.62C9.11 6.26 9.05 8.89 8.99 11.66C9.99 11.57 10.93 11.58 11.81 11.36C12.22 11.26 12.58 10.77 12.87 10.4C13.08 10.13 13.16 9.75 13.26 9.4C13.47 8.69 13.54 8.64 14.36 8.81C14.36 11.09 14.36 13.38 14.36 15.7C14.22 15.71 14.11 15.71 13.99 15.73C13.56 15.79 13.35 15.61 13.28 15.17C13.22 14.82 13.08 14.48 12.93 14.15C12.59 13.41 12.02 12.98 11.18 12.95C10.48 12.93 9.78 12.88 9.11 12.84C9.07 12.93 9.04 12.95 9.04 12.98C9.14 15.15 9.18 17.32 9.38 19.49C9.5 20.75 10.02 21.13 11.27 21.33C11.42 21.35 11.56 21.4 11.71 21.41C12.17 21.43 12.17 21.74 12.16 22.08C12.15 22.46 11.88 22.4 11.65 22.4C8.44 22.4 5.23 22.4 2.02 22.4C1.78 22.4 1.52 22.44 1.52 22.07C1.52 21.75 1.51 21.45 1.94 21.41C2.03 21.4 2.11 21.36 2.2 21.35C3.47 21.21 4.03 20.68 4.2 19.21C4.36 17.8 4.43 16.37 4.43 14.95C4.43 11.94 4.36 8.92 4.31 5.91C4.3 5.61 4.25 5.31 4.2 5.02C3.95 3.69 3.42 3.2 2.08 3.05C1.82 3 1.54 3.05 1.53 2.62C1.52 1.98 1.5 1.97 2.14 1.97C7.27 1.97 12.4 1.98 17.53 1.97C17.9 1.97 17.99 2.09 18 2.43C18.02 4.09 18.03 5.76 18.09 7.42C18.11 7.97 17.71 7.89 17.42 8C17.09 8.13 16.98 7.89 16.87 7.65C16.49 6.86 16.15 6.03 15.68 5.29C15.04 4.27 14.06 3.68 12.84 3.63C11.65 3.59 10.45 3.62 9.16 3.62Z" />
	<path id="Layer" fill-rule="evenodd" class="shp0" d="M30.22 15.12C30.24 17.14 29.7 18.98 28.34 20.51C27.06 21.95 25.42 22.67 23.5 22.75C22.09 22.81 20.71 22.7 19.44 22C17.32 20.83 16.35 18.94 16.01 16.64C15.83 15.43 15.87 14.22 16.12 13.02C16.77 9.91 19.39 7.02 23.97 7.41C26.72 7.64 28.67 9 29.66 11.62C30.09 12.74 30.28 13.9 30.22 15.12ZM25.36 11.44C25.18 10.55 24.82 9.72 24.16 9.06C23.37 8.27 22.24 8.32 21.59 9.23C21.27 9.67 21 10.2 20.9 10.72C20.65 12.07 20.49 17.6 20.88 18.96C21.1 19.74 21.37 20.51 21.96 21.1C22.68 21.83 23.67 21.82 24.4 21.11C24.95 20.57 25.22 19.88 25.36 19.16C25.87 16.59 25.87 14 25.36 11.44Z" />
	<path id="Layer" fill-rule="evenodd" class="shp0" d="M70.49 14.5C67.59 14.5 64.76 14.5 61.94 14.5C61.8 16.46 62.42 18.73 64.25 19.84C65.76 20.75 67.36 20.71 68.95 20C69.18 19.9 69.38 19.72 69.62 19.63C69.75 19.58 70.01 19.59 70.07 19.68C70.17 19.82 70.23 20.07 70.17 20.22C70.1 20.42 69.91 20.58 69.75 20.74C67.45 22.89 64.76 23.33 61.91 22.25C59.07 21.17 57.75 18.87 57.53 15.9C57.39 14.06 57.69 12.32 58.63 10.71C60.47 7.56 64.23 6.81 66.84 7.77C67.53 8.02 68.21 8.49 68.73 9.02C70.16 10.5 70.47 12.41 70.49 14.5ZM66.21 13.17C66.01 12 65.86 10.96 65.65 9.92C65.59 9.62 65.42 9.33 65.25 9.08C64.83 8.46 64.17 8.3 63.58 8.78C63.19 9.1 62.84 9.54 62.64 10C62.34 10.71 62.18 11.48 61.99 12.23C61.91 12.54 61.92 12.87 61.89 13.17C63.32 13.17 64.67 13.17 66.21 13.17Z" />
	<path id="Layer" class="shp0" d="M71.28 19.68C71.28 19.07 71.3 18.45 71.27 17.84C71.26 17.49 71.48 17.47 71.72 17.4C71.97 17.33 72.08 17.43 72.2 17.66C72.56 18.4 72.91 19.15 73.36 19.83C74.05 20.87 75.08 21.33 76.34 21.23C77.22 21.16 77.97 20.59 78.21 19.78C78.48 18.84 78.23 18 77.4 17.51C76.65 17.07 75.84 16.75 75.05 16.38C74.68 16.21 74.3 16.07 73.94 15.9C70.9 14.44 71.12 10.96 72.55 9.31C73.45 8.27 74.58 7.7 75.92 7.49C77.71 7.22 79.44 7.46 81.16 7.99C81.44 8.08 81.56 8.23 81.56 8.54C81.57 9.59 81.59 10.64 81.64 11.69C81.66 12.05 81.45 12.11 81.2 12.19C80.89 12.29 80.81 12.08 80.71 11.87C80.42 11.25 80.16 10.6 79.8 10.02C79.23 9.11 78.39 8.61 77.29 8.61C76.49 8.61 75.93 9.02 75.64 9.72C75.34 10.42 75.27 11.2 75.88 11.78C76.36 12.23 76.94 12.61 77.53 12.92C78.29 13.33 79.12 13.63 79.9 14.01C80.8 14.46 81.61 15.02 82.03 15.99C82.76 17.7 82.43 20.19 80.6 21.54C79.69 22.21 78.66 22.6 77.52 22.69C75.63 22.83 73.78 22.67 71.96 22.11C71.54 21.98 71.34 21.8 71.38 21.33C71.42 20.78 71.39 20.22 71.39 19.67C71.34 19.68 71.31 19.68 71.28 19.68Z" />
	<path id="Layer" class="shp0" d="M36.51 7.36C36.51 8.39 36.51 9.3 36.51 10.3C36.61 10.14 36.67 10.02 36.75 9.92C37.26 9.32 37.71 8.64 38.31 8.14C39.31 7.31 40.5 7.15 41.75 7.51C42.28 7.66 42.32 7.77 42.13 8.29C41.7 9.45 41.26 10.61 40.8 11.84C40.5 11.72 40.26 11.62 40.02 11.51C39.08 11.09 38.12 11 37.14 11.38C36.67 11.56 36.43 11.84 36.44 12.39C36.49 14.67 36.5 16.95 36.53 19.22C36.53 19.29 36.54 19.37 36.54 19.44C36.72 21.32 37.21 21.31 38.46 21.43C38.61 21.44 38.75 21.47 38.91 21.49C38.93 21.6 38.95 21.69 38.95 21.77C38.97 22.37 38.97 22.38 38.38 22.38C35.83 22.38 33.28 22.38 30.73 22.37C30.5 22.37 30.19 22.47 30.18 22.05C30.17 21.69 30.21 21.45 30.67 21.38C31.68 21.24 32.05 20.83 32.1 19.7C32.18 17.87 32.2 16.04 32.21 14.22C32.22 13.23 32.16 12.24 32.13 11.25C32.13 11.15 32.12 11.04 32.1 10.94C31.96 9.91 31.68 9.61 30.65 9.43C30.3 9.37 30.07 9.26 30.18 8.86C30.21 8.76 30.31 8.64 30.4 8.62C32.42 8.2 34.45 7.79 36.51 7.36Z" />
</svg>