<?xml version="1.0" encoding="utf-8"?>
<!-- Generator: Adobe Illustrator 27.1.0, SVG Export Plug-In . SVG Version: 6.00 Build 0)  -->
<svg version="1.1" id="Layer_1" xmlns="http://www.w3.org/2000/svg" xmlns:xlink="http://www.w3.org/1999/xlink" x="0px" y="0px"
	 viewBox="0 0 80 80" style="enable-background:new 0 0 80 80;" xml:space="preserve">
<style type="text/css">
	.st0{fill:#001C72;}
	.st1{fill:#FFFFFF;}
</style>
<path class="st0" d="M40,80c22.1,0,40-17.9,40-40S62.1,0,40,0S0,17.9,0,40S17.9,80,40,80z"/>
<path class="st1" d="M58.4,41.4h12.7L66.4,34h-8V41.4z"/>
<path class="st1" d="M56.1,43.7V31.8H65l-2.2-3.4H52.6v27.6H55c0-4,3.2-7.2,7.2-7.2s7.2,3.2,7.2,7.2h2.4V43.7H56.1z"/>
<path class="st1" d="M62.2,51c-2.7,0-5,2.2-5,5s2.2,5,5,5s5-2.2,5-5S65,51,62.2,51z"/>
<path class="st1" d="M24.4,51c-2.7,0-5,2.2-5,5s2.2,5,5,5s5-2.2,5-5S27.1,51,24.4,51z"/>
<path class="st1" d="M11.8,21.5v34.4h5.3c0-4,3.2-7.2,7.2-7.2s7.2,3.2,7.2,7.2h18.5V21.5H11.8z"/>
<path class="st0" d="M18.1,36.7h3.7v2.2h-3.7v4.5h-2.7V32.2h6.4v2.2h-3.7V36.7z"/>
<path class="st0" d="M26,43.4h-2.7V32.2h3.6c1.5,0,2.5,0.3,3.3,0.8c0.8,0.6,1.2,1.6,1.2,2.8c0,1.7-0.7,2.8-2.2,3.4l2.5,4.1h-3.2
	L26,39V43.4z M26.9,37.5c1.1,0,1.8-0.6,1.8-1.5c0-0.9-0.6-1.6-1.6-1.6h-1v3.1H26.9z"/>
<path class="st0" d="M35.5,36.7h3.7v2.2h-3.7v2.3h3.7v2.2h-6.4V32.2h6.4v2.2h-3.7V36.7z"/>
<path class="st0" d="M43.2,36.7h3.7v2.2h-3.7v2.3h3.7v2.2h-6.4V32.2h6.4v2.2h-3.7V36.7z"/>
</svg>
