
<svg xmlns="http://www.w3.org/2000/svg" width="34.633" height="43.532" viewBox="0 0 34.633 43.532"><defs><style>.a{fill:#bc2e3e;}</style></defs><g transform="translate(5.543 43.532) rotate(-98)"><path class="a" d="M39.823,16.47c-.1.073-.2.143-.3.219-5.266,4.157-16.122,12.7-16.152,12.686l1-8.5c-.631-.074-1.206-.16-1.785-.206A30.9,30.9,0,0,0,10.8,21.761a22.178,22.178,0,0,0-7.436,3.918C2.281,26.551,1.3,27.546.278,28.486A.526.526,0,0,1,0,28.648C.194,28.1.375,27.541.583,27A33.508,33.508,0,0,1,5.218,18.5,24.672,24.672,0,0,1,21.359,8.839c1.355-.222,2.736-.3,4.107-.411.359-.018.359-.018.4-.38C26.153,5.53,26.778.227,26.8,0c.136.163,8.588,10.845,12.727,16.079.09.114.2.212.3.317Z"/></g></svg>