<svg width="225" height="225" viewBox="0 0 225 225" fill="none" xmlns="http://www.w3.org/2000/svg">
<circle cx="112.5" cy="112.5" r="112.5" fill="#001C72"/>
<path d="M57.0992 55.9731L48.6877 43.2255L51.325 41.3623L55.0338 46.983L55.1983 46.8668L55.9784 38.0749L59.1395 35.8417L58.2768 44.8197L67.6058 48.5507L64.4508 50.7796L57.5756 47.9525L57.3461 50.4874L59.7365 54.11L57.0992 55.9731Z" fill="white"/>
<path d="M75.0879 27.9084L78.0387 26.5971L81.841 35.7577C82.2679 36.7862 82.3984 37.7942 82.2324 38.7817C82.0711 39.7671 81.6461 40.6684 80.9575 41.4857C80.267 42.2983 79.3447 42.961 78.1908 43.4739C77.0323 43.9887 75.9305 44.2254 74.8855 44.184C73.8386 44.138 72.9143 43.8363 72.1125 43.2789C71.3107 42.7215 70.6964 41.9285 70.2695 40.8999L66.4672 31.7394L69.418 30.4281L73.1145 39.3338C73.3375 39.871 73.6515 40.2971 74.0567 40.612C74.4664 40.9248 74.9343 41.1058 75.4604 41.1547C75.9866 41.2037 76.5336 41.102 77.1015 40.8497C77.674 40.5953 78.1219 40.2548 78.4453 39.8283C78.7733 39.3997 78.9664 38.9251 79.0246 38.4042C79.0875 37.8814 79.0074 37.3514 78.7844 36.8141L75.0879 27.9084Z" fill="white"/>
<path d="M90.0726 38.6953L86.89 23.7578L92.7647 22.4178C93.8892 22.1613 94.892 22.1441 95.7729 22.3664C96.6576 22.5827 97.3866 23.0104 97.9599 23.6495C98.537 24.2827 98.9307 25.0929 99.141 26.0799C99.3523 27.0719 99.3208 27.9739 99.0466 28.786C98.7713 29.5932 98.2693 30.2787 97.5407 30.8427C96.8168 31.4055 95.883 31.8173 94.7391 32.0783L90.8057 32.9755L90.2649 30.4373L93.6894 29.6562C94.2904 29.5191 94.772 29.3225 95.1343 29.0665C95.4965 28.8105 95.7393 28.4951 95.8628 28.1202C95.9911 27.7443 96.0029 27.3107 95.8983 26.8196C95.7926 26.3236 95.6041 25.9281 95.3329 25.6331C95.0665 25.3369 94.7135 25.1472 94.2739 25.064C93.8381 24.9747 93.3172 24.9992 92.7114 25.1374L90.5883 25.6217L93.2207 37.9772L90.0726 38.6953ZM96.6656 30.0633L101.815 36.0169L98.3393 36.8096L93.2702 30.8378L96.6656 30.0633Z" fill="white"/>
<path d="M106.985 35.4232L106.497 20.1582L109.725 20.0479L109.939 26.7785L110.141 26.7716L115.419 19.8533L119.287 19.7211L113.841 26.7496L119.841 34.9838L115.98 35.1157L111.599 28.9827L110.073 30.9749L110.212 35.3129L106.985 35.4232Z" fill="white"/>
<path d="M136.757 21.9183L139.942 22.4514L138.41 32.2507C138.238 33.3509 137.825 34.2698 137.172 35.0072C136.523 35.7454 135.694 36.2669 134.685 36.5719C133.677 36.872 132.551 36.9177 131.305 36.7093C130.055 36.5 128.997 36.0886 128.132 35.475C127.268 34.8565 126.64 34.0912 126.249 33.179C125.859 32.2668 125.749 31.2605 125.921 30.1603L127.453 20.361L130.638 20.894L129.149 30.4207C129.059 30.9954 129.104 31.5272 129.284 32.016C129.469 32.5057 129.772 32.9168 130.193 33.2494C130.614 33.5819 131.131 33.7995 131.744 33.9021C132.362 34.0055 132.919 33.9677 133.415 33.7886C133.916 33.6103 134.326 33.3186 134.646 32.9135C134.971 32.5092 135.178 32.0197 135.268 31.445L136.757 21.9183Z" fill="white"/>
<path d="M149.188 24.9293L152.872 26.4404L153.093 37.6187L153.259 37.6866L160.821 29.7001L164.505 31.2111L159.042 45.4733L156.144 44.2849L159.7 35.0019L159.582 34.9538L152.396 42.6674L150.423 41.8581L150.309 31.1103L150.192 31.0622L146.622 40.3799L143.724 39.1915L149.188 24.9293Z" fill="white"/>
<path d="M166.54 50.3265L163.705 48.3435L176.378 38.5783L179.788 40.9631L175.75 56.767L172.915 54.784L176.223 42.7268L176.125 42.6584L166.54 50.3265ZM169.646 45.1765L176.344 49.8605L174.966 51.9708L168.268 47.2868L169.646 45.1765Z" fill="white"/>
<g clip-path="url(#clip0_48_273)">
<path d="M155.162 141.379C155.822 138.47 156.195 135.103 155.654 131.115C154.911 125.639 151.21 112.03 144.511 104.921C143.834 104.203 143.17 103.54 142.515 102.926C146.57 98.1919 149.025 93.9969 149.807 90.4522C149.963 89.7417 150.051 89.0574 150.078 88.397C151.071 87.784 151.753 86.8561 152.063 85.6872C152.744 83.1232 151.531 80.0703 150.55 78.6437C149.394 76.9637 147.125 76 144.326 76C142.748 76 141.888 76.7231 141.465 77.4693C139.327 76.4633 137.093 76 134.593 76C130.631 76 126.806 77.466 123.432 78.7597C122.18 79.2395 120.998 79.6926 119.894 80.0391C119.607 80.1292 118.84 80.2437 117.869 80.3888C112.049 81.2583 96.5893 83.5678 82.5647 94.9224C74.6513 101.329 68.4072 109.661 64.0058 119.687C58.6936 131.787 56 146.528 56 163.5C56 175.574 60.2371 178 67.0736 178C73.5633 178 83.0394 176.208 88.3872 171.156C90.9484 168.736 99.4553 159.647 101.381 144.277C102.253 137.316 105.725 132.285 113.244 127.231C112.676 131.168 112.532 135.008 112.835 138.591C113.438 145.713 115.735 151.719 119.662 156.445C120.187 157.077 120.791 158.593 121.491 160.348C123.732 165.967 127.409 175.189 136.436 175.189C136.791 175.189 137.157 175.17 137.528 175.141C138.464 175.803 141.794 178 144.729 178C148.305 178 151.253 176.789 153.742 174.296C155.835 171.923 157.201 168.56 157.701 164.019C158.047 160.136 158.763 152.082 155.162 141.379ZM144.326 77.619C146.551 77.619 148.379 78.3454 149.216 79.5619C150.055 80.7804 151.007 83.358 150.499 85.2717C150.383 85.7066 150.2 86.0772 149.95 86.3896C149.659 84.7933 148.919 83.3806 147.732 82.1651C146.1 80.4951 144.513 79.1966 142.891 78.23C143.075 77.9329 143.471 77.619 144.326 77.619ZM134.593 77.619C139.164 77.619 142.635 79.2638 146.573 83.2964C148.28 85.0444 148.836 87.3348 148.226 90.1039C147.503 93.3805 145.175 97.3285 141.31 101.844C140.643 101.273 139.986 100.757 139.338 100.295C139.652 97.6681 140.655 85.7635 134.35 77.6247C134.431 77.6233 134.512 77.619 134.593 77.619ZM132.38 77.7801C138.445 84.7002 138.118 95.6085 137.806 99.2953C136.025 98.2431 134.308 97.6195 132.629 97.4129C132.245 95.1888 132.101 93.0597 131.965 90.996C131.636 85.995 131.343 81.6009 127.48 78.9999C129.069 78.4656 130.717 78.01 132.38 77.7801ZM110.285 83.5023C118.592 88.8251 119.996 100.383 120.01 100.5C120.056 100.914 120.406 101.219 120.813 101.219C120.843 101.219 120.874 101.218 120.904 101.214C121.349 101.164 121.668 100.764 121.618 100.32C121.564 99.8324 120.261 89.0101 112.416 83.019L119.923 81.6952C123.649 84.9691 123.687 88.3746 123.687 88.5177C123.681 88.9647 124.039 89.3316 124.486 89.3377C124.489 89.3377 124.493 89.3377 124.496 89.3377C124.939 89.3377 125.3 88.9821 125.306 88.5387C125.308 88.3724 125.306 84.7309 121.695 81.1376L125.473 79.7165C129.731 81.7592 129.993 85.6969 130.35 91.1027C130.475 93.0121 130.616 95.144 130.974 97.3427C129.989 97.3834 129.014 97.5696 128.045 97.9011C123.569 99.4323 117.923 108.665 114.913 119.376C114.904 119.41 114.896 119.442 114.886 119.476C113.227 117.384 112.125 114.465 110.882 111.161C109.468 107.403 107.891 103.213 105.097 99.5165C106.617 97.9535 107.657 96.264 108.134 94.6982C112.53 101.138 114.146 107.721 114.163 107.792C114.252 108.164 114.584 108.414 114.95 108.414C115.012 108.414 115.076 108.406 115.139 108.391C115.574 108.287 115.842 107.851 115.738 107.416C115.661 107.091 113.785 99.426 108.4 92.2923C108.322 91.626 108.098 91.0221 107.715 90.5123C106.838 89.343 103.894 87.1882 95.4478 92.0435C94.2665 91.5433 92.9888 91.1011 91.6015 90.7277C96.9882 87.6695 103.179 85.2093 110.285 83.5023ZM104.071 98.249C102.303 96.2077 100.097 94.3636 97.2552 92.8905C102.608 90.0319 105.528 90.2942 106.42 91.4834C107.343 92.7134 106.681 95.5032 104.071 98.249ZM64.9817 176.28C60.3362 175.775 57.7783 173.188 57.6267 164.351C58.9629 162.174 60.3326 161.276 61.1837 161.169C61.5751 161.12 61.8949 161.224 62.1587 161.488C62.6155 161.944 62.7851 162.671 62.9998 163.591C63.2925 164.844 63.6568 166.403 64.9884 167.816C66.2368 169.14 67.449 170.574 67.3701 172.261C67.3114 173.523 66.5074 174.874 64.9817 176.28ZM87.2752 169.979C82.6107 174.385 73.82 176.366 67.1468 176.38C68.3189 175.031 68.9243 173.698 68.9881 172.337C69.0968 170.017 67.5891 168.213 66.1674 166.706C65.1348 165.61 64.8514 164.396 64.5771 163.222C64.3254 162.144 64.0875 161.126 63.304 160.343C62.6807 159.719 61.8763 159.449 60.9817 159.562C59.8736 159.702 58.7112 160.432 57.6312 161.63C57.7062 155.438 58.1618 149 59.1838 142.582C76.3111 142.715 80.4729 150.916 84.496 158.852C85.9926 161.804 87.5375 164.85 89.7249 167.37C88.7052 168.572 87.8393 169.446 87.2752 169.979ZM66.2206 141.543C67.1499 138.564 68.6381 136.987 69.7886 136.502C70.1952 136.331 70.7931 136.193 71.3357 136.507C72.5402 137.205 72.8222 140.644 72.6608 143.4C70.7303 142.566 68.5881 141.948 66.2206 141.543ZM95.4957 158.494C93.9957 154.777 89.6411 145.921 79.843 138.188C79.4917 137.91 78.9826 137.971 78.706 138.321C78.4289 138.672 78.489 139.182 78.8397 139.458C89.8388 148.139 93.83 158.532 94.4884 160.429C93.2398 162.689 91.941 164.579 90.763 166.091C88.811 163.778 87.4114 161.023 85.9402 158.12C83.8332 153.964 81.6541 149.666 77.6328 146.392C76.5913 145.544 75.4578 144.798 74.2301 144.151C74.4092 142.091 74.6409 136.552 72.1478 135.107C71.2748 134.601 70.2134 134.566 69.1595 135.011C67.2088 135.833 65.5333 138.16 64.5998 141.303C62.9836 141.1 61.2693 140.987 59.4532 140.965C60.2298 136.512 61.2871 132.079 62.6867 127.755C74.2452 126.661 83.2369 130.652 88.0409 139.03C91.4327 144.946 96.4355 151.849 97.5987 153.435C96.965 155.265 96.2507 156.952 95.4957 158.494ZM99.7743 144.076C99.4379 146.761 98.8924 149.243 98.2132 151.527C96.4015 149.018 92.3302 143.255 89.4454 138.224C84.4064 129.436 75.1354 125.152 63.2482 126.079C65.5254 119.513 68.6217 113.229 72.7602 107.542C73.783 107.572 74.7691 107.677 75.7199 107.849C74.7148 110.184 74.8692 112.181 76.1869 113.309C76.8572 113.882 77.731 114.161 78.7377 114.161C80.4304 114.161 82.4979 113.37 84.6017 111.859C90.2989 116.166 94.286 122.904 97.5234 128.376C99.4381 131.612 100.994 134.239 102.516 135.681C101.067 138.213 100.162 140.984 99.7743 144.076ZM77.3319 108.212C79.4613 108.789 81.406 109.707 83.1914 110.869C80.3571 112.762 78.1562 112.862 77.2396 112.078C76.4494 111.402 76.4933 109.979 77.3319 108.212ZM93.2661 118.721C96.0888 117.576 97.9622 117.367 98.8341 118.109C100.289 119.347 99.6259 123.54 98.7406 127.254C97.19 124.633 95.3982 121.631 93.2661 118.721ZM104.444 132.844C104.071 133.311 103.724 133.788 103.395 134.273C102.356 133.192 101.198 131.372 99.915 129.231C101.773 122.065 101.761 118.473 99.8836 116.876C98.4156 115.627 96.0479 115.783 92.2575 117.386C87.8106 111.686 81.9606 106.644 73.9319 105.987C78.105 100.618 83.2638 95.8315 89.6065 91.9104C102.998 94.8137 106.381 103.797 109.366 111.731C110.773 115.468 112.107 119.003 114.392 121.366C114.087 122.603 113.822 123.838 113.598 125.066C109.508 127.67 106.591 130.147 104.444 132.844ZM120.798 155.276C111.197 143.561 114.569 126.587 116.472 119.814C119.633 108.565 125.105 100.618 128.569 99.4325C129.484 99.1198 130.41 98.9621 131.355 98.9621C134.625 98.9621 138.114 100.853 142.078 104.748C144.438 112.789 144.509 122.887 142.266 132.494C140.128 141.654 136.081 149.457 131.442 153.366C127.925 156.329 124.346 156.97 120.798 155.276ZM122.054 157.462C122.919 157.694 123.788 157.814 124.657 157.814C127.305 157.814 129.953 156.738 132.485 154.604C137.455 150.416 141.595 142.491 143.843 132.862C145.661 125.075 146.018 117.217 144.926 110.149C148.342 117.9 149.356 126.146 147.937 134.737C146.74 140.711 144.129 146.87 140.828 153.11C137.877 157.629 134.585 162.673 127.224 162.673C126.25 162.672 125.203 162.583 124.077 162.394L122.054 157.462ZM124.864 164.143C125.667 164.239 126.434 164.285 127.166 164.285C135.464 164.285 139.292 158.423 142.184 153.995C145.648 148.155 148.315 141.958 149.535 135.001C150.886 126.82 150.109 118.943 147.231 111.489C150.908 117.957 153.376 126.367 154.05 131.333C154.89 137.526 153.435 142.017 152.152 145.979C151.642 147.553 151.162 149.043 150.866 150.514C148.395 153.678 146.69 156.527 145.185 159.044C143.533 161.807 142.228 163.99 140.587 165.394C139.201 166.582 136.871 166.909 134.618 167.226C132.208 167.565 129.727 167.914 128.021 169.304C126.745 167.76 125.722 165.951 124.864 164.143ZM129.119 170.498C130.476 169.444 132.606 169.144 134.844 168.83C137.327 168.481 139.895 168.12 141.641 166.624C143.482 165.048 144.847 162.765 146.575 159.875C147.569 158.212 148.653 156.402 149.987 154.458C148.372 160.852 144.461 172.824 137.682 173.506C134.006 173.876 131.251 172.57 129.119 170.498ZM156.088 163.875C155.757 167.701 154.558 170.763 152.597 173.152C150.396 175.355 147.896 176.381 144.729 176.381C143.047 176.381 141.095 175.436 139.777 174.661C148.108 171.547 151.738 154.6 152.417 151.012C152.688 149.578 153.176 148.072 153.693 146.478C153.917 145.786 154.15 145.063 154.379 144.307C157.012 153.488 156.398 160.401 156.088 163.875Z" fill="white"/>
<path d="M133.098 118.789C132.955 116.188 132.269 114.736 131.06 114.472C128.488 113.904 126.027 119.579 124.824 125.084C123.621 130.588 123.495 136.768 126.063 137.33C126.186 137.357 126.31 137.37 126.433 137.37C127.522 137.37 128.625 136.325 129.717 134.256C130.746 132.305 131.663 129.628 132.3 126.718C132.936 123.807 133.219 120.991 133.098 118.789ZM130.717 126.372C130.111 129.144 129.247 131.676 128.284 133.501C127.251 135.46 126.531 135.776 126.408 135.748C126.286 135.721 125.763 135.134 125.641 132.923C125.528 130.863 125.799 128.202 126.405 125.43C127.011 122.657 127.875 120.126 128.838 118.301C129.834 116.414 130.538 116.052 130.698 116.052C130.704 116.052 130.709 116.053 130.714 116.054C130.837 116.08 131.359 116.667 131.481 118.879C131.595 120.938 131.323 123.599 130.717 126.372Z" fill="white"/>
<path d="M120.73 117.368C121.147 117.53 121.616 117.323 121.778 116.906C124.814 109.089 129.188 106.253 132.177 106.91C135.485 107.638 137.36 112.272 136.955 118.717C136.927 119.163 137.266 119.547 137.713 119.575C137.73 119.576 137.747 119.577 137.764 119.577C138.188 119.577 138.544 119.247 138.571 118.818C139.127 109.976 135.812 106.052 132.525 105.329C128.054 104.346 123.244 108.66 120.268 116.32C120.106 116.737 120.313 117.206 120.73 117.368Z" fill="white"/>
<path d="M129.735 145.202C130.423 143.706 131.193 142.952 132.084 142.079C133.244 140.944 134.557 139.658 135.965 136.602C136.153 136.196 135.975 135.715 135.569 135.528C135.162 135.34 134.682 135.518 134.495 135.924C133.211 138.71 132.063 139.834 130.952 140.922C129.987 141.866 129.076 142.758 128.263 144.526C127.22 146.797 125.478 148.004 123.824 147.6C121.716 147.085 119.389 143.701 119.768 135.859C119.79 135.412 119.445 135.033 118.999 135.011C118.544 134.996 118.173 135.334 118.151 135.781C117.725 144.598 120.603 148.48 123.44 149.173C123.785 149.257 124.131 149.299 124.475 149.299C126.559 149.299 128.548 147.784 129.735 145.202Z" fill="white"/>
<path d="M74.1084 165.349C73.7123 165.556 73.5591 166.045 73.7666 166.441C75.4275 169.615 75.7307 173.089 75.7335 173.123C75.7679 173.547 76.1221 173.868 76.5395 173.868C76.5613 173.868 76.5836 173.867 76.6058 173.865C77.0515 173.829 77.3835 173.438 77.3474 172.993C77.3347 172.838 77.0195 169.165 75.2012 165.691C74.9939 165.295 74.5045 165.142 74.1084 165.349Z" fill="white"/>
<path d="M59.891 151.528C59.4489 151.595 59.1455 152.008 59.2131 152.45C59.2811 152.893 59.6946 153.197 60.1361 153.128C66.2209 152.195 69.4158 157.138 71.7397 162.095C71.8776 162.388 72.169 162.561 72.4734 162.561C72.5884 162.561 72.7054 162.536 72.8165 162.484C73.2213 162.294 73.3956 161.812 73.2059 161.407C70.7781 156.23 67.0683 150.429 59.891 151.528Z" fill="white"/>
<path d="M74.881 117.486C74.4541 117.352 73.9997 117.589 73.8655 118.015C73.7313 118.442 73.9681 118.896 74.3946 119.031C83.1986 121.802 87.4788 128.084 87.5205 128.147C87.6766 128.381 87.9334 128.508 88.1955 128.508C88.3495 128.508 88.505 128.464 88.6428 128.373C89.0152 128.125 89.1164 127.623 88.8689 127.25C88.6849 126.974 84.2548 120.437 74.881 117.486Z" fill="white"/>
<path d="M85.318 96.9286C84.9035 96.7613 84.4317 96.9614 84.2639 97.3759C84.0965 97.7906 84.2967 98.2623 84.7112 98.4299C92.9514 101.76 96.5102 109.465 96.545 109.542C96.6798 109.842 96.9749 110.02 97.2837 110.02C97.3947 110.02 97.5074 109.997 97.6151 109.948C98.0231 109.765 98.2051 109.286 98.0219 108.878C97.8689 108.538 94.1787 100.509 85.318 96.9286Z" fill="white"/>
</g>
<defs>
<clipPath id="clip0_48_273">
<rect width="102" height="102" fill="white" transform="translate(56 76)"/>
</clipPath>
</defs>
</svg>
