<svg width="123" height="61" viewBox="0 0 123 61" fill="none" xmlns="http://www.w3.org/2000/svg">
<path d="M0 36.1452V35.2285H3.09513V7.55056H0V6.58454H11.0889V8.87339C11.5008 8.31351 13.4603 6.02466 17.5881 6.02466C23.7754 6.02466 27.6443 10.6517 27.6443 17.6691C27.6443 24.6865 23.5695 29.8734 17.4322 29.8734C13.4103 29.8734 11.5008 27.686 11.0889 27.1291V35.2314H14.0811V36.1481H0V36.1452ZM11.0889 23.2621C11.0889 26.517 12.6865 27.7354 14.5959 27.7354C17.947 27.7354 19.4446 24.0744 19.4446 17.9215C19.4446 11.7685 17.95 8.15686 14.6489 8.15686C12.6894 8.15686 11.0919 9.47969 11.0919 12.7839V23.2592L11.0889 23.2621Z" fill="#1D1D1B"/>
<path d="M52.6289 22.5775C52.119 26.7537 48.7473 30.1234 42.3099 30.1234C34.5961 30.1234 29.948 25.2928 29.948 18.2491C29.948 11.2055 34.8001 6.02466 42.2574 6.02466C49.1523 6.02466 53.034 10.4506 52.9845 16.9919H37.9678V17.7468C37.9678 23.5333 39.8066 27.6579 45.1687 27.6579C48.5404 27.6579 50.9416 25.7463 51.4516 22.5775H52.626H52.6289ZM45.224 16.0361C45.224 9.6986 44.2536 7.08092 42.0068 7.08092C39.76 7.08092 38.1747 10.1492 37.9707 16.0361H45.224Z" fill="#1D1D1B"/>
<path d="M71.4145 23.5689C71.4145 27.223 68.299 30.1235 63.7323 30.1235C58.1262 30.1235 55.5289 27.1202 55.5289 22.6183V7.65647H52.985V6.70584H55.5289V2.55216L63.525 0V6.70584H70.7393V7.65647H63.525V22.7696C63.525 25.5216 64.5645 27.0717 67.0019 27.0717C69.0275 27.0717 70.3247 25.4702 70.3247 23.5689H71.4145Z" fill="#1D1D1B"/>
<path d="M91.3306 14.6989C90.7188 10.1634 88.3179 7.1866 83.8747 7.1866C81.066 7.1866 79.5859 8.59876 79.5859 10.5631C79.5859 16.6115 92.9156 13.3846 92.9156 22.5622C92.9156 26.7469 89.699 30.1234 82.2431 30.1234C77.6483 30.1234 75.9118 28.5099 74.1228 28.5099C73.613 28.5099 73.1002 28.8637 73.1002 29.8703H72.1824V20.9458H72.9982C73.712 25.8352 76.5237 29.0621 81.2728 29.0621C84.0816 29.0621 85.7161 27.65 85.7161 25.5332C85.7161 19.5337 72.4883 22.056 72.4883 13.5859C72.4883 9.50185 75.4514 6.02466 82.7529 6.02466C86.9398 6.02466 88.7288 7.43682 90.3108 7.43682C90.8207 7.43682 91.2811 7.13483 91.2811 6.17709H92.2018V14.6961H91.3335L91.3306 14.6989Z" fill="#1D1D1B"/>
<path d="M107.983 40.8608V40.7484H108.389V36.8606H108.233C107.557 36.8606 107.296 37.2814 107.193 37.9875H107.072V36.5321H107.181C107.175 36.6848 107.234 36.754 107.354 36.754H110.555C110.675 36.754 110.734 36.6848 110.728 36.5321H110.837V37.9875H110.716C110.613 37.2843 110.352 36.8606 109.676 36.8606H109.52V40.7484H109.926V40.8608H107.983Z" fill="#1D1D1B"/>
<path d="M113.899 40.8607V40.7483H114.298V37.3937C113.975 38.5493 113.64 39.7107 113.323 40.8578H112.606L111.542 37.362V40.071C111.542 40.5523 111.715 40.7454 111.918 40.7454H111.983V40.8578H110.954V40.7454H111.019C111.222 40.7454 111.395 40.5523 111.395 40.071V36.8691H110.995V36.751H112.515L113.434 39.9067L114.319 36.751H115.782V36.8691H115.383V40.7454H115.782V40.8578H113.893L113.899 40.8607Z" fill="#1D1D1B"/>
<path d="M54.365 54.8134C54.365 56.0706 53.6965 57.0781 52.6174 57.0781C51.5384 57.0781 51.1777 56.2744 51.1777 54.8651V44.5005C51.1777 39.0671 47.4245 36.1481 40.6422 36.1481C33.86 36.1481 30.4146 39.2164 30.4146 42.6894C30.4146 44.8536 32.1095 46.4609 34.3731 46.4609C36.8391 46.4609 38.6894 44.9512 38.6894 42.9391C38.6894 40.9271 37.0444 39.7703 35.1414 39.7703C34.7807 39.7703 34.6282 39.5694 34.6282 39.4173C34.6282 38.4127 36.3759 37.3048 38.8946 37.3048C41.9266 37.3048 43.6742 38.7629 43.6742 41.5815C43.6742 50.7893 29.1802 45.7061 29.1802 54.4604C29.1802 58.0827 32.3147 60.2468 36.2732 60.2468C41.258 60.2468 43.3663 56.725 43.7768 56.1223C44.4453 58.7371 46.5008 60.198 49.6354 60.198C53.7463 60.198 55.2887 57.3306 55.2887 54.8134H54.365ZM43.3663 53.9093C43.3663 56.0735 42.0292 57.4799 40.0763 57.4799C38.4313 57.4799 36.9916 56.2715 36.9916 53.8576C36.9916 48.826 40.8475 48.3725 43.3633 45.8582V53.9093H43.3663Z" fill="black"/>
<path d="M90.3363 40.6837C90.3363 38.7164 91.8165 37.3071 94.6252 37.3071C99.0684 37.3071 101.469 40.281 102.081 44.8195H102.949V36.3005H102.032C102.032 37.2582 101.571 37.5602 101.061 37.5602C99.4792 37.5602 97.6903 36.1481 93.5034 36.1481C86.199 36.1481 83.2388 39.6253 83.2388 43.7093C83.2388 52.1794 96.4666 49.6571 96.4666 55.6566C96.4666 57.7734 94.832 59.1856 92.0233 59.1856C87.2741 59.1856 84.4654 55.9586 83.7487 51.0692H82.9329V59.9937H83.8506C83.8506 58.9842 84.3605 58.6333 84.8733 58.6333C86.6623 58.6333 88.3988 60.2468 92.9936 60.2468C100.449 60.2468 103.666 56.8703 103.666 52.6856C103.666 43.5109 90.3363 46.7378 90.3363 40.6865V40.6837Z" fill="black"/>
<path d="M25.5095 58.5423V34.5237V35.4323V30.1234L17.647 32.6779V35.4323V34.5237V58.5423H14.59V59.4938H28.4122V58.5423H25.5095Z" fill="black"/>
<path d="M70.4695 36.0206C66.3515 36.0206 64.3207 38.2826 63.9015 38.8359V32.6864L56.0847 30.1234V54.2656C56.0847 56.1262 55.719 57.3819 55.1987 59.039L54.5208 61H55.6149C56.5515 57.984 57.2829 57.0809 58.4812 57.0809C61.1928 57.0809 62.5457 59.9965 67.7044 59.9965C75.5212 59.9965 80.6293 54.7214 80.6293 47.385C80.6293 40.6507 76.8235 36.0264 70.4665 36.0264L70.4695 36.0206ZM67.4992 58.8354C65.5725 58.8354 63.9045 57.6285 63.9045 54.3143V42.7062C63.9045 39.4408 65.519 38.1851 67.4992 38.1851C70.8352 38.1851 72.3457 42.1042 72.3457 48.1362C72.3457 54.1681 70.8352 58.8383 67.4992 58.8383V58.8354Z" fill="black"/>
<path d="M112.452 6.78357V7.63787H113.276C116.009 7.63787 116.474 9.74784 115.494 12.1101L111.473 22.0608L105.13 7.73821H108.225V6.78357H93.6836V7.73821H96.7254L105.522 25.9453L105.813 26.5473L106.584 28.1728L106.604 28.2158L106.919 28.8809H106.922L107.975 31.0798C107.116 33.4506 105.91 34.7349 104.086 35.0646C102.362 35.3771 101.459 34.7751 101.25 33.9437C101.324 33.7774 101.559 33.6312 101.962 33.5595C103.736 33.2356 104.939 31.8423 104.577 29.9646C104.227 28.1355 102.824 27.115 100.594 27.5192C98.5141 27.8976 97.1961 29.7725 97.6021 31.8968C98.1493 34.7607 100.462 36.693 104.212 36.0107C106.672 35.5634 108.16 33.8606 109.184 30.6469L109.681 29.4256L110.511 27.3902L116.63 12.3566C117.765 9.4927 119.26 7.63214 121.425 7.63214H122.096V6.77783H112.452V6.78357Z" fill="black"/>
</svg>
