<svg width="231" height="38" viewBox="0 0 231 38" fill="none" xmlns="http://www.w3.org/2000/svg">
<g clip-path="url(#clip0_42_41)">
<path d="M223.059 11.5583V11.4406H223.472V7.36954H223.314C222.624 7.36954 222.357 7.81014 222.252 8.5495H222.129V7.02551H222.24C222.234 7.18546 222.294 7.25788 222.417 7.25788H225.682C225.805 7.25788 225.865 7.18546 225.859 7.02551H225.97V8.5495H225.847C225.742 7.81316 225.475 7.36954 224.786 7.36954H224.627V11.4406H225.041V11.5583H223.059Z" fill="#1D1D1B"/>
<path d="M229.094 11.5583V11.4406H229.502V7.92785C229.172 9.13799 228.83 10.3542 228.507 11.5553H227.775L226.69 7.89466V10.7314C226.69 11.2354 226.867 11.4376 227.073 11.4376H227.139V11.5553H226.09V11.4376H226.156C226.363 11.4376 226.54 11.2354 226.54 10.7314V7.37861H226.132V7.25488H227.682L228.621 10.5594L229.523 7.25488H231.016V7.37861H230.608V11.4376H231.016V11.5553H229.088L229.094 11.5583Z" fill="#1D1D1B"/>
<path d="M53.8142 23.91C53.2895 28.3009 49.8205 31.8438 43.1971 31.8438C35.2605 31.8438 30.4781 26.7649 30.4781 19.3592C30.4781 11.9535 35.4704 6.50635 43.1431 6.50635C50.2372 6.50635 54.231 11.1598 54.18 18.0374H38.7296V18.8311C38.7296 24.9149 40.6215 29.2515 46.1385 29.2515C49.6076 29.2515 52.0782 27.2417 52.6029 23.91H53.8113H53.8142ZM46.1955 17.0324C46.1955 10.3691 45.197 7.6169 42.8853 7.6169C40.5736 7.6169 38.9425 10.8429 38.7326 17.0324H46.1955Z" fill="#1D1D1B"/>
<path d="M73.0486 24.915C73.0486 28.7778 69.8943 31.8438 65.2709 31.8438C59.595 31.8438 56.9655 28.6691 56.9655 23.91V8.09374H54.3899V7.08882H56.9655V2.69791L65.061 0V7.08882H72.365V8.09374H65.061V24.07C65.061 26.9791 66.1134 28.6178 68.581 28.6178C70.6319 28.6178 71.9452 26.9248 71.9452 24.915H73.0486Z" fill="#1D1D1B"/>
<path d="M93.3864 15.6563C92.7567 10.8972 90.2861 7.77376 85.7136 7.77376C82.8232 7.77376 81.3001 9.2555 81.3001 11.3167C81.3001 17.6631 95.0175 14.2771 95.0175 23.9069C95.0175 28.2978 91.7073 31.8407 84.0345 31.8407C79.3062 31.8407 77.5191 30.1477 75.6782 30.1477C75.1535 30.1477 74.6258 30.5189 74.6258 31.5752H73.6813V22.2109H74.5208C75.2554 27.3412 78.1488 30.7272 83.0361 30.7272C85.9265 30.7272 87.6086 29.2454 87.6086 27.0243C87.6086 20.7292 73.9961 23.3758 73.9961 14.4884C73.9961 10.2031 77.0454 6.55457 84.5593 6.55457C88.8679 6.55457 90.7089 8.03631 92.337 8.03631C92.8617 8.03631 93.3354 7.71944 93.3354 6.71451H94.2829V15.6532H93.3894L93.3864 15.6563Z" fill="#1D1D1B"/>
<path d="M114.513 7.0888V7.9881H115.352C118.138 7.9881 118.611 10.2092 117.613 12.6959L113.514 23.1707L107.05 8.09373H110.204V7.0888H95.3833V8.09373H98.4836L107.449 27.2598L107.745 27.8935L108.531 29.6046L108.552 29.6499L108.873 30.35H108.876L109.949 32.6647C109.074 35.1604 107.844 36.5124 105.985 36.8594C104.228 37.1884 103.308 36.5546 103.095 35.6795C103.17 35.5044 103.41 35.3505 103.821 35.2751C105.629 34.9341 106.855 33.4674 106.486 31.4907C106.129 29.5654 104.699 28.491 102.426 28.9166C100.307 29.3149 98.9633 31.2885 99.3771 33.5247C99.9348 36.5395 102.291 38.5735 106.114 37.8553C108.621 37.3845 110.138 35.5919 111.182 32.209L111.688 30.9234L112.534 28.7808L118.77 12.9554C119.928 9.94062 121.451 7.98207 123.658 7.98207H124.341V7.08276H114.513V7.0888Z" fill="black"/>
<path d="M168.324 25.8867C168.324 27.2085 167.64 28.2678 166.537 28.2678C165.434 28.2678 165.065 27.4228 165.065 25.941V15.0438C165.065 9.33107 161.227 6.26196 154.292 6.26196C147.357 6.26196 143.833 9.48799 143.833 13.1395C143.833 15.415 145.567 17.1049 147.881 17.1049C150.403 17.1049 152.295 15.5176 152.295 13.4021C152.295 11.2866 150.613 10.0704 148.667 10.0704C148.298 10.0704 148.142 9.85918 148.142 9.69924C148.142 8.64301 149.929 7.47814 152.505 7.47814C155.605 7.47814 157.392 9.01118 157.392 11.9747C157.392 21.6558 142.571 16.3112 142.571 25.5155C142.571 29.324 145.776 31.5994 149.824 31.5994C154.921 31.5994 157.077 27.8966 157.497 27.2628C158.181 30.0121 160.282 31.5481 163.488 31.5481C167.691 31.5481 169.268 28.5333 169.268 25.8867H168.324ZM157.077 24.9361C157.077 27.2115 155.71 28.6903 153.713 28.6903C152.031 28.6903 150.559 27.4198 150.559 24.8818C150.559 19.5916 154.502 19.1148 157.074 16.4712V24.9361H157.077Z" fill="black"/>
<path d="M138.946 30.012V4.64741V5.60707V0L130.695 2.69791V5.60707V4.64741V30.012H127.49V31.017H141.995V30.012H138.946Z" fill="black"/>
<path d="M184.932 6.21064C180.779 6.21064 178.731 8.59168 178.308 9.17412V2.69791L170.426 0V25.4129C170.426 27.3715 170.057 28.6933 169.532 30.4375L168.849 32.5017H169.952C170.897 29.327 171.634 28.3764 172.842 28.3764C175.577 28.3764 176.941 31.4455 182.143 31.4455C190.026 31.4455 195.177 25.8927 195.177 18.1702C195.177 11.0814 191.339 6.21365 184.929 6.21365L184.932 6.21064ZM181.936 30.2263C179.994 30.2263 178.311 28.9558 178.311 25.4672V13.2451C178.311 9.80786 179.94 8.48606 181.936 8.48606C185.301 8.48606 186.824 12.6114 186.824 18.9608C186.824 25.3103 185.301 30.2263 181.936 30.2263Z" fill="black"/>
<path d="M0 37.8402V36.8866H3.15426V8.09371H0V7.08878H11.3008V9.46983C11.7205 8.88739 13.7174 6.50635 17.9241 6.50635C24.2296 6.50635 28.1724 11.3197 28.1724 18.6198C28.1724 25.9199 24.0197 31.3157 17.7652 31.3157C13.6664 31.3157 11.7205 29.0403 11.3008 28.4609V36.8896H14.3501V37.8432H0V37.8402ZM11.3008 24.4381C11.3008 27.8241 12.9289 29.0916 14.8748 29.0916C18.2899 29.0916 19.816 25.2831 19.816 18.8824C19.816 12.4816 18.2929 8.72443 14.9287 8.72443C12.9319 8.72443 11.3038 10.1005 11.3038 13.5378V24.4351L11.3008 24.4381Z" fill="#1D1D1B"/>
<path d="M204.85 11.0241C204.85 8.95988 206.373 7.48115 209.263 7.48115C213.836 7.48115 216.306 10.6016 216.936 15.3637H217.83V6.42191H216.885C216.885 7.42683 216.411 7.7437 215.887 7.7437C214.259 7.7437 212.418 6.26196 208.109 6.26196C200.592 6.26196 197.546 9.91049 197.546 14.1958C197.546 23.0832 211.158 20.4366 211.158 26.7317C211.158 28.9528 209.476 30.4346 206.586 30.4346C201.698 30.4346 198.808 27.0486 198.07 21.9183H197.231V31.2826H198.175C198.175 30.2233 198.7 29.8551 199.228 29.8551C201.069 29.8551 202.856 31.5481 207.584 31.5481C215.257 31.5481 218.567 28.0052 218.567 23.6143C218.567 13.9875 204.85 17.3735 204.85 11.0241Z" fill="black"/>
</g>
<defs>
<clipPath id="clip0_42_41">
<rect width="231" height="38" fill="white"/>
</clipPath>
</defs>
</svg>
