<svg width="227" height="227" viewBox="0 0 227 227" fill="none" xmlns="http://www.w3.org/2000/svg">
<g clip-path="url(#clip0_59_288)">
<circle cx="113.38" cy="113.38" r="113.38" fill="#FCF1E0"/>
<path d="M113.38 226.76C175.998 226.76 226.76 175.998 226.76 113.38C226.76 50.762 175.998 0 113.38 0C50.762 0 0 50.762 0 113.38C0 175.998 50.762 226.76 113.38 226.76Z" fill="#001C72"/>
<path d="M100.791 53.6357L99.2012 48.7362L97.6113 53.6357H92.4518L96.6214 56.6655L95.0315 61.575L99.2012 58.5453L103.371 61.575L101.781 56.6655L105.951 53.6357H100.791Z" fill="#FCF1E0"/>
<path d="M100.791 70.5341L99.2012 65.6346L97.6113 70.5341H92.4518L96.6214 73.5639L95.0315 78.4634L99.2012 75.4337L103.371 78.4634L101.781 73.5639L105.951 70.5341H100.791Z" fill="#FCF1E0"/>
<path d="M80.8426 70.5341L79.2527 65.6346L77.6629 70.5341H72.5033L76.6729 73.5639L75.0831 78.4634L79.2527 75.4337L83.4224 78.4634L81.8325 73.5639L86.0021 70.5341H80.8426Z" fill="#FCF1E0"/>
<path d="M113.3 77.5838H157.886C156.556 73.9641 154.796 70.5544 152.676 67.4147H113.29V77.5838H113.3Z" fill="#FCF1E0"/>
<path d="M113.3 46.4263V56.2055H142.127C134.128 50.076 124.139 46.4263 113.3 46.4263V46.4263Z" fill="#FCF1E0"/>
<path d="M142.227 131.539H84.3724C92.3917 137.718 102.421 141.398 113.3 141.398C124.179 141.398 134.208 137.718 142.227 131.539Z" fill="#FCF1E0"/>
<path d="M68.6838 110.161C70.0037 113.781 71.7536 117.19 73.8734 120.33H152.736C154.846 117.18 156.596 113.771 157.926 110.161H68.6838Z" fill="#FCF1E0"/>
<path d="M66.0839 98.9615H160.516C160.696 97.3017 160.786 95.6218 160.786 93.912C160.786 92.2021 160.686 90.4723 160.506 88.7824H66.0939C65.9139 90.4623 65.814 92.1721 65.814 93.912C65.814 95.6518 65.9039 97.3017 66.0839 98.9615Z" fill="#FCF1E0"/>
<path d="M29.1173 117.27L29.0673 120.149L15.0685 119.929L15.1185 116.68L23.6878 112.64L15.2485 108.311L15.2985 105.061L29.2973 105.281L29.2473 108.161L20.5181 108.021L29.5972 112.74L20.3681 117.15L29.0973 117.29L29.1173 117.27Z" fill="#FCF1E0"/>
<path d="M27.9073 99.0316L30.1171 100.332L29.5172 103.321L16.7183 95.8419L17.4182 92.3222L32.0969 90.3624L31.477 93.4521L28.9572 93.7621L27.9073 99.0316V99.0316ZM20.438 94.802L25.7375 97.8517L26.4974 94.0421L20.438 94.802V94.802Z" fill="#FCF1E0"/>
<path d="M33.757 85.7726L32.7171 88.4523L19.6482 83.4128L20.6681 80.763L30.9272 78.4432L22.7779 75.3035L23.8178 72.6237L36.8867 77.6633L35.8768 80.283L25.4977 82.5828L33.767 85.7726H33.757Z" fill="#FCF1E0"/>
<path d="M34.8168 69.3739C35.9367 70.0439 36.6366 70.2638 37.3366 70.1539C38.0065 70.0639 38.6764 69.5839 39.0764 68.924C39.4964 68.224 39.5864 67.3441 39.2964 66.6842C39.0264 66.0342 38.5664 65.6142 37.4565 64.9443L30.4372 60.7347L31.927 58.2549L38.8764 62.4245C40.6363 63.4844 41.6362 64.5943 42.0561 65.9442C42.4761 67.2941 42.2161 68.854 41.3762 70.2638C40.4963 71.7237 39.1664 72.7336 37.6965 73.0036C36.3666 73.2636 35.1068 72.9136 33.2469 71.8037L26.2975 67.6341L27.7774 65.1643L34.8168 69.3839V69.3739Z" fill="#FCF1E0"/>
<path d="M41.4661 55.355L44.5758 51.5553L46.3956 53.0452L43.2859 56.8449L47.8155 60.5546L45.9957 62.7844L35.1566 53.9151L40.0862 47.8857L41.906 49.3755L38.7963 53.1752L41.4661 55.355V55.355Z" fill="#FCF1E0"/>
<path d="M52.6053 51.6155L53.6253 53.9553L51.3955 56.0251L45.436 42.4663L48.0757 40.0265L61.0946 47.0559L58.7848 49.1957L56.565 47.9658L52.6153 51.6155H52.6053ZM49.0457 43.8162L51.5454 49.3957L54.3952 46.7559L49.0457 43.8162Z" fill="#FCF1E0"/>
<path d="M71.0236 38.2066C70.5137 40.3564 69.5937 41.7063 67.8639 42.8562C66.134 44.0061 64.3242 44.356 62.5244 43.8861C60.7945 43.4461 59.1747 42.2562 58.1047 40.6463C55.745 37.0967 56.4749 32.957 59.8546 30.7172C61.6544 29.5173 63.2143 29.2174 65.4941 29.6473L64.9841 32.2571C63.4743 32.0271 62.4344 32.2171 61.4544 32.867C59.4046 34.2269 59.0247 36.7467 60.5045 38.9865C61.9844 41.2263 64.5742 41.8562 66.674 40.4564C67.7439 39.7464 68.3238 38.8365 68.4938 37.5366L71.0336 38.2166L71.0236 38.2066Z" fill="#FCF1E0"/>
<path d="M79.2027 36.3971L76.593 37.607L71.6734 27.0379L68.6437 28.4478L67.6537 26.318L76.303 22.2883L77.2929 24.4182L74.2832 25.818L79.2027 36.3871V36.3971Z" fill="#FCF1E0"/>
<path d="M85.2622 27.8274C85.6322 29.0773 85.9921 29.7073 86.5921 30.1072C87.142 30.4872 87.962 30.5972 88.7119 30.3772C89.5018 30.1472 90.1518 29.5573 90.3917 28.8774C90.6317 28.2174 90.5817 27.5975 90.2118 26.3476L87.882 18.4983L90.6617 17.6783L92.9615 25.4477C93.5415 27.4175 93.5315 28.9174 92.9215 30.1872C92.3116 31.4571 91.0717 32.447 89.5018 32.907C87.872 33.387 86.2021 33.227 84.9422 32.437C83.7923 31.7271 83.0924 30.6172 82.4724 28.5474L80.1726 20.7781L82.9324 19.9581L85.2622 27.8274Z" fill="#FCF1E0"/>
<path d="M100.711 30.1074L97.861 30.4774L96.0711 16.5886L100.361 16.0386C103.8 15.5987 105.85 16.8786 106.21 19.7283C106.49 21.9181 105.53 23.518 103.46 24.3379L107.98 29.1775L104.52 29.6274L100.001 24.5979L100.711 30.1174V30.1074ZM101.071 22.7581C102.691 22.5481 103.51 21.6382 103.33 20.2483C103.161 18.9184 102.181 18.1985 100.761 18.3784L99.2209 18.5784L99.7808 22.928L101.071 22.7581V22.7581Z" fill="#FCF1E0"/>
<path d="M113.47 20.9583L118.38 21.0383L118.34 23.3881L113.43 23.3081L113.37 26.8178L118.28 26.8978L118.24 29.2476L110.45 29.1276L110.67 15.1288L118.46 15.2488L118.42 17.5986L113.51 17.5186L113.46 20.9583H113.47Z" fill="#FCF1E0"/>
<path d="M123.569 15.5487L127.488 16.1686C129.728 16.5186 131.168 17.2185 132.228 18.4884C133.438 19.9583 133.928 21.8781 133.588 24.0579C133.238 26.2777 132.138 28.1476 130.528 29.1875C129.228 30.0474 127.478 30.3474 125.489 30.0274L121.399 29.3875L123.579 15.5487H123.569ZM124.599 27.4876L125.139 27.5676C126.649 27.8076 127.628 27.6876 128.548 27.1277C129.678 26.4377 130.448 25.2178 130.688 23.678C131.118 20.9182 129.718 18.8684 127.088 18.4584L126.049 18.2984L124.599 27.4876V27.4876Z" fill="#FCF1E0"/>
<path d="M145.097 35.3469L142.417 34.307L147.467 21.2381L150.146 22.278L145.097 35.3469Z" fill="#FCF1E0"/>
<path d="M151.077 38.017L148.547 36.6371L155.256 24.3482L157.746 25.7081L158.706 36.1772L162.886 28.5078L165.405 29.8877L158.696 42.1766L156.226 40.8268L155.306 30.2377L151.067 38.017H151.077Z" fill="#FCF1E0"/>
<path d="M171.005 51.9756L168.875 50.0458L176.704 41.4165L174.234 39.1767L175.814 37.4369L182.874 43.8463L181.294 45.5862L178.834 43.3564L171.005 51.9856V51.9756Z" fill="#FCF1E0"/>
<path d="M176.864 58.0148L175.045 55.785L185.884 46.9058L187.704 49.1356L183.124 52.8852L186.494 56.9949L191.073 53.2452L192.893 55.475L182.054 64.3542L180.234 62.1244L184.674 58.4948L181.304 54.3851L176.864 58.0148Z" fill="#FCF1E0"/>
<path d="M192.273 65.2343L194.793 69.454L192.773 70.6638L190.253 66.4442L187.244 68.2441L189.763 72.4637L187.744 73.6736L183.754 66.9842L195.783 59.8148L199.772 66.5042L197.753 67.7141L195.233 63.4945L192.273 65.2543V65.2343Z" fill="#FCF1E0"/>
<path d="M198.472 83.9128C197.232 84.3028 196.602 84.6727 196.212 85.2827C195.832 85.8426 195.742 86.6626 195.972 87.4025C196.222 88.1824 196.812 88.8324 197.502 89.0524C198.172 89.2823 198.792 89.2223 200.032 88.8324L207.841 86.3826L208.711 89.1424L200.982 91.5721C199.022 92.1921 197.522 92.1921 196.242 91.6121C194.963 91.0222 193.953 89.8023 193.463 88.2324C192.953 86.6126 193.093 84.9427 193.853 83.6628C194.543 82.5029 195.642 81.783 197.702 81.1331L205.432 78.7033L206.292 81.443L198.462 83.9028L198.472 83.9128Z" fill="#FCF1E0"/>
<path d="M200.392 98.1916L200.202 98.2216C199.272 98.3615 198.702 99.2715 198.862 100.351C199.022 101.391 199.782 102.081 200.612 101.961C201.052 101.891 201.412 101.631 201.632 101.231C201.852 100.831 201.912 100.571 202.152 99.4315C202.772 96.2417 203.762 94.9918 205.872 94.6719C208.381 94.2919 210.341 95.8918 210.751 98.6115C211.151 101.311 209.841 103.291 207.212 103.921L206.782 101.051C207.931 100.771 208.401 100.111 208.231 98.9915C208.081 97.9716 207.391 97.3716 206.522 97.5016C205.962 97.5816 205.572 97.9416 205.342 98.5515C205.192 98.9515 205.122 99.2015 204.902 100.271C204.572 101.871 204.292 102.701 203.802 103.391C203.222 104.221 202.342 104.731 201.292 104.891C198.762 105.271 196.792 103.611 196.362 100.751C195.922 97.8416 197.322 95.8118 199.982 95.4318L200.392 98.1916Z" fill="#FCF1E0"/>
<path d="M200.032 110.59L197.632 109.71L197.682 106.67L211.611 111.72L211.551 115.31L197.472 119.869L197.522 116.72L199.952 115.96L200.042 110.58L200.032 110.59ZM208.131 113.41L202.372 111.37L202.312 115.25L208.141 113.41H208.131Z" fill="#FCF1E0"/>
<path d="M37.9871 158.307H41.7367V160.097H37.9871V164.566H35.7973V153.887H41.7367V155.677H37.9871V158.297V158.307Z" fill="#FCF1E0"/>
<path d="M45.4664 164.566H43.2766V153.887H46.5763C49.216 153.887 50.6459 155.057 50.6459 157.247C50.6459 158.927 49.766 160.047 48.1161 160.467L51.0659 164.566H48.4061L45.4764 160.327V164.566H45.4664ZM46.4563 159.047C47.7062 159.047 48.4061 158.437 48.4061 157.367C48.4061 156.297 47.7362 155.707 46.6463 155.707H45.4664V159.047H46.4563V159.047Z" fill="#FCF1E0"/>
<path d="M61.5548 155.467C62.4647 156.487 62.9147 157.727 62.9147 159.277C62.9147 162.317 60.4849 164.766 57.4552 164.766C54.4254 164.766 51.8857 162.347 51.8857 159.277C51.8857 156.207 54.3155 153.677 57.4852 153.677C59.055 153.677 60.4949 154.317 61.5548 155.467ZM54.1255 159.247C54.1255 161.227 55.5453 162.757 57.4052 162.757C59.265 162.757 60.6849 161.237 60.6849 159.297C60.6849 157.237 59.305 155.717 57.4252 155.717C55.5453 155.717 54.1255 157.217 54.1255 159.257V159.247Z" fill="#FCF1E0"/>
<path d="M66.8346 164.566H64.6448V153.887H67.1246L70.3143 160.367L73.514 153.887H75.9938V164.566H73.804V157.907L70.3143 164.886L66.8446 157.907V164.566H66.8346Z" fill="#FCF1E0"/>
<path d="M83.003 153.887H86.0328C87.7626 153.887 88.9325 154.237 89.8724 155.077C90.9623 156.037 91.5523 157.427 91.5523 159.107C91.5523 160.787 90.9423 162.357 89.8524 163.336C88.9725 164.136 87.6926 164.566 86.1528 164.566H83.003V153.887V153.887ZM85.1928 162.757H85.6128C86.7827 162.757 87.5026 162.547 88.1226 162.017C88.8925 161.357 89.3225 160.347 89.3225 159.167C89.3225 157.037 88.0226 155.657 85.9928 155.657H85.1928V162.747V162.757Z" fill="#FCF1E0"/>
<path d="M102.401 155.467C103.311 156.487 103.761 157.727 103.761 159.277C103.761 162.317 101.331 164.766 98.3017 164.766C95.272 164.766 92.7322 162.347 92.7322 159.277C92.7322 156.207 95.162 153.677 98.3317 153.677C99.9015 153.677 101.341 154.317 102.401 155.467ZM94.972 159.247C94.972 161.227 96.3919 162.757 98.2517 162.757C100.112 162.757 101.531 161.237 101.531 159.297C101.531 157.237 100.152 155.717 98.2717 155.717C96.3919 155.717 94.972 157.217 94.972 159.257V159.247Z" fill="#FCF1E0"/>
<path d="M107.681 164.566H105.491V153.887H107.971L111.161 160.367L114.361 153.887H116.84V164.566H114.65V157.907L111.161 164.886L107.691 157.907V164.566H107.681Z" fill="#FCF1E0"/>
<path d="M120.88 158.307H124.629V160.097H120.88V162.767H124.629V164.557H118.69V153.878H124.629V155.667H120.88V158.287V158.307Z" fill="#FCF1E0"/>
<path d="M128.129 161.447V161.587C128.129 162.307 128.749 162.837 129.589 162.837C130.429 162.837 130.999 162.337 130.999 161.697C130.999 161.357 130.839 161.057 130.569 160.847C130.299 160.637 130.109 160.557 129.269 160.257C126.929 159.427 126.099 158.547 126.099 156.907C126.099 154.967 127.519 153.677 129.619 153.677C131.719 153.677 133.049 154.897 133.219 156.947H131.009C130.929 156.047 130.479 155.617 129.619 155.617C128.839 155.617 128.309 156.067 128.309 156.737C128.309 157.167 128.529 157.507 128.969 157.747C129.259 157.907 129.429 157.987 130.219 158.277C131.389 158.707 131.979 159.017 132.439 159.457C132.999 159.987 133.289 160.707 133.289 161.527C133.289 163.477 131.819 164.776 129.609 164.776C127.399 164.776 125.989 163.497 126.009 161.447H128.139H128.129Z" fill="#FCF1E0"/>
<path d="M138.718 164.567H136.529V155.687H133.989V153.898H141.258V155.687H138.728V164.567H138.718Z" fill="#FCF1E0"/>
<path d="M144.618 164.566H142.428V153.887H144.618V164.566Z" fill="#FCF1E0"/>
<path d="M155.547 163.156C154.317 164.306 153.167 164.776 151.577 164.776C149.987 164.776 148.697 164.236 147.747 163.176C146.837 162.166 146.308 160.726 146.308 159.257C146.308 156.007 148.517 153.687 151.607 153.687C153.257 153.687 154.377 154.147 155.637 155.387L154.217 156.827C153.357 156.047 152.617 155.727 151.717 155.727C149.847 155.727 148.537 157.167 148.537 159.217C148.537 161.266 149.917 162.756 151.837 162.756C152.817 162.756 153.567 162.416 154.217 161.666L155.547 163.176V163.156Z" fill="#FCF1E0"/>
<path d="M163.676 162.717L163.036 164.557H160.716L164.396 153.878H167.136L170.786 164.557H168.386L167.776 162.717H163.676V162.717ZM165.726 156.507L164.236 160.927H167.196L165.726 156.507Z" fill="#FCF1E0"/>
<path d="M174.105 164.566H171.915V153.887H174.075L178.545 160.547V153.887H180.734V164.566H178.585L174.105 157.807V164.566Z" fill="#FCF1E0"/>
<path d="M182.954 153.887H185.984C187.714 153.887 188.884 154.237 189.824 155.077C190.913 156.037 191.503 157.427 191.503 159.107C191.503 160.787 190.893 162.357 189.804 163.336C188.924 164.136 187.644 164.566 186.104 164.566H182.954V153.887V153.887ZM185.144 162.757H185.564C186.734 162.757 187.454 162.547 188.074 162.017C188.844 161.357 189.274 160.347 189.274 159.167C189.274 157.037 187.974 155.657 185.944 155.657H185.144V162.747V162.757Z" fill="#FCF1E0"/>
<path d="M52.516 177.575V178.155C52.516 179.805 52.036 181.035 50.9661 182.125C49.8962 183.194 48.5364 183.774 47.0265 183.774C43.8868 183.774 41.537 181.405 41.537 178.255C41.537 175.105 43.8768 172.685 47.0065 172.685C48.7363 172.685 50.2862 173.425 51.3261 174.735L49.6763 176.035C48.8963 175.105 48.1064 174.705 47.0565 174.705C45.1867 174.705 43.7568 176.245 43.7568 178.255C43.7568 180.265 45.2266 181.795 47.0965 181.795C48.0064 181.795 48.9263 181.395 49.4863 180.725C49.8062 180.355 49.9662 180.015 50.1462 179.385H47.1665V177.595H52.516V177.575Z" fill="#FCF1E0"/>
<path d="M59.855 181.755V183.565H54.0955V172.886H56.2853V181.755H59.855Z" fill="#FCF1E0"/>
<path d="M69.9842 174.466C70.8942 175.485 71.3441 176.725 71.3441 178.275C71.3441 181.315 68.9143 183.765 65.8846 183.765C62.8549 183.765 60.3151 181.345 60.3151 178.275C60.3151 175.205 62.7449 172.676 65.9146 172.676C67.4845 172.676 68.9243 173.316 69.9842 174.466ZM62.5549 178.245C62.5549 180.225 63.9748 181.755 65.8346 181.755C67.6944 181.755 69.1143 180.235 69.1143 178.295C69.1143 176.235 67.7344 174.716 65.8546 174.716C63.9748 174.716 62.5549 176.215 62.5549 178.255V178.245Z" fill="#FCF1E0"/>
<path d="M76.5034 172.886C77.8133 172.886 78.6632 173.076 79.2232 173.496C79.8831 173.996 80.2431 174.805 80.2431 175.755C80.2431 176.495 80.0231 177.105 79.5732 177.585C79.2732 177.885 79.0332 178.035 78.4533 178.225C79.0932 178.365 79.3832 178.495 79.7131 178.805C80.2131 179.255 80.4831 179.905 80.4831 180.725C80.4831 181.715 80.0631 182.595 79.3832 183.065C78.8232 183.435 78.1633 183.575 76.9934 183.575H73.0537V172.896H76.4934L76.5034 172.886ZM75.2535 177.415H76.1335C77.4334 177.415 78.0433 176.955 78.0433 175.955C78.0433 175.415 77.7833 174.945 77.4034 174.755C77.1034 174.615 76.6534 174.545 76.0235 174.545H75.2535V177.415ZM75.2535 181.945H76.3234C77.0734 181.945 77.4234 181.885 77.7433 181.655C78.0933 181.415 78.2733 181.035 78.2733 180.515C78.2733 179.935 78.0633 179.535 77.6633 179.295C77.3234 179.105 76.9934 179.035 76.1935 179.035H75.2535V181.935V181.945Z" fill="#FCF1E0"/>
<path d="M84.0128 181.715L83.3728 183.555H81.053L84.7327 172.876H87.4725L91.1221 183.555H88.7223L88.1124 181.715H84.0128V181.715ZM86.0626 175.506L84.5727 179.925H87.5324L86.0626 175.506Z" fill="#FCF1E0"/>
<path d="M98.0117 181.755V183.565H92.2522V172.886H94.442V181.755H98.0117V181.755Z" fill="#FCF1E0"/>
<path d="M105.221 181.755V183.565H99.4615V172.886H101.651V181.755H105.221V181.755Z" fill="#FCF1E0"/>
<path d="M109.881 183.565H107.691V178.855L104.121 172.886H106.731L108.801 176.585L110.831 172.886H113.39L109.881 178.855V183.565Z" fill="#FCF1E0"/>
<path d="M120.63 180.445V180.585C120.63 181.305 121.25 181.835 122.09 181.835C122.929 181.835 123.499 181.335 123.499 180.695C123.499 180.355 123.339 180.055 123.069 179.845C122.8 179.635 122.61 179.555 121.77 179.255C119.43 178.425 118.6 177.545 118.6 175.905C118.6 173.966 120.02 172.676 122.12 172.676C124.219 172.676 125.549 173.896 125.719 175.945H123.509C123.429 175.046 122.979 174.616 122.12 174.616C121.34 174.616 120.81 175.066 120.81 175.735C120.81 176.165 121.03 176.505 121.47 176.745C121.76 176.905 121.93 176.985 122.72 177.275C123.889 177.705 124.479 178.015 124.939 178.455C125.499 178.985 125.789 179.705 125.789 180.525C125.789 182.475 124.319 183.775 122.11 183.775C119.9 183.775 118.49 182.495 118.51 180.445H120.64H120.63Z" fill="#FCF1E0"/>
<path d="M136.619 174.466C137.528 175.485 137.978 176.725 137.978 178.275C137.978 181.315 135.549 183.765 132.519 183.765C129.489 183.765 126.949 181.345 126.949 178.275C126.949 175.205 129.379 172.676 132.549 172.676C134.119 172.676 135.559 173.316 136.619 174.466ZM129.189 178.245C129.189 180.225 130.609 181.755 132.469 181.755C134.329 181.755 135.749 180.235 135.749 178.295C135.749 176.235 134.369 174.716 132.489 174.716C130.609 174.716 129.189 176.215 129.189 178.255V178.245Z" fill="#FCF1E0"/>
<path d="M141.718 179.145C141.718 180.135 141.848 180.685 142.198 181.095C142.518 181.495 143.098 181.755 143.688 181.755C144.308 181.755 144.918 181.465 145.238 181.015C145.558 180.585 145.658 180.115 145.658 179.125V172.886H147.868V179.065C147.868 180.635 147.528 181.725 146.808 182.525C146.088 183.325 144.968 183.775 143.718 183.775C142.468 183.775 141.238 183.295 140.488 182.445C139.798 181.675 139.528 180.715 139.528 179.065V172.886H141.718V179.145V179.145Z" fill="#FCF1E0"/>
<path d="M152.117 183.565H149.927V172.886H153.227C155.867 172.886 157.297 174.056 157.297 176.245C157.297 177.925 156.417 179.045 154.767 179.465L157.717 183.565H155.057L152.127 179.325V183.565H152.117ZM153.107 178.045C154.357 178.045 155.057 177.435 155.057 176.365C155.057 175.295 154.387 174.705 153.297 174.705H152.117V178.045H153.107Z" fill="#FCF1E0"/>
<path d="M167.825 182.155C166.596 183.304 165.446 183.774 163.856 183.774C162.266 183.774 160.976 183.234 160.026 182.175C159.116 181.165 158.586 179.725 158.586 178.255C158.586 175.005 160.796 172.685 163.886 172.685C165.536 172.685 166.656 173.145 167.915 174.385L166.496 175.825C165.636 175.045 164.896 174.725 163.996 174.725C162.126 174.725 160.816 176.165 160.816 178.215C160.816 180.265 162.196 181.755 164.116 181.755C165.096 181.755 165.846 181.415 166.496 180.665L167.825 182.175V182.155Z" fill="#FCF1E0"/>
<path d="M171.105 177.305H174.855V179.095H171.105V181.765H174.855V183.555H168.915V172.876H174.855V174.666H171.105V177.285V177.305Z" fill="#FCF1E0"/>
<path d="M176.685 172.886H179.714C181.444 172.886 182.614 173.236 183.554 174.076C184.644 175.035 185.234 176.425 185.234 178.105C185.234 179.785 184.624 181.355 183.534 182.335C182.654 183.135 181.374 183.565 179.834 183.565H176.685V172.886V172.886ZM178.875 181.755H179.295C180.464 181.755 181.184 181.545 181.804 181.015C182.574 180.355 183.004 179.345 183.004 178.165C183.004 176.035 181.704 174.655 179.674 174.655H178.875V181.745V181.755Z" fill="#FCF1E0"/>
<path d="M69.9545 202.563H67.7646V191.884H69.9545V202.563Z" fill="#FCF1E0"/>
<path d="M74.374 202.563H72.1842V191.884H74.344L78.8136 198.543V191.884H81.0034V202.563H78.8536L74.374 195.804V202.563V202.563Z" fill="#FCF1E0"/>
<path d="M93.7624 196.573V197.153C93.7624 198.803 93.2824 200.033 92.2125 201.123C91.1426 202.193 89.7827 202.773 88.2729 202.773C85.1332 202.773 82.7834 200.403 82.7834 197.253C82.7834 194.104 85.1232 191.684 88.2529 191.684C89.9827 191.684 91.5326 192.424 92.5725 193.734L90.9226 195.033C90.1427 194.104 89.3528 193.704 88.3029 193.704C86.433 193.704 85.0032 195.243 85.0032 197.253C85.0032 199.263 86.473 200.793 88.3429 200.793C89.2528 200.793 90.1727 200.393 90.7327 199.723C91.0526 199.353 91.2126 199.013 91.3926 198.383H88.4129V196.593H93.7624V196.573Z" fill="#FCF1E0"/>
<path d="M97.5316 202.563H95.3418V191.884H98.6415C101.281 191.884 102.711 193.054 102.711 195.244C102.711 196.924 101.831 198.043 100.181 198.463L103.131 202.563H100.471L97.5416 198.323V202.563H97.5316ZM98.5215 197.043C99.7714 197.043 100.471 196.434 100.471 195.364C100.471 194.294 99.8014 193.704 98.7115 193.704H97.5316V197.043H98.5215V197.043Z" fill="#FCF1E0"/>
<path d="M106.691 196.304H110.441V198.094H106.691V200.763H110.441V202.553H104.501V191.874H110.441V193.664H106.691V196.284V196.304Z" fill="#FCF1E0"/>
<path d="M112.27 191.884H115.3C117.03 191.884 118.2 192.234 119.14 193.074C120.23 194.034 120.82 195.424 120.82 197.103C120.82 198.783 120.21 200.353 119.12 201.333C118.24 202.133 116.96 202.563 115.42 202.563H112.27V191.884V191.884ZM114.46 200.753H114.88C116.05 200.753 116.77 200.543 117.39 200.013C118.16 199.353 118.59 198.343 118.59 197.163C118.59 195.034 117.29 193.654 115.26 193.654H114.46V200.743V200.753Z" fill="#FCF1E0"/>
<path d="M124.72 202.563H122.53V191.884H124.72V202.563Z" fill="#FCF1E0"/>
<path d="M128.769 196.304H132.519V198.094H128.769V200.763H132.519V202.553H126.579V191.874H132.519V193.664H128.769V196.284V196.304Z" fill="#FCF1E0"/>
<path d="M136.538 202.563H134.349V191.884H136.508L140.978 198.543V191.884H143.168V202.563H141.018L136.538 195.804V202.563Z" fill="#FCF1E0"/>
<path d="M149.047 202.563H146.857V193.684H144.317V191.894H151.587V193.684H149.057V202.563H149.047Z" fill="#FCF1E0"/>
<path d="M154.407 199.443V199.583C154.407 200.303 155.027 200.833 155.867 200.833C156.707 200.833 157.277 200.333 157.277 199.693C157.277 199.353 157.117 199.053 156.847 198.843C156.577 198.633 156.387 198.553 155.547 198.253C153.207 197.424 152.377 196.544 152.377 194.904C152.377 192.964 153.797 191.674 155.897 191.674C157.997 191.674 159.327 192.894 159.497 194.944H157.287C157.207 194.044 156.757 193.614 155.897 193.614C155.117 193.614 154.587 194.064 154.587 194.734C154.587 195.164 154.807 195.504 155.247 195.744C155.537 195.904 155.707 195.984 156.497 196.274C157.667 196.704 158.257 197.014 158.717 197.454C159.277 197.983 159.567 198.703 159.567 199.523C159.567 201.473 158.097 202.773 155.887 202.773C153.677 202.773 152.267 201.493 152.287 199.443H154.417H154.407Z" fill="#FCF1E0"/>
</g>
<defs>
<clipPath id="clip0_59_288">
<rect width="226.77" height="226.77" fill="white"/>
</clipPath>
</defs>
</svg>
