<svg xmlns="http://www.w3.org/2000/svg" width="150" height="150" viewBox="0 0 150 150"><defs><style>.a{fill:#001c72;}.b{fill:none;}.c{fill:#fcf1e0;}</style></defs><g transform="translate(-2454.061 1148.326)"><g transform="translate(2454.061 -1148.326)"><circle class="a" cx="75" cy="75" r="75"/></g><g transform="translate(2470.648 -1131.739)"><circle class="b" cx="58.412" cy="58.412" r="58.412" transform="translate(0)"/></g><g transform="translate(2501.512 -1141.5)"><path class="c" d="M2533.032-1118.857l-2.542.964-4.692-12.373,3.951-1.5c2.932-1.112,5.124-.31,6.08,2.213.978,2.579-.105,4.815-2.832,5.849l-1.577.6Zm-1.312-6.759c1.466-.556,2.052-1.585,1.581-2.828a2.122,2.122,0,0,0-3.016-1.126l-1.15.436,1.491,3.933Z" transform="translate(-2525.798 1136.059)"/><path class="c" d="M2557.669-1136.093a6.749,6.749,0,0,1,2.23,4.491,6.77,6.77,0,0,1-5.919,7.553,6.788,6.788,0,0,1-7.656-5.947,6.828,6.828,0,0,1,6.079-7.712A6.761,6.761,0,0,1,2557.669-1136.093Zm-8.591,5.732a4.141,4.141,0,0,0,4.549,3.836,4.137,4.137,0,0,0,3.536-4.733,4.131,4.131,0,0,0-4.542-3.938A4.132,4.132,0,0,0,2549.078-1130.362Z" transform="translate(-2532.729 1137.922)"/><path class="c" d="M2573.987-1124.534l-2.7-.346,1.683-13.127,4.055.52c3.247.416,4.815,2.078,4.469,4.774a3.815,3.815,0,0,1-3.618,3.557l2.976,5.5-3.267-.419-2.934-5.677Zm2.091-6.634c1.535.2,2.5-.44,2.666-1.759a1.972,1.972,0,0,0-1.9-2.324l-1.456-.187-.527,4.113Z" transform="translate(-2541.199 1138.007)"/><path class="c" d="M2591.429-1120.845l-2.559-.917,4.463-12.461,2.56.916-1.941,5.418,5.472-4.153,2.97,1.064-6.183,4.552,1.72,7.91-3.009-1.077-1.505-6.8Z" transform="translate(-2547.151 1136.726)"/></g><g transform="translate(2480.615 -1035.831)"><path class="c" d="M2501.435-972.373l3.437,3.122-1.495,1.645-3.437-3.123-3.722,4.1-2.012-1.828,8.9-9.8,5.448,4.95-1.495,1.645-3.436-3.122Z" transform="translate(-2494.206 978.255)"/><path class="c" d="M2515.36-955.579l-1.2,1.893-6.032-3.827,7.089-11.175,2.3,1.456-5.887,9.282Z" transform="translate(-2498.919 975.016)"/><path class="c" d="M2526.667-949.434l-1.541,1.86-2.7-1.005,8.9-10.8,3.18,1.185-.386,13.981-2.789-1.041.091-2.4Zm5.07-6.326-3.643,4.486,3.44,1.283Z" transform="translate(-2503.761 971.866)"/><path class="c" d="M2554.942-954.193l2.768.411-6.068,12.482-2.866-.426-2.02-13.683,2.769.411,1.346,9.169Z" transform="translate(-2511.996 970.521)"/><path class="c" d="M2576.543-952.165a6.755,6.755,0,0,1,2.073,4.566,6.77,6.77,0,0,1-6.178,7.343,6.789,6.789,0,0,1-7.445-6.21,6.828,6.828,0,0,1,6.345-7.5A6.76,6.76,0,0,1,2576.543-952.165Zm-8.786,5.429a4.141,4.141,0,0,0,4.414,3.993,4.138,4.138,0,0,0,3.7-4.608,4.131,4.131,0,0,0-4.4-4.093A4.132,4.132,0,0,0,2567.757-946.736Z" transform="translate(-2518.161 970.039)"/><path class="c" d="M2594.711-944.733l-2.576.87-4.235-12.542,3.874-1.308c3.1-1.048,5.239-.24,6.11,2.336a3.815,3.815,0,0,1-1.7,4.782l5.085,3.645-3.121,1.054-5.124-3.821Zm-1.025-6.88c1.467-.5,2.053-1.489,1.627-2.749a1.973,1.973,0,0,0-2.729-1.257l-1.392.47,1.327,3.93Z" transform="translate(-2525.925 971.452)"/><path class="c" d="M2609.476-960.147l4.02-2.324,1.112,1.924-4.02,2.324,1.658,2.869,4.02-2.324,1.112,1.924-6.373,3.684-6.625-11.458,6.373-3.685,1.112,1.924-4.02,2.324Z" transform="translate(-2531.505 974.517)"/><path class="c" d="M2617.262-971.644l2.8-2.489a6.688,6.688,0,0,1,4.536-2.063,6.44,6.44,0,0,1,4.877,2.355,6.957,6.957,0,0,1,1.9,5.313,6.681,6.681,0,0,1-2.413,4.184l-2.923,2.595Zm9.33,6.416.386-.343a4.4,4.4,0,0,0,1.723-2.75,4.529,4.529,0,0,0-1.231-3.629c-1.752-1.973-4.086-2.182-5.971-.51l-.742.659Z" transform="translate(-2535.866 977.558)"/></g><g transform="translate(2494.604 -1112.96)"><g transform="translate(39.737 0)"><path class="c" d="M2599.662-1083.666c-6.954-6.954-14.607-11.194-19.434-11.193a4.837,4.837,0,0,0-3.549,1.249c-3.6,3.6.851,13.89,9.944,22.983,6.954,6.954,14.608,11.193,19.434,11.193a4.843,4.843,0,0,0,3.549-1.248C2613.207-1064.282,2608.755-1074.573,2599.662-1083.666Zm-2.628,10.411c-.851.851-3.283-.2-5.432-2.351s-3.2-4.581-2.351-5.433,3.283.2,5.433,2.351S2597.885-1074.106,2597.034-1073.255Z" transform="translate(-2575.43 1094.859)"/></g><g transform="translate(0 3.741)"><path class="c" d="M2585.719-1053.113c-3.167,0-7.005-1.233-11.1-3.567a55.424,55.424,0,0,1-11.448-8.917,50.693,50.693,0,0,1-10.661-14.918,20.115,20.115,0,0,1-1.816-7.205,12.177,12.177,0,0,1,.04-1.484l-5.1,5.1a27.96,27.96,0,0,0-8.313,18.793,25.13,25.13,0,0,0,2.608,12.222l-8.658,8.658a9.477,9.477,0,0,0-13.15.228,9.476,9.476,0,0,0,0,13.386,9.446,9.446,0,0,0,7.535,2.73q-.037.42-.037.847a9.4,9.4,0,0,0,2.773,6.693,9.4,9.4,0,0,0,6.693,2.772,9.4,9.4,0,0,0,6.693-2.772,9.4,9.4,0,0,0,2.772-6.693,9.4,9.4,0,0,0-2.544-6.458l8.666-8.666a25.2,25.2,0,0,0,11.281,2.619,27.986,27.986,0,0,0,19.727-8.316l5.1-5.1C2586.44-1053.131,2586.089-1053.113,2585.719-1053.113Z" transform="translate(-2515.355 1089.204)"/></g></g></g></svg>