
<svg version="1.1" id="Layer_1" xmlns="http://www.w3.org/2000/svg" xmlns:xlink="http://www.w3.org/1999/xlink" x="0px" y="0px"
	 viewBox="0 0 107 251" style="enable-background:new 0 0 107 251;" xml:space="preserve">
<style type="text/css">
	.st0{enable-background:new;}
	.st1{fill:#001C72;}
</style>
<g class="st0">
	<path class="st1" d="M40,45.2c0,3.8,2.3,12,5.3,16.6c-2.8,2.5-13.8,8-20.1,7.3c-3.5-3.8-7.3-10.8-7.3-15.3
		c0-18.3,13.3-36.6,29.9-53.2L53,4.8C43.5,17.6,40,31.1,40,45.2z M80.6,45.2c0,3.8,2,12,5,16.6c-2.8,2.5-13.8,8-20.1,7.3
		c-3.5-3.8-7.3-10.8-7.3-15.3c0-18.3,13.3-36.6,30.1-53.2l5,4.3C83.9,17.6,80.6,31.1,80.6,45.2z"/>
</g>
</svg>
