<svg width="115" height="20" viewBox="0 0 115 20" fill="none" xmlns="http://www.w3.org/2000/svg">
<path fill-rule="evenodd" clip-rule="evenodd" d="M104.695 0L102.225 7.4088H94.3906L100.778 12.0074L98.3079 19.331L104.695 14.8176L110.997 19.331L108.612 12.0074L114.999 7.4088H107.079L104.695 0Z" fill="#FFDC0F"/>
<path fill-rule="evenodd" clip-rule="evenodd" d="M81.0981 0L78.6285 7.4088H70.7939L77.1808 12.0074L74.7112 19.331L81.0981 14.8176L87.3999 19.331L85.0154 12.0074L91.4023 7.4088H83.4826L81.0981 0Z" fill="#FFDC0F"/>
<path fill-rule="evenodd" clip-rule="evenodd" d="M57.5005 0L55.0309 7.4088H47.1963L53.5832 12.0074L51.1136 19.331L57.5005 14.8176L63.8022 19.331L61.4178 12.0074L67.8047 7.4088H59.8849L57.5005 0Z" fill="#FFDC0F"/>
<path fill-rule="evenodd" clip-rule="evenodd" d="M33.9018 0L31.4323 7.4088H23.5977L29.9846 12.0074L27.515 19.331L33.9018 14.8176L40.2036 19.331L37.8191 12.0074L44.206 7.4088H36.2863L33.9018 0Z" fill="#FFDC0F"/>
<path fill-rule="evenodd" clip-rule="evenodd" d="M10.3042 0L7.83459 7.4088H0L6.3869 12.0074L3.9173 19.331L10.3042 14.8176L16.6059 19.331L14.2215 12.0074L20.6084 7.4088H12.6886L10.3042 0Z" fill="#FFDC0F"/>
</svg>
