<svg width="118" height="118" viewBox="0 0 118 118" fill="none" xmlns="http://www.w3.org/2000/svg">
<path fill-rule="evenodd" clip-rule="evenodd" d="M58.8 0C91.3 0 117.6 26.3 117.6 58.8C114.5 136.8 3.1 136.8 0 58.8C0 26.3 26.4 0 58.8 0ZM59.3 22C10.5 23.9 10.4 93.7 59.3 95.7C79.6 95.7 96.1 79.2 96.1 58.9C96.1 38.6 79.6 22 59.3 22Z" fill="url(#paint0_radial_444_311)"/>
<path fill-rule="evenodd" clip-rule="evenodd" d="M96.0996 58.7999C96.0996 79.0999 79.5996 95.5999 59.2996 95.5999C10.3996 93.6999 10.4996 23.8999 59.2996 21.8999C79.5996 21.9999 96.0996 38.4999 96.0996 58.7999Z" fill="url(#paint1_radial_444_311)"/>
<path fill-rule="evenodd" clip-rule="evenodd" d="M97.8996 45.2997L101.7 44.0997C101.9 45.5997 102.9 47.3997 104.1 48.0997C105.6 49.0997 108.5 48.1997 109 46.3997C109.8 44.8997 108.2 40.8997 107.6 39.6997L97.0996 42.9997L97.8996 45.2997ZM106.8 42.4997C107.4 43.5997 107.7 45.3997 106.2 45.8997C104.8 46.3997 103.8 44.8997 103.6 43.4997L106.8 42.4997Z" fill="white"/>
<path fill-rule="evenodd" clip-rule="evenodd" d="M93.0002 35.9C94.8002 38.6 97.9002 39.2 101 37.2C107.4 33 101.3 24 94.9002 28.4C92.2002 30.1 91.2002 33.1 93.0002 35.9ZM96.3002 30.5C98.1002 29.3 100 29.2 101 30.7C103.1 33.7 96.6002 37.9 94.7002 34.9C93.8002 33.4 94.5002 31.7 96.3002 30.5Z" fill="white"/>
<path fill-rule="evenodd" clip-rule="evenodd" d="M83.1002 25.3L86.1002 21.6L89.3002 24.3L86.4002 27.9L88.3002 29.5L95.3002 20.8L93.4002 19.2L90.7002 22.6L87.5002 19.9L90.2002 16.6L88.2002 15L81.2002 23.7L83.1002 25.3Z" fill="white"/>
<path fill-rule="evenodd" clip-rule="evenodd" d="M74.5994 20.6997C77.3994 21.8997 79.3994 20.9997 80.0994 19.2997C80.6994 17.7997 80.2994 16.4997 78.7994 15.0997C77.6994 13.9997 77.2994 13.4997 77.4994 12.7997C77.6994 12.2997 78.3994 11.9997 79.3994 12.3997C80.3994 12.7997 80.9994 13.3997 81.2994 13.7997L82.5994 12.1997C80.6994 9.99972 76.2994 8.89972 74.9994 11.9997C74.3994 13.4997 75.0994 14.8997 76.4994 16.2997C77.5994 17.2997 77.8994 17.7997 77.5994 18.4997C76.7994 20.1997 73.7994 18.0997 73.1994 17.1997L71.8994 18.8997C72.2994 19.3997 73.3994 20.1997 74.5994 20.6997Z" fill="white"/>
<path fill-rule="evenodd" clip-rule="evenodd" d="M63.0994 7.49988C61.5994 5.99988 57.3994 6.09988 55.0994 6.39988L54.8994 17.3999C57.1994 17.7999 61.2994 17.7999 62.9994 16.2999C65.2994 14.4999 65.6994 9.29988 63.0994 7.49988ZM58.2994 15.5999C57.9994 15.5999 57.5994 15.5999 57.3994 15.4999L57.4994 8.19988C59.9994 7.79988 62.2994 8.79988 62.0994 11.6999C62.1994 14.3999 60.5994 15.6999 58.2994 15.5999Z" fill="white"/>
<path fill-rule="evenodd" clip-rule="evenodd" d="M52.2 17.8L51.6 15.8L47.2 17L46.5 14.4L50.5 13.4L50 11.4L46 12.4L45.4 10.2L49.7 9.1L49.1 7L42.5 8.8L45.3 19.6L52.2 17.8Z" fill="white"/>
<path fill-rule="evenodd" clip-rule="evenodd" d="M33.7 15.1001L38 23.1001L40.2 21.8001L35.9 13.9001L38.6 12.4001L37.6 10.6001L30 14.7001L31 16.5001L33.7 15.1001Z" fill="white"/>
<path fill-rule="evenodd" clip-rule="evenodd" d="M27.2996 25.3001C28.5996 24.7001 29.2996 24.7001 29.7996 25.2001C31.0996 26.6001 27.8996 28.5001 26.7996 28.7001L27.7996 30.6001C28.4996 30.4001 29.6996 29.8001 30.5996 29.0001C32.8996 26.9001 32.8996 24.8001 31.5996 23.4001C30.4996 22.3001 29.1996 22.1001 27.1996 22.9001C25.6996 23.5001 25.0996 23.7001 24.5996 23.1001C23.4996 21.9001 26.2996 20.2001 27.0996 20.0001L26.0996 18.1001C23.2996 18.9001 20.4996 22.5001 22.7996 24.9001C23.8996 26.1001 25.4996 26.0001 27.2996 25.3001Z" fill="white"/>
<path fill-rule="evenodd" clip-rule="evenodd" d="M23.9 37C25.4 34.5 25 32.2 22.1 30.3L16.8 27L15.5 29.1L20.9 32.5C22.6 33.6 23 34.7 22.3 35.8C21.6 36.9 20.4 37 18.7 36L13.3 32.6L12 34.7L17.3 38C20.2 40 22.4 39.4 23.9 37Z" fill="white"/>
<path fill-rule="evenodd" clip-rule="evenodd" d="M18.8 48.6L14.6 47.4L14.8 46.7C15.1 45.7 15.6 45.4 17 45.4C18.4 45.5 19.3 45.4 19.7 45.4L20.4 42.9C19.9 43 18.4 42.9 17.1 42.9C16 42.9 15.2 43.1 14.7 43.8C14.6 41.7 12 40.2 10.1 41.5C8.6 42.4 7.8 46.4 7.5 48L18.1 51L18.8 48.6ZM13.1 45.9L12.8 46.9L9.9 46.1C10 45 10.6 43.1 12.1 43.6C13 43.8 13.4 44.7 13.1 45.9Z" fill="white"/>
<path fill-rule="evenodd" clip-rule="evenodd" d="M17.5998 56.4001L8.4998 56.2001L8.5998 53.1001H6.4998L6.2998 61.7001H8.3998L8.4998 58.7001L17.4998 58.9001L17.5998 56.4001Z" fill="white"/>
<path fill-rule="evenodd" clip-rule="evenodd" d="M20 87.2998L21.1 89.1998L18.4 90.8998C16 88.9998 15.5 85.4998 18.7 83.5998C21.9 81.4998 25.1 83.9998 25.5 87.2998L26.6 86.9998C25.8 82.7998 21.6 79.8998 17.7 82.3998C13.2 85.1998 15 89.9998 18.3 92.4998L22.7 89.7998L20.8 86.7998L20 87.2998Z" fill="white"/>
<path fill-rule="evenodd" clip-rule="evenodd" d="M33.8995 92.9999L29.7995 97.8999C28.2995 99.6999 26.7995 99.8999 25.5995 98.8999C24.4995 97.9999 24.2995 96.4999 25.8995 94.6999L29.9995 89.7999L28.8995 88.8999L24.7995 93.6999C22.5995 96.2999 23.0995 98.2999 24.7995 99.7999C26.5995 101.3 28.7995 101.4 30.8995 98.7999L34.9995 93.9999L33.8995 92.9999Z" fill="white"/>
<path fill-rule="evenodd" clip-rule="evenodd" d="M31.7998 104.7L33.0998 105.3L35.4998 102.6L38.9998 104.2L38.5998 107.8L39.8998 108.4L40.9998 96.9998L39.4998 96.2998L31.7998 104.7ZM39.8998 97.8998C39.5998 99.0998 39.3998 101.9 39.2998 103.2L36.2998 101.9C37.1998 100.8 39.0998 98.8998 39.8998 97.8998Z" fill="white"/>
<path fill-rule="evenodd" clip-rule="evenodd" d="M49.5002 99.5998C48.5002 99.3998 47.6002 99.2998 46.8002 99.2998L44.7002 109.8L46.1002 110.1L47.0002 105.5L48.3002 105.7C49.5002 106 50.0002 106.7 50.0002 108.2C50.0002 109.6 50.1002 110.5 50.2002 110.9L51.6002 111.2C51.4002 110.8 51.4002 109.7 51.4002 108.1C51.4002 107 51.0002 106.1 50.3002 105.6C52.4002 105.4 53.7002 102.8 52.4002 101.1C51.8002 100.3 50.9002 99.7998 49.5002 99.5998ZM51.4002 103.1C51.2002 104.3 50.1002 104.9 48.6002 104.6L47.2002 104.3L48.0002 100.4C49.5002 100.5 51.9002 101.1 51.4002 103.1Z" fill="white"/>
<path fill-rule="evenodd" clip-rule="evenodd" d="M59.1 100.6L55.5 111.5H57L58.1 108.1H61.9L63.1 111.5H64.6L60.8 100.7L59.1 100.6ZM58.3 107C58.7 105.7 59.6 103.2 59.8 101.9C60.1 103.1 61.1 105.7 61.5 107H58.3Z" fill="white"/>
<path fill-rule="evenodd" clip-rule="evenodd" d="M73.2998 98.4997C73.9998 101 74.7998 104.9 75.6998 107.2C74.1998 105.3 70.0998 101.6 68.2998 99.7997L66.7998 100.2L69.4998 110.7L70.7998 110.4C70.1998 108 69.0998 103.8 68.3998 101.6C69.9998 103.6 74.0998 107.2 75.9998 109.1L77.3998 108.7L74.6998 98.1997L73.2998 98.4997Z" fill="white"/>
<path fill-rule="evenodd" clip-rule="evenodd" d="M83.8998 94.6997L83.2998 93.6997L76.2998 97.4997L76.8998 98.5997L79.6998 96.9997L84.3998 105.5L85.5998 104.8L80.9998 96.2997L83.8998 94.6997Z" fill="white"/>
<path fill-rule="evenodd" clip-rule="evenodd" d="M92.3002 98.7L89.7002 95.8L92.8002 93L92.0002 92.1L88.9002 94.9L86.6002 92.4L89.8002 89.4L89.1002 88.5L84.7002 92.5L92.1002 100.5L96.6002 96.4L95.8002 95.5L92.3002 98.7Z" fill="white"/>
<path fill-rule="evenodd" clip-rule="evenodd" d="M99.5998 90.5001L96.2998 88.4001L98.5998 84.9001L97.5998 84.3001L95.3998 87.8001L92.4998 85.9001L94.8998 82.2001L93.8998 81.6001L90.7998 86.5001L99.8998 92.4001L103.1 87.3001L102.2 86.6001L99.5998 90.5001Z" fill="white"/>
<path fill-rule="evenodd" clip-rule="evenodd" d="M111.5 56.4997C111.4 53.8997 109.8 52.2997 107.9 52.4997C106.3 52.5997 105.3 53.8997 104.7 55.6997C104.3 57.0997 103.9 57.5997 103.2 57.5997C101.3 57.6997 101.9 53.9997 102.4 52.9997L100.3 52.5997C99.9999 53.1997 99.6999 54.4997 99.7999 55.7997C99.9999 58.7997 101.6 60.1997 103.5 60.0997C105.1 59.9997 106 58.9997 106.7 57.0997C107.2 55.5997 107.5 54.9997 108.2 54.9997C109.9 54.9997 109.4 58.1997 109 58.8997L111.1 59.3997C111.3 58.6997 111.5 57.7997 111.5 56.4997Z" fill="white"/>
<path fill-rule="evenodd" clip-rule="evenodd" d="M15.1996 71.7999C15.0996 74.4999 11.1996 74.4999 11.0996 71.7999C11.0996 69.0999 15.0996 69.0999 15.1996 71.7999Z" fill="#F7E19E"/>
<path fill-rule="evenodd" clip-rule="evenodd" d="M106.5 71.7999C106.4 74.4999 102.5 74.4999 102.4 71.7999C102.4 69.0999 106.4 69.0999 106.5 71.7999Z" fill="#F1CB53"/>
<path fill-rule="evenodd" clip-rule="evenodd" d="M66.1996 34.5C72.4996 34.5 76.8996 37.5 77.7996 42.4C78.2996 45 77.6996 47.3 76.8996 49.1L76.7996 49.4C76.7996 49.5 76.6996 49.6 76.6996 49.6L76.5996 49.8C76.4996 50 76.3996 50.2 76.2996 50.4L76.1996 50.6L76.0996 50.8L75.9996 51C75.9996 51 75.9996 51.1 75.8996 51.1L75.7996 51.3L75.6996 51.5L75.5996 51.7C75.5996 51.7 75.5996 51.8 75.4996 51.8L75.3996 52L75.1996 52.2C75.1996 52.2 75.1996 52.2 75.0996 52.3L74.8996 52.5L74.7996 52.7C72.3996 55.3 68.6996 57.6 63.2996 59.7L62.6996 59.9C59.0996 61.2 55.4996 62.2 51.7996 63L50.6996 63.3L49.5996 63.6L47.8996 64C47.4996 72.7 49.7996 77.2 54.6996 77.8C55.0996 77.8 55.5996 77.9 55.9996 77.9C58.7996 77.9 61.0996 76.8 62.9996 75.5L63.2996 75.3V74.9L63.5996 74.7L63.8996 74.5L64.2996 74.2C66.7996 72.3 68.6996 70 70.2996 67.7L70.8996 66.9L73.5996 69.2L73.3996 69.4L72.9996 69.9C72.7996 70.2 72.5996 70.4 72.4996 70.7L72.0996 71.2C69.7996 74.4 67.4996 77 64.2996 79L63.9996 79.2L63.8996 79.3L63.5996 79.5C63.3996 79.6 63.0996 79.8 62.7996 79.9L62.4996 80.1L62.1996 80.3C59.5996 81.6 56.0996 82.9 52.0996 82.9C51.0996 82.9 50.1996 82.8 49.1996 82.7C41.8996 81.6 37.6996 76.3 37.5996 67.7V67.4C37.4996 59.5 39.9996 52.2 44.8996 45.8L45.0996 45.5C50.5996 38.5 57.1996 34.8 65.2996 34.5C65.6996 34.5 65.8996 34.5 66.1996 34.5ZM63.5996 38.3C63.2996 38.3 62.8996 38.3 62.5996 38.4H62.3996C58.9996 39 56.4996 41.2 54.4996 43.9L54.2996 44.2C54.2996 44.3 54.1996 44.3 54.1996 44.4L53.9996 44.7L53.7996 45L53.5996 45.3L53.3996 45.6L53.1996 45.9L52.9996 46.2L52.7996 46.5C50.4996 50.2 48.9996 54.5 48.1996 59.6C53.2996 58.7 57.8996 56.9 61.4996 54.6C66.4996 51.3 68.9996 47.4 68.7996 43C68.3996 40.3 66.3996 38.3 63.5996 38.3Z" fill="#006DAD"/>
<path fill-rule="evenodd" clip-rule="evenodd" d="M38.9 67.9999C38.8 59.9999 41.3 52.3999 46.3 45.8999C51.8 38.8999 58.8 35.3999 66.9 35.0999C67.2 35.0999 67.5 35.0999 67.8 35.0999C69.5 35.0999 71 35.2999 72.4 35.6999C70.6 34.8999 68.5 34.3999 66.1 34.3999C65.8 34.3999 65.5 34.3999 65.2 34.3999C57.1 34.7999 50.5 38.3999 45 45.3999C39.9 51.8999 37.4 59.2999 37.5 67.2999C37.6 75.0999 40.9 80.1999 46.8 81.9999C42 79.8999 39 74.9999 38.9 67.9999Z" fill="#044D73"/>
<path fill-rule="evenodd" clip-rule="evenodd" d="M57.3 78.3C60.9 78.3 63.2 76.3 65.3 74.7C67.9 72.7 70.2 70.2 71.9 67.9L70.8 67L70.6 67.3C68.9 69.7 66.8 72.2 64.1 74.3C62 75.9 59.2 77.7 55.6 77.7C55.2 77.7 54.7 77.7 54.3 77.6C54 77.6 53.7 77.5 53.5 77.4C54.3 77.8 55.1 78.1 56 78.2C56.5 78.2 56.9 78.3 57.3 78.3Z" fill="#044D73"/>
<path fill-rule="evenodd" clip-rule="evenodd" d="M68.5998 43.2C68.7998 47.6 66.3998 51.4 61.2998 54.8C58.0998 56.9 54.1998 58.5 49.8998 59.4C49.7998 59.8 49.8998 59.6 49.7998 59.9C54.8998 59 59.3998 57.8 63.0998 55.4C68.0998 52.1 70.5998 48.2 70.3998 43.8C70.2998 41.2 68.6998 39.4 66.3998 39C67.5998 39.9 68.4998 41.3 68.5998 43.2Z" fill="#044D73"/>
<defs>
<radialGradient id="paint0_radial_444_311" cx="0" cy="0" r="1" gradientUnits="userSpaceOnUse" gradientTransform="translate(33.7728 32.377) scale(80.1357 80.1356)">
<stop stop-color="#9B9C9E"/>
<stop offset="0.3207" stop-color="#656667"/>
<stop offset="0.7848" stop-color="#1D1D1D"/>
<stop offset="1"/>
</radialGradient>
<radialGradient id="paint1_radial_444_311" cx="0" cy="0" r="1" gradientUnits="userSpaceOnUse" gradientTransform="translate(40.5276 35.4578) rotate(49.888) scale(66.1107 66.1107)">
<stop stop-color="#FFFEFC"/>
<stop offset="0.2422" stop-color="#FFFDF7"/>
<stop offset="1" stop-color="#F1CB54"/>
</radialGradient>
</defs>
</svg>
